G04 #@! TF.FileFunction,Paste,Bot*
%FSLAX46Y46*%
G04 Gerber Fmt 4.6, Leading zero omitted, Abs format (unit mm)*
G04 Created by KiCad (PCBNEW 4.0.2+dfsg1-stable) date Thu 23 Jun 2016 09:12:49 CEST*
%MOMM*%
G01*
G04 APERTURE LIST*
%ADD10C,0.100000*%
%ADD11R,1.250000X1.500000*%
%ADD12R,1.500000X1.250000*%
%ADD13R,0.800100X1.800860*%
%ADD14R,1.300000X1.500000*%
%ADD15R,0.600000X1.950000*%
G04 APERTURE END LIST*
D10*
D11*
X194500000Y-104250000D03*
X194500000Y-101750000D03*
D12*
X227150000Y-103300000D03*
X224650000Y-103300000D03*
D13*
X173450000Y-88501140D03*
X171550000Y-88501140D03*
X172500000Y-85498860D03*
X181450000Y-88501140D03*
X179550000Y-88501140D03*
X180500000Y-85498860D03*
X188950000Y-88501140D03*
X187050000Y-88501140D03*
X188000000Y-85498860D03*
X196450000Y-88501140D03*
X194550000Y-88501140D03*
X195500000Y-85498860D03*
X171600000Y-117500000D03*
X173500000Y-117500000D03*
X172550000Y-120502280D03*
X179100000Y-117500000D03*
X181000000Y-117500000D03*
X180050000Y-120502280D03*
X187000000Y-117500000D03*
X188900000Y-117500000D03*
X187950000Y-120502280D03*
X194600000Y-117500000D03*
X196500000Y-117500000D03*
X195550000Y-120502280D03*
D14*
X198000000Y-123200000D03*
X198000000Y-120500000D03*
X190500000Y-123200000D03*
X190500000Y-120500000D03*
X231500000Y-101750000D03*
X231500000Y-99050000D03*
X183000000Y-123200000D03*
X183000000Y-120500000D03*
X175000000Y-123200000D03*
X175000000Y-120500000D03*
X199100000Y-82850000D03*
X199100000Y-85550000D03*
X190600000Y-82850000D03*
X190600000Y-85550000D03*
X183200000Y-82850000D03*
X183200000Y-85550000D03*
X175100000Y-82850000D03*
X175100000Y-85550000D03*
D15*
X190270000Y-107700000D03*
X189000000Y-107700000D03*
X187730000Y-107700000D03*
X186460000Y-107700000D03*
X185190000Y-107700000D03*
X183920000Y-107700000D03*
X182650000Y-107700000D03*
X181380000Y-107700000D03*
X180110000Y-107700000D03*
X178840000Y-107700000D03*
X178840000Y-98300000D03*
X180110000Y-98300000D03*
X181380000Y-98300000D03*
X182650000Y-98300000D03*
X183920000Y-98300000D03*
X185190000Y-98300000D03*
X186460000Y-98300000D03*
X187730000Y-98300000D03*
X189000000Y-98300000D03*
X190270000Y-98300000D03*
M02*
