G04 #@! TF.FileFunction,Copper,L2,Bot,Signal*
%FSLAX46Y46*%
G04 Gerber Fmt 4.6, Leading zero omitted, Abs format (unit mm)*
G04 Created by KiCad (PCBNEW 4.0.2+dfsg1-stable) date Thu 23 Jun 2016 09:12:49 CEST*
%MOMM*%
G01*
G04 APERTURE LIST*
%ADD10C,0.100000*%
%ADD11C,0.300000*%
%ADD12C,1.600000*%
%ADD13C,2.500000*%
%ADD14R,1.250000X1.500000*%
%ADD15R,1.500000X1.250000*%
%ADD16R,1.727200X1.727200*%
%ADD17O,1.727200X1.727200*%
%ADD18R,0.800100X1.800860*%
%ADD19R,1.300000X1.500000*%
%ADD20R,0.600000X1.950000*%
%ADD21O,1.500000X2.500000*%
%ADD22C,0.800000*%
%ADD23C,0.500000*%
%ADD24C,0.350000*%
G04 APERTURE END LIST*
D10*
D11*
X159535714Y-96142858D02*
X159607143Y-96071429D01*
X159678571Y-95857143D01*
X159678571Y-95714286D01*
X159607143Y-95500001D01*
X159464286Y-95357143D01*
X159321429Y-95285715D01*
X159035714Y-95214286D01*
X158821429Y-95214286D01*
X158535714Y-95285715D01*
X158392857Y-95357143D01*
X158250000Y-95500001D01*
X158178571Y-95714286D01*
X158178571Y-95857143D01*
X158250000Y-96071429D01*
X158321429Y-96142858D01*
X159678571Y-97000001D02*
X159607143Y-96857143D01*
X159535714Y-96785715D01*
X159392857Y-96714286D01*
X158964286Y-96714286D01*
X158821429Y-96785715D01*
X158750000Y-96857143D01*
X158678571Y-97000001D01*
X158678571Y-97214286D01*
X158750000Y-97357143D01*
X158821429Y-97428572D01*
X158964286Y-97500001D01*
X159392857Y-97500001D01*
X159535714Y-97428572D01*
X159607143Y-97357143D01*
X159678571Y-97214286D01*
X159678571Y-97000001D01*
X159607143Y-98071429D02*
X159678571Y-98285715D01*
X159678571Y-98642858D01*
X159607143Y-98785715D01*
X159535714Y-98857144D01*
X159392857Y-98928572D01*
X159250000Y-98928572D01*
X159107143Y-98857144D01*
X159035714Y-98785715D01*
X158964286Y-98642858D01*
X158892857Y-98357144D01*
X158821429Y-98214286D01*
X158750000Y-98142858D01*
X158607143Y-98071429D01*
X158464286Y-98071429D01*
X158321429Y-98142858D01*
X158250000Y-98214286D01*
X158178571Y-98357144D01*
X158178571Y-98714286D01*
X158250000Y-98928572D01*
X159678571Y-99571429D02*
X158678571Y-99571429D01*
X158178571Y-99571429D02*
X158250000Y-99500000D01*
X158321429Y-99571429D01*
X158250000Y-99642857D01*
X158178571Y-99571429D01*
X158321429Y-99571429D01*
X158678571Y-100285715D02*
X159678571Y-100285715D01*
X158821429Y-100285715D02*
X158750000Y-100357143D01*
X158678571Y-100500001D01*
X158678571Y-100714286D01*
X158750000Y-100857143D01*
X158892857Y-100928572D01*
X159678571Y-100928572D01*
X158321429Y-102714286D02*
X158250000Y-102785715D01*
X158178571Y-102928572D01*
X158178571Y-103285715D01*
X158250000Y-103428572D01*
X158321429Y-103500001D01*
X158464286Y-103571429D01*
X158607143Y-103571429D01*
X158821429Y-103500001D01*
X159678571Y-102642858D01*
X159678571Y-103571429D01*
X158178571Y-104500000D02*
X158178571Y-104642857D01*
X158250000Y-104785714D01*
X158321429Y-104857143D01*
X158464286Y-104928572D01*
X158750000Y-105000000D01*
X159107143Y-105000000D01*
X159392857Y-104928572D01*
X159535714Y-104857143D01*
X159607143Y-104785714D01*
X159678571Y-104642857D01*
X159678571Y-104500000D01*
X159607143Y-104357143D01*
X159535714Y-104285714D01*
X159392857Y-104214286D01*
X159107143Y-104142857D01*
X158750000Y-104142857D01*
X158464286Y-104214286D01*
X158321429Y-104285714D01*
X158250000Y-104357143D01*
X158178571Y-104500000D01*
X159678571Y-106428571D02*
X159678571Y-105571428D01*
X159678571Y-106000000D02*
X158178571Y-106000000D01*
X158392857Y-105857143D01*
X158535714Y-105714285D01*
X158607143Y-105571428D01*
X158178571Y-107714285D02*
X158178571Y-107428571D01*
X158250000Y-107285714D01*
X158321429Y-107214285D01*
X158535714Y-107071428D01*
X158821429Y-106999999D01*
X159392857Y-106999999D01*
X159535714Y-107071428D01*
X159607143Y-107142856D01*
X159678571Y-107285714D01*
X159678571Y-107571428D01*
X159607143Y-107714285D01*
X159535714Y-107785714D01*
X159392857Y-107857142D01*
X159035714Y-107857142D01*
X158892857Y-107785714D01*
X158821429Y-107714285D01*
X158750000Y-107571428D01*
X158750000Y-107285714D01*
X158821429Y-107142856D01*
X158892857Y-107071428D01*
X159035714Y-106999999D01*
X159678571Y-109642856D02*
X158178571Y-109642856D01*
X159250000Y-110142856D01*
X158178571Y-110642856D01*
X159678571Y-110642856D01*
X159678571Y-111999999D02*
X158892857Y-111999999D01*
X158750000Y-111928570D01*
X158678571Y-111785713D01*
X158678571Y-111499999D01*
X158750000Y-111357142D01*
X159607143Y-111999999D02*
X159678571Y-111857142D01*
X159678571Y-111499999D01*
X159607143Y-111357142D01*
X159464286Y-111285713D01*
X159321429Y-111285713D01*
X159178571Y-111357142D01*
X159107143Y-111499999D01*
X159107143Y-111857142D01*
X159035714Y-111999999D01*
X158678571Y-112499999D02*
X158678571Y-113071428D01*
X158178571Y-112714285D02*
X159464286Y-112714285D01*
X159607143Y-112785713D01*
X159678571Y-112928571D01*
X159678571Y-113071428D01*
X159678571Y-113571428D02*
X158678571Y-113571428D01*
X158964286Y-113571428D02*
X158821429Y-113642856D01*
X158750000Y-113714285D01*
X158678571Y-113857142D01*
X158678571Y-113999999D01*
X159678571Y-114499999D02*
X158678571Y-114499999D01*
X158178571Y-114499999D02*
X158250000Y-114428570D01*
X158321429Y-114499999D01*
X158250000Y-114571427D01*
X158178571Y-114499999D01*
X158321429Y-114499999D01*
X159678571Y-115071428D02*
X158678571Y-115857142D01*
X158678571Y-115071428D02*
X159678571Y-115857142D01*
X158178571Y-117357142D02*
X158178571Y-118214285D01*
X159678571Y-117785714D02*
X158178571Y-117785714D01*
X159678571Y-119357142D02*
X158892857Y-119357142D01*
X158750000Y-119285713D01*
X158678571Y-119142856D01*
X158678571Y-118857142D01*
X158750000Y-118714285D01*
X159607143Y-119357142D02*
X159678571Y-119214285D01*
X159678571Y-118857142D01*
X159607143Y-118714285D01*
X159464286Y-118642856D01*
X159321429Y-118642856D01*
X159178571Y-118714285D01*
X159107143Y-118857142D01*
X159107143Y-119214285D01*
X159035714Y-119357142D01*
X158678571Y-120714285D02*
X159892857Y-120714285D01*
X160035714Y-120642856D01*
X160107143Y-120571428D01*
X160178571Y-120428571D01*
X160178571Y-120214285D01*
X160107143Y-120071428D01*
X159607143Y-120714285D02*
X159678571Y-120571428D01*
X159678571Y-120285714D01*
X159607143Y-120142856D01*
X159535714Y-120071428D01*
X159392857Y-119999999D01*
X158964286Y-119999999D01*
X158821429Y-120071428D01*
X158750000Y-120142856D01*
X158678571Y-120285714D01*
X158678571Y-120571428D01*
X158750000Y-120714285D01*
D12*
X223460000Y-91890000D03*
X228540000Y-91890000D03*
X223460000Y-99510000D03*
X228540000Y-99510000D03*
D13*
X226000000Y-129350000D03*
X226000000Y-109350000D03*
D14*
X194500000Y-104250000D03*
X194500000Y-101750000D03*
D15*
X227150000Y-103300000D03*
X224650000Y-103300000D03*
D16*
X223460000Y-81040000D03*
D17*
X223460000Y-78500000D03*
X226000000Y-81040000D03*
X226000000Y-78500000D03*
X228540000Y-81040000D03*
X228540000Y-78500000D03*
D18*
X173450000Y-88501140D03*
X171550000Y-88501140D03*
X172500000Y-85498860D03*
X181450000Y-88501140D03*
X179550000Y-88501140D03*
X180500000Y-85498860D03*
X188950000Y-88501140D03*
X187050000Y-88501140D03*
X188000000Y-85498860D03*
X196450000Y-88501140D03*
X194550000Y-88501140D03*
X195500000Y-85498860D03*
X171600000Y-117500000D03*
X173500000Y-117500000D03*
X172550000Y-120502280D03*
X179100000Y-117500000D03*
X181000000Y-117500000D03*
X180050000Y-120502280D03*
X187000000Y-117500000D03*
X188900000Y-117500000D03*
X187950000Y-120502280D03*
X194600000Y-117500000D03*
X196500000Y-117500000D03*
X195550000Y-120502280D03*
D19*
X198000000Y-123200000D03*
X198000000Y-120500000D03*
X190500000Y-123200000D03*
X190500000Y-120500000D03*
X231500000Y-101750000D03*
X231500000Y-99050000D03*
X183000000Y-123200000D03*
X183000000Y-120500000D03*
X175000000Y-123200000D03*
X175000000Y-120500000D03*
X199100000Y-82850000D03*
X199100000Y-85550000D03*
X190600000Y-82850000D03*
X190600000Y-85550000D03*
X183200000Y-82850000D03*
X183200000Y-85550000D03*
X175100000Y-82850000D03*
X175100000Y-85550000D03*
D20*
X190270000Y-107700000D03*
X189000000Y-107700000D03*
X187730000Y-107700000D03*
X186460000Y-107700000D03*
X185190000Y-107700000D03*
X183920000Y-107700000D03*
X182650000Y-107700000D03*
X181380000Y-107700000D03*
X180110000Y-107700000D03*
X178840000Y-107700000D03*
X178840000Y-98300000D03*
X180110000Y-98300000D03*
X181380000Y-98300000D03*
X182650000Y-98300000D03*
X183920000Y-98300000D03*
X185190000Y-98300000D03*
X186460000Y-98300000D03*
X187730000Y-98300000D03*
X189000000Y-98300000D03*
X190270000Y-98300000D03*
D21*
X170040000Y-125900000D03*
X172580000Y-125900000D03*
X175120000Y-125900000D03*
X177660000Y-125900000D03*
X180200000Y-125900000D03*
X182740000Y-125900000D03*
X185280000Y-125900000D03*
X187820000Y-125900000D03*
X190360000Y-125900000D03*
X192900000Y-125900000D03*
X195440000Y-125900000D03*
X197980000Y-125900000D03*
X170040000Y-80100000D03*
X172580000Y-80100000D03*
X175120000Y-80100000D03*
X177660000Y-80100000D03*
X180200000Y-80100000D03*
X182740000Y-80100000D03*
X185280000Y-80100000D03*
X187820000Y-80100000D03*
X190360000Y-80100000D03*
X192900000Y-80100000D03*
X195440000Y-80100000D03*
X197980000Y-80100000D03*
D22*
X223100000Y-103300000D03*
X171500000Y-90300000D03*
X179600000Y-90300000D03*
X187100000Y-90200000D03*
X194600000Y-90200000D03*
X196500000Y-115700000D03*
X188900000Y-115600000D03*
X181000000Y-115600000D03*
X173520000Y-115650000D03*
X177850000Y-110020000D03*
X194490000Y-105810000D03*
D23*
X234900000Y-95800000D02*
X234900000Y-77211735D01*
X234900000Y-77211735D02*
X233288265Y-75600000D01*
X233288265Y-75600000D02*
X224969016Y-75600000D01*
X224969016Y-75600000D02*
X223460000Y-77109016D01*
X223460000Y-77109016D02*
X223460000Y-78500000D01*
X234900000Y-100200000D02*
X233350000Y-101750000D01*
X233350000Y-101750000D02*
X231500000Y-101750000D01*
X234900000Y-95800000D02*
X234900000Y-100200000D01*
X200450000Y-95800000D02*
X234900000Y-95800000D01*
X194500000Y-101750000D02*
X200450000Y-95800000D01*
X226000000Y-129350000D02*
X231500000Y-123850000D01*
X231500000Y-123850000D02*
X231500000Y-101750000D01*
X191340000Y-101750000D02*
X190270000Y-100680000D01*
X190270000Y-100680000D02*
X190270000Y-98300000D01*
X194500000Y-101750000D02*
X191340000Y-101750000D01*
X224650000Y-103300000D02*
X223100000Y-103300000D01*
X171500000Y-88501140D02*
X171500000Y-90300000D01*
X179550000Y-88501140D02*
X179550000Y-90250000D01*
X179550000Y-90250000D02*
X179600000Y-90300000D01*
X187100000Y-88500000D02*
X187100000Y-90200000D01*
X194600000Y-88500000D02*
X194600000Y-90200000D01*
X196500000Y-117500000D02*
X196500000Y-115700000D01*
X188900000Y-117500000D02*
X188900000Y-115600000D01*
X181000000Y-117500000D02*
X181000000Y-115600000D01*
X173500000Y-117500000D02*
X173500000Y-115670000D01*
X173500000Y-115670000D02*
X173520000Y-115650000D01*
X178840000Y-107700000D02*
X178840000Y-109030000D01*
X178840000Y-109030000D02*
X177850000Y-110020000D01*
X194500000Y-104250000D02*
X194500000Y-105800000D01*
X194500000Y-105800000D02*
X194490000Y-105810000D01*
D24*
X227150000Y-103300000D02*
X228540000Y-101910000D01*
X228540000Y-101910000D02*
X228540000Y-99510000D01*
X231500000Y-99050000D02*
X229000000Y-99050000D01*
X229000000Y-99050000D02*
X228540000Y-99510000D01*
X228050000Y-99050000D02*
X228000000Y-99100000D01*
X223200000Y-107700000D02*
X227150000Y-103750000D01*
X227150000Y-103750000D02*
X227150000Y-103300000D01*
X190270000Y-107700000D02*
X223200000Y-107700000D01*
X228540000Y-81040000D02*
X228540000Y-91760000D01*
X172580000Y-125900000D02*
X172580000Y-120532280D01*
X172580000Y-120532280D02*
X172550000Y-120502280D01*
X175120000Y-125900000D02*
X175120000Y-123320000D01*
X175120000Y-123320000D02*
X175000000Y-123200000D01*
X180200000Y-125900000D02*
X180200000Y-120652280D01*
X180200000Y-120652280D02*
X180050000Y-120502280D01*
X182740000Y-125900000D02*
X182740000Y-123460000D01*
X182740000Y-123460000D02*
X183000000Y-123200000D01*
X187820000Y-125900000D02*
X187820000Y-120632280D01*
X187820000Y-120632280D02*
X187950000Y-120502280D01*
X190360000Y-125900000D02*
X190360000Y-123340000D01*
X190360000Y-123340000D02*
X190500000Y-123200000D01*
X195440000Y-125900000D02*
X195440000Y-120612280D01*
X195440000Y-120612280D02*
X195550000Y-120502280D01*
X197980000Y-125900000D02*
X197980000Y-123220000D01*
X197980000Y-123220000D02*
X198000000Y-123200000D01*
X199100000Y-82850000D02*
X197980000Y-81730000D01*
X197980000Y-81730000D02*
X197980000Y-80100000D01*
X195440000Y-80100000D02*
X195440000Y-85387720D01*
X195440000Y-85387720D02*
X195550000Y-85497720D01*
X190600000Y-82850000D02*
X190360000Y-82610000D01*
X190360000Y-82610000D02*
X190360000Y-80100000D01*
X187000000Y-117500000D02*
X187000000Y-114505134D01*
X187000000Y-114505134D02*
X185190000Y-112695134D01*
X185190000Y-112695134D02*
X185190000Y-107700000D01*
X194600000Y-117500000D02*
X194600000Y-116017066D01*
X194600000Y-116017066D02*
X187730000Y-109147066D01*
X187730000Y-109147066D02*
X187730000Y-107700000D01*
X179100000Y-117500000D02*
X179100000Y-113540050D01*
X179100000Y-113540050D02*
X182650000Y-109990050D01*
X182650000Y-109990050D02*
X182650000Y-107700000D01*
X223713749Y-85907542D02*
X199457542Y-85907542D01*
X199457542Y-85907542D02*
X199100000Y-85550000D01*
X189000000Y-98300000D02*
X189000000Y-96700000D01*
X192800000Y-92900000D02*
X197400000Y-92900000D01*
X189000000Y-96700000D02*
X192800000Y-92900000D01*
X197400000Y-92900000D02*
X199100000Y-91200000D01*
X199100000Y-91200000D02*
X199100000Y-85550000D01*
X223713749Y-85907542D02*
X226000000Y-83621291D01*
X226000000Y-83621291D02*
X226000000Y-81040000D01*
X175000000Y-120500000D02*
X175000000Y-116323015D01*
X175000000Y-116323015D02*
X181380000Y-109943015D01*
X181380000Y-109943015D02*
X181380000Y-107700000D01*
X183000000Y-120500000D02*
X183000000Y-113759371D01*
X183000000Y-113759371D02*
X183920000Y-112839371D01*
X183920000Y-112839371D02*
X183920000Y-107700000D01*
X186460000Y-109144126D02*
X186460000Y-107700000D01*
X190500000Y-113184126D02*
X186460000Y-109144126D01*
X190500000Y-120500000D02*
X190500000Y-113184126D01*
X198000000Y-120500000D02*
X198000000Y-115187113D01*
X198000000Y-115187113D02*
X197107953Y-114295066D01*
X197107953Y-114295066D02*
X194175964Y-114295066D01*
X189000000Y-109119102D02*
X189000000Y-107700000D01*
X194175964Y-114295066D02*
X189000000Y-109119102D01*
X171600000Y-117500000D02*
X171600000Y-115600124D01*
X171600000Y-115600124D02*
X172905058Y-114295066D01*
X172905058Y-114295066D02*
X175710914Y-114295066D01*
X175710914Y-114295066D02*
X180110000Y-109895980D01*
X180110000Y-109895980D02*
X180110000Y-107700000D01*
X196450000Y-88501140D02*
X197100000Y-87851140D01*
X197100000Y-87851140D02*
X197100000Y-83872112D01*
X197100000Y-83872112D02*
X196700000Y-83472112D01*
X196700000Y-83472112D02*
X196700000Y-78300000D01*
X196700000Y-78300000D02*
X197866501Y-77133499D01*
X197866501Y-77133499D02*
X216254959Y-77133499D01*
X216254959Y-77133499D02*
X220161460Y-81040000D01*
X220161460Y-81040000D02*
X223460000Y-81040000D01*
X195500000Y-91900000D02*
X196450000Y-90950000D01*
X196450000Y-90950000D02*
X196450000Y-88501140D01*
X192300000Y-91900000D02*
X195500000Y-91900000D01*
X187730000Y-96470000D02*
X192300000Y-91900000D01*
X187730000Y-96470000D02*
X187730000Y-98300000D01*
X185190000Y-96410000D02*
X188950000Y-92650000D01*
X188950000Y-92650000D02*
X188950000Y-88501140D01*
X185190000Y-98300000D02*
X185190000Y-96410000D01*
X182650000Y-98300000D02*
X182650000Y-92057292D01*
X182650000Y-92057292D02*
X181450000Y-90857292D01*
X181450000Y-90857292D02*
X181450000Y-88501140D01*
X180110000Y-98300000D02*
X180131768Y-98278232D01*
X180131768Y-98278232D02*
X180131768Y-96280000D01*
X180131768Y-96280000D02*
X173450000Y-89598232D01*
X173450000Y-89598232D02*
X173450000Y-88501140D01*
X188000000Y-85498860D02*
X187820000Y-85318860D01*
X187820000Y-85318860D02*
X187820000Y-80100000D01*
X183200000Y-82850000D02*
X182740000Y-82390000D01*
X182740000Y-82390000D02*
X182740000Y-80100000D01*
X180500000Y-85498860D02*
X180200000Y-85198860D01*
X180200000Y-85198860D02*
X180200000Y-80100000D01*
X175100000Y-82850000D02*
X175100000Y-80120000D01*
X175100000Y-80120000D02*
X175120000Y-80100000D01*
X172580000Y-80100000D02*
X172580000Y-85368860D01*
X172580000Y-85368860D02*
X172450000Y-85498860D01*
X183920000Y-98300000D02*
X183920000Y-91520000D01*
X183200000Y-90800000D02*
X183200000Y-85550000D01*
X183920000Y-91520000D02*
X183200000Y-90800000D01*
X181380000Y-96180000D02*
X175100000Y-89900000D01*
X175100000Y-89900000D02*
X175100000Y-85550000D01*
X181380000Y-98300000D02*
X181380000Y-96180000D01*
X190600000Y-85550000D02*
X192049442Y-85550000D01*
X224700586Y-79799414D02*
X226000000Y-78500000D01*
X192049442Y-85550000D02*
X194200000Y-83399442D01*
X194200000Y-83399442D02*
X194200000Y-78253678D01*
X194200000Y-78253678D02*
X196960918Y-75492760D01*
X196960918Y-75492760D02*
X216922760Y-75492760D01*
X216922760Y-75492760D02*
X221229414Y-79799414D01*
X221229414Y-79799414D02*
X224700586Y-79799414D01*
X186460000Y-96440000D02*
X190600000Y-92300000D01*
X190600000Y-92300000D02*
X190600000Y-85550000D01*
X186460000Y-98300000D02*
X186460000Y-96440000D01*
M02*
