G04 #@! TF.FileFunction,Legend,Bot*
%FSLAX46Y46*%
G04 Gerber Fmt 4.6, Leading zero omitted, Abs format (unit mm)*
G04 Created by KiCad (PCBNEW 4.0.2+dfsg1-stable) date Thu 23 Jun 2016 09:12:49 CEST*
%MOMM*%
G01*
G04 APERTURE LIST*
%ADD10C,0.100000*%
%ADD11C,0.150000*%
%ADD12C,2.000000*%
%ADD13C,2.900000*%
%ADD14R,1.650000X1.900000*%
%ADD15R,1.900000X1.650000*%
%ADD16R,2.127200X2.127200*%
%ADD17O,2.127200X2.127200*%
%ADD18R,1.200100X2.200860*%
%ADD19R,1.700000X1.900000*%
%ADD20R,1.000000X2.350000*%
%ADD21O,1.900000X2.900000*%
G04 APERTURE END LIST*
D10*
D11*
X195350000Y-102500000D02*
X195350000Y-103500000D01*
X193650000Y-103500000D02*
X193650000Y-102500000D01*
X225400000Y-102450000D02*
X226400000Y-102450000D01*
X226400000Y-104150000D02*
X225400000Y-104150000D01*
X173999820Y-87050800D02*
X173999820Y-86349760D01*
X173999820Y-86349760D02*
X173750900Y-86349760D01*
X171200840Y-86349760D02*
X171000180Y-86349760D01*
X171000180Y-86349760D02*
X171000180Y-87050800D01*
X181999820Y-87050800D02*
X181999820Y-86349760D01*
X181999820Y-86349760D02*
X181750900Y-86349760D01*
X179200840Y-86349760D02*
X179000180Y-86349760D01*
X179000180Y-86349760D02*
X179000180Y-87050800D01*
X189499820Y-87050800D02*
X189499820Y-86349760D01*
X189499820Y-86349760D02*
X189250900Y-86349760D01*
X186700840Y-86349760D02*
X186500180Y-86349760D01*
X186500180Y-86349760D02*
X186500180Y-87050800D01*
X196999820Y-87050800D02*
X196999820Y-86349760D01*
X196999820Y-86349760D02*
X196750900Y-86349760D01*
X194200840Y-86349760D02*
X194000180Y-86349760D01*
X194000180Y-86349760D02*
X194000180Y-87050800D01*
X171050180Y-118950340D02*
X171050180Y-119651380D01*
X171050180Y-119651380D02*
X171299100Y-119651380D01*
X173849160Y-119651380D02*
X174049820Y-119651380D01*
X174049820Y-119651380D02*
X174049820Y-118950340D01*
X178550180Y-118950340D02*
X178550180Y-119651380D01*
X178550180Y-119651380D02*
X178799100Y-119651380D01*
X181349160Y-119651380D02*
X181549820Y-119651380D01*
X181549820Y-119651380D02*
X181549820Y-118950340D01*
X186450180Y-118950340D02*
X186450180Y-119651380D01*
X186450180Y-119651380D02*
X186699100Y-119651380D01*
X189249160Y-119651380D02*
X189449820Y-119651380D01*
X189449820Y-119651380D02*
X189449820Y-118950340D01*
X194050180Y-118950340D02*
X194050180Y-119651380D01*
X194050180Y-119651380D02*
X194299100Y-119651380D01*
X196849160Y-119651380D02*
X197049820Y-119651380D01*
X197049820Y-119651380D02*
X197049820Y-118950340D01*
X197125000Y-121250000D02*
X197125000Y-122450000D01*
X198875000Y-122450000D02*
X198875000Y-121250000D01*
X189625000Y-121250000D02*
X189625000Y-122450000D01*
X191375000Y-122450000D02*
X191375000Y-121250000D01*
X230625000Y-99800000D02*
X230625000Y-101000000D01*
X232375000Y-101000000D02*
X232375000Y-99800000D01*
X182125000Y-121250000D02*
X182125000Y-122450000D01*
X183875000Y-122450000D02*
X183875000Y-121250000D01*
X174125000Y-121250000D02*
X174125000Y-122450000D01*
X175875000Y-122450000D02*
X175875000Y-121250000D01*
X199975000Y-84800000D02*
X199975000Y-83600000D01*
X198225000Y-83600000D02*
X198225000Y-84800000D01*
X191475000Y-84800000D02*
X191475000Y-83600000D01*
X189725000Y-83600000D02*
X189725000Y-84800000D01*
X184075000Y-84800000D02*
X184075000Y-83600000D01*
X182325000Y-83600000D02*
X182325000Y-84800000D01*
X175975000Y-84800000D02*
X175975000Y-83600000D01*
X174225000Y-83600000D02*
X174225000Y-84800000D01*
X191130000Y-106875000D02*
X190795000Y-106875000D01*
X191130000Y-99125000D02*
X190795000Y-99125000D01*
X177980000Y-99125000D02*
X178315000Y-99125000D01*
X177980000Y-106875000D02*
X178315000Y-106875000D01*
X191130000Y-106875000D02*
X191130000Y-99125000D01*
X177980000Y-106875000D02*
X177980000Y-99125000D01*
X190795000Y-106875000D02*
X190795000Y-108675000D01*
X196957143Y-102833334D02*
X197004762Y-102785715D01*
X197052381Y-102642858D01*
X197052381Y-102547620D01*
X197004762Y-102404762D01*
X196909524Y-102309524D01*
X196814286Y-102261905D01*
X196623810Y-102214286D01*
X196480952Y-102214286D01*
X196290476Y-102261905D01*
X196195238Y-102309524D01*
X196100000Y-102404762D01*
X196052381Y-102547620D01*
X196052381Y-102642858D01*
X196100000Y-102785715D01*
X196147619Y-102833334D01*
X197052381Y-103785715D02*
X197052381Y-103214286D01*
X197052381Y-103500000D02*
X196052381Y-103500000D01*
X196195238Y-103404762D01*
X196290476Y-103309524D01*
X196338095Y-103214286D01*
X229457143Y-103133334D02*
X229504762Y-103085715D01*
X229552381Y-102942858D01*
X229552381Y-102847620D01*
X229504762Y-102704762D01*
X229409524Y-102609524D01*
X229314286Y-102561905D01*
X229123810Y-102514286D01*
X228980952Y-102514286D01*
X228790476Y-102561905D01*
X228695238Y-102609524D01*
X228600000Y-102704762D01*
X228552381Y-102847620D01*
X228552381Y-102942858D01*
X228600000Y-103085715D01*
X228647619Y-103133334D01*
X228647619Y-103514286D02*
X228600000Y-103561905D01*
X228552381Y-103657143D01*
X228552381Y-103895239D01*
X228600000Y-103990477D01*
X228647619Y-104038096D01*
X228742857Y-104085715D01*
X228838095Y-104085715D01*
X228980952Y-104038096D01*
X229552381Y-103466667D01*
X229552381Y-104085715D01*
X175495238Y-89237619D02*
X175590476Y-89190000D01*
X175685714Y-89094762D01*
X175828571Y-88951905D01*
X175923810Y-88904286D01*
X176019048Y-88904286D01*
X175971429Y-89142381D02*
X176066667Y-89094762D01*
X176161905Y-88999524D01*
X176209524Y-88809048D01*
X176209524Y-88475714D01*
X176161905Y-88285238D01*
X176066667Y-88190000D01*
X175971429Y-88142381D01*
X175780952Y-88142381D01*
X175685714Y-88190000D01*
X175590476Y-88285238D01*
X175542857Y-88475714D01*
X175542857Y-88809048D01*
X175590476Y-88999524D01*
X175685714Y-89094762D01*
X175780952Y-89142381D01*
X175971429Y-89142381D01*
X174590476Y-89142381D02*
X175161905Y-89142381D01*
X174876191Y-89142381D02*
X174876191Y-88142381D01*
X174971429Y-88285238D01*
X175066667Y-88380476D01*
X175161905Y-88428095D01*
X183495238Y-89237619D02*
X183590476Y-89190000D01*
X183685714Y-89094762D01*
X183828571Y-88951905D01*
X183923810Y-88904286D01*
X184019048Y-88904286D01*
X183971429Y-89142381D02*
X184066667Y-89094762D01*
X184161905Y-88999524D01*
X184209524Y-88809048D01*
X184209524Y-88475714D01*
X184161905Y-88285238D01*
X184066667Y-88190000D01*
X183971429Y-88142381D01*
X183780952Y-88142381D01*
X183685714Y-88190000D01*
X183590476Y-88285238D01*
X183542857Y-88475714D01*
X183542857Y-88809048D01*
X183590476Y-88999524D01*
X183685714Y-89094762D01*
X183780952Y-89142381D01*
X183971429Y-89142381D01*
X183161905Y-88237619D02*
X183114286Y-88190000D01*
X183019048Y-88142381D01*
X182780952Y-88142381D01*
X182685714Y-88190000D01*
X182638095Y-88237619D01*
X182590476Y-88332857D01*
X182590476Y-88428095D01*
X182638095Y-88570952D01*
X183209524Y-89142381D01*
X182590476Y-89142381D01*
X190995238Y-89237619D02*
X191090476Y-89190000D01*
X191185714Y-89094762D01*
X191328571Y-88951905D01*
X191423810Y-88904286D01*
X191519048Y-88904286D01*
X191471429Y-89142381D02*
X191566667Y-89094762D01*
X191661905Y-88999524D01*
X191709524Y-88809048D01*
X191709524Y-88475714D01*
X191661905Y-88285238D01*
X191566667Y-88190000D01*
X191471429Y-88142381D01*
X191280952Y-88142381D01*
X191185714Y-88190000D01*
X191090476Y-88285238D01*
X191042857Y-88475714D01*
X191042857Y-88809048D01*
X191090476Y-88999524D01*
X191185714Y-89094762D01*
X191280952Y-89142381D01*
X191471429Y-89142381D01*
X190709524Y-88142381D02*
X190090476Y-88142381D01*
X190423810Y-88523333D01*
X190280952Y-88523333D01*
X190185714Y-88570952D01*
X190138095Y-88618571D01*
X190090476Y-88713810D01*
X190090476Y-88951905D01*
X190138095Y-89047143D01*
X190185714Y-89094762D01*
X190280952Y-89142381D01*
X190566667Y-89142381D01*
X190661905Y-89094762D01*
X190709524Y-89047143D01*
X198495238Y-89237619D02*
X198590476Y-89190000D01*
X198685714Y-89094762D01*
X198828571Y-88951905D01*
X198923810Y-88904286D01*
X199019048Y-88904286D01*
X198971429Y-89142381D02*
X199066667Y-89094762D01*
X199161905Y-88999524D01*
X199209524Y-88809048D01*
X199209524Y-88475714D01*
X199161905Y-88285238D01*
X199066667Y-88190000D01*
X198971429Y-88142381D01*
X198780952Y-88142381D01*
X198685714Y-88190000D01*
X198590476Y-88285238D01*
X198542857Y-88475714D01*
X198542857Y-88809048D01*
X198590476Y-88999524D01*
X198685714Y-89094762D01*
X198780952Y-89142381D01*
X198971429Y-89142381D01*
X197685714Y-88475714D02*
X197685714Y-89142381D01*
X197923810Y-88094762D02*
X198161905Y-88809048D01*
X197542857Y-88809048D01*
X169545238Y-118058759D02*
X169640476Y-118011140D01*
X169735714Y-117915902D01*
X169878571Y-117773045D01*
X169973810Y-117725426D01*
X170069048Y-117725426D01*
X170021429Y-117963521D02*
X170116667Y-117915902D01*
X170211905Y-117820664D01*
X170259524Y-117630188D01*
X170259524Y-117296854D01*
X170211905Y-117106378D01*
X170116667Y-117011140D01*
X170021429Y-116963521D01*
X169830952Y-116963521D01*
X169735714Y-117011140D01*
X169640476Y-117106378D01*
X169592857Y-117296854D01*
X169592857Y-117630188D01*
X169640476Y-117820664D01*
X169735714Y-117915902D01*
X169830952Y-117963521D01*
X170021429Y-117963521D01*
X168688095Y-116963521D02*
X169164286Y-116963521D01*
X169211905Y-117439711D01*
X169164286Y-117392092D01*
X169069048Y-117344473D01*
X168830952Y-117344473D01*
X168735714Y-117392092D01*
X168688095Y-117439711D01*
X168640476Y-117534950D01*
X168640476Y-117773045D01*
X168688095Y-117868283D01*
X168735714Y-117915902D01*
X168830952Y-117963521D01*
X169069048Y-117963521D01*
X169164286Y-117915902D01*
X169211905Y-117868283D01*
X177045238Y-118058759D02*
X177140476Y-118011140D01*
X177235714Y-117915902D01*
X177378571Y-117773045D01*
X177473810Y-117725426D01*
X177569048Y-117725426D01*
X177521429Y-117963521D02*
X177616667Y-117915902D01*
X177711905Y-117820664D01*
X177759524Y-117630188D01*
X177759524Y-117296854D01*
X177711905Y-117106378D01*
X177616667Y-117011140D01*
X177521429Y-116963521D01*
X177330952Y-116963521D01*
X177235714Y-117011140D01*
X177140476Y-117106378D01*
X177092857Y-117296854D01*
X177092857Y-117630188D01*
X177140476Y-117820664D01*
X177235714Y-117915902D01*
X177330952Y-117963521D01*
X177521429Y-117963521D01*
X176235714Y-116963521D02*
X176426191Y-116963521D01*
X176521429Y-117011140D01*
X176569048Y-117058759D01*
X176664286Y-117201616D01*
X176711905Y-117392092D01*
X176711905Y-117773045D01*
X176664286Y-117868283D01*
X176616667Y-117915902D01*
X176521429Y-117963521D01*
X176330952Y-117963521D01*
X176235714Y-117915902D01*
X176188095Y-117868283D01*
X176140476Y-117773045D01*
X176140476Y-117534950D01*
X176188095Y-117439711D01*
X176235714Y-117392092D01*
X176330952Y-117344473D01*
X176521429Y-117344473D01*
X176616667Y-117392092D01*
X176664286Y-117439711D01*
X176711905Y-117534950D01*
X184945238Y-118058759D02*
X185040476Y-118011140D01*
X185135714Y-117915902D01*
X185278571Y-117773045D01*
X185373810Y-117725426D01*
X185469048Y-117725426D01*
X185421429Y-117963521D02*
X185516667Y-117915902D01*
X185611905Y-117820664D01*
X185659524Y-117630188D01*
X185659524Y-117296854D01*
X185611905Y-117106378D01*
X185516667Y-117011140D01*
X185421429Y-116963521D01*
X185230952Y-116963521D01*
X185135714Y-117011140D01*
X185040476Y-117106378D01*
X184992857Y-117296854D01*
X184992857Y-117630188D01*
X185040476Y-117820664D01*
X185135714Y-117915902D01*
X185230952Y-117963521D01*
X185421429Y-117963521D01*
X184659524Y-116963521D02*
X183992857Y-116963521D01*
X184421429Y-117963521D01*
X192545238Y-118058759D02*
X192640476Y-118011140D01*
X192735714Y-117915902D01*
X192878571Y-117773045D01*
X192973810Y-117725426D01*
X193069048Y-117725426D01*
X193021429Y-117963521D02*
X193116667Y-117915902D01*
X193211905Y-117820664D01*
X193259524Y-117630188D01*
X193259524Y-117296854D01*
X193211905Y-117106378D01*
X193116667Y-117011140D01*
X193021429Y-116963521D01*
X192830952Y-116963521D01*
X192735714Y-117011140D01*
X192640476Y-117106378D01*
X192592857Y-117296854D01*
X192592857Y-117630188D01*
X192640476Y-117820664D01*
X192735714Y-117915902D01*
X192830952Y-117963521D01*
X193021429Y-117963521D01*
X192021429Y-117392092D02*
X192116667Y-117344473D01*
X192164286Y-117296854D01*
X192211905Y-117201616D01*
X192211905Y-117153997D01*
X192164286Y-117058759D01*
X192116667Y-117011140D01*
X192021429Y-116963521D01*
X191830952Y-116963521D01*
X191735714Y-117011140D01*
X191688095Y-117058759D01*
X191640476Y-117153997D01*
X191640476Y-117201616D01*
X191688095Y-117296854D01*
X191735714Y-117344473D01*
X191830952Y-117392092D01*
X192021429Y-117392092D01*
X192116667Y-117439711D01*
X192164286Y-117487330D01*
X192211905Y-117582569D01*
X192211905Y-117773045D01*
X192164286Y-117868283D01*
X192116667Y-117915902D01*
X192021429Y-117963521D01*
X191830952Y-117963521D01*
X191735714Y-117915902D01*
X191688095Y-117868283D01*
X191640476Y-117773045D01*
X191640476Y-117582569D01*
X191688095Y-117487330D01*
X191735714Y-117439711D01*
X191830952Y-117392092D01*
X200552381Y-121683334D02*
X200076190Y-121350000D01*
X200552381Y-121111905D02*
X199552381Y-121111905D01*
X199552381Y-121492858D01*
X199600000Y-121588096D01*
X199647619Y-121635715D01*
X199742857Y-121683334D01*
X199885714Y-121683334D01*
X199980952Y-121635715D01*
X200028571Y-121588096D01*
X200076190Y-121492858D01*
X200076190Y-121111905D01*
X200552381Y-122635715D02*
X200552381Y-122064286D01*
X200552381Y-122350000D02*
X199552381Y-122350000D01*
X199695238Y-122254762D01*
X199790476Y-122159524D01*
X199838095Y-122064286D01*
X193052381Y-121683334D02*
X192576190Y-121350000D01*
X193052381Y-121111905D02*
X192052381Y-121111905D01*
X192052381Y-121492858D01*
X192100000Y-121588096D01*
X192147619Y-121635715D01*
X192242857Y-121683334D01*
X192385714Y-121683334D01*
X192480952Y-121635715D01*
X192528571Y-121588096D01*
X192576190Y-121492858D01*
X192576190Y-121111905D01*
X192147619Y-122064286D02*
X192100000Y-122111905D01*
X192052381Y-122207143D01*
X192052381Y-122445239D01*
X192100000Y-122540477D01*
X192147619Y-122588096D01*
X192242857Y-122635715D01*
X192338095Y-122635715D01*
X192480952Y-122588096D01*
X193052381Y-122016667D01*
X193052381Y-122635715D01*
X234052381Y-100233334D02*
X233576190Y-99900000D01*
X234052381Y-99661905D02*
X233052381Y-99661905D01*
X233052381Y-100042858D01*
X233100000Y-100138096D01*
X233147619Y-100185715D01*
X233242857Y-100233334D01*
X233385714Y-100233334D01*
X233480952Y-100185715D01*
X233528571Y-100138096D01*
X233576190Y-100042858D01*
X233576190Y-99661905D01*
X233052381Y-100566667D02*
X233052381Y-101185715D01*
X233433333Y-100852381D01*
X233433333Y-100995239D01*
X233480952Y-101090477D01*
X233528571Y-101138096D01*
X233623810Y-101185715D01*
X233861905Y-101185715D01*
X233957143Y-101138096D01*
X234004762Y-101090477D01*
X234052381Y-100995239D01*
X234052381Y-100709524D01*
X234004762Y-100614286D01*
X233957143Y-100566667D01*
X185552381Y-121683334D02*
X185076190Y-121350000D01*
X185552381Y-121111905D02*
X184552381Y-121111905D01*
X184552381Y-121492858D01*
X184600000Y-121588096D01*
X184647619Y-121635715D01*
X184742857Y-121683334D01*
X184885714Y-121683334D01*
X184980952Y-121635715D01*
X185028571Y-121588096D01*
X185076190Y-121492858D01*
X185076190Y-121111905D01*
X184885714Y-122540477D02*
X185552381Y-122540477D01*
X184504762Y-122302381D02*
X185219048Y-122064286D01*
X185219048Y-122683334D01*
X177552381Y-121683334D02*
X177076190Y-121350000D01*
X177552381Y-121111905D02*
X176552381Y-121111905D01*
X176552381Y-121492858D01*
X176600000Y-121588096D01*
X176647619Y-121635715D01*
X176742857Y-121683334D01*
X176885714Y-121683334D01*
X176980952Y-121635715D01*
X177028571Y-121588096D01*
X177076190Y-121492858D01*
X177076190Y-121111905D01*
X176552381Y-122588096D02*
X176552381Y-122111905D01*
X177028571Y-122064286D01*
X176980952Y-122111905D01*
X176933333Y-122207143D01*
X176933333Y-122445239D01*
X176980952Y-122540477D01*
X177028571Y-122588096D01*
X177123810Y-122635715D01*
X177361905Y-122635715D01*
X177457143Y-122588096D01*
X177504762Y-122540477D01*
X177552381Y-122445239D01*
X177552381Y-122207143D01*
X177504762Y-122111905D01*
X177457143Y-122064286D01*
X197452381Y-84033334D02*
X196976190Y-83700000D01*
X197452381Y-83461905D02*
X196452381Y-83461905D01*
X196452381Y-83842858D01*
X196500000Y-83938096D01*
X196547619Y-83985715D01*
X196642857Y-84033334D01*
X196785714Y-84033334D01*
X196880952Y-83985715D01*
X196928571Y-83938096D01*
X196976190Y-83842858D01*
X196976190Y-83461905D01*
X196452381Y-84890477D02*
X196452381Y-84700000D01*
X196500000Y-84604762D01*
X196547619Y-84557143D01*
X196690476Y-84461905D01*
X196880952Y-84414286D01*
X197261905Y-84414286D01*
X197357143Y-84461905D01*
X197404762Y-84509524D01*
X197452381Y-84604762D01*
X197452381Y-84795239D01*
X197404762Y-84890477D01*
X197357143Y-84938096D01*
X197261905Y-84985715D01*
X197023810Y-84985715D01*
X196928571Y-84938096D01*
X196880952Y-84890477D01*
X196833333Y-84795239D01*
X196833333Y-84604762D01*
X196880952Y-84509524D01*
X196928571Y-84461905D01*
X197023810Y-84414286D01*
X188952381Y-84033334D02*
X188476190Y-83700000D01*
X188952381Y-83461905D02*
X187952381Y-83461905D01*
X187952381Y-83842858D01*
X188000000Y-83938096D01*
X188047619Y-83985715D01*
X188142857Y-84033334D01*
X188285714Y-84033334D01*
X188380952Y-83985715D01*
X188428571Y-83938096D01*
X188476190Y-83842858D01*
X188476190Y-83461905D01*
X187952381Y-84366667D02*
X187952381Y-85033334D01*
X188952381Y-84604762D01*
X181552381Y-84033334D02*
X181076190Y-83700000D01*
X181552381Y-83461905D02*
X180552381Y-83461905D01*
X180552381Y-83842858D01*
X180600000Y-83938096D01*
X180647619Y-83985715D01*
X180742857Y-84033334D01*
X180885714Y-84033334D01*
X180980952Y-83985715D01*
X181028571Y-83938096D01*
X181076190Y-83842858D01*
X181076190Y-83461905D01*
X180980952Y-84604762D02*
X180933333Y-84509524D01*
X180885714Y-84461905D01*
X180790476Y-84414286D01*
X180742857Y-84414286D01*
X180647619Y-84461905D01*
X180600000Y-84509524D01*
X180552381Y-84604762D01*
X180552381Y-84795239D01*
X180600000Y-84890477D01*
X180647619Y-84938096D01*
X180742857Y-84985715D01*
X180790476Y-84985715D01*
X180885714Y-84938096D01*
X180933333Y-84890477D01*
X180980952Y-84795239D01*
X180980952Y-84604762D01*
X181028571Y-84509524D01*
X181076190Y-84461905D01*
X181171429Y-84414286D01*
X181361905Y-84414286D01*
X181457143Y-84461905D01*
X181504762Y-84509524D01*
X181552381Y-84604762D01*
X181552381Y-84795239D01*
X181504762Y-84890477D01*
X181457143Y-84938096D01*
X181361905Y-84985715D01*
X181171429Y-84985715D01*
X181076190Y-84938096D01*
X181028571Y-84890477D01*
X180980952Y-84795239D01*
X173452381Y-84033334D02*
X172976190Y-83700000D01*
X173452381Y-83461905D02*
X172452381Y-83461905D01*
X172452381Y-83842858D01*
X172500000Y-83938096D01*
X172547619Y-83985715D01*
X172642857Y-84033334D01*
X172785714Y-84033334D01*
X172880952Y-83985715D01*
X172928571Y-83938096D01*
X172976190Y-83842858D01*
X172976190Y-83461905D01*
X173452381Y-84509524D02*
X173452381Y-84700000D01*
X173404762Y-84795239D01*
X173357143Y-84842858D01*
X173214286Y-84938096D01*
X173023810Y-84985715D01*
X172642857Y-84985715D01*
X172547619Y-84938096D01*
X172500000Y-84890477D01*
X172452381Y-84795239D01*
X172452381Y-84604762D01*
X172500000Y-84509524D01*
X172547619Y-84461905D01*
X172642857Y-84414286D01*
X172880952Y-84414286D01*
X172976190Y-84461905D01*
X173023810Y-84509524D01*
X173071429Y-84604762D01*
X173071429Y-84795239D01*
X173023810Y-84890477D01*
X172976190Y-84938096D01*
X172880952Y-84985715D01*
X191507381Y-102238095D02*
X192316905Y-102238095D01*
X192412143Y-102285714D01*
X192459762Y-102333333D01*
X192507381Y-102428571D01*
X192507381Y-102619048D01*
X192459762Y-102714286D01*
X192412143Y-102761905D01*
X192316905Y-102809524D01*
X191507381Y-102809524D01*
X192507381Y-103809524D02*
X192507381Y-103238095D01*
X192507381Y-103523809D02*
X191507381Y-103523809D01*
X191650238Y-103428571D01*
X191745476Y-103333333D01*
X191793095Y-103238095D01*
%LPC*%
D12*
X223460000Y-91890000D03*
X228540000Y-91890000D03*
X223460000Y-99510000D03*
X228540000Y-99510000D03*
D13*
X226000000Y-129350000D03*
X226000000Y-109350000D03*
D14*
X194500000Y-104250000D03*
X194500000Y-101750000D03*
D15*
X227150000Y-103300000D03*
X224650000Y-103300000D03*
D16*
X223460000Y-81040000D03*
D17*
X223460000Y-78500000D03*
X226000000Y-81040000D03*
X226000000Y-78500000D03*
X228540000Y-81040000D03*
X228540000Y-78500000D03*
D18*
X173450000Y-88501140D03*
X171550000Y-88501140D03*
X172500000Y-85498860D03*
X181450000Y-88501140D03*
X179550000Y-88501140D03*
X180500000Y-85498860D03*
X188950000Y-88501140D03*
X187050000Y-88501140D03*
X188000000Y-85498860D03*
X196450000Y-88501140D03*
X194550000Y-88501140D03*
X195500000Y-85498860D03*
X171600000Y-117500000D03*
X173500000Y-117500000D03*
X172550000Y-120502280D03*
X179100000Y-117500000D03*
X181000000Y-117500000D03*
X180050000Y-120502280D03*
X187000000Y-117500000D03*
X188900000Y-117500000D03*
X187950000Y-120502280D03*
X194600000Y-117500000D03*
X196500000Y-117500000D03*
X195550000Y-120502280D03*
D19*
X198000000Y-123200000D03*
X198000000Y-120500000D03*
X190500000Y-123200000D03*
X190500000Y-120500000D03*
X231500000Y-101750000D03*
X231500000Y-99050000D03*
X183000000Y-123200000D03*
X183000000Y-120500000D03*
X175000000Y-123200000D03*
X175000000Y-120500000D03*
X199100000Y-82850000D03*
X199100000Y-85550000D03*
X190600000Y-82850000D03*
X190600000Y-85550000D03*
X183200000Y-82850000D03*
X183200000Y-85550000D03*
X175100000Y-82850000D03*
X175100000Y-85550000D03*
D20*
X190270000Y-107700000D03*
X189000000Y-107700000D03*
X187730000Y-107700000D03*
X186460000Y-107700000D03*
X185190000Y-107700000D03*
X183920000Y-107700000D03*
X182650000Y-107700000D03*
X181380000Y-107700000D03*
X180110000Y-107700000D03*
X178840000Y-107700000D03*
X178840000Y-98300000D03*
X180110000Y-98300000D03*
X181380000Y-98300000D03*
X182650000Y-98300000D03*
X183920000Y-98300000D03*
X185190000Y-98300000D03*
X186460000Y-98300000D03*
X187730000Y-98300000D03*
X189000000Y-98300000D03*
X190270000Y-98300000D03*
D21*
X170040000Y-125900000D03*
X172580000Y-125900000D03*
X175120000Y-125900000D03*
X177660000Y-125900000D03*
X180200000Y-125900000D03*
X182740000Y-125900000D03*
X185280000Y-125900000D03*
X187820000Y-125900000D03*
X190360000Y-125900000D03*
X192900000Y-125900000D03*
X195440000Y-125900000D03*
X197980000Y-125900000D03*
X170040000Y-80100000D03*
X172580000Y-80100000D03*
X175120000Y-80100000D03*
X177660000Y-80100000D03*
X180200000Y-80100000D03*
X182740000Y-80100000D03*
X185280000Y-80100000D03*
X187820000Y-80100000D03*
X190360000Y-80100000D03*
X192900000Y-80100000D03*
X195440000Y-80100000D03*
X197980000Y-80100000D03*
M02*
