M48
;DRILL file {KiCad 4.0.2+dfsg1-stable} date Thu 23 Jun 2016 09:13:05 CEST
;FORMAT={-:-/ absolute / metric / decimal}
FMAT,2
METRIC,TZ
T1C0.200
T2C0.600
T3C0.813
T4C1.016
T5C1.300
%
G90
G05
M71
T1
X171.5Y-90.3
X173.52Y-115.65
X177.85Y-110.02
X179.6Y-90.3
X181.Y-115.6
X187.1Y-90.2
X188.9Y-115.6
X194.49Y-105.81
X194.6Y-90.2
X196.5Y-115.7
X223.1Y-103.3
T2
X170.04Y-80.1
X170.04Y-125.9
X172.58Y-80.1
X172.58Y-125.9
X175.12Y-80.1
X175.12Y-125.9
X177.66Y-80.1
X177.66Y-125.9
X180.2Y-80.1
X180.2Y-125.9
X182.74Y-80.1
X182.74Y-125.9
X185.28Y-80.1
X185.28Y-125.9
X187.82Y-80.1
X187.82Y-125.9
X190.36Y-80.1
X190.36Y-125.9
X192.9Y-80.1
X192.9Y-125.9
X195.44Y-80.1
X195.44Y-125.9
X197.98Y-80.1
X197.98Y-125.9
T3
X223.46Y-91.89
X223.46Y-99.51
X228.54Y-91.89
X228.54Y-99.51
T4
X223.46Y-78.5
X223.46Y-81.04
X226.Y-78.5
X226.Y-81.04
X228.54Y-78.5
X228.54Y-81.04
T5
X226.Y-109.35
X226.Y-129.35
T0
M30
