G04 #@! TF.FileFunction,Drawing*
%FSLAX46Y46*%
G04 Gerber Fmt 4.6, Leading zero omitted, Abs format (unit mm)*
G04 Created by KiCad (PCBNEW 4.0.2+dfsg1-stable) date Thu 23 Jun 2016 09:12:49 CEST*
%MOMM*%
G01*
G04 APERTURE LIST*
%ADD10C,0.100000*%
%ADD11C,0.300000*%
G04 APERTURE END LIST*
D10*
D11*
X190071430Y-137671429D02*
X189928572Y-137600000D01*
X189857144Y-137528571D01*
X189785715Y-137385714D01*
X189785715Y-137314286D01*
X189857144Y-137171429D01*
X189928572Y-137100000D01*
X190071430Y-137028571D01*
X190357144Y-137028571D01*
X190500001Y-137100000D01*
X190571430Y-137171429D01*
X190642858Y-137314286D01*
X190642858Y-137385714D01*
X190571430Y-137528571D01*
X190500001Y-137600000D01*
X190357144Y-137671429D01*
X190071430Y-137671429D01*
X189928572Y-137742857D01*
X189857144Y-137814286D01*
X189785715Y-137957143D01*
X189785715Y-138242857D01*
X189857144Y-138385714D01*
X189928572Y-138457143D01*
X190071430Y-138528571D01*
X190357144Y-138528571D01*
X190500001Y-138457143D01*
X190571430Y-138385714D01*
X190642858Y-138242857D01*
X190642858Y-137957143D01*
X190571430Y-137814286D01*
X190500001Y-137742857D01*
X190357144Y-137671429D01*
X191928572Y-137528571D02*
X191928572Y-138528571D01*
X191571429Y-136957143D02*
X191214286Y-138028571D01*
X192142858Y-138028571D01*
X192714286Y-138385714D02*
X192785714Y-138457143D01*
X192714286Y-138528571D01*
X192642857Y-138457143D01*
X192714286Y-138385714D01*
X192714286Y-138528571D01*
X193714286Y-137028571D02*
X193857143Y-137028571D01*
X194000000Y-137100000D01*
X194071429Y-137171429D01*
X194142858Y-137314286D01*
X194214286Y-137600000D01*
X194214286Y-137957143D01*
X194142858Y-138242857D01*
X194071429Y-138385714D01*
X194000000Y-138457143D01*
X193857143Y-138528571D01*
X193714286Y-138528571D01*
X193571429Y-138457143D01*
X193500000Y-138385714D01*
X193428572Y-138242857D01*
X193357143Y-137957143D01*
X193357143Y-137600000D01*
X193428572Y-137314286D01*
X193500000Y-137171429D01*
X193571429Y-137100000D01*
X193714286Y-137028571D01*
X195142857Y-137028571D02*
X195285714Y-137028571D01*
X195428571Y-137100000D01*
X195500000Y-137171429D01*
X195571429Y-137314286D01*
X195642857Y-137600000D01*
X195642857Y-137957143D01*
X195571429Y-138242857D01*
X195500000Y-138385714D01*
X195428571Y-138457143D01*
X195285714Y-138528571D01*
X195142857Y-138528571D01*
X195000000Y-138457143D01*
X194928571Y-138385714D01*
X194857143Y-138242857D01*
X194785714Y-137957143D01*
X194785714Y-137600000D01*
X194857143Y-137314286D01*
X194928571Y-137171429D01*
X195000000Y-137100000D01*
X195142857Y-137028571D01*
X196571428Y-137028571D02*
X196714285Y-137028571D01*
X196857142Y-137100000D01*
X196928571Y-137171429D01*
X197000000Y-137314286D01*
X197071428Y-137600000D01*
X197071428Y-137957143D01*
X197000000Y-138242857D01*
X196928571Y-138385714D01*
X196857142Y-138457143D01*
X196714285Y-138528571D01*
X196571428Y-138528571D01*
X196428571Y-138457143D01*
X196357142Y-138385714D01*
X196285714Y-138242857D01*
X196214285Y-137957143D01*
X196214285Y-137600000D01*
X196285714Y-137314286D01*
X196357142Y-137171429D01*
X196428571Y-137100000D01*
X196571428Y-137028571D01*
X198857142Y-138528571D02*
X198857142Y-137528571D01*
X198857142Y-137671429D02*
X198928570Y-137600000D01*
X199071428Y-137528571D01*
X199285713Y-137528571D01*
X199428570Y-137600000D01*
X199499999Y-137742857D01*
X199499999Y-138528571D01*
X199499999Y-137742857D02*
X199571428Y-137600000D01*
X199714285Y-137528571D01*
X199928570Y-137528571D01*
X200071428Y-137600000D01*
X200142856Y-137742857D01*
X200142856Y-138528571D01*
X200857142Y-138528571D02*
X200857142Y-137528571D01*
X200857142Y-137671429D02*
X200928570Y-137600000D01*
X201071428Y-137528571D01*
X201285713Y-137528571D01*
X201428570Y-137600000D01*
X201499999Y-137742857D01*
X201499999Y-138528571D01*
X201499999Y-137742857D02*
X201571428Y-137600000D01*
X201714285Y-137528571D01*
X201928570Y-137528571D01*
X202071428Y-137600000D01*
X202142856Y-137742857D01*
X202142856Y-138528571D01*
X238000000Y-136500000D02*
X154000000Y-136500000D01*
X238000000Y-133000000D02*
X238000000Y-139200000D01*
X154000000Y-133000000D02*
X154000000Y-139200000D01*
X154000000Y-136500000D02*
X155126504Y-135913579D01*
X154000000Y-136500000D02*
X155126504Y-137086421D01*
X238000000Y-136500000D02*
X236873496Y-135913579D01*
X238000000Y-136500000D02*
X236873496Y-137086421D01*
X242528571Y-108499999D02*
X242528571Y-108785713D01*
X242600000Y-108928570D01*
X242671429Y-108999999D01*
X242885714Y-109142856D01*
X243171429Y-109214285D01*
X243742857Y-109214285D01*
X243885714Y-109142856D01*
X243957143Y-109071428D01*
X244028571Y-108928570D01*
X244028571Y-108642856D01*
X243957143Y-108499999D01*
X243885714Y-108428570D01*
X243742857Y-108357142D01*
X243385714Y-108357142D01*
X243242857Y-108428570D01*
X243171429Y-108499999D01*
X243100000Y-108642856D01*
X243100000Y-108928570D01*
X243171429Y-109071428D01*
X243242857Y-109142856D01*
X243385714Y-109214285D01*
X242528571Y-107428571D02*
X242528571Y-107285714D01*
X242600000Y-107142857D01*
X242671429Y-107071428D01*
X242814286Y-106999999D01*
X243100000Y-106928571D01*
X243457143Y-106928571D01*
X243742857Y-106999999D01*
X243885714Y-107071428D01*
X243957143Y-107142857D01*
X244028571Y-107285714D01*
X244028571Y-107428571D01*
X243957143Y-107571428D01*
X243885714Y-107642857D01*
X243742857Y-107714285D01*
X243457143Y-107785714D01*
X243100000Y-107785714D01*
X242814286Y-107714285D01*
X242671429Y-107642857D01*
X242600000Y-107571428D01*
X242528571Y-107428571D01*
X243885714Y-106285714D02*
X243957143Y-106214286D01*
X244028571Y-106285714D01*
X243957143Y-106357143D01*
X243885714Y-106285714D01*
X244028571Y-106285714D01*
X242528571Y-105285714D02*
X242528571Y-105142857D01*
X242600000Y-105000000D01*
X242671429Y-104928571D01*
X242814286Y-104857142D01*
X243100000Y-104785714D01*
X243457143Y-104785714D01*
X243742857Y-104857142D01*
X243885714Y-104928571D01*
X243957143Y-105000000D01*
X244028571Y-105142857D01*
X244028571Y-105285714D01*
X243957143Y-105428571D01*
X243885714Y-105500000D01*
X243742857Y-105571428D01*
X243457143Y-105642857D01*
X243100000Y-105642857D01*
X242814286Y-105571428D01*
X242671429Y-105500000D01*
X242600000Y-105428571D01*
X242528571Y-105285714D01*
X242528571Y-103857143D02*
X242528571Y-103714286D01*
X242600000Y-103571429D01*
X242671429Y-103500000D01*
X242814286Y-103428571D01*
X243100000Y-103357143D01*
X243457143Y-103357143D01*
X243742857Y-103428571D01*
X243885714Y-103500000D01*
X243957143Y-103571429D01*
X244028571Y-103714286D01*
X244028571Y-103857143D01*
X243957143Y-104000000D01*
X243885714Y-104071429D01*
X243742857Y-104142857D01*
X243457143Y-104214286D01*
X243100000Y-104214286D01*
X242814286Y-104142857D01*
X242671429Y-104071429D01*
X242600000Y-104000000D01*
X242528571Y-103857143D01*
X242528571Y-102428572D02*
X242528571Y-102285715D01*
X242600000Y-102142858D01*
X242671429Y-102071429D01*
X242814286Y-102000000D01*
X243100000Y-101928572D01*
X243457143Y-101928572D01*
X243742857Y-102000000D01*
X243885714Y-102071429D01*
X243957143Y-102142858D01*
X244028571Y-102285715D01*
X244028571Y-102428572D01*
X243957143Y-102571429D01*
X243885714Y-102642858D01*
X243742857Y-102714286D01*
X243457143Y-102785715D01*
X243100000Y-102785715D01*
X242814286Y-102714286D01*
X242671429Y-102642858D01*
X242600000Y-102571429D01*
X242528571Y-102428572D01*
X244028571Y-100142858D02*
X243028571Y-100142858D01*
X243171429Y-100142858D02*
X243100000Y-100071430D01*
X243028571Y-99928572D01*
X243028571Y-99714287D01*
X243100000Y-99571430D01*
X243242857Y-99500001D01*
X244028571Y-99500001D01*
X243242857Y-99500001D02*
X243100000Y-99428572D01*
X243028571Y-99285715D01*
X243028571Y-99071430D01*
X243100000Y-98928572D01*
X243242857Y-98857144D01*
X244028571Y-98857144D01*
X244028571Y-98142858D02*
X243028571Y-98142858D01*
X243171429Y-98142858D02*
X243100000Y-98071430D01*
X243028571Y-97928572D01*
X243028571Y-97714287D01*
X243100000Y-97571430D01*
X243242857Y-97500001D01*
X244028571Y-97500001D01*
X243242857Y-97500001D02*
X243100000Y-97428572D01*
X243028571Y-97285715D01*
X243028571Y-97071430D01*
X243100000Y-96928572D01*
X243242857Y-96857144D01*
X244028571Y-96857144D01*
X242000000Y-133000000D02*
X242000000Y-73000000D01*
X238000000Y-133000000D02*
X244700000Y-133000000D01*
X238000000Y-73000000D02*
X244700000Y-73000000D01*
X242000000Y-73000000D02*
X242586421Y-74126504D01*
X242000000Y-73000000D02*
X241413579Y-74126504D01*
X242000000Y-133000000D02*
X242586421Y-131873496D01*
X242000000Y-133000000D02*
X241413579Y-131873496D01*
M02*
