G04 #@! TF.FileFunction,Copper,L1,Top,Signal*
%FSLAX46Y46*%
G04 Gerber Fmt 4.6, Leading zero omitted, Abs format (unit mm)*
G04 Created by KiCad (PCBNEW 4.0.2+dfsg1-stable) date Thu 23 Jun 2016 09:12:49 CEST*
%MOMM*%
G01*
G04 APERTURE LIST*
%ADD10C,0.100000*%
%ADD11C,0.300000*%
%ADD12C,1.600000*%
%ADD13C,2.500000*%
%ADD14R,1.727200X1.727200*%
%ADD15O,1.727200X1.727200*%
%ADD16O,1.500000X2.500000*%
%ADD17C,0.800000*%
%ADD18C,0.350000*%
%ADD19C,0.250000*%
G04 APERTURE END LIST*
D10*
D11*
X220607144Y-85335714D02*
X220535715Y-85407143D01*
X220321429Y-85478571D01*
X220178572Y-85478571D01*
X219964287Y-85407143D01*
X219821429Y-85264286D01*
X219750001Y-85121429D01*
X219678572Y-84835714D01*
X219678572Y-84621429D01*
X219750001Y-84335714D01*
X219821429Y-84192857D01*
X219964287Y-84050000D01*
X220178572Y-83978571D01*
X220321429Y-83978571D01*
X220535715Y-84050000D01*
X220607144Y-84121429D01*
X221464287Y-85478571D02*
X221321429Y-85407143D01*
X221250001Y-85335714D01*
X221178572Y-85192857D01*
X221178572Y-84764286D01*
X221250001Y-84621429D01*
X221321429Y-84550000D01*
X221464287Y-84478571D01*
X221678572Y-84478571D01*
X221821429Y-84550000D01*
X221892858Y-84621429D01*
X221964287Y-84764286D01*
X221964287Y-85192857D01*
X221892858Y-85335714D01*
X221821429Y-85407143D01*
X221678572Y-85478571D01*
X221464287Y-85478571D01*
X222535715Y-85407143D02*
X222750001Y-85478571D01*
X223107144Y-85478571D01*
X223250001Y-85407143D01*
X223321430Y-85335714D01*
X223392858Y-85192857D01*
X223392858Y-85050000D01*
X223321430Y-84907143D01*
X223250001Y-84835714D01*
X223107144Y-84764286D01*
X222821430Y-84692857D01*
X222678572Y-84621429D01*
X222607144Y-84550000D01*
X222535715Y-84407143D01*
X222535715Y-84264286D01*
X222607144Y-84121429D01*
X222678572Y-84050000D01*
X222821430Y-83978571D01*
X223178572Y-83978571D01*
X223392858Y-84050000D01*
X224035715Y-85478571D02*
X224035715Y-84478571D01*
X224035715Y-83978571D02*
X223964286Y-84050000D01*
X224035715Y-84121429D01*
X224107143Y-84050000D01*
X224035715Y-83978571D01*
X224035715Y-84121429D01*
X224750001Y-84478571D02*
X224750001Y-85478571D01*
X224750001Y-84621429D02*
X224821429Y-84550000D01*
X224964287Y-84478571D01*
X225178572Y-84478571D01*
X225321429Y-84550000D01*
X225392858Y-84692857D01*
X225392858Y-85478571D01*
X227178572Y-84121429D02*
X227250001Y-84050000D01*
X227392858Y-83978571D01*
X227750001Y-83978571D01*
X227892858Y-84050000D01*
X227964287Y-84121429D01*
X228035715Y-84264286D01*
X228035715Y-84407143D01*
X227964287Y-84621429D01*
X227107144Y-85478571D01*
X228035715Y-85478571D01*
X228964286Y-83978571D02*
X229107143Y-83978571D01*
X229250000Y-84050000D01*
X229321429Y-84121429D01*
X229392858Y-84264286D01*
X229464286Y-84550000D01*
X229464286Y-84907143D01*
X229392858Y-85192857D01*
X229321429Y-85335714D01*
X229250000Y-85407143D01*
X229107143Y-85478571D01*
X228964286Y-85478571D01*
X228821429Y-85407143D01*
X228750000Y-85335714D01*
X228678572Y-85192857D01*
X228607143Y-84907143D01*
X228607143Y-84550000D01*
X228678572Y-84264286D01*
X228750000Y-84121429D01*
X228821429Y-84050000D01*
X228964286Y-83978571D01*
X230892857Y-85478571D02*
X230035714Y-85478571D01*
X230464286Y-85478571D02*
X230464286Y-83978571D01*
X230321429Y-84192857D01*
X230178571Y-84335714D01*
X230035714Y-84407143D01*
X232178571Y-83978571D02*
X231892857Y-83978571D01*
X231750000Y-84050000D01*
X231678571Y-84121429D01*
X231535714Y-84335714D01*
X231464285Y-84621429D01*
X231464285Y-85192857D01*
X231535714Y-85335714D01*
X231607142Y-85407143D01*
X231750000Y-85478571D01*
X232035714Y-85478571D01*
X232178571Y-85407143D01*
X232250000Y-85335714D01*
X232321428Y-85192857D01*
X232321428Y-84835714D01*
X232250000Y-84692857D01*
X232178571Y-84621429D01*
X232035714Y-84550000D01*
X231750000Y-84550000D01*
X231607142Y-84621429D01*
X231535714Y-84692857D01*
X231464285Y-84835714D01*
X220464286Y-87878571D02*
X220464286Y-86378571D01*
X220964286Y-87450000D01*
X221464286Y-86378571D01*
X221464286Y-87878571D01*
X222821429Y-87878571D02*
X222821429Y-87092857D01*
X222750000Y-86950000D01*
X222607143Y-86878571D01*
X222321429Y-86878571D01*
X222178572Y-86950000D01*
X222821429Y-87807143D02*
X222678572Y-87878571D01*
X222321429Y-87878571D01*
X222178572Y-87807143D01*
X222107143Y-87664286D01*
X222107143Y-87521429D01*
X222178572Y-87378571D01*
X222321429Y-87307143D01*
X222678572Y-87307143D01*
X222821429Y-87235714D01*
X223321429Y-86878571D02*
X223892858Y-86878571D01*
X223535715Y-86378571D02*
X223535715Y-87664286D01*
X223607143Y-87807143D01*
X223750001Y-87878571D01*
X223892858Y-87878571D01*
X224392858Y-87878571D02*
X224392858Y-86878571D01*
X224392858Y-87164286D02*
X224464286Y-87021429D01*
X224535715Y-86950000D01*
X224678572Y-86878571D01*
X224821429Y-86878571D01*
X225321429Y-87878571D02*
X225321429Y-86878571D01*
X225321429Y-86378571D02*
X225250000Y-86450000D01*
X225321429Y-86521429D01*
X225392857Y-86450000D01*
X225321429Y-86378571D01*
X225321429Y-86521429D01*
X225892858Y-87878571D02*
X226678572Y-86878571D01*
X225892858Y-86878571D02*
X226678572Y-87878571D01*
X228178572Y-86378571D02*
X229035715Y-86378571D01*
X228607144Y-87878571D02*
X228607144Y-86378571D01*
X230178572Y-87878571D02*
X230178572Y-87092857D01*
X230107143Y-86950000D01*
X229964286Y-86878571D01*
X229678572Y-86878571D01*
X229535715Y-86950000D01*
X230178572Y-87807143D02*
X230035715Y-87878571D01*
X229678572Y-87878571D01*
X229535715Y-87807143D01*
X229464286Y-87664286D01*
X229464286Y-87521429D01*
X229535715Y-87378571D01*
X229678572Y-87307143D01*
X230035715Y-87307143D01*
X230178572Y-87235714D01*
X231535715Y-86878571D02*
X231535715Y-88092857D01*
X231464286Y-88235714D01*
X231392858Y-88307143D01*
X231250001Y-88378571D01*
X231035715Y-88378571D01*
X230892858Y-88307143D01*
X231535715Y-87807143D02*
X231392858Y-87878571D01*
X231107144Y-87878571D01*
X230964286Y-87807143D01*
X230892858Y-87735714D01*
X230821429Y-87592857D01*
X230821429Y-87164286D01*
X230892858Y-87021429D01*
X230964286Y-86950000D01*
X231107144Y-86878571D01*
X231392858Y-86878571D01*
X231535715Y-86950000D01*
D12*
X223460000Y-91890000D03*
X228540000Y-91890000D03*
X223460000Y-99510000D03*
X228540000Y-99510000D03*
D13*
X226000000Y-129350000D03*
X226000000Y-109350000D03*
D14*
X223460000Y-81040000D03*
D15*
X223460000Y-78500000D03*
X226000000Y-81040000D03*
X226000000Y-78500000D03*
X228540000Y-81040000D03*
X228540000Y-78500000D03*
D16*
X170040000Y-125900000D03*
X172580000Y-125900000D03*
X175120000Y-125900000D03*
X177660000Y-125900000D03*
X180200000Y-125900000D03*
X182740000Y-125900000D03*
X185280000Y-125900000D03*
X187820000Y-125900000D03*
X190360000Y-125900000D03*
X192900000Y-125900000D03*
X195440000Y-125900000D03*
X197980000Y-125900000D03*
X170040000Y-80100000D03*
X172580000Y-80100000D03*
X175120000Y-80100000D03*
X177660000Y-80100000D03*
X180200000Y-80100000D03*
X182740000Y-80100000D03*
X185280000Y-80100000D03*
X187820000Y-80100000D03*
X190360000Y-80100000D03*
X192900000Y-80100000D03*
X195440000Y-80100000D03*
X197980000Y-80100000D03*
D17*
X223100000Y-103300000D03*
X171500000Y-90300000D03*
X179600000Y-90300000D03*
X187100000Y-90200000D03*
X194600000Y-90200000D03*
X196500000Y-115700000D03*
X188900000Y-115600000D03*
X181000000Y-115600000D03*
X173520000Y-115650000D03*
X177850000Y-110020000D03*
X194490000Y-105810000D03*
D18*
X228540000Y-99510000D02*
X228540000Y-91890000D01*
D19*
G36*
X237300000Y-132300000D02*
X154700000Y-132300000D01*
X154700000Y-129721324D01*
X224124676Y-129721324D01*
X224409526Y-130410714D01*
X224936511Y-130938620D01*
X225625403Y-131224673D01*
X226371324Y-131225324D01*
X227060714Y-130940474D01*
X227588620Y-130413489D01*
X227874673Y-129724597D01*
X227875324Y-128978676D01*
X227590474Y-128289286D01*
X227063489Y-127761380D01*
X226374597Y-127475327D01*
X225628676Y-127474676D01*
X224939286Y-127759526D01*
X224411380Y-128286511D01*
X224125327Y-128975403D01*
X224124676Y-129721324D01*
X154700000Y-129721324D01*
X154700000Y-125363267D01*
X168665000Y-125363267D01*
X168665000Y-126436733D01*
X168769666Y-126962923D01*
X169067728Y-127409005D01*
X169513810Y-127707067D01*
X170040000Y-127811733D01*
X170566190Y-127707067D01*
X171012272Y-127409005D01*
X171310000Y-126963423D01*
X171607728Y-127409005D01*
X172053810Y-127707067D01*
X172580000Y-127811733D01*
X173106190Y-127707067D01*
X173552272Y-127409005D01*
X173850000Y-126963423D01*
X174147728Y-127409005D01*
X174593810Y-127707067D01*
X175120000Y-127811733D01*
X175646190Y-127707067D01*
X176092272Y-127409005D01*
X176390000Y-126963423D01*
X176687728Y-127409005D01*
X177133810Y-127707067D01*
X177660000Y-127811733D01*
X178186190Y-127707067D01*
X178632272Y-127409005D01*
X178930000Y-126963423D01*
X179227728Y-127409005D01*
X179673810Y-127707067D01*
X180200000Y-127811733D01*
X180726190Y-127707067D01*
X181172272Y-127409005D01*
X181470000Y-126963423D01*
X181767728Y-127409005D01*
X182213810Y-127707067D01*
X182740000Y-127811733D01*
X183266190Y-127707067D01*
X183712272Y-127409005D01*
X184010000Y-126963423D01*
X184307728Y-127409005D01*
X184753810Y-127707067D01*
X185280000Y-127811733D01*
X185806190Y-127707067D01*
X186252272Y-127409005D01*
X186550000Y-126963423D01*
X186847728Y-127409005D01*
X187293810Y-127707067D01*
X187820000Y-127811733D01*
X188346190Y-127707067D01*
X188792272Y-127409005D01*
X189090000Y-126963423D01*
X189387728Y-127409005D01*
X189833810Y-127707067D01*
X190360000Y-127811733D01*
X190886190Y-127707067D01*
X191332272Y-127409005D01*
X191630000Y-126963423D01*
X191927728Y-127409005D01*
X192373810Y-127707067D01*
X192900000Y-127811733D01*
X193426190Y-127707067D01*
X193872272Y-127409005D01*
X194170000Y-126963423D01*
X194467728Y-127409005D01*
X194913810Y-127707067D01*
X195440000Y-127811733D01*
X195966190Y-127707067D01*
X196412272Y-127409005D01*
X196710000Y-126963423D01*
X197007728Y-127409005D01*
X197453810Y-127707067D01*
X197980000Y-127811733D01*
X198506190Y-127707067D01*
X198952272Y-127409005D01*
X199250334Y-126962923D01*
X199355000Y-126436733D01*
X199355000Y-125363267D01*
X199250334Y-124837077D01*
X198952272Y-124390995D01*
X198506190Y-124092933D01*
X197980000Y-123988267D01*
X197453810Y-124092933D01*
X197007728Y-124390995D01*
X196710000Y-124836577D01*
X196412272Y-124390995D01*
X195966190Y-124092933D01*
X195440000Y-123988267D01*
X194913810Y-124092933D01*
X194467728Y-124390995D01*
X194170000Y-124836577D01*
X193872272Y-124390995D01*
X193426190Y-124092933D01*
X192900000Y-123988267D01*
X192373810Y-124092933D01*
X191927728Y-124390995D01*
X191630000Y-124836577D01*
X191332272Y-124390995D01*
X190886190Y-124092933D01*
X190360000Y-123988267D01*
X189833810Y-124092933D01*
X189387728Y-124390995D01*
X189090000Y-124836577D01*
X188792272Y-124390995D01*
X188346190Y-124092933D01*
X187820000Y-123988267D01*
X187293810Y-124092933D01*
X186847728Y-124390995D01*
X186550000Y-124836577D01*
X186252272Y-124390995D01*
X185806190Y-124092933D01*
X185280000Y-123988267D01*
X184753810Y-124092933D01*
X184307728Y-124390995D01*
X184010000Y-124836577D01*
X183712272Y-124390995D01*
X183266190Y-124092933D01*
X182740000Y-123988267D01*
X182213810Y-124092933D01*
X181767728Y-124390995D01*
X181470000Y-124836577D01*
X181172272Y-124390995D01*
X180726190Y-124092933D01*
X180200000Y-123988267D01*
X179673810Y-124092933D01*
X179227728Y-124390995D01*
X178930000Y-124836577D01*
X178632272Y-124390995D01*
X178186190Y-124092933D01*
X177660000Y-123988267D01*
X177133810Y-124092933D01*
X176687728Y-124390995D01*
X176390000Y-124836577D01*
X176092272Y-124390995D01*
X175646190Y-124092933D01*
X175120000Y-123988267D01*
X174593810Y-124092933D01*
X174147728Y-124390995D01*
X173850000Y-124836577D01*
X173552272Y-124390995D01*
X173106190Y-124092933D01*
X172580000Y-123988267D01*
X172053810Y-124092933D01*
X171607728Y-124390995D01*
X171310000Y-124836577D01*
X171012272Y-124390995D01*
X170566190Y-124092933D01*
X170040000Y-123988267D01*
X169513810Y-124092933D01*
X169067728Y-124390995D01*
X168769666Y-124837077D01*
X168665000Y-125363267D01*
X154700000Y-125363267D01*
X154700000Y-92172206D01*
X227114754Y-92172206D01*
X227331240Y-92696143D01*
X227731749Y-93097351D01*
X227740000Y-93100777D01*
X227740000Y-98298702D01*
X227733857Y-98301240D01*
X227332649Y-98701749D01*
X227115248Y-99225307D01*
X227114754Y-99792206D01*
X227331240Y-100316143D01*
X227731749Y-100717351D01*
X228255307Y-100934752D01*
X228822206Y-100935246D01*
X229346143Y-100718760D01*
X229747351Y-100318251D01*
X229964752Y-99794693D01*
X229965246Y-99227794D01*
X229748760Y-98703857D01*
X229348251Y-98302649D01*
X229340000Y-98299223D01*
X229340000Y-93101298D01*
X229346143Y-93098760D01*
X229747351Y-92698251D01*
X229964752Y-92174693D01*
X229965246Y-91607794D01*
X229748760Y-91083857D01*
X229348251Y-90682649D01*
X228824693Y-90465248D01*
X228257794Y-90464754D01*
X227733857Y-90681240D01*
X227332649Y-91081749D01*
X227115248Y-91605307D01*
X227114754Y-92172206D01*
X154700000Y-92172206D01*
X154700000Y-82675000D01*
X218617858Y-82675000D01*
X218617858Y-89025000D01*
X233382142Y-89025000D01*
X233382142Y-82675000D01*
X218617858Y-82675000D01*
X154700000Y-82675000D01*
X154700000Y-79563267D01*
X168665000Y-79563267D01*
X168665000Y-80636733D01*
X168769666Y-81162923D01*
X169067728Y-81609005D01*
X169513810Y-81907067D01*
X170040000Y-82011733D01*
X170566190Y-81907067D01*
X171012272Y-81609005D01*
X171310000Y-81163423D01*
X171607728Y-81609005D01*
X172053810Y-81907067D01*
X172580000Y-82011733D01*
X173106190Y-81907067D01*
X173552272Y-81609005D01*
X173850000Y-81163423D01*
X174147728Y-81609005D01*
X174593810Y-81907067D01*
X175120000Y-82011733D01*
X175646190Y-81907067D01*
X176092272Y-81609005D01*
X176390000Y-81163423D01*
X176687728Y-81609005D01*
X177133810Y-81907067D01*
X177660000Y-82011733D01*
X178186190Y-81907067D01*
X178632272Y-81609005D01*
X178930000Y-81163423D01*
X179227728Y-81609005D01*
X179673810Y-81907067D01*
X180200000Y-82011733D01*
X180726190Y-81907067D01*
X181172272Y-81609005D01*
X181470000Y-81163423D01*
X181767728Y-81609005D01*
X182213810Y-81907067D01*
X182740000Y-82011733D01*
X183266190Y-81907067D01*
X183712272Y-81609005D01*
X184010000Y-81163423D01*
X184307728Y-81609005D01*
X184753810Y-81907067D01*
X185280000Y-82011733D01*
X185806190Y-81907067D01*
X186252272Y-81609005D01*
X186550000Y-81163423D01*
X186847728Y-81609005D01*
X187293810Y-81907067D01*
X187820000Y-82011733D01*
X188346190Y-81907067D01*
X188792272Y-81609005D01*
X189090000Y-81163423D01*
X189387728Y-81609005D01*
X189833810Y-81907067D01*
X190360000Y-82011733D01*
X190886190Y-81907067D01*
X191332272Y-81609005D01*
X191630000Y-81163423D01*
X191927728Y-81609005D01*
X192373810Y-81907067D01*
X192900000Y-82011733D01*
X193426190Y-81907067D01*
X193872272Y-81609005D01*
X194170000Y-81163423D01*
X194467728Y-81609005D01*
X194913810Y-81907067D01*
X195440000Y-82011733D01*
X195966190Y-81907067D01*
X196412272Y-81609005D01*
X196710000Y-81163423D01*
X197007728Y-81609005D01*
X197453810Y-81907067D01*
X197980000Y-82011733D01*
X198506190Y-81907067D01*
X198952272Y-81609005D01*
X199250334Y-81162923D01*
X199355000Y-80636733D01*
X199355000Y-80176400D01*
X221959156Y-80176400D01*
X221959156Y-81903600D01*
X222002737Y-82135211D01*
X222139619Y-82347932D01*
X222348476Y-82490638D01*
X222596400Y-82540844D01*
X224323600Y-82540844D01*
X224555211Y-82497263D01*
X224767932Y-82360381D01*
X224910638Y-82151524D01*
X224923814Y-82086461D01*
X224947401Y-82121762D01*
X225430337Y-82444450D01*
X226000000Y-82557763D01*
X226569663Y-82444450D01*
X227052599Y-82121762D01*
X227270000Y-81796399D01*
X227487401Y-82121762D01*
X227970337Y-82444450D01*
X228540000Y-82557763D01*
X229109663Y-82444450D01*
X229592599Y-82121762D01*
X229915287Y-81638826D01*
X230028600Y-81069163D01*
X230028600Y-81010837D01*
X229915287Y-80441174D01*
X229592599Y-79958238D01*
X229109663Y-79635550D01*
X228540000Y-79522237D01*
X227970337Y-79635550D01*
X227487401Y-79958238D01*
X227270000Y-80283601D01*
X227052599Y-79958238D01*
X226770881Y-79770000D01*
X227052599Y-79581762D01*
X227375287Y-79098826D01*
X227488600Y-78529163D01*
X227488600Y-78470837D01*
X227375287Y-77901174D01*
X227052599Y-77418238D01*
X226569663Y-77095550D01*
X226000000Y-76982237D01*
X225430337Y-77095550D01*
X224947401Y-77418238D01*
X224730000Y-77743601D01*
X224512599Y-77418238D01*
X224029663Y-77095550D01*
X223460000Y-76982237D01*
X222890337Y-77095550D01*
X222407401Y-77418238D01*
X222084713Y-77901174D01*
X221971400Y-78470837D01*
X221971400Y-78529163D01*
X222084713Y-79098826D01*
X222403221Y-79575506D01*
X222364789Y-79582737D01*
X222152068Y-79719619D01*
X222009362Y-79928476D01*
X221959156Y-80176400D01*
X199355000Y-80176400D01*
X199355000Y-79563267D01*
X199250334Y-79037077D01*
X198952272Y-78590995D01*
X198506190Y-78292933D01*
X197980000Y-78188267D01*
X197453810Y-78292933D01*
X197007728Y-78590995D01*
X196710000Y-79036577D01*
X196412272Y-78590995D01*
X195966190Y-78292933D01*
X195440000Y-78188267D01*
X194913810Y-78292933D01*
X194467728Y-78590995D01*
X194170000Y-79036577D01*
X193872272Y-78590995D01*
X193426190Y-78292933D01*
X192900000Y-78188267D01*
X192373810Y-78292933D01*
X191927728Y-78590995D01*
X191630000Y-79036577D01*
X191332272Y-78590995D01*
X190886190Y-78292933D01*
X190360000Y-78188267D01*
X189833810Y-78292933D01*
X189387728Y-78590995D01*
X189090000Y-79036577D01*
X188792272Y-78590995D01*
X188346190Y-78292933D01*
X187820000Y-78188267D01*
X187293810Y-78292933D01*
X186847728Y-78590995D01*
X186550000Y-79036577D01*
X186252272Y-78590995D01*
X185806190Y-78292933D01*
X185280000Y-78188267D01*
X184753810Y-78292933D01*
X184307728Y-78590995D01*
X184010000Y-79036577D01*
X183712272Y-78590995D01*
X183266190Y-78292933D01*
X182740000Y-78188267D01*
X182213810Y-78292933D01*
X181767728Y-78590995D01*
X181470000Y-79036577D01*
X181172272Y-78590995D01*
X180726190Y-78292933D01*
X180200000Y-78188267D01*
X179673810Y-78292933D01*
X179227728Y-78590995D01*
X178930000Y-79036577D01*
X178632272Y-78590995D01*
X178186190Y-78292933D01*
X177660000Y-78188267D01*
X177133810Y-78292933D01*
X176687728Y-78590995D01*
X176390000Y-79036577D01*
X176092272Y-78590995D01*
X175646190Y-78292933D01*
X175120000Y-78188267D01*
X174593810Y-78292933D01*
X174147728Y-78590995D01*
X173850000Y-79036577D01*
X173552272Y-78590995D01*
X173106190Y-78292933D01*
X172580000Y-78188267D01*
X172053810Y-78292933D01*
X171607728Y-78590995D01*
X171310000Y-79036577D01*
X171012272Y-78590995D01*
X170566190Y-78292933D01*
X170040000Y-78188267D01*
X169513810Y-78292933D01*
X169067728Y-78590995D01*
X168769666Y-79037077D01*
X168665000Y-79563267D01*
X154700000Y-79563267D01*
X154700000Y-73700000D01*
X237300000Y-73700000D01*
X237300000Y-132300000D01*
X237300000Y-132300000D01*
G37*
X237300000Y-132300000D02*
X154700000Y-132300000D01*
X154700000Y-129721324D01*
X224124676Y-129721324D01*
X224409526Y-130410714D01*
X224936511Y-130938620D01*
X225625403Y-131224673D01*
X226371324Y-131225324D01*
X227060714Y-130940474D01*
X227588620Y-130413489D01*
X227874673Y-129724597D01*
X227875324Y-128978676D01*
X227590474Y-128289286D01*
X227063489Y-127761380D01*
X226374597Y-127475327D01*
X225628676Y-127474676D01*
X224939286Y-127759526D01*
X224411380Y-128286511D01*
X224125327Y-128975403D01*
X224124676Y-129721324D01*
X154700000Y-129721324D01*
X154700000Y-125363267D01*
X168665000Y-125363267D01*
X168665000Y-126436733D01*
X168769666Y-126962923D01*
X169067728Y-127409005D01*
X169513810Y-127707067D01*
X170040000Y-127811733D01*
X170566190Y-127707067D01*
X171012272Y-127409005D01*
X171310000Y-126963423D01*
X171607728Y-127409005D01*
X172053810Y-127707067D01*
X172580000Y-127811733D01*
X173106190Y-127707067D01*
X173552272Y-127409005D01*
X173850000Y-126963423D01*
X174147728Y-127409005D01*
X174593810Y-127707067D01*
X175120000Y-127811733D01*
X175646190Y-127707067D01*
X176092272Y-127409005D01*
X176390000Y-126963423D01*
X176687728Y-127409005D01*
X177133810Y-127707067D01*
X177660000Y-127811733D01*
X178186190Y-127707067D01*
X178632272Y-127409005D01*
X178930000Y-126963423D01*
X179227728Y-127409005D01*
X179673810Y-127707067D01*
X180200000Y-127811733D01*
X180726190Y-127707067D01*
X181172272Y-127409005D01*
X181470000Y-126963423D01*
X181767728Y-127409005D01*
X182213810Y-127707067D01*
X182740000Y-127811733D01*
X183266190Y-127707067D01*
X183712272Y-127409005D01*
X184010000Y-126963423D01*
X184307728Y-127409005D01*
X184753810Y-127707067D01*
X185280000Y-127811733D01*
X185806190Y-127707067D01*
X186252272Y-127409005D01*
X186550000Y-126963423D01*
X186847728Y-127409005D01*
X187293810Y-127707067D01*
X187820000Y-127811733D01*
X188346190Y-127707067D01*
X188792272Y-127409005D01*
X189090000Y-126963423D01*
X189387728Y-127409005D01*
X189833810Y-127707067D01*
X190360000Y-127811733D01*
X190886190Y-127707067D01*
X191332272Y-127409005D01*
X191630000Y-126963423D01*
X191927728Y-127409005D01*
X192373810Y-127707067D01*
X192900000Y-127811733D01*
X193426190Y-127707067D01*
X193872272Y-127409005D01*
X194170000Y-126963423D01*
X194467728Y-127409005D01*
X194913810Y-127707067D01*
X195440000Y-127811733D01*
X195966190Y-127707067D01*
X196412272Y-127409005D01*
X196710000Y-126963423D01*
X197007728Y-127409005D01*
X197453810Y-127707067D01*
X197980000Y-127811733D01*
X198506190Y-127707067D01*
X198952272Y-127409005D01*
X199250334Y-126962923D01*
X199355000Y-126436733D01*
X199355000Y-125363267D01*
X199250334Y-124837077D01*
X198952272Y-124390995D01*
X198506190Y-124092933D01*
X197980000Y-123988267D01*
X197453810Y-124092933D01*
X197007728Y-124390995D01*
X196710000Y-124836577D01*
X196412272Y-124390995D01*
X195966190Y-124092933D01*
X195440000Y-123988267D01*
X194913810Y-124092933D01*
X194467728Y-124390995D01*
X194170000Y-124836577D01*
X193872272Y-124390995D01*
X193426190Y-124092933D01*
X192900000Y-123988267D01*
X192373810Y-124092933D01*
X191927728Y-124390995D01*
X191630000Y-124836577D01*
X191332272Y-124390995D01*
X190886190Y-124092933D01*
X190360000Y-123988267D01*
X189833810Y-124092933D01*
X189387728Y-124390995D01*
X189090000Y-124836577D01*
X188792272Y-124390995D01*
X188346190Y-124092933D01*
X187820000Y-123988267D01*
X187293810Y-124092933D01*
X186847728Y-124390995D01*
X186550000Y-124836577D01*
X186252272Y-124390995D01*
X185806190Y-124092933D01*
X185280000Y-123988267D01*
X184753810Y-124092933D01*
X184307728Y-124390995D01*
X184010000Y-124836577D01*
X183712272Y-124390995D01*
X183266190Y-124092933D01*
X182740000Y-123988267D01*
X182213810Y-124092933D01*
X181767728Y-124390995D01*
X181470000Y-124836577D01*
X181172272Y-124390995D01*
X180726190Y-124092933D01*
X180200000Y-123988267D01*
X179673810Y-124092933D01*
X179227728Y-124390995D01*
X178930000Y-124836577D01*
X178632272Y-124390995D01*
X178186190Y-124092933D01*
X177660000Y-123988267D01*
X177133810Y-124092933D01*
X176687728Y-124390995D01*
X176390000Y-124836577D01*
X176092272Y-124390995D01*
X175646190Y-124092933D01*
X175120000Y-123988267D01*
X174593810Y-124092933D01*
X174147728Y-124390995D01*
X173850000Y-124836577D01*
X173552272Y-124390995D01*
X173106190Y-124092933D01*
X172580000Y-123988267D01*
X172053810Y-124092933D01*
X171607728Y-124390995D01*
X171310000Y-124836577D01*
X171012272Y-124390995D01*
X170566190Y-124092933D01*
X170040000Y-123988267D01*
X169513810Y-124092933D01*
X169067728Y-124390995D01*
X168769666Y-124837077D01*
X168665000Y-125363267D01*
X154700000Y-125363267D01*
X154700000Y-92172206D01*
X227114754Y-92172206D01*
X227331240Y-92696143D01*
X227731749Y-93097351D01*
X227740000Y-93100777D01*
X227740000Y-98298702D01*
X227733857Y-98301240D01*
X227332649Y-98701749D01*
X227115248Y-99225307D01*
X227114754Y-99792206D01*
X227331240Y-100316143D01*
X227731749Y-100717351D01*
X228255307Y-100934752D01*
X228822206Y-100935246D01*
X229346143Y-100718760D01*
X229747351Y-100318251D01*
X229964752Y-99794693D01*
X229965246Y-99227794D01*
X229748760Y-98703857D01*
X229348251Y-98302649D01*
X229340000Y-98299223D01*
X229340000Y-93101298D01*
X229346143Y-93098760D01*
X229747351Y-92698251D01*
X229964752Y-92174693D01*
X229965246Y-91607794D01*
X229748760Y-91083857D01*
X229348251Y-90682649D01*
X228824693Y-90465248D01*
X228257794Y-90464754D01*
X227733857Y-90681240D01*
X227332649Y-91081749D01*
X227115248Y-91605307D01*
X227114754Y-92172206D01*
X154700000Y-92172206D01*
X154700000Y-82675000D01*
X218617858Y-82675000D01*
X218617858Y-89025000D01*
X233382142Y-89025000D01*
X233382142Y-82675000D01*
X218617858Y-82675000D01*
X154700000Y-82675000D01*
X154700000Y-79563267D01*
X168665000Y-79563267D01*
X168665000Y-80636733D01*
X168769666Y-81162923D01*
X169067728Y-81609005D01*
X169513810Y-81907067D01*
X170040000Y-82011733D01*
X170566190Y-81907067D01*
X171012272Y-81609005D01*
X171310000Y-81163423D01*
X171607728Y-81609005D01*
X172053810Y-81907067D01*
X172580000Y-82011733D01*
X173106190Y-81907067D01*
X173552272Y-81609005D01*
X173850000Y-81163423D01*
X174147728Y-81609005D01*
X174593810Y-81907067D01*
X175120000Y-82011733D01*
X175646190Y-81907067D01*
X176092272Y-81609005D01*
X176390000Y-81163423D01*
X176687728Y-81609005D01*
X177133810Y-81907067D01*
X177660000Y-82011733D01*
X178186190Y-81907067D01*
X178632272Y-81609005D01*
X178930000Y-81163423D01*
X179227728Y-81609005D01*
X179673810Y-81907067D01*
X180200000Y-82011733D01*
X180726190Y-81907067D01*
X181172272Y-81609005D01*
X181470000Y-81163423D01*
X181767728Y-81609005D01*
X182213810Y-81907067D01*
X182740000Y-82011733D01*
X183266190Y-81907067D01*
X183712272Y-81609005D01*
X184010000Y-81163423D01*
X184307728Y-81609005D01*
X184753810Y-81907067D01*
X185280000Y-82011733D01*
X185806190Y-81907067D01*
X186252272Y-81609005D01*
X186550000Y-81163423D01*
X186847728Y-81609005D01*
X187293810Y-81907067D01*
X187820000Y-82011733D01*
X188346190Y-81907067D01*
X188792272Y-81609005D01*
X189090000Y-81163423D01*
X189387728Y-81609005D01*
X189833810Y-81907067D01*
X190360000Y-82011733D01*
X190886190Y-81907067D01*
X191332272Y-81609005D01*
X191630000Y-81163423D01*
X191927728Y-81609005D01*
X192373810Y-81907067D01*
X192900000Y-82011733D01*
X193426190Y-81907067D01*
X193872272Y-81609005D01*
X194170000Y-81163423D01*
X194467728Y-81609005D01*
X194913810Y-81907067D01*
X195440000Y-82011733D01*
X195966190Y-81907067D01*
X196412272Y-81609005D01*
X196710000Y-81163423D01*
X197007728Y-81609005D01*
X197453810Y-81907067D01*
X197980000Y-82011733D01*
X198506190Y-81907067D01*
X198952272Y-81609005D01*
X199250334Y-81162923D01*
X199355000Y-80636733D01*
X199355000Y-80176400D01*
X221959156Y-80176400D01*
X221959156Y-81903600D01*
X222002737Y-82135211D01*
X222139619Y-82347932D01*
X222348476Y-82490638D01*
X222596400Y-82540844D01*
X224323600Y-82540844D01*
X224555211Y-82497263D01*
X224767932Y-82360381D01*
X224910638Y-82151524D01*
X224923814Y-82086461D01*
X224947401Y-82121762D01*
X225430337Y-82444450D01*
X226000000Y-82557763D01*
X226569663Y-82444450D01*
X227052599Y-82121762D01*
X227270000Y-81796399D01*
X227487401Y-82121762D01*
X227970337Y-82444450D01*
X228540000Y-82557763D01*
X229109663Y-82444450D01*
X229592599Y-82121762D01*
X229915287Y-81638826D01*
X230028600Y-81069163D01*
X230028600Y-81010837D01*
X229915287Y-80441174D01*
X229592599Y-79958238D01*
X229109663Y-79635550D01*
X228540000Y-79522237D01*
X227970337Y-79635550D01*
X227487401Y-79958238D01*
X227270000Y-80283601D01*
X227052599Y-79958238D01*
X226770881Y-79770000D01*
X227052599Y-79581762D01*
X227375287Y-79098826D01*
X227488600Y-78529163D01*
X227488600Y-78470837D01*
X227375287Y-77901174D01*
X227052599Y-77418238D01*
X226569663Y-77095550D01*
X226000000Y-76982237D01*
X225430337Y-77095550D01*
X224947401Y-77418238D01*
X224730000Y-77743601D01*
X224512599Y-77418238D01*
X224029663Y-77095550D01*
X223460000Y-76982237D01*
X222890337Y-77095550D01*
X222407401Y-77418238D01*
X222084713Y-77901174D01*
X221971400Y-78470837D01*
X221971400Y-78529163D01*
X222084713Y-79098826D01*
X222403221Y-79575506D01*
X222364789Y-79582737D01*
X222152068Y-79719619D01*
X222009362Y-79928476D01*
X221959156Y-80176400D01*
X199355000Y-80176400D01*
X199355000Y-79563267D01*
X199250334Y-79037077D01*
X198952272Y-78590995D01*
X198506190Y-78292933D01*
X197980000Y-78188267D01*
X197453810Y-78292933D01*
X197007728Y-78590995D01*
X196710000Y-79036577D01*
X196412272Y-78590995D01*
X195966190Y-78292933D01*
X195440000Y-78188267D01*
X194913810Y-78292933D01*
X194467728Y-78590995D01*
X194170000Y-79036577D01*
X193872272Y-78590995D01*
X193426190Y-78292933D01*
X192900000Y-78188267D01*
X192373810Y-78292933D01*
X191927728Y-78590995D01*
X191630000Y-79036577D01*
X191332272Y-78590995D01*
X190886190Y-78292933D01*
X190360000Y-78188267D01*
X189833810Y-78292933D01*
X189387728Y-78590995D01*
X189090000Y-79036577D01*
X188792272Y-78590995D01*
X188346190Y-78292933D01*
X187820000Y-78188267D01*
X187293810Y-78292933D01*
X186847728Y-78590995D01*
X186550000Y-79036577D01*
X186252272Y-78590995D01*
X185806190Y-78292933D01*
X185280000Y-78188267D01*
X184753810Y-78292933D01*
X184307728Y-78590995D01*
X184010000Y-79036577D01*
X183712272Y-78590995D01*
X183266190Y-78292933D01*
X182740000Y-78188267D01*
X182213810Y-78292933D01*
X181767728Y-78590995D01*
X181470000Y-79036577D01*
X181172272Y-78590995D01*
X180726190Y-78292933D01*
X180200000Y-78188267D01*
X179673810Y-78292933D01*
X179227728Y-78590995D01*
X178930000Y-79036577D01*
X178632272Y-78590995D01*
X178186190Y-78292933D01*
X177660000Y-78188267D01*
X177133810Y-78292933D01*
X176687728Y-78590995D01*
X176390000Y-79036577D01*
X176092272Y-78590995D01*
X175646190Y-78292933D01*
X175120000Y-78188267D01*
X174593810Y-78292933D01*
X174147728Y-78590995D01*
X173850000Y-79036577D01*
X173552272Y-78590995D01*
X173106190Y-78292933D01*
X172580000Y-78188267D01*
X172053810Y-78292933D01*
X171607728Y-78590995D01*
X171310000Y-79036577D01*
X171012272Y-78590995D01*
X170566190Y-78292933D01*
X170040000Y-78188267D01*
X169513810Y-78292933D01*
X169067728Y-78590995D01*
X168769666Y-79037077D01*
X168665000Y-79563267D01*
X154700000Y-79563267D01*
X154700000Y-73700000D01*
X237300000Y-73700000D01*
X237300000Y-132300000D01*
M02*
