G04 #@! TF.FileFunction,Copper,L2,Bot,Signal*
%FSLAX46Y46*%
G04 Gerber Fmt 4.6, Leading zero omitted, Abs format (unit mm)*
G04 Created by KiCad (PCBNEW 4.0.2+dfsg1-stable) date Fri 10 Jun 2016 09:08:50 CEST*
%MOMM*%
G01*
G04 APERTURE LIST*
%ADD10C,0.100000*%
%ADD11C,0.150000*%
%ADD12C,0.300000*%
%ADD13C,0.400000*%
%ADD14R,1.900000X2.000000*%
%ADD15C,1.900000*%
%ADD16C,2.000000*%
%ADD17R,1.300000X1.300000*%
%ADD18C,1.300000*%
%ADD19R,1.727200X1.727200*%
%ADD20O,1.727200X1.727200*%
%ADD21R,1.800860X0.800100*%
%ADD22C,1.998980*%
%ADD23O,1.600000X1.600000*%
%ADD24C,1.397000*%
%ADD25C,0.800000*%
%ADD26C,0.500000*%
G04 APERTURE END LIST*
D10*
D11*
X177002200Y-166007200D02*
X177002200Y-198007200D01*
X285002200Y-198007200D01*
X285002200Y-166007200D01*
X177002200Y-166007200D01*
D10*
D11*
X10000000Y-10000000D02*
X10000000Y-200007200D01*
X287002200Y-200007200D01*
X287002200Y-10000000D01*
X10000000Y-10000000D01*
D10*
D11*
X12000000Y-12000000D02*
X12000000Y-198007200D01*
X285002200Y-198007200D01*
X285002200Y-12000000D01*
X12000000Y-12000000D01*
D10*
D11*
X60000000Y-12000000D02*
X60000000Y-10000000D01*
D10*
D11*
X110000000Y-12000000D02*
X110000000Y-10000000D01*
D10*
D11*
X160000000Y-12000000D02*
X160000000Y-10000000D01*
D10*
D11*
X210000000Y-12000000D02*
X210000000Y-10000000D01*
D10*
D11*
X260000000Y-12000000D02*
X260000000Y-10000000D01*
D10*
D11*
X35990476Y-11588095D02*
X35247619Y-11588095D01*
X35619048Y-11588095D02*
X35619048Y-10288095D01*
X35495238Y-10473810D01*
X35371429Y-10597619D01*
X35247619Y-10659524D01*
D10*
D11*
X85247619Y-10411905D02*
X85309524Y-10350000D01*
X85433333Y-10288095D01*
X85742857Y-10288095D01*
X85866667Y-10350000D01*
X85928571Y-10411905D01*
X85990476Y-10535714D01*
X85990476Y-10659524D01*
X85928571Y-10845238D01*
X85185714Y-11588095D01*
X85990476Y-11588095D01*
D10*
D11*
X135185714Y-10288095D02*
X135990476Y-10288095D01*
X135557143Y-10783333D01*
X135742857Y-10783333D01*
X135866667Y-10845238D01*
X135928571Y-10907143D01*
X135990476Y-11030952D01*
X135990476Y-11340476D01*
X135928571Y-11464286D01*
X135866667Y-11526190D01*
X135742857Y-11588095D01*
X135371429Y-11588095D01*
X135247619Y-11526190D01*
X135185714Y-11464286D01*
D10*
D11*
X185866667Y-10721429D02*
X185866667Y-11588095D01*
X185557143Y-10226190D02*
X185247619Y-11154762D01*
X186052381Y-11154762D01*
D10*
D11*
X235928571Y-10288095D02*
X235309524Y-10288095D01*
X235247619Y-10907143D01*
X235309524Y-10845238D01*
X235433333Y-10783333D01*
X235742857Y-10783333D01*
X235866667Y-10845238D01*
X235928571Y-10907143D01*
X235990476Y-11030952D01*
X235990476Y-11340476D01*
X235928571Y-11464286D01*
X235866667Y-11526190D01*
X235742857Y-11588095D01*
X235433333Y-11588095D01*
X235309524Y-11526190D01*
X235247619Y-11464286D01*
D10*
D11*
X285866667Y-10288095D02*
X285619048Y-10288095D01*
X285495238Y-10350000D01*
X285433333Y-10411905D01*
X285309524Y-10597619D01*
X285247619Y-10845238D01*
X285247619Y-11340476D01*
X285309524Y-11464286D01*
X285371429Y-11526190D01*
X285495238Y-11588095D01*
X285742857Y-11588095D01*
X285866667Y-11526190D01*
X285928571Y-11464286D01*
X285990476Y-11340476D01*
X285990476Y-11030952D01*
X285928571Y-10907143D01*
X285866667Y-10845238D01*
X285742857Y-10783333D01*
X285495238Y-10783333D01*
X285371429Y-10845238D01*
X285309524Y-10907143D01*
X285247619Y-11030952D01*
D10*
D11*
X60000000Y-198007200D02*
X60000000Y-200007200D01*
D10*
D11*
X110000000Y-198007200D02*
X110000000Y-200007200D01*
D10*
D11*
X160000000Y-198007200D02*
X160000000Y-200007200D01*
D10*
D11*
X210000000Y-198007200D02*
X210000000Y-200007200D01*
D10*
D11*
X260000000Y-198007200D02*
X260000000Y-200007200D01*
D10*
D11*
X35990476Y-199595295D02*
X35247619Y-199595295D01*
X35619048Y-199595295D02*
X35619048Y-198295295D01*
X35495238Y-198481010D01*
X35371429Y-198604819D01*
X35247619Y-198666724D01*
D10*
D11*
X85247619Y-198419105D02*
X85309524Y-198357200D01*
X85433333Y-198295295D01*
X85742857Y-198295295D01*
X85866667Y-198357200D01*
X85928571Y-198419105D01*
X85990476Y-198542914D01*
X85990476Y-198666724D01*
X85928571Y-198852438D01*
X85185714Y-199595295D01*
X85990476Y-199595295D01*
D10*
D11*
X135185714Y-198295295D02*
X135990476Y-198295295D01*
X135557143Y-198790533D01*
X135742857Y-198790533D01*
X135866667Y-198852438D01*
X135928571Y-198914343D01*
X135990476Y-199038152D01*
X135990476Y-199347676D01*
X135928571Y-199471486D01*
X135866667Y-199533390D01*
X135742857Y-199595295D01*
X135371429Y-199595295D01*
X135247619Y-199533390D01*
X135185714Y-199471486D01*
D10*
D11*
X185866667Y-198728629D02*
X185866667Y-199595295D01*
X185557143Y-198233390D02*
X185247619Y-199161962D01*
X186052381Y-199161962D01*
D10*
D11*
X235928571Y-198295295D02*
X235309524Y-198295295D01*
X235247619Y-198914343D01*
X235309524Y-198852438D01*
X235433333Y-198790533D01*
X235742857Y-198790533D01*
X235866667Y-198852438D01*
X235928571Y-198914343D01*
X235990476Y-199038152D01*
X235990476Y-199347676D01*
X235928571Y-199471486D01*
X235866667Y-199533390D01*
X235742857Y-199595295D01*
X235433333Y-199595295D01*
X235309524Y-199533390D01*
X235247619Y-199471486D01*
D10*
D11*
X285866667Y-198295295D02*
X285619048Y-198295295D01*
X285495238Y-198357200D01*
X285433333Y-198419105D01*
X285309524Y-198604819D01*
X285247619Y-198852438D01*
X285247619Y-199347676D01*
X285309524Y-199471486D01*
X285371429Y-199533390D01*
X285495238Y-199595295D01*
X285742857Y-199595295D01*
X285866667Y-199533390D01*
X285928571Y-199471486D01*
X285990476Y-199347676D01*
X285990476Y-199038152D01*
X285928571Y-198914343D01*
X285866667Y-198852438D01*
X285742857Y-198790533D01*
X285495238Y-198790533D01*
X285371429Y-198852438D01*
X285309524Y-198914343D01*
X285247619Y-199038152D01*
D10*
D11*
X10000000Y-60000000D02*
X12000000Y-60000000D01*
D10*
D11*
X10000000Y-110000000D02*
X12000000Y-110000000D01*
D10*
D11*
X10000000Y-160000000D02*
X12000000Y-160000000D01*
D10*
D11*
X10690476Y-35216667D02*
X11309524Y-35216667D01*
X10566667Y-35588095D02*
X11000000Y-34288095D01*
X11433333Y-35588095D01*
D10*
D11*
X11092857Y-84907143D02*
X11278571Y-84969048D01*
X11340476Y-85030952D01*
X11402381Y-85154762D01*
X11402381Y-85340476D01*
X11340476Y-85464286D01*
X11278571Y-85526190D01*
X11154762Y-85588095D01*
X10659524Y-85588095D01*
X10659524Y-84288095D01*
X11092857Y-84288095D01*
X11216667Y-84350000D01*
X11278571Y-84411905D01*
X11340476Y-84535714D01*
X11340476Y-84659524D01*
X11278571Y-84783333D01*
X11216667Y-84845238D01*
X11092857Y-84907143D01*
X10659524Y-84907143D01*
D10*
D11*
X11402381Y-135464286D02*
X11340476Y-135526190D01*
X11154762Y-135588095D01*
X11030952Y-135588095D01*
X10845238Y-135526190D01*
X10721429Y-135402381D01*
X10659524Y-135278571D01*
X10597619Y-135030952D01*
X10597619Y-134845238D01*
X10659524Y-134597619D01*
X10721429Y-134473810D01*
X10845238Y-134350000D01*
X11030952Y-134288095D01*
X11154762Y-134288095D01*
X11340476Y-134350000D01*
X11402381Y-134411905D01*
D10*
D11*
X10659524Y-185588095D02*
X10659524Y-184288095D01*
X10969048Y-184288095D01*
X11154762Y-184350000D01*
X11278571Y-184473810D01*
X11340476Y-184597619D01*
X11402381Y-184845238D01*
X11402381Y-185030952D01*
X11340476Y-185278571D01*
X11278571Y-185402381D01*
X11154762Y-185526190D01*
X10969048Y-185588095D01*
X10659524Y-185588095D01*
D10*
D11*
X287002200Y-60000000D02*
X285002200Y-60000000D01*
D10*
D11*
X287002200Y-110000000D02*
X285002200Y-110000000D01*
D10*
D11*
X287002200Y-160000000D02*
X285002200Y-160000000D01*
D10*
D11*
X285692676Y-35216667D02*
X286311724Y-35216667D01*
X285568867Y-35588095D02*
X286002200Y-34288095D01*
X286435533Y-35588095D01*
D10*
D11*
X286095057Y-84907143D02*
X286280771Y-84969048D01*
X286342676Y-85030952D01*
X286404581Y-85154762D01*
X286404581Y-85340476D01*
X286342676Y-85464286D01*
X286280771Y-85526190D01*
X286156962Y-85588095D01*
X285661724Y-85588095D01*
X285661724Y-84288095D01*
X286095057Y-84288095D01*
X286218867Y-84350000D01*
X286280771Y-84411905D01*
X286342676Y-84535714D01*
X286342676Y-84659524D01*
X286280771Y-84783333D01*
X286218867Y-84845238D01*
X286095057Y-84907143D01*
X285661724Y-84907143D01*
D10*
D11*
X286404581Y-135464286D02*
X286342676Y-135526190D01*
X286156962Y-135588095D01*
X286033152Y-135588095D01*
X285847438Y-135526190D01*
X285723629Y-135402381D01*
X285661724Y-135278571D01*
X285599819Y-135030952D01*
X285599819Y-134845238D01*
X285661724Y-134597619D01*
X285723629Y-134473810D01*
X285847438Y-134350000D01*
X286033152Y-134288095D01*
X286156962Y-134288095D01*
X286342676Y-134350000D01*
X286404581Y-134411905D01*
D10*
D11*
X285661724Y-185588095D02*
X285661724Y-184288095D01*
X285971248Y-184288095D01*
X286156962Y-184350000D01*
X286280771Y-184473810D01*
X286342676Y-184597619D01*
X286404581Y-184845238D01*
X286404581Y-185030952D01*
X286342676Y-185278571D01*
X286280771Y-185402381D01*
X286156962Y-185526190D01*
X285971248Y-185588095D01*
X285661724Y-185588095D01*
D10*
D11*
X200359343Y-193785771D02*
X200359343Y-192285771D01*
X200716486Y-192285771D01*
X200930771Y-192357200D01*
X201073629Y-192500057D01*
X201145057Y-192642914D01*
X201216486Y-192928629D01*
X201216486Y-193142914D01*
X201145057Y-193428629D01*
X201073629Y-193571486D01*
X200930771Y-193714343D01*
X200716486Y-193785771D01*
X200359343Y-193785771D01*
X202502200Y-193785771D02*
X202502200Y-193000057D01*
X202430771Y-192857200D01*
X202287914Y-192785771D01*
X202002200Y-192785771D01*
X201859343Y-192857200D01*
X202502200Y-193714343D02*
X202359343Y-193785771D01*
X202002200Y-193785771D01*
X201859343Y-193714343D01*
X201787914Y-193571486D01*
X201787914Y-193428629D01*
X201859343Y-193285771D01*
X202002200Y-193214343D01*
X202359343Y-193214343D01*
X202502200Y-193142914D01*
X203002200Y-192785771D02*
X203573629Y-192785771D01*
X203216486Y-192285771D02*
X203216486Y-193571486D01*
X203287914Y-193714343D01*
X203430772Y-193785771D01*
X203573629Y-193785771D01*
X204645057Y-193714343D02*
X204502200Y-193785771D01*
X204216486Y-193785771D01*
X204073629Y-193714343D01*
X204002200Y-193571486D01*
X204002200Y-193000057D01*
X204073629Y-192857200D01*
X204216486Y-192785771D01*
X204502200Y-192785771D01*
X204645057Y-192857200D01*
X204716486Y-193000057D01*
X204716486Y-193142914D01*
X204002200Y-193285771D01*
X205359343Y-193642914D02*
X205430771Y-193714343D01*
X205359343Y-193785771D01*
X205287914Y-193714343D01*
X205359343Y-193642914D01*
X205359343Y-193785771D01*
X205359343Y-192857200D02*
X205430771Y-192928629D01*
X205359343Y-193000057D01*
X205287914Y-192928629D01*
X205359343Y-192857200D01*
X205359343Y-193000057D01*
X207145057Y-192428629D02*
X207216486Y-192357200D01*
X207359343Y-192285771D01*
X207716486Y-192285771D01*
X207859343Y-192357200D01*
X207930772Y-192428629D01*
X208002200Y-192571486D01*
X208002200Y-192714343D01*
X207930772Y-192928629D01*
X207073629Y-193785771D01*
X208002200Y-193785771D01*
X208930771Y-192285771D02*
X209073628Y-192285771D01*
X209216485Y-192357200D01*
X209287914Y-192428629D01*
X209359343Y-192571486D01*
X209430771Y-192857200D01*
X209430771Y-193214343D01*
X209359343Y-193500057D01*
X209287914Y-193642914D01*
X209216485Y-193714343D01*
X209073628Y-193785771D01*
X208930771Y-193785771D01*
X208787914Y-193714343D01*
X208716485Y-193642914D01*
X208645057Y-193500057D01*
X208573628Y-193214343D01*
X208573628Y-192857200D01*
X208645057Y-192571486D01*
X208716485Y-192428629D01*
X208787914Y-192357200D01*
X208930771Y-192285771D01*
X210859342Y-193785771D02*
X210002199Y-193785771D01*
X210430771Y-193785771D02*
X210430771Y-192285771D01*
X210287914Y-192500057D01*
X210145056Y-192642914D01*
X210002199Y-192714343D01*
X212145056Y-192285771D02*
X211859342Y-192285771D01*
X211716485Y-192357200D01*
X211645056Y-192428629D01*
X211502199Y-192642914D01*
X211430770Y-192928629D01*
X211430770Y-193500057D01*
X211502199Y-193642914D01*
X211573627Y-193714343D01*
X211716485Y-193785771D01*
X212002199Y-193785771D01*
X212145056Y-193714343D01*
X212216485Y-193642914D01*
X212287913Y-193500057D01*
X212287913Y-193142914D01*
X212216485Y-193000057D01*
X212145056Y-192928629D01*
X212002199Y-192857200D01*
X211716485Y-192857200D01*
X211573627Y-192928629D01*
X211502199Y-193000057D01*
X211430770Y-193142914D01*
X212930770Y-193214343D02*
X214073627Y-193214343D01*
X215073627Y-192285771D02*
X215216484Y-192285771D01*
X215359341Y-192357200D01*
X215430770Y-192428629D01*
X215502199Y-192571486D01*
X215573627Y-192857200D01*
X215573627Y-193214343D01*
X215502199Y-193500057D01*
X215430770Y-193642914D01*
X215359341Y-193714343D01*
X215216484Y-193785771D01*
X215073627Y-193785771D01*
X214930770Y-193714343D01*
X214859341Y-193642914D01*
X214787913Y-193500057D01*
X214716484Y-193214343D01*
X214716484Y-192857200D01*
X214787913Y-192571486D01*
X214859341Y-192428629D01*
X214930770Y-192357200D01*
X215073627Y-192285771D01*
X216859341Y-192785771D02*
X216859341Y-193785771D01*
X216502198Y-192214343D02*
X216145055Y-193285771D01*
X217073627Y-193285771D01*
X217645055Y-193214343D02*
X218787912Y-193214343D01*
X220287912Y-193785771D02*
X219430769Y-193785771D01*
X219859341Y-193785771D02*
X219859341Y-192285771D01*
X219716484Y-192500057D01*
X219573626Y-192642914D01*
X219430769Y-192714343D01*
X221716483Y-193785771D02*
X220859340Y-193785771D01*
X221287912Y-193785771D02*
X221287912Y-192285771D01*
X221145055Y-192500057D01*
X221002197Y-192642914D01*
X220859340Y-192714343D01*
D10*
D11*
X177002200Y-194507200D02*
X285002200Y-194507200D01*
D10*
D11*
X178359343Y-196585771D02*
X178359343Y-195085771D01*
X179216486Y-196585771D02*
X178573629Y-195728629D01*
X179216486Y-195085771D02*
X178359343Y-195942914D01*
X179859343Y-196585771D02*
X179859343Y-195585771D01*
X179859343Y-195085771D02*
X179787914Y-195157200D01*
X179859343Y-195228629D01*
X179930771Y-195157200D01*
X179859343Y-195085771D01*
X179859343Y-195228629D01*
X181430772Y-196442914D02*
X181359343Y-196514343D01*
X181145057Y-196585771D01*
X181002200Y-196585771D01*
X180787915Y-196514343D01*
X180645057Y-196371486D01*
X180573629Y-196228629D01*
X180502200Y-195942914D01*
X180502200Y-195728629D01*
X180573629Y-195442914D01*
X180645057Y-195300057D01*
X180787915Y-195157200D01*
X181002200Y-195085771D01*
X181145057Y-195085771D01*
X181359343Y-195157200D01*
X181430772Y-195228629D01*
X182716486Y-196585771D02*
X182716486Y-195800057D01*
X182645057Y-195657200D01*
X182502200Y-195585771D01*
X182216486Y-195585771D01*
X182073629Y-195657200D01*
X182716486Y-196514343D02*
X182573629Y-196585771D01*
X182216486Y-196585771D01*
X182073629Y-196514343D01*
X182002200Y-196371486D01*
X182002200Y-196228629D01*
X182073629Y-196085771D01*
X182216486Y-196014343D01*
X182573629Y-196014343D01*
X182716486Y-195942914D01*
X184073629Y-196585771D02*
X184073629Y-195085771D01*
X184073629Y-196514343D02*
X183930772Y-196585771D01*
X183645058Y-196585771D01*
X183502200Y-196514343D01*
X183430772Y-196442914D01*
X183359343Y-196300057D01*
X183359343Y-195871486D01*
X183430772Y-195728629D01*
X183502200Y-195657200D01*
X183645058Y-195585771D01*
X183930772Y-195585771D01*
X184073629Y-195657200D01*
X185930772Y-195800057D02*
X186430772Y-195800057D01*
X186645058Y-196585771D02*
X185930772Y-196585771D01*
X185930772Y-195085771D01*
X186645058Y-195085771D01*
X187287915Y-196442914D02*
X187359343Y-196514343D01*
X187287915Y-196585771D01*
X187216486Y-196514343D01*
X187287915Y-196442914D01*
X187287915Y-196585771D01*
X188002201Y-196585771D02*
X188002201Y-195085771D01*
X188359344Y-195085771D01*
X188573629Y-195157200D01*
X188716487Y-195300057D01*
X188787915Y-195442914D01*
X188859344Y-195728629D01*
X188859344Y-195942914D01*
X188787915Y-196228629D01*
X188716487Y-196371486D01*
X188573629Y-196514343D01*
X188359344Y-196585771D01*
X188002201Y-196585771D01*
X189502201Y-196442914D02*
X189573629Y-196514343D01*
X189502201Y-196585771D01*
X189430772Y-196514343D01*
X189502201Y-196442914D01*
X189502201Y-196585771D01*
X190145058Y-196157200D02*
X190859344Y-196157200D01*
X190002201Y-196585771D02*
X190502201Y-195085771D01*
X191002201Y-196585771D01*
X191502201Y-196442914D02*
X191573629Y-196514343D01*
X191502201Y-196585771D01*
X191430772Y-196514343D01*
X191502201Y-196442914D01*
X191502201Y-196585771D01*
X194502201Y-196585771D02*
X194502201Y-195085771D01*
X194645058Y-196014343D02*
X195073629Y-196585771D01*
X195073629Y-195585771D02*
X194502201Y-196157200D01*
X195716487Y-196585771D02*
X195716487Y-195585771D01*
X195716487Y-195085771D02*
X195645058Y-195157200D01*
X195716487Y-195228629D01*
X195787915Y-195157200D01*
X195716487Y-195085771D01*
X195716487Y-195228629D01*
X197073630Y-196514343D02*
X196930773Y-196585771D01*
X196645059Y-196585771D01*
X196502201Y-196514343D01*
X196430773Y-196442914D01*
X196359344Y-196300057D01*
X196359344Y-195871486D01*
X196430773Y-195728629D01*
X196502201Y-195657200D01*
X196645059Y-195585771D01*
X196930773Y-195585771D01*
X197073630Y-195657200D01*
X198359344Y-196585771D02*
X198359344Y-195800057D01*
X198287915Y-195657200D01*
X198145058Y-195585771D01*
X197859344Y-195585771D01*
X197716487Y-195657200D01*
X198359344Y-196514343D02*
X198216487Y-196585771D01*
X197859344Y-196585771D01*
X197716487Y-196514343D01*
X197645058Y-196371486D01*
X197645058Y-196228629D01*
X197716487Y-196085771D01*
X197859344Y-196014343D01*
X198216487Y-196014343D01*
X198359344Y-195942914D01*
X199716487Y-196585771D02*
X199716487Y-195085771D01*
X199716487Y-196514343D02*
X199573630Y-196585771D01*
X199287916Y-196585771D01*
X199145058Y-196514343D01*
X199073630Y-196442914D01*
X199002201Y-196300057D01*
X199002201Y-195871486D01*
X199073630Y-195728629D01*
X199145058Y-195657200D01*
X199287916Y-195585771D01*
X199573630Y-195585771D01*
X199716487Y-195657200D01*
X202216487Y-195585771D02*
X202216487Y-196585771D01*
X201859344Y-195014343D02*
X201502201Y-196085771D01*
X202430773Y-196085771D01*
X203002201Y-196442914D02*
X203073629Y-196514343D01*
X203002201Y-196585771D01*
X202930772Y-196514343D01*
X203002201Y-196442914D01*
X203002201Y-196585771D01*
X204002201Y-195085771D02*
X204145058Y-195085771D01*
X204287915Y-195157200D01*
X204359344Y-195228629D01*
X204430773Y-195371486D01*
X204502201Y-195657200D01*
X204502201Y-196014343D01*
X204430773Y-196300057D01*
X204359344Y-196442914D01*
X204287915Y-196514343D01*
X204145058Y-196585771D01*
X204002201Y-196585771D01*
X203859344Y-196514343D01*
X203787915Y-196442914D01*
X203716487Y-196300057D01*
X203645058Y-196014343D01*
X203645058Y-195657200D01*
X203716487Y-195371486D01*
X203787915Y-195228629D01*
X203859344Y-195157200D01*
X204002201Y-195085771D01*
X205145058Y-196442914D02*
X205216486Y-196514343D01*
X205145058Y-196585771D01*
X205073629Y-196514343D01*
X205145058Y-196442914D01*
X205145058Y-196585771D01*
X205787915Y-195228629D02*
X205859344Y-195157200D01*
X206002201Y-195085771D01*
X206359344Y-195085771D01*
X206502201Y-195157200D01*
X206573630Y-195228629D01*
X206645058Y-195371486D01*
X206645058Y-195514343D01*
X206573630Y-195728629D01*
X205716487Y-196585771D01*
X206645058Y-196585771D01*
X207287915Y-196014343D02*
X208430772Y-196014343D01*
X207859343Y-196585771D02*
X207859343Y-195442914D01*
X209787915Y-196585771D02*
X209787915Y-195085771D01*
X209787915Y-196514343D02*
X209645058Y-196585771D01*
X209359344Y-196585771D01*
X209216486Y-196514343D01*
X209145058Y-196442914D01*
X209073629Y-196300057D01*
X209073629Y-195871486D01*
X209145058Y-195728629D01*
X209216486Y-195657200D01*
X209359344Y-195585771D01*
X209645058Y-195585771D01*
X209787915Y-195657200D01*
X210287915Y-195585771D02*
X210859344Y-195585771D01*
X210502201Y-196585771D02*
X210502201Y-195300057D01*
X210573629Y-195157200D01*
X210716487Y-195085771D01*
X210859344Y-195085771D01*
X211287915Y-196514343D02*
X211430772Y-196585771D01*
X211716487Y-196585771D01*
X211859344Y-196514343D01*
X211930772Y-196371486D01*
X211930772Y-196300057D01*
X211859344Y-196157200D01*
X211716487Y-196085771D01*
X211502201Y-196085771D01*
X211359344Y-196014343D01*
X211287915Y-195871486D01*
X211287915Y-195800057D01*
X211359344Y-195657200D01*
X211502201Y-195585771D01*
X211716487Y-195585771D01*
X211859344Y-195657200D01*
X213216487Y-195585771D02*
X213216487Y-196800057D01*
X213145058Y-196942914D01*
X213073630Y-197014343D01*
X212930773Y-197085771D01*
X212716487Y-197085771D01*
X212573630Y-197014343D01*
X213216487Y-196514343D02*
X213073630Y-196585771D01*
X212787916Y-196585771D01*
X212645058Y-196514343D01*
X212573630Y-196442914D01*
X212502201Y-196300057D01*
X212502201Y-195871486D01*
X212573630Y-195728629D01*
X212645058Y-195657200D01*
X212787916Y-195585771D01*
X213073630Y-195585771D01*
X213216487Y-195657200D01*
X214716487Y-196585771D02*
X213859344Y-196585771D01*
X214287916Y-196585771D02*
X214287916Y-195085771D01*
X214145059Y-195300057D01*
X214002201Y-195442914D01*
X213859344Y-195514343D01*
X215359344Y-196014343D02*
X216502201Y-196014343D01*
X217145058Y-196514343D02*
X217287915Y-196585771D01*
X217573630Y-196585771D01*
X217716487Y-196514343D01*
X217787915Y-196371486D01*
X217787915Y-196300057D01*
X217716487Y-196157200D01*
X217573630Y-196085771D01*
X217359344Y-196085771D01*
X217216487Y-196014343D01*
X217145058Y-195871486D01*
X217145058Y-195800057D01*
X217216487Y-195657200D01*
X217359344Y-195585771D01*
X217573630Y-195585771D01*
X217716487Y-195657200D01*
X218216487Y-195585771D02*
X218787916Y-195585771D01*
X218430773Y-195085771D02*
X218430773Y-196371486D01*
X218502201Y-196514343D01*
X218645059Y-196585771D01*
X218787916Y-196585771D01*
X219930773Y-196585771D02*
X219930773Y-195800057D01*
X219859344Y-195657200D01*
X219716487Y-195585771D01*
X219430773Y-195585771D01*
X219287916Y-195657200D01*
X219930773Y-196514343D02*
X219787916Y-196585771D01*
X219430773Y-196585771D01*
X219287916Y-196514343D01*
X219216487Y-196371486D01*
X219216487Y-196228629D01*
X219287916Y-196085771D01*
X219430773Y-196014343D01*
X219787916Y-196014343D01*
X219930773Y-195942914D01*
X220645059Y-196585771D02*
X220645059Y-195085771D01*
X220645059Y-195657200D02*
X220787916Y-195585771D01*
X221073630Y-195585771D01*
X221216487Y-195657200D01*
X221287916Y-195728629D01*
X221359345Y-195871486D01*
X221359345Y-196300057D01*
X221287916Y-196442914D01*
X221216487Y-196514343D01*
X221073630Y-196585771D01*
X220787916Y-196585771D01*
X220645059Y-196514343D01*
X222216488Y-196585771D02*
X222073630Y-196514343D01*
X222002202Y-196371486D01*
X222002202Y-195085771D01*
X223359344Y-196514343D02*
X223216487Y-196585771D01*
X222930773Y-196585771D01*
X222787916Y-196514343D01*
X222716487Y-196371486D01*
X222716487Y-195800057D01*
X222787916Y-195657200D01*
X222930773Y-195585771D01*
X223216487Y-195585771D01*
X223359344Y-195657200D01*
X223430773Y-195800057D01*
X223430773Y-195942914D01*
X222716487Y-196085771D01*
D10*
D11*
X177002200Y-191507200D02*
X285002200Y-191507200D01*
D10*
D12*
X264216486Y-193785771D02*
X263716486Y-193071486D01*
X263359343Y-193785771D02*
X263359343Y-192285771D01*
X263930771Y-192285771D01*
X264073629Y-192357200D01*
X264145057Y-192428629D01*
X264216486Y-192571486D01*
X264216486Y-192785771D01*
X264145057Y-192928629D01*
X264073629Y-193000057D01*
X263930771Y-193071486D01*
X263359343Y-193071486D01*
X265430771Y-193714343D02*
X265287914Y-193785771D01*
X265002200Y-193785771D01*
X264859343Y-193714343D01*
X264787914Y-193571486D01*
X264787914Y-193000057D01*
X264859343Y-192857200D01*
X265002200Y-192785771D01*
X265287914Y-192785771D01*
X265430771Y-192857200D01*
X265502200Y-193000057D01*
X265502200Y-193142914D01*
X264787914Y-193285771D01*
X266002200Y-192785771D02*
X266359343Y-193785771D01*
X266716485Y-192785771D01*
X267287914Y-193642914D02*
X267359342Y-193714343D01*
X267287914Y-193785771D01*
X267216485Y-193714343D01*
X267287914Y-193642914D01*
X267287914Y-193785771D01*
X267287914Y-192857200D02*
X267359342Y-192928629D01*
X267287914Y-193000057D01*
X267216485Y-192928629D01*
X267287914Y-192857200D01*
X267287914Y-193000057D01*
X269930771Y-193785771D02*
X269073628Y-193785771D01*
X269502200Y-193785771D02*
X269502200Y-192285771D01*
X269359343Y-192500057D01*
X269216485Y-192642914D01*
X269073628Y-192714343D01*
D10*
D11*
X178287914Y-193714343D02*
X178502200Y-193785771D01*
X178859343Y-193785771D01*
X179002200Y-193714343D01*
X179073629Y-193642914D01*
X179145057Y-193500057D01*
X179145057Y-193357200D01*
X179073629Y-193214343D01*
X179002200Y-193142914D01*
X178859343Y-193071486D01*
X178573629Y-193000057D01*
X178430771Y-192928629D01*
X178359343Y-192857200D01*
X178287914Y-192714343D01*
X178287914Y-192571486D01*
X178359343Y-192428629D01*
X178430771Y-192357200D01*
X178573629Y-192285771D01*
X178930771Y-192285771D01*
X179145057Y-192357200D01*
X179787914Y-193785771D02*
X179787914Y-192785771D01*
X179787914Y-192285771D02*
X179716485Y-192357200D01*
X179787914Y-192428629D01*
X179859342Y-192357200D01*
X179787914Y-192285771D01*
X179787914Y-192428629D01*
X180359343Y-192785771D02*
X181145057Y-192785771D01*
X180359343Y-193785771D01*
X181145057Y-193785771D01*
X182287914Y-193714343D02*
X182145057Y-193785771D01*
X181859343Y-193785771D01*
X181716486Y-193714343D01*
X181645057Y-193571486D01*
X181645057Y-193000057D01*
X181716486Y-192857200D01*
X181859343Y-192785771D01*
X182145057Y-192785771D01*
X182287914Y-192857200D01*
X182359343Y-193000057D01*
X182359343Y-193142914D01*
X181645057Y-193285771D01*
X183002200Y-193642914D02*
X183073628Y-193714343D01*
X183002200Y-193785771D01*
X182930771Y-193714343D01*
X183002200Y-193642914D01*
X183002200Y-193785771D01*
X183002200Y-192857200D02*
X183073628Y-192928629D01*
X183002200Y-193000057D01*
X182930771Y-192928629D01*
X183002200Y-192857200D01*
X183002200Y-193000057D01*
X184787914Y-193357200D02*
X185502200Y-193357200D01*
X184645057Y-193785771D02*
X185145057Y-192285771D01*
X185645057Y-193785771D01*
X186787914Y-192785771D02*
X186787914Y-193785771D01*
X186430771Y-192214343D02*
X186073628Y-193285771D01*
X187002200Y-193285771D01*
D10*
D11*
X263359343Y-196585771D02*
X263359343Y-195085771D01*
X264716486Y-196585771D02*
X264716486Y-195085771D01*
X264716486Y-196514343D02*
X264573629Y-196585771D01*
X264287915Y-196585771D01*
X264145057Y-196514343D01*
X264073629Y-196442914D01*
X264002200Y-196300057D01*
X264002200Y-195871486D01*
X264073629Y-195728629D01*
X264145057Y-195657200D01*
X264287915Y-195585771D01*
X264573629Y-195585771D01*
X264716486Y-195657200D01*
X265430772Y-196442914D02*
X265502200Y-196514343D01*
X265430772Y-196585771D01*
X265359343Y-196514343D01*
X265430772Y-196442914D01*
X265430772Y-196585771D01*
X265430772Y-195657200D02*
X265502200Y-195728629D01*
X265430772Y-195800057D01*
X265359343Y-195728629D01*
X265430772Y-195657200D01*
X265430772Y-195800057D01*
X268073629Y-196585771D02*
X267216486Y-196585771D01*
X267645058Y-196585771D02*
X267645058Y-195085771D01*
X267502201Y-195300057D01*
X267359343Y-195442914D01*
X267216486Y-195514343D01*
X269787914Y-195014343D02*
X268502200Y-196942914D01*
X271073629Y-196585771D02*
X270216486Y-196585771D01*
X270645058Y-196585771D02*
X270645058Y-195085771D01*
X270502201Y-195300057D01*
X270359343Y-195442914D01*
X270216486Y-195514343D01*
D10*
D11*
X177002200Y-187507200D02*
X285002200Y-187507200D01*
D10*
D13*
X178454581Y-188211962D02*
X179597438Y-188211962D01*
X178776010Y-190211962D02*
X179026010Y-188211962D01*
X180014105Y-190211962D02*
X180180771Y-188878629D01*
X180264105Y-188211962D02*
X180156962Y-188307200D01*
X180240295Y-188402438D01*
X180347439Y-188307200D01*
X180264105Y-188211962D01*
X180240295Y-188402438D01*
X180847438Y-188878629D02*
X181609343Y-188878629D01*
X181216486Y-188211962D02*
X181002200Y-189926248D01*
X181073630Y-190116724D01*
X181252201Y-190211962D01*
X181442677Y-190211962D01*
X182395058Y-190211962D02*
X182216487Y-190116724D01*
X182145057Y-189926248D01*
X182359343Y-188211962D01*
X183930772Y-190116724D02*
X183728391Y-190211962D01*
X183347439Y-190211962D01*
X183168867Y-190116724D01*
X183097438Y-189926248D01*
X183192676Y-189164343D01*
X183311724Y-188973867D01*
X183514105Y-188878629D01*
X183895057Y-188878629D01*
X184073629Y-188973867D01*
X184145057Y-189164343D01*
X184121248Y-189354819D01*
X183145057Y-189545295D01*
X184895057Y-190021486D02*
X184978392Y-190116724D01*
X184871248Y-190211962D01*
X184787915Y-190116724D01*
X184895057Y-190021486D01*
X184871248Y-190211962D01*
X185026010Y-188973867D02*
X185109344Y-189069105D01*
X185002200Y-189164343D01*
X184918867Y-189069105D01*
X185026010Y-188973867D01*
X185002200Y-189164343D01*
X188299820Y-190211962D02*
X187347439Y-190211962D01*
X187597439Y-188211962D01*
X189097439Y-189164343D02*
X189764106Y-189164343D01*
X189918868Y-190211962D02*
X188966487Y-190211962D01*
X189216487Y-188211962D01*
X190168868Y-188211962D01*
X190776011Y-190211962D02*
X191026011Y-188211962D01*
X191502202Y-188211962D01*
X191776011Y-188307200D01*
X191942678Y-188497676D01*
X192014107Y-188688152D01*
X192061726Y-189069105D01*
X192026012Y-189354819D01*
X191883155Y-189735771D01*
X191764106Y-189926248D01*
X191549821Y-190116724D01*
X191252202Y-190211962D01*
X190776011Y-190211962D01*
X194299821Y-190211962D02*
X194549821Y-188211962D01*
X195442679Y-190211962D01*
X195692679Y-188211962D01*
X197252202Y-190211962D02*
X197383154Y-189164343D01*
X197311726Y-188973867D01*
X197133154Y-188878629D01*
X196752202Y-188878629D01*
X196549821Y-188973867D01*
X197264107Y-190116724D02*
X197061726Y-190211962D01*
X196585536Y-190211962D01*
X196406964Y-190116724D01*
X196335535Y-189926248D01*
X196359345Y-189735771D01*
X196478392Y-189545295D01*
X196680774Y-189450057D01*
X197156964Y-189450057D01*
X197359345Y-189354819D01*
X198204583Y-190211962D02*
X198371249Y-188878629D01*
X198347440Y-189069105D02*
X198454584Y-188973867D01*
X198656964Y-188878629D01*
X198942678Y-188878629D01*
X199121250Y-188973867D01*
X199192678Y-189164343D01*
X199061726Y-190211962D01*
X199192678Y-189164343D02*
X199311726Y-188973867D01*
X199514107Y-188878629D01*
X199799821Y-188878629D01*
X199978393Y-188973867D01*
X200049821Y-189164343D01*
X199918869Y-190211962D01*
X201645060Y-190116724D02*
X201442679Y-190211962D01*
X201061727Y-190211962D01*
X200883155Y-190116724D01*
X200811726Y-189926248D01*
X200906964Y-189164343D01*
X201026012Y-188973867D01*
X201228393Y-188878629D01*
X201609345Y-188878629D01*
X201787917Y-188973867D01*
X201859345Y-189164343D01*
X201835536Y-189354819D01*
X200859345Y-189545295D01*
X204073632Y-188211962D02*
X205216489Y-188211962D01*
X204395061Y-190211962D02*
X204645061Y-188211962D01*
X206490299Y-190211962D02*
X206621251Y-189164343D01*
X206549823Y-188973867D01*
X206371251Y-188878629D01*
X205990299Y-188878629D01*
X205787918Y-188973867D01*
X206502204Y-190116724D02*
X206299823Y-190211962D01*
X205823633Y-190211962D01*
X205645061Y-190116724D01*
X205573632Y-189926248D01*
X205597442Y-189735771D01*
X205716489Y-189545295D01*
X205918871Y-189450057D01*
X206395061Y-189450057D01*
X206597442Y-189354819D01*
X208466489Y-188878629D02*
X208264108Y-190497676D01*
X208145061Y-190688152D01*
X208037918Y-190783390D01*
X207835537Y-190878629D01*
X207549823Y-190878629D01*
X207371251Y-190783390D01*
X208311728Y-190116724D02*
X208109347Y-190211962D01*
X207728395Y-190211962D01*
X207549824Y-190116724D01*
X207466489Y-190021486D01*
X207395061Y-189831010D01*
X207466489Y-189259581D01*
X207585537Y-189069105D01*
X207692681Y-188973867D01*
X207895061Y-188878629D01*
X208276013Y-188878629D01*
X208454585Y-188973867D01*
D10*
D11*
X178859343Y-185600057D02*
X178359343Y-185600057D01*
X178359343Y-186385771D02*
X178359343Y-184885771D01*
X179073629Y-184885771D01*
X179645057Y-186385771D02*
X179645057Y-185385771D01*
X179645057Y-184885771D02*
X179573628Y-184957200D01*
X179645057Y-185028629D01*
X179716485Y-184957200D01*
X179645057Y-184885771D01*
X179645057Y-185028629D01*
X180573629Y-186385771D02*
X180430771Y-186314343D01*
X180359343Y-186171486D01*
X180359343Y-184885771D01*
X181716485Y-186314343D02*
X181573628Y-186385771D01*
X181287914Y-186385771D01*
X181145057Y-186314343D01*
X181073628Y-186171486D01*
X181073628Y-185600057D01*
X181145057Y-185457200D01*
X181287914Y-185385771D01*
X181573628Y-185385771D01*
X181716485Y-185457200D01*
X181787914Y-185600057D01*
X181787914Y-185742914D01*
X181073628Y-185885771D01*
X182430771Y-186242914D02*
X182502199Y-186314343D01*
X182430771Y-186385771D01*
X182359342Y-186314343D01*
X182430771Y-186242914D01*
X182430771Y-186385771D01*
X182430771Y-185457200D02*
X182502199Y-185528629D01*
X182430771Y-185600057D01*
X182359342Y-185528629D01*
X182430771Y-185457200D01*
X182430771Y-185600057D01*
X184287914Y-185385771D02*
X184287914Y-186385771D01*
X184287914Y-185528629D02*
X184359342Y-185457200D01*
X184502200Y-185385771D01*
X184716485Y-185385771D01*
X184859342Y-185457200D01*
X184930771Y-185600057D01*
X184930771Y-186385771D01*
X186287914Y-186385771D02*
X186287914Y-185600057D01*
X186216485Y-185457200D01*
X186073628Y-185385771D01*
X185787914Y-185385771D01*
X185645057Y-185457200D01*
X186287914Y-186314343D02*
X186145057Y-186385771D01*
X185787914Y-186385771D01*
X185645057Y-186314343D01*
X185573628Y-186171486D01*
X185573628Y-186028629D01*
X185645057Y-185885771D01*
X185787914Y-185814343D01*
X186145057Y-185814343D01*
X186287914Y-185742914D01*
X187002200Y-186385771D02*
X187002200Y-185385771D01*
X187002200Y-185528629D02*
X187073628Y-185457200D01*
X187216486Y-185385771D01*
X187430771Y-185385771D01*
X187573628Y-185457200D01*
X187645057Y-185600057D01*
X187645057Y-186385771D01*
X187645057Y-185600057D02*
X187716486Y-185457200D01*
X187859343Y-185385771D01*
X188073628Y-185385771D01*
X188216486Y-185457200D01*
X188287914Y-185600057D01*
X188287914Y-186385771D01*
X189573628Y-186314343D02*
X189430771Y-186385771D01*
X189145057Y-186385771D01*
X189002200Y-186314343D01*
X188930771Y-186171486D01*
X188930771Y-185600057D01*
X189002200Y-185457200D01*
X189145057Y-185385771D01*
X189430771Y-185385771D01*
X189573628Y-185457200D01*
X189645057Y-185600057D01*
X189645057Y-185742914D01*
X188930771Y-185885771D01*
X190073628Y-185385771D02*
X190645057Y-185385771D01*
X190287914Y-184885771D02*
X190287914Y-186171486D01*
X190359342Y-186314343D01*
X190502200Y-186385771D01*
X190645057Y-186385771D01*
X191787914Y-186385771D02*
X191787914Y-185600057D01*
X191716485Y-185457200D01*
X191573628Y-185385771D01*
X191287914Y-185385771D01*
X191145057Y-185457200D01*
X191787914Y-186314343D02*
X191645057Y-186385771D01*
X191287914Y-186385771D01*
X191145057Y-186314343D01*
X191073628Y-186171486D01*
X191073628Y-186028629D01*
X191145057Y-185885771D01*
X191287914Y-185814343D01*
X191645057Y-185814343D01*
X191787914Y-185742914D01*
X193145057Y-185385771D02*
X193145057Y-186600057D01*
X193073628Y-186742914D01*
X193002200Y-186814343D01*
X192859343Y-186885771D01*
X192645057Y-186885771D01*
X192502200Y-186814343D01*
X193145057Y-186314343D02*
X193002200Y-186385771D01*
X192716486Y-186385771D01*
X192573628Y-186314343D01*
X192502200Y-186242914D01*
X192430771Y-186100057D01*
X192430771Y-185671486D01*
X192502200Y-185528629D01*
X192573628Y-185457200D01*
X192716486Y-185385771D01*
X193002200Y-185385771D01*
X193145057Y-185457200D01*
X193859343Y-186242914D02*
X193930771Y-186314343D01*
X193859343Y-186385771D01*
X193787914Y-186314343D01*
X193859343Y-186242914D01*
X193859343Y-186385771D01*
X194573629Y-186385771D02*
X194573629Y-184885771D01*
X194716486Y-185814343D02*
X195145057Y-186385771D01*
X195145057Y-185385771D02*
X194573629Y-185957200D01*
X195787915Y-186385771D02*
X195787915Y-185385771D01*
X195787915Y-184885771D02*
X195716486Y-184957200D01*
X195787915Y-185028629D01*
X195859343Y-184957200D01*
X195787915Y-184885771D01*
X195787915Y-185028629D01*
X197145058Y-186314343D02*
X197002201Y-186385771D01*
X196716487Y-186385771D01*
X196573629Y-186314343D01*
X196502201Y-186242914D01*
X196430772Y-186100057D01*
X196430772Y-185671486D01*
X196502201Y-185528629D01*
X196573629Y-185457200D01*
X196716487Y-185385771D01*
X197002201Y-185385771D01*
X197145058Y-185457200D01*
X198430772Y-186385771D02*
X198430772Y-185600057D01*
X198359343Y-185457200D01*
X198216486Y-185385771D01*
X197930772Y-185385771D01*
X197787915Y-185457200D01*
X198430772Y-186314343D02*
X198287915Y-186385771D01*
X197930772Y-186385771D01*
X197787915Y-186314343D01*
X197716486Y-186171486D01*
X197716486Y-186028629D01*
X197787915Y-185885771D01*
X197930772Y-185814343D01*
X198287915Y-185814343D01*
X198430772Y-185742914D01*
X199787915Y-186385771D02*
X199787915Y-184885771D01*
X199787915Y-186314343D02*
X199645058Y-186385771D01*
X199359344Y-186385771D01*
X199216486Y-186314343D01*
X199145058Y-186242914D01*
X199073629Y-186100057D01*
X199073629Y-185671486D01*
X199145058Y-185528629D01*
X199216486Y-185457200D01*
X199359344Y-185385771D01*
X199645058Y-185385771D01*
X199787915Y-185457200D01*
X200145058Y-186528629D02*
X201287915Y-186528629D01*
X201645058Y-185385771D02*
X201645058Y-186885771D01*
X201645058Y-185457200D02*
X201787915Y-185385771D01*
X202073629Y-185385771D01*
X202216486Y-185457200D01*
X202287915Y-185528629D01*
X202359344Y-185671486D01*
X202359344Y-186100057D01*
X202287915Y-186242914D01*
X202216486Y-186314343D01*
X202073629Y-186385771D01*
X201787915Y-186385771D01*
X201645058Y-186314343D01*
X203645058Y-186314343D02*
X203502201Y-186385771D01*
X203216487Y-186385771D01*
X203073629Y-186314343D01*
X203002201Y-186242914D01*
X202930772Y-186100057D01*
X202930772Y-185671486D01*
X203002201Y-185528629D01*
X203073629Y-185457200D01*
X203216487Y-185385771D01*
X203502201Y-185385771D01*
X203645058Y-185457200D01*
X204287915Y-186385771D02*
X204287915Y-184885771D01*
X204287915Y-185457200D02*
X204430772Y-185385771D01*
X204716486Y-185385771D01*
X204859343Y-185457200D01*
X204930772Y-185528629D01*
X205002201Y-185671486D01*
X205002201Y-186100057D01*
X204930772Y-186242914D01*
X204859343Y-186314343D01*
X204716486Y-186385771D01*
X204430772Y-186385771D01*
X204287915Y-186314343D01*
D10*
D11*
X177002200Y-181507200D02*
X285002200Y-181507200D01*
D10*
D11*
X178287914Y-183614343D02*
X178502200Y-183685771D01*
X178859343Y-183685771D01*
X179002200Y-183614343D01*
X179073629Y-183542914D01*
X179145057Y-183400057D01*
X179145057Y-183257200D01*
X179073629Y-183114343D01*
X179002200Y-183042914D01*
X178859343Y-182971486D01*
X178573629Y-182900057D01*
X178430771Y-182828629D01*
X178359343Y-182757200D01*
X178287914Y-182614343D01*
X178287914Y-182471486D01*
X178359343Y-182328629D01*
X178430771Y-182257200D01*
X178573629Y-182185771D01*
X178930771Y-182185771D01*
X179145057Y-182257200D01*
X179787914Y-183685771D02*
X179787914Y-182185771D01*
X180430771Y-183685771D02*
X180430771Y-182900057D01*
X180359342Y-182757200D01*
X180216485Y-182685771D01*
X180002200Y-182685771D01*
X179859342Y-182757200D01*
X179787914Y-182828629D01*
X181716485Y-183614343D02*
X181573628Y-183685771D01*
X181287914Y-183685771D01*
X181145057Y-183614343D01*
X181073628Y-183471486D01*
X181073628Y-182900057D01*
X181145057Y-182757200D01*
X181287914Y-182685771D01*
X181573628Y-182685771D01*
X181716485Y-182757200D01*
X181787914Y-182900057D01*
X181787914Y-183042914D01*
X181073628Y-183185771D01*
X183002199Y-183614343D02*
X182859342Y-183685771D01*
X182573628Y-183685771D01*
X182430771Y-183614343D01*
X182359342Y-183471486D01*
X182359342Y-182900057D01*
X182430771Y-182757200D01*
X182573628Y-182685771D01*
X182859342Y-182685771D01*
X183002199Y-182757200D01*
X183073628Y-182900057D01*
X183073628Y-183042914D01*
X182359342Y-183185771D01*
X183502199Y-182685771D02*
X184073628Y-182685771D01*
X183716485Y-182185771D02*
X183716485Y-183471486D01*
X183787913Y-183614343D01*
X183930771Y-183685771D01*
X184073628Y-183685771D01*
X184573628Y-183542914D02*
X184645056Y-183614343D01*
X184573628Y-183685771D01*
X184502199Y-183614343D01*
X184573628Y-183542914D01*
X184573628Y-183685771D01*
X184573628Y-182757200D02*
X184645056Y-182828629D01*
X184573628Y-182900057D01*
X184502199Y-182828629D01*
X184573628Y-182757200D01*
X184573628Y-182900057D01*
D10*
D12*
X179216486Y-180542914D02*
X179145057Y-180614343D01*
X178930771Y-180685771D01*
X178787914Y-180685771D01*
X178573629Y-180614343D01*
X178430771Y-180471486D01*
X178359343Y-180328629D01*
X178287914Y-180042914D01*
X178287914Y-179828629D01*
X178359343Y-179542914D01*
X178430771Y-179400057D01*
X178573629Y-179257200D01*
X178787914Y-179185771D01*
X178930771Y-179185771D01*
X179145057Y-179257200D01*
X179216486Y-179328629D01*
X179859343Y-180685771D02*
X179859343Y-179185771D01*
X180502200Y-180685771D02*
X180502200Y-179900057D01*
X180430771Y-179757200D01*
X180287914Y-179685771D01*
X180073629Y-179685771D01*
X179930771Y-179757200D01*
X179859343Y-179828629D01*
X181859343Y-180685771D02*
X181859343Y-179900057D01*
X181787914Y-179757200D01*
X181645057Y-179685771D01*
X181359343Y-179685771D01*
X181216486Y-179757200D01*
X181859343Y-180614343D02*
X181716486Y-180685771D01*
X181359343Y-180685771D01*
X181216486Y-180614343D01*
X181145057Y-180471486D01*
X181145057Y-180328629D01*
X181216486Y-180185771D01*
X181359343Y-180114343D01*
X181716486Y-180114343D01*
X181859343Y-180042914D01*
X182787915Y-180685771D02*
X182645057Y-180614343D01*
X182573629Y-180542914D01*
X182502200Y-180400057D01*
X182502200Y-179971486D01*
X182573629Y-179828629D01*
X182645057Y-179757200D01*
X182787915Y-179685771D01*
X183002200Y-179685771D01*
X183145057Y-179757200D01*
X183216486Y-179828629D01*
X183287915Y-179971486D01*
X183287915Y-180400057D01*
X183216486Y-180542914D01*
X183145057Y-180614343D01*
X183002200Y-180685771D01*
X182787915Y-180685771D01*
X183859343Y-180614343D02*
X184002200Y-180685771D01*
X184287915Y-180685771D01*
X184430772Y-180614343D01*
X184502200Y-180471486D01*
X184502200Y-180400057D01*
X184430772Y-180257200D01*
X184287915Y-180185771D01*
X184073629Y-180185771D01*
X183930772Y-180114343D01*
X183859343Y-179971486D01*
X183859343Y-179900057D01*
X183930772Y-179757200D01*
X184073629Y-179685771D01*
X184287915Y-179685771D01*
X184430772Y-179757200D01*
X184930772Y-179685771D02*
X185502201Y-179685771D01*
X185145058Y-179185771D02*
X185145058Y-180471486D01*
X185216486Y-180614343D01*
X185359344Y-180685771D01*
X185502201Y-180685771D01*
X186002201Y-180685771D02*
X186002201Y-179685771D01*
X186002201Y-179971486D02*
X186073629Y-179828629D01*
X186145058Y-179757200D01*
X186287915Y-179685771D01*
X186430772Y-179685771D01*
X187502200Y-180614343D02*
X187359343Y-180685771D01*
X187073629Y-180685771D01*
X186930772Y-180614343D01*
X186859343Y-180471486D01*
X186859343Y-179900057D01*
X186930772Y-179757200D01*
X187073629Y-179685771D01*
X187359343Y-179685771D01*
X187502200Y-179757200D01*
X187573629Y-179900057D01*
X187573629Y-180042914D01*
X186859343Y-180185771D01*
X188002200Y-179685771D02*
X188573629Y-179685771D01*
X188216486Y-180685771D02*
X188216486Y-179400057D01*
X188287914Y-179257200D01*
X188430772Y-179185771D01*
X188573629Y-179185771D01*
X188859343Y-179685771D02*
X189430772Y-179685771D01*
X189073629Y-180685771D02*
X189073629Y-179400057D01*
X189145057Y-179257200D01*
X189287915Y-179185771D01*
X189430772Y-179185771D01*
X191573629Y-179900057D02*
X191787915Y-179971486D01*
X191859343Y-180042914D01*
X191930772Y-180185771D01*
X191930772Y-180400057D01*
X191859343Y-180542914D01*
X191787915Y-180614343D01*
X191645057Y-180685771D01*
X191073629Y-180685771D01*
X191073629Y-179185771D01*
X191573629Y-179185771D01*
X191716486Y-179257200D01*
X191787915Y-179328629D01*
X191859343Y-179471486D01*
X191859343Y-179614343D01*
X191787915Y-179757200D01*
X191716486Y-179828629D01*
X191573629Y-179900057D01*
X191073629Y-179900057D01*
X193216486Y-180685771D02*
X193216486Y-179900057D01*
X193145057Y-179757200D01*
X193002200Y-179685771D01*
X192716486Y-179685771D01*
X192573629Y-179757200D01*
X193216486Y-180614343D02*
X193073629Y-180685771D01*
X192716486Y-180685771D01*
X192573629Y-180614343D01*
X192502200Y-180471486D01*
X192502200Y-180328629D01*
X192573629Y-180185771D01*
X192716486Y-180114343D01*
X193073629Y-180114343D01*
X193216486Y-180042914D01*
X193859343Y-180614343D02*
X194002200Y-180685771D01*
X194287915Y-180685771D01*
X194430772Y-180614343D01*
X194502200Y-180471486D01*
X194502200Y-180400057D01*
X194430772Y-180257200D01*
X194287915Y-180185771D01*
X194073629Y-180185771D01*
X193930772Y-180114343D01*
X193859343Y-179971486D01*
X193859343Y-179900057D01*
X193930772Y-179757200D01*
X194073629Y-179685771D01*
X194287915Y-179685771D01*
X194430772Y-179757200D01*
X195716486Y-180614343D02*
X195573629Y-180685771D01*
X195287915Y-180685771D01*
X195145058Y-180614343D01*
X195073629Y-180471486D01*
X195073629Y-179900057D01*
X195145058Y-179757200D01*
X195287915Y-179685771D01*
X195573629Y-179685771D01*
X195716486Y-179757200D01*
X195787915Y-179900057D01*
X195787915Y-180042914D01*
X195073629Y-180185771D01*
X196645058Y-180685771D02*
X196502200Y-180614343D01*
X196430772Y-180471486D01*
X196430772Y-179185771D01*
D10*
D11*
X178359343Y-177685771D02*
X178359343Y-176185771D01*
X179216486Y-177685771D02*
X178573629Y-176828629D01*
X179216486Y-176185771D02*
X178359343Y-177042914D01*
X179859343Y-177685771D02*
X179859343Y-176685771D01*
X179859343Y-176185771D02*
X179787914Y-176257200D01*
X179859343Y-176328629D01*
X179930771Y-176257200D01*
X179859343Y-176185771D01*
X179859343Y-176328629D01*
X181430772Y-177542914D02*
X181359343Y-177614343D01*
X181145057Y-177685771D01*
X181002200Y-177685771D01*
X180787915Y-177614343D01*
X180645057Y-177471486D01*
X180573629Y-177328629D01*
X180502200Y-177042914D01*
X180502200Y-176828629D01*
X180573629Y-176542914D01*
X180645057Y-176400057D01*
X180787915Y-176257200D01*
X181002200Y-176185771D01*
X181145057Y-176185771D01*
X181359343Y-176257200D01*
X181430772Y-176328629D01*
X182716486Y-177685771D02*
X182716486Y-176900057D01*
X182645057Y-176757200D01*
X182502200Y-176685771D01*
X182216486Y-176685771D01*
X182073629Y-176757200D01*
X182716486Y-177614343D02*
X182573629Y-177685771D01*
X182216486Y-177685771D01*
X182073629Y-177614343D01*
X182002200Y-177471486D01*
X182002200Y-177328629D01*
X182073629Y-177185771D01*
X182216486Y-177114343D01*
X182573629Y-177114343D01*
X182716486Y-177042914D01*
X184073629Y-177685771D02*
X184073629Y-176185771D01*
X184073629Y-177614343D02*
X183930772Y-177685771D01*
X183645058Y-177685771D01*
X183502200Y-177614343D01*
X183430772Y-177542914D01*
X183359343Y-177400057D01*
X183359343Y-176971486D01*
X183430772Y-176828629D01*
X183502200Y-176757200D01*
X183645058Y-176685771D01*
X183930772Y-176685771D01*
X184073629Y-176757200D01*
X185787915Y-176185771D02*
X186145058Y-177685771D01*
X186430772Y-176614343D01*
X186716486Y-177685771D01*
X187073629Y-176185771D01*
X187859344Y-177685771D02*
X187716486Y-177614343D01*
X187645058Y-177542914D01*
X187573629Y-177400057D01*
X187573629Y-176971486D01*
X187645058Y-176828629D01*
X187716486Y-176757200D01*
X187859344Y-176685771D01*
X188073629Y-176685771D01*
X188216486Y-176757200D01*
X188287915Y-176828629D01*
X188359344Y-176971486D01*
X188359344Y-177400057D01*
X188287915Y-177542914D01*
X188216486Y-177614343D01*
X188073629Y-177685771D01*
X187859344Y-177685771D01*
X189002201Y-177685771D02*
X189002201Y-176685771D01*
X189002201Y-176971486D02*
X189073629Y-176828629D01*
X189145058Y-176757200D01*
X189287915Y-176685771D01*
X189430772Y-176685771D01*
X189930772Y-177685771D02*
X189930772Y-176185771D01*
X190073629Y-177114343D02*
X190502200Y-177685771D01*
X190502200Y-176685771D02*
X189930772Y-177257200D01*
X191073629Y-177614343D02*
X191216486Y-177685771D01*
X191502201Y-177685771D01*
X191645058Y-177614343D01*
X191716486Y-177471486D01*
X191716486Y-177400057D01*
X191645058Y-177257200D01*
X191502201Y-177185771D01*
X191287915Y-177185771D01*
X191145058Y-177114343D01*
X191073629Y-176971486D01*
X191073629Y-176900057D01*
X191145058Y-176757200D01*
X191287915Y-176685771D01*
X191502201Y-176685771D01*
X191645058Y-176757200D01*
X192359344Y-177685771D02*
X192359344Y-176185771D01*
X193002201Y-177685771D02*
X193002201Y-176900057D01*
X192930772Y-176757200D01*
X192787915Y-176685771D01*
X192573630Y-176685771D01*
X192430772Y-176757200D01*
X192359344Y-176828629D01*
X193930773Y-177685771D02*
X193787915Y-177614343D01*
X193716487Y-177542914D01*
X193645058Y-177400057D01*
X193645058Y-176971486D01*
X193716487Y-176828629D01*
X193787915Y-176757200D01*
X193930773Y-176685771D01*
X194145058Y-176685771D01*
X194287915Y-176757200D01*
X194359344Y-176828629D01*
X194430773Y-176971486D01*
X194430773Y-177400057D01*
X194359344Y-177542914D01*
X194287915Y-177614343D01*
X194145058Y-177685771D01*
X193930773Y-177685771D01*
X195073630Y-176685771D02*
X195073630Y-178185771D01*
X195073630Y-176757200D02*
X195216487Y-176685771D01*
X195502201Y-176685771D01*
X195645058Y-176757200D01*
X195716487Y-176828629D01*
X195787916Y-176971486D01*
X195787916Y-177400057D01*
X195716487Y-177542914D01*
X195645058Y-177614343D01*
X195502201Y-177685771D01*
X195216487Y-177685771D01*
X195073630Y-177614343D01*
X198430773Y-177542914D02*
X198359344Y-177614343D01*
X198145058Y-177685771D01*
X198002201Y-177685771D01*
X197787916Y-177614343D01*
X197645058Y-177471486D01*
X197573630Y-177328629D01*
X197502201Y-177042914D01*
X197502201Y-176828629D01*
X197573630Y-176542914D01*
X197645058Y-176400057D01*
X197787916Y-176257200D01*
X198002201Y-176185771D01*
X198145058Y-176185771D01*
X198359344Y-176257200D01*
X198430773Y-176328629D01*
X199287916Y-177685771D02*
X199145058Y-177614343D01*
X199073630Y-177542914D01*
X199002201Y-177400057D01*
X199002201Y-176971486D01*
X199073630Y-176828629D01*
X199145058Y-176757200D01*
X199287916Y-176685771D01*
X199502201Y-176685771D01*
X199645058Y-176757200D01*
X199716487Y-176828629D01*
X199787916Y-176971486D01*
X199787916Y-177400057D01*
X199716487Y-177542914D01*
X199645058Y-177614343D01*
X199502201Y-177685771D01*
X199287916Y-177685771D01*
X200359344Y-177614343D02*
X200573630Y-177685771D01*
X200930773Y-177685771D01*
X201073630Y-177614343D01*
X201145059Y-177542914D01*
X201216487Y-177400057D01*
X201216487Y-177257200D01*
X201145059Y-177114343D01*
X201073630Y-177042914D01*
X200930773Y-176971486D01*
X200645059Y-176900057D01*
X200502201Y-176828629D01*
X200430773Y-176757200D01*
X200359344Y-176614343D01*
X200359344Y-176471486D01*
X200430773Y-176328629D01*
X200502201Y-176257200D01*
X200645059Y-176185771D01*
X201002201Y-176185771D01*
X201216487Y-176257200D01*
X201859344Y-177685771D02*
X201859344Y-176685771D01*
X201859344Y-176185771D02*
X201787915Y-176257200D01*
X201859344Y-176328629D01*
X201930772Y-176257200D01*
X201859344Y-176185771D01*
X201859344Y-176328629D01*
X202573630Y-176685771D02*
X202573630Y-177685771D01*
X202573630Y-176828629D02*
X202645058Y-176757200D01*
X202787916Y-176685771D01*
X203002201Y-176685771D01*
X203145058Y-176757200D01*
X203216487Y-176900057D01*
X203216487Y-177685771D01*
X205002201Y-176328629D02*
X205073630Y-176257200D01*
X205216487Y-176185771D01*
X205573630Y-176185771D01*
X205716487Y-176257200D01*
X205787916Y-176328629D01*
X205859344Y-176471486D01*
X205859344Y-176614343D01*
X205787916Y-176828629D01*
X204930773Y-177685771D01*
X205859344Y-177685771D01*
X206787915Y-176185771D02*
X206930772Y-176185771D01*
X207073629Y-176257200D01*
X207145058Y-176328629D01*
X207216487Y-176471486D01*
X207287915Y-176757200D01*
X207287915Y-177114343D01*
X207216487Y-177400057D01*
X207145058Y-177542914D01*
X207073629Y-177614343D01*
X206930772Y-177685771D01*
X206787915Y-177685771D01*
X206645058Y-177614343D01*
X206573629Y-177542914D01*
X206502201Y-177400057D01*
X206430772Y-177114343D01*
X206430772Y-176757200D01*
X206502201Y-176471486D01*
X206573629Y-176328629D01*
X206645058Y-176257200D01*
X206787915Y-176185771D01*
X208716486Y-177685771D02*
X207859343Y-177685771D01*
X208287915Y-177685771D02*
X208287915Y-176185771D01*
X208145058Y-176400057D01*
X208002200Y-176542914D01*
X207859343Y-176614343D01*
X210002200Y-176185771D02*
X209716486Y-176185771D01*
X209573629Y-176257200D01*
X209502200Y-176328629D01*
X209359343Y-176542914D01*
X209287914Y-176828629D01*
X209287914Y-177400057D01*
X209359343Y-177542914D01*
X209430771Y-177614343D01*
X209573629Y-177685771D01*
X209859343Y-177685771D01*
X210002200Y-177614343D01*
X210073629Y-177542914D01*
X210145057Y-177400057D01*
X210145057Y-177042914D01*
X210073629Y-176900057D01*
X210002200Y-176828629D01*
X209859343Y-176757200D01*
X209573629Y-176757200D01*
X209430771Y-176828629D01*
X209359343Y-176900057D01*
X209287914Y-177042914D01*
D10*
D11*
X197002200Y-191507200D02*
X197002200Y-194507200D01*
D10*
D11*
X261002200Y-191507200D02*
X261002200Y-198007200D01*
D14*
X208440000Y-102420000D03*
D15*
X210980000Y-102420000D03*
D14*
X208440000Y-94800000D03*
D15*
X210980000Y-94800000D03*
D14*
X208440000Y-87180000D03*
D15*
X210980000Y-87180000D03*
D14*
X208440000Y-79560000D03*
D15*
X210980000Y-79560000D03*
D14*
X208440000Y-71940000D03*
D15*
X210980000Y-71940000D03*
D14*
X200820000Y-102420000D03*
D15*
X203360000Y-102420000D03*
D14*
X200820000Y-94800000D03*
D15*
X203360000Y-94800000D03*
D14*
X200820000Y-87180000D03*
D15*
X203360000Y-87180000D03*
D14*
X200820000Y-79560000D03*
D15*
X203360000Y-79560000D03*
D14*
X200820000Y-71940000D03*
D15*
X203360000Y-71940000D03*
D14*
X193200000Y-102420000D03*
D15*
X195740000Y-102420000D03*
D14*
X193200000Y-94800000D03*
D15*
X195740000Y-94800000D03*
D14*
X193200000Y-87180000D03*
D15*
X195740000Y-87180000D03*
D14*
X193200000Y-79560000D03*
D15*
X195740000Y-79560000D03*
D14*
X193200000Y-71940000D03*
D15*
X195740000Y-71940000D03*
D14*
X185580000Y-102420000D03*
D15*
X188120000Y-102420000D03*
D14*
X185580000Y-94800000D03*
D15*
X188120000Y-94800000D03*
D14*
X185580000Y-87180000D03*
D15*
X188120000Y-87180000D03*
D14*
X185580000Y-79560000D03*
D15*
X188120000Y-79560000D03*
D14*
X185580000Y-71940000D03*
D15*
X188120000Y-71940000D03*
D14*
X177960000Y-102420000D03*
D15*
X180500000Y-102420000D03*
D14*
X177960000Y-94800000D03*
D15*
X180500000Y-94800000D03*
D14*
X177960000Y-87180000D03*
D15*
X180500000Y-87180000D03*
D14*
X177960000Y-79560000D03*
D15*
X180500000Y-79560000D03*
D14*
X177960000Y-71940000D03*
D15*
X180500000Y-71940000D03*
D14*
X170340000Y-102420000D03*
D15*
X172880000Y-102420000D03*
D14*
X170340000Y-94800000D03*
D15*
X172880000Y-94800000D03*
D14*
X170340000Y-87180000D03*
D15*
X172880000Y-87180000D03*
D14*
X170340000Y-79560000D03*
D15*
X172880000Y-79560000D03*
D14*
X170340000Y-71940000D03*
D15*
X172880000Y-71940000D03*
D14*
X162720000Y-102420000D03*
D15*
X165260000Y-102420000D03*
D14*
X162720000Y-94800000D03*
D15*
X165260000Y-94800000D03*
D14*
X162720000Y-87180000D03*
D15*
X165260000Y-87180000D03*
D14*
X162720000Y-79560000D03*
D15*
X165260000Y-79560000D03*
D14*
X162720000Y-71940000D03*
D15*
X165260000Y-71940000D03*
D14*
X155100000Y-102420000D03*
D15*
X157640000Y-102420000D03*
D14*
X155100000Y-94800000D03*
D15*
X157640000Y-94800000D03*
D14*
X155100000Y-87180000D03*
D15*
X157640000Y-87180000D03*
D14*
X155100000Y-79560000D03*
D15*
X157640000Y-79560000D03*
D14*
X155100000Y-71940000D03*
D15*
X157640000Y-71940000D03*
D14*
X147480000Y-102420000D03*
D15*
X150020000Y-102420000D03*
D14*
X147480000Y-94800000D03*
D15*
X150020000Y-94800000D03*
D14*
X147480000Y-87180000D03*
D15*
X150020000Y-87180000D03*
D14*
X147480000Y-79560000D03*
D15*
X150020000Y-79560000D03*
D14*
X147480000Y-71940000D03*
D15*
X150020000Y-71940000D03*
D14*
X139860000Y-102420000D03*
D15*
X142400000Y-102420000D03*
D14*
X139860000Y-94800000D03*
D15*
X142400000Y-94800000D03*
D14*
X139860000Y-87180000D03*
D15*
X142400000Y-87180000D03*
D14*
X139860000Y-79560000D03*
D15*
X142400000Y-79560000D03*
D14*
X139860000Y-71940000D03*
D15*
X142400000Y-71940000D03*
D14*
X132240000Y-102420000D03*
D15*
X134780000Y-102420000D03*
D14*
X132240000Y-94800000D03*
D15*
X134780000Y-94800000D03*
D14*
X132240000Y-87180000D03*
D15*
X134780000Y-87180000D03*
D14*
X132240000Y-79560000D03*
D15*
X134780000Y-79560000D03*
D14*
X132240000Y-71940000D03*
D15*
X134780000Y-71940000D03*
D14*
X124620000Y-102420000D03*
D15*
X127160000Y-102420000D03*
D14*
X124620000Y-94800000D03*
D15*
X127160000Y-94800000D03*
D14*
X124620000Y-87180000D03*
D15*
X127160000Y-87180000D03*
D14*
X124620000Y-79560000D03*
D15*
X127160000Y-79560000D03*
D14*
X124620000Y-71940000D03*
D15*
X127160000Y-71940000D03*
D14*
X117000000Y-102420000D03*
D15*
X119540000Y-102420000D03*
D14*
X117000000Y-94800000D03*
D15*
X119540000Y-94800000D03*
D14*
X117000000Y-87180000D03*
D15*
X119540000Y-87180000D03*
D14*
X117000000Y-79560000D03*
D15*
X119540000Y-79560000D03*
D14*
X117000000Y-71940000D03*
D15*
X119540000Y-71940000D03*
D14*
X109380000Y-102420000D03*
D15*
X111920000Y-102420000D03*
D14*
X109380000Y-94800000D03*
D15*
X111920000Y-94800000D03*
D14*
X109380000Y-87180000D03*
D15*
X111920000Y-87180000D03*
D14*
X109380000Y-79560000D03*
D15*
X111920000Y-79560000D03*
D14*
X109380000Y-71940000D03*
D15*
X111920000Y-71940000D03*
D14*
X101760000Y-102420000D03*
D15*
X104300000Y-102420000D03*
D14*
X101760000Y-94800000D03*
D15*
X104300000Y-94800000D03*
D14*
X101760000Y-87180000D03*
D15*
X104300000Y-87180000D03*
D14*
X101760000Y-79560000D03*
D15*
X104300000Y-79560000D03*
D14*
X101760000Y-71940000D03*
D15*
X104300000Y-71940000D03*
D14*
X94140000Y-102420000D03*
D15*
X96680000Y-102420000D03*
D14*
X94140000Y-94800000D03*
D15*
X96680000Y-94800000D03*
D14*
X94140000Y-87180000D03*
D15*
X96680000Y-87180000D03*
D14*
X94140000Y-79560000D03*
D15*
X96680000Y-79560000D03*
D14*
X94140000Y-71940000D03*
D15*
X96680000Y-71940000D03*
D14*
X86520000Y-102420000D03*
D15*
X89060000Y-102420000D03*
D14*
X86520000Y-94800000D03*
D15*
X89060000Y-94800000D03*
D14*
X86520000Y-87180000D03*
D15*
X89060000Y-87180000D03*
D14*
X86520000Y-79560000D03*
D15*
X89060000Y-79560000D03*
D14*
X86520000Y-71940000D03*
D15*
X89060000Y-71940000D03*
D14*
X78900000Y-102420000D03*
D15*
X81440000Y-102420000D03*
D14*
X78900000Y-94800000D03*
D15*
X81440000Y-94800000D03*
D14*
X78900000Y-87180000D03*
D15*
X81440000Y-87180000D03*
D14*
X78900000Y-79560000D03*
D15*
X81440000Y-79560000D03*
D14*
X78900000Y-71940000D03*
D15*
X81440000Y-71940000D03*
D14*
X71280000Y-102420000D03*
D15*
X73820000Y-102420000D03*
D14*
X71280000Y-94800000D03*
D15*
X73820000Y-94800000D03*
D14*
X71280000Y-87180000D03*
D15*
X73820000Y-87180000D03*
D14*
X71280000Y-79560000D03*
D15*
X73820000Y-79560000D03*
D14*
X71280000Y-71940000D03*
D15*
X73820000Y-71940000D03*
D14*
X63660000Y-102420000D03*
D15*
X66200000Y-102420000D03*
D14*
X63660000Y-94800000D03*
D15*
X66200000Y-94800000D03*
D14*
X63660000Y-87180000D03*
D15*
X66200000Y-87180000D03*
D14*
X63660000Y-79560000D03*
D15*
X66200000Y-79560000D03*
D16*
X237250000Y-73500000D03*
X217250000Y-73500000D03*
D17*
X236200000Y-86900000D03*
D18*
X233700000Y-86900000D03*
D14*
X63660000Y-71940000D03*
D15*
X66200000Y-71940000D03*
D19*
X235300000Y-107660000D03*
D20*
X235300000Y-110200000D03*
X232760000Y-107660000D03*
X232760000Y-110200000D03*
X230220000Y-107660000D03*
X230220000Y-110200000D03*
D21*
X83600000Y-107100000D03*
X83600000Y-109000000D03*
X80597720Y-108050000D03*
X114300000Y-107850000D03*
X114300000Y-109750000D03*
X111297720Y-108800000D03*
X144701140Y-109300000D03*
X144701140Y-111200000D03*
X141698860Y-110250000D03*
X175200000Y-110100000D03*
X175200000Y-112000000D03*
X172197720Y-111050000D03*
X205400000Y-110700000D03*
X205400000Y-112600000D03*
X202397720Y-111650000D03*
D22*
X71280000Y-64320000D03*
X81440000Y-64320000D03*
X101760000Y-64320000D03*
X111920000Y-64320000D03*
X132240000Y-64320000D03*
X142400000Y-64320000D03*
X162720000Y-64320000D03*
X172880000Y-64320000D03*
X193200000Y-64320000D03*
X203360000Y-64320000D03*
X215100000Y-85400000D03*
X215100000Y-95560000D03*
D23*
X228900000Y-92160000D03*
X228900000Y-94700000D03*
X228900000Y-97240000D03*
X228900000Y-99780000D03*
X236520000Y-99780000D03*
X236520000Y-97240000D03*
X236520000Y-94700000D03*
X236520000Y-92160000D03*
D24*
X218890000Y-92040000D03*
X218890000Y-86960000D03*
X226510000Y-92040000D03*
X226510000Y-86960000D03*
D25*
X226500000Y-93800000D03*
X226500000Y-107700000D03*
X109400000Y-105200000D03*
X109400000Y-108600000D03*
X139916144Y-110192820D03*
X139900000Y-105100000D03*
X170290522Y-110991510D03*
X170300000Y-105100000D03*
X200813917Y-111569251D03*
X200800000Y-105100000D03*
D26*
X237250000Y-73500000D02*
X225350000Y-61600000D01*
X225350000Y-61600000D02*
X214600000Y-61600000D01*
X214600000Y-61600000D02*
X193300000Y-61600000D01*
X214600000Y-82540000D02*
X214600000Y-61600000D01*
X214600000Y-84900000D02*
X214600000Y-82540000D01*
X193200000Y-61700000D02*
X193300000Y-61600000D01*
X162700000Y-61600000D02*
X193300000Y-61600000D01*
X235300000Y-110200000D02*
X236000000Y-110200000D01*
X236000000Y-110200000D02*
X236968999Y-109231001D01*
X236968999Y-109231001D02*
X236968999Y-107231001D01*
X236968999Y-107231001D02*
X239158696Y-105041304D01*
X239158696Y-105041304D02*
X239158696Y-94798696D01*
X239158696Y-94798696D02*
X236520000Y-92160000D01*
X215100000Y-85400000D02*
X214600000Y-84900000D01*
X236200000Y-86900000D02*
X237250000Y-85850000D01*
X237250000Y-85850000D02*
X237250000Y-73500000D01*
X236520000Y-92160000D02*
X236200000Y-91840000D01*
X236200000Y-91840000D02*
X236200000Y-86900000D01*
X74000000Y-61600000D02*
X101800000Y-61600000D01*
X101800000Y-61600000D02*
X132300000Y-61600000D01*
X101760000Y-64320000D02*
X101760000Y-61640000D01*
X101760000Y-61640000D02*
X101800000Y-61600000D01*
X132300000Y-61600000D02*
X162700000Y-61600000D01*
X132240000Y-61660000D02*
X132300000Y-61600000D01*
X132240000Y-64320000D02*
X132240000Y-61660000D01*
X162720000Y-61620000D02*
X162700000Y-61600000D01*
X162720000Y-64320000D02*
X162720000Y-61620000D01*
X193200000Y-64320000D02*
X193200000Y-61700000D01*
X71280000Y-64320000D02*
X74000000Y-61600000D01*
X228900000Y-99780000D02*
X228900000Y-100300000D01*
X228900000Y-100300000D02*
X226400000Y-102800000D01*
X233700000Y-86900000D02*
X220300000Y-73500000D01*
X220300000Y-73500000D02*
X217250000Y-73500000D01*
X233700000Y-86900000D02*
X233700000Y-94980000D01*
X233700000Y-94980000D02*
X228900000Y-99780000D01*
D12*
X226500000Y-93800000D02*
X226500000Y-92050000D01*
X226500000Y-92050000D02*
X226510000Y-92040000D01*
X230220000Y-107660000D02*
X226540000Y-107660000D01*
X226540000Y-107660000D02*
X226500000Y-107700000D01*
X218890000Y-92040000D02*
X226510000Y-92040000D01*
X218890000Y-92040000D02*
X218620000Y-92040000D01*
X218620000Y-92040000D02*
X215100000Y-95560000D01*
X228900000Y-92160000D02*
X226630000Y-92160000D01*
X226630000Y-92160000D02*
X226510000Y-92040000D01*
X86520000Y-79560000D02*
X86520000Y-71940000D01*
X86520000Y-87180000D02*
X86520000Y-79560000D01*
X78900000Y-79560000D02*
X78900000Y-71940000D01*
X78900000Y-87180000D02*
X78900000Y-79560000D01*
X71280000Y-79560000D02*
X71280000Y-71940000D01*
X71280000Y-87180000D02*
X71280000Y-79560000D01*
X63660000Y-71940000D02*
X63660000Y-79560000D01*
X63660000Y-87180000D02*
X63660000Y-79560000D01*
X63660000Y-94800000D02*
X63660000Y-102420000D01*
X63660000Y-87180000D02*
X63660000Y-94800000D01*
X71280000Y-94800000D02*
X71280000Y-102420000D01*
X71280000Y-87180000D02*
X71280000Y-94800000D01*
X78900000Y-94800000D02*
X78900000Y-102420000D01*
X78900000Y-87180000D02*
X78900000Y-94800000D01*
X86520000Y-94800000D02*
X86520000Y-102420000D01*
X86520000Y-87180000D02*
X86520000Y-94800000D01*
X80597720Y-108050000D02*
X78900000Y-106352280D01*
X78900000Y-106352280D02*
X78900000Y-105100000D01*
X71298860Y-105100000D02*
X78900000Y-105100000D01*
X78900000Y-105100000D02*
X83840000Y-105100000D01*
X78900000Y-102420000D02*
X78900000Y-105100000D01*
X83840000Y-105100000D02*
X86520000Y-102420000D01*
X71298860Y-105100000D02*
X71298860Y-102438860D01*
X63660000Y-103860000D02*
X64900000Y-105100000D01*
X64900000Y-105100000D02*
X71298860Y-105100000D01*
X63660000Y-102420000D02*
X63660000Y-103860000D01*
X71298860Y-102438860D02*
X71280000Y-102420000D01*
X86520000Y-71940000D02*
X86520000Y-102420000D01*
X78900000Y-71940000D02*
X78900000Y-102420000D01*
X71280000Y-71940000D02*
X71280000Y-102420000D01*
X63660000Y-71940000D02*
X63660000Y-102420000D01*
X89060000Y-79560000D02*
X89060000Y-87180000D01*
X89060000Y-71940000D02*
X89060000Y-79560000D01*
X81440000Y-79560000D02*
X81440000Y-87180000D01*
X81440000Y-71940000D02*
X81440000Y-79560000D01*
X73820000Y-79560000D02*
X73820000Y-87180000D01*
X73820000Y-71940000D02*
X73820000Y-79560000D01*
X66200000Y-79560000D02*
X66200000Y-87180000D01*
X66200000Y-71940000D02*
X66200000Y-79560000D01*
X66200000Y-94800000D02*
X66200000Y-87180000D01*
X66200000Y-102420000D02*
X66200000Y-94800000D01*
X73820000Y-94800000D02*
X73820000Y-87180000D01*
X73820000Y-102420000D02*
X73820000Y-94800000D01*
X81440000Y-94800000D02*
X81440000Y-87180000D01*
X81440000Y-102420000D02*
X81440000Y-94800000D01*
X89060000Y-94800000D02*
X89060000Y-87180000D01*
X89060000Y-102420000D02*
X89060000Y-94800000D01*
X68740000Y-69400000D02*
X73800000Y-69400000D01*
X73800000Y-69400000D02*
X81440000Y-69400000D01*
X73820000Y-71940000D02*
X73820000Y-69420000D01*
X73820000Y-69420000D02*
X73800000Y-69400000D01*
X88200000Y-69400000D02*
X89060000Y-70260000D01*
X89060000Y-70260000D02*
X89060000Y-71940000D01*
X81440000Y-69400000D02*
X88200000Y-69400000D01*
X81440000Y-64320000D02*
X81440000Y-69400000D01*
X81440000Y-69400000D02*
X81440000Y-102420000D01*
X66200000Y-71940000D02*
X68740000Y-69400000D01*
X66200000Y-102420000D02*
X66200000Y-71940000D01*
X73820000Y-102420000D02*
X73820000Y-71940000D01*
X89060000Y-102420000D02*
X89060000Y-71940000D01*
X117000000Y-79560000D02*
X117000000Y-87180000D01*
X117000000Y-71940000D02*
X117000000Y-79560000D01*
X109380000Y-79560000D02*
X109380000Y-71940000D01*
X109380000Y-87180000D02*
X109380000Y-79560000D01*
X101760000Y-79560000D02*
X101760000Y-71940000D01*
X101760000Y-87180000D02*
X101760000Y-79560000D01*
X94140000Y-79560000D02*
X94140000Y-71940000D01*
X94140000Y-87180000D02*
X94140000Y-79560000D01*
X94140000Y-94800000D02*
X94140000Y-102420000D01*
X94140000Y-87180000D02*
X94140000Y-94800000D01*
X101760000Y-94800000D02*
X101760000Y-102420000D01*
X101760000Y-87180000D02*
X101760000Y-94800000D01*
X109380000Y-94800000D02*
X109380000Y-102420000D01*
X109380000Y-87180000D02*
X109380000Y-94800000D01*
X117000000Y-94800000D02*
X117000000Y-102420000D01*
X117000000Y-87180000D02*
X117000000Y-94800000D01*
X109400000Y-108600000D02*
X111247720Y-108600000D01*
X111247720Y-108600000D02*
X111297720Y-108650000D01*
X101798860Y-105200000D02*
X109400000Y-105200000D01*
X109400000Y-105200000D02*
X114220000Y-105200000D01*
X109380000Y-102420000D02*
X109380000Y-105180000D01*
X109380000Y-105180000D02*
X109400000Y-105200000D01*
X114220000Y-105200000D02*
X117000000Y-102420000D01*
X101798860Y-105200000D02*
X101798860Y-102458860D01*
X94140000Y-102420000D02*
X96920000Y-105200000D01*
X96920000Y-105200000D02*
X101798860Y-105200000D01*
X101798860Y-102458860D02*
X101760000Y-102420000D01*
X94140000Y-71940000D02*
X94140000Y-70960000D01*
X117000000Y-71940000D02*
X117000000Y-102420000D01*
X109380000Y-71940000D02*
X109380000Y-102420000D01*
X101760000Y-71940000D02*
X101760000Y-102420000D01*
X94140000Y-102420000D02*
X94140000Y-71940000D01*
X119540000Y-79560000D02*
X119540000Y-71940000D01*
X119540000Y-87180000D02*
X119540000Y-79560000D01*
X111920000Y-79560000D02*
X111920000Y-87180000D01*
X111920000Y-71940000D02*
X111920000Y-79560000D01*
X104300000Y-79560000D02*
X104300000Y-87180000D01*
X104300000Y-71940000D02*
X104300000Y-79560000D01*
X96680000Y-79560000D02*
X96680000Y-87180000D01*
X96680000Y-71940000D02*
X96680000Y-79560000D01*
X96680000Y-94800000D02*
X96680000Y-87180000D01*
X96680000Y-102420000D02*
X96680000Y-94800000D01*
X104300000Y-94800000D02*
X104300000Y-87180000D01*
X104300000Y-102420000D02*
X104300000Y-94800000D01*
X111920000Y-94800000D02*
X111920000Y-87180000D01*
X111920000Y-102420000D02*
X111920000Y-94800000D01*
X119540000Y-94800000D02*
X119540000Y-87180000D01*
X119540000Y-102420000D02*
X119540000Y-94800000D01*
X99320000Y-69300000D02*
X104300000Y-69300000D01*
X104300000Y-69300000D02*
X111920000Y-69300000D01*
X104300000Y-71940000D02*
X104300000Y-69300000D01*
X119540000Y-70640000D02*
X118200000Y-69300000D01*
X118200000Y-69300000D02*
X111920000Y-69300000D01*
X119540000Y-71940000D02*
X119540000Y-70640000D01*
X111920000Y-64320000D02*
X111920000Y-69300000D01*
X111920000Y-69300000D02*
X111920000Y-71940000D01*
X96680000Y-71940000D02*
X99320000Y-69300000D01*
X119540000Y-71940000D02*
X119540000Y-102420000D01*
X111920000Y-71940000D02*
X111920000Y-102420000D01*
X104300000Y-71940000D02*
X104300000Y-102420000D01*
X96680000Y-71940000D02*
X96680000Y-102420000D01*
X139916144Y-110192820D02*
X141641680Y-110192820D01*
X141641680Y-110192820D02*
X141698860Y-110250000D01*
X147480000Y-79560000D02*
X147480000Y-87180000D01*
X147480000Y-71940000D02*
X147480000Y-79560000D01*
X139860000Y-79560000D02*
X139860000Y-87180000D01*
X139860000Y-71940000D02*
X139860000Y-79560000D01*
X132240000Y-79560000D02*
X132240000Y-87180000D01*
X132240000Y-71940000D02*
X132240000Y-79560000D01*
X124620000Y-79560000D02*
X124620000Y-87180000D01*
X124620000Y-71940000D02*
X124620000Y-79560000D01*
X124620000Y-94800000D02*
X124620000Y-102420000D01*
X124620000Y-87180000D02*
X124620000Y-94800000D01*
X132240000Y-94800000D02*
X132240000Y-102420000D01*
X132240000Y-87180000D02*
X132240000Y-94800000D01*
X139860000Y-94800000D02*
X139860000Y-102420000D01*
X139860000Y-87180000D02*
X139860000Y-94800000D01*
X147480000Y-94800000D02*
X147480000Y-102420000D01*
X147480000Y-87180000D02*
X147480000Y-94800000D01*
X132198860Y-105100000D02*
X139900000Y-105100000D01*
X139900000Y-105100000D02*
X144800000Y-105100000D01*
X139860000Y-102420000D02*
X139860000Y-105060000D01*
X139860000Y-105060000D02*
X139900000Y-105100000D01*
X144800000Y-105100000D02*
X147480000Y-102420000D01*
X132198860Y-105100000D02*
X132198860Y-102461140D01*
X124620000Y-102420000D02*
X127300000Y-105100000D01*
X127300000Y-105100000D02*
X132198860Y-105100000D01*
X132198860Y-102461140D02*
X132240000Y-102420000D01*
X147480000Y-71940000D02*
X147480000Y-102420000D01*
X139860000Y-71940000D02*
X139860000Y-102420000D01*
X132240000Y-71940000D02*
X132240000Y-102420000D01*
X124620000Y-71940000D02*
X124620000Y-102420000D01*
X150020000Y-79560000D02*
X150020000Y-71940000D01*
X150020000Y-87180000D02*
X150020000Y-79560000D01*
X142400000Y-79560000D02*
X142400000Y-71940000D01*
X142400000Y-87180000D02*
X142400000Y-79560000D01*
X134780000Y-79560000D02*
X134780000Y-71940000D01*
X134780000Y-87180000D02*
X134780000Y-79560000D01*
X127160000Y-79560000D02*
X127160000Y-71940000D01*
X127160000Y-87180000D02*
X127160000Y-79560000D01*
X127160000Y-94800000D02*
X127160000Y-87180000D01*
X127160000Y-102420000D02*
X127160000Y-94800000D01*
X134780000Y-94800000D02*
X134780000Y-87180000D01*
X134780000Y-102420000D02*
X134780000Y-94800000D01*
X142400000Y-94800000D02*
X142400000Y-87180000D01*
X142400000Y-102420000D02*
X142400000Y-94800000D01*
X150020000Y-94800000D02*
X150020000Y-87180000D01*
X150020000Y-102420000D02*
X150020000Y-94800000D01*
X129900000Y-69200000D02*
X134700000Y-69200000D01*
X134700000Y-69200000D02*
X142400000Y-69200000D01*
X134780000Y-71940000D02*
X134780000Y-69280000D01*
X134780000Y-69280000D02*
X134700000Y-69200000D01*
X150020000Y-70520000D02*
X148700000Y-69200000D01*
X148700000Y-69200000D02*
X142400000Y-69200000D01*
X150020000Y-71940000D02*
X150020000Y-70520000D01*
X142400000Y-71940000D02*
X142400000Y-69200000D01*
X142400000Y-69200000D02*
X142400000Y-64320000D01*
X127160000Y-71940000D02*
X129900000Y-69200000D01*
X150020000Y-71940000D02*
X150020000Y-102420000D01*
X142400000Y-71940000D02*
X142400000Y-102420000D01*
X134780000Y-71940000D02*
X134780000Y-102420000D01*
X127160000Y-71940000D02*
X127160000Y-102420000D01*
X172197720Y-111050000D02*
X170349012Y-111050000D01*
X170349012Y-111050000D02*
X170290522Y-110991510D01*
X172121757Y-110974037D02*
X172197720Y-111050000D01*
X177960000Y-79560000D02*
X177960000Y-87180000D01*
X177960000Y-71940000D02*
X177960000Y-79560000D01*
X170340000Y-79560000D02*
X170340000Y-87180000D01*
X170340000Y-71940000D02*
X170340000Y-79560000D01*
X162720000Y-79560000D02*
X162720000Y-87180000D01*
X162720000Y-71940000D02*
X162720000Y-79560000D01*
X155100000Y-79560000D02*
X155100000Y-87180000D01*
X155100000Y-71940000D02*
X155100000Y-79560000D01*
X155100000Y-94800000D02*
X155100000Y-102420000D01*
X155100000Y-87180000D02*
X155100000Y-94800000D01*
X162720000Y-94800000D02*
X162720000Y-102420000D01*
X162720000Y-87180000D02*
X162720000Y-94800000D01*
X170340000Y-94800000D02*
X170340000Y-102420000D01*
X170340000Y-87180000D02*
X170340000Y-94800000D01*
X177960000Y-94800000D02*
X177960000Y-87180000D01*
X177960000Y-102420000D02*
X177960000Y-94800000D01*
X162698860Y-105100000D02*
X170300000Y-105100000D01*
X170340000Y-105060000D02*
X170300000Y-105100000D01*
X170300000Y-105100000D02*
X175280000Y-105100000D01*
X170340000Y-102420000D02*
X170340000Y-105060000D01*
X175280000Y-105100000D02*
X177960000Y-102420000D01*
X155100000Y-102420000D02*
X157780000Y-105100000D01*
X162698860Y-105100000D02*
X162698860Y-102441140D01*
X157780000Y-105100000D02*
X162698860Y-105100000D01*
X162698860Y-102441140D02*
X162720000Y-102420000D01*
X177960000Y-102420000D02*
X177960000Y-71940000D01*
X170340000Y-71940000D02*
X170340000Y-102420000D01*
X162720000Y-71940000D02*
X162720000Y-102420000D01*
X155100000Y-102420000D02*
X155100000Y-71940000D01*
X180500000Y-79560000D02*
X180500000Y-71940000D01*
X180500000Y-87180000D02*
X180500000Y-79560000D01*
X172880000Y-79560000D02*
X172880000Y-71940000D01*
X172880000Y-87180000D02*
X172880000Y-79560000D01*
X165260000Y-79560000D02*
X165260000Y-71940000D01*
X165260000Y-87180000D02*
X165260000Y-79560000D01*
X157640000Y-79560000D02*
X157640000Y-71940000D01*
X157640000Y-87180000D02*
X157640000Y-79560000D01*
X157640000Y-94800000D02*
X157640000Y-87180000D01*
X157640000Y-102420000D02*
X157640000Y-94800000D01*
X165260000Y-94800000D02*
X165260000Y-87180000D01*
X165260000Y-102420000D02*
X165260000Y-94800000D01*
X172880000Y-94800000D02*
X172880000Y-87180000D01*
X172880000Y-102420000D02*
X172880000Y-94800000D01*
X180500000Y-94800000D02*
X180500000Y-102420000D01*
X180500000Y-87180000D02*
X180500000Y-94800000D01*
X160380000Y-69200000D02*
X165300000Y-69200000D01*
X165300000Y-69200000D02*
X172880000Y-69200000D01*
X165260000Y-71940000D02*
X165260000Y-69240000D01*
X165260000Y-69240000D02*
X165300000Y-69200000D01*
X180500000Y-70500000D02*
X179200000Y-69200000D01*
X179200000Y-69200000D02*
X172880000Y-69200000D01*
X180500000Y-71940000D02*
X180500000Y-70500000D01*
X172880000Y-71940000D02*
X172880000Y-69200000D01*
X172880000Y-69200000D02*
X172880000Y-64320000D01*
X157640000Y-71940000D02*
X160380000Y-69200000D01*
X180500000Y-71940000D02*
X180500000Y-102420000D01*
X172880000Y-102420000D02*
X172880000Y-71940000D01*
X165260000Y-102420000D02*
X165260000Y-71940000D01*
X157640000Y-71940000D02*
X157640000Y-102420000D01*
X200813917Y-111569251D02*
X202316971Y-111569251D01*
X202316971Y-111569251D02*
X202397720Y-111650000D01*
X185580000Y-94800000D02*
X185580000Y-87180000D01*
X185580000Y-102420000D02*
X185580000Y-94800000D01*
X193200000Y-94800000D02*
X193200000Y-87180000D01*
X193200000Y-102420000D02*
X193200000Y-94800000D01*
X200820000Y-94800000D02*
X200820000Y-87180000D01*
X200820000Y-102420000D02*
X200820000Y-94800000D01*
X185580000Y-79560000D02*
X185580000Y-87180000D01*
X185580000Y-71940000D02*
X185580000Y-79560000D01*
X193200000Y-79560000D02*
X193200000Y-87180000D01*
X193200000Y-71940000D02*
X193200000Y-79560000D01*
X200820000Y-79560000D02*
X200820000Y-87180000D01*
X200820000Y-71940000D02*
X200820000Y-79560000D01*
X208440000Y-94800000D02*
X208440000Y-102420000D01*
X208440000Y-87180000D02*
X208440000Y-94800000D01*
X208440000Y-79560000D02*
X208440000Y-87180000D01*
X208440000Y-71940000D02*
X208440000Y-79560000D01*
X193200000Y-105100000D02*
X200800000Y-105100000D01*
X200800000Y-105100000D02*
X205760000Y-105100000D01*
X200820000Y-102420000D02*
X200820000Y-105080000D01*
X200820000Y-105080000D02*
X200800000Y-105100000D01*
X205760000Y-105100000D02*
X208440000Y-102420000D01*
X193200000Y-105100000D02*
X193200000Y-102420000D01*
X188260000Y-105100000D02*
X193200000Y-105100000D01*
X185580000Y-102420000D02*
X188260000Y-105100000D01*
X208440000Y-71940000D02*
X208440000Y-102420000D01*
X200820000Y-71940000D02*
X200820000Y-102420000D01*
X193200000Y-71940000D02*
X193200000Y-102420000D01*
X185580000Y-102420000D02*
X185580000Y-71940000D01*
X188120000Y-94800000D02*
X188120000Y-102420000D01*
X188120000Y-87180000D02*
X188120000Y-94800000D01*
X195740000Y-94800000D02*
X195740000Y-102420000D01*
X195740000Y-87180000D02*
X195740000Y-94800000D01*
X203360000Y-94800000D02*
X203360000Y-102420000D01*
X203360000Y-87180000D02*
X203360000Y-94800000D01*
X188120000Y-79560000D02*
X188120000Y-71940000D01*
X188120000Y-87180000D02*
X188120000Y-79560000D01*
X195740000Y-79560000D02*
X195740000Y-71940000D01*
X195740000Y-87180000D02*
X195740000Y-79560000D01*
X203360000Y-79560000D02*
X203360000Y-71940000D01*
X203360000Y-87180000D02*
X203360000Y-79560000D01*
X210980000Y-79560000D02*
X210980000Y-71940000D01*
X210980000Y-87180000D02*
X210980000Y-79560000D01*
X210980000Y-94800000D02*
X210980000Y-87180000D01*
X210980000Y-102420000D02*
X210980000Y-94800000D01*
X190860000Y-69200000D02*
X195700000Y-69200000D01*
X195700000Y-69200000D02*
X203360000Y-69200000D01*
X195740000Y-71940000D02*
X195740000Y-69240000D01*
X195740000Y-69240000D02*
X195700000Y-69200000D01*
X210980000Y-71180000D02*
X209000000Y-69200000D01*
X209000000Y-69200000D02*
X203360000Y-69200000D01*
X210980000Y-71940000D02*
X210980000Y-71180000D01*
X203360000Y-71940000D02*
X203360000Y-69200000D01*
X203360000Y-69200000D02*
X203360000Y-64320000D01*
X188120000Y-71940000D02*
X190860000Y-69200000D01*
X210980000Y-102420000D02*
X210980000Y-71940000D01*
X203360000Y-102420000D02*
X203360000Y-71940000D01*
X195740000Y-71940000D02*
X195740000Y-102420000D01*
X188120000Y-71940000D02*
X188120000Y-102420000D01*
X114407643Y-107650000D02*
X114590901Y-107466742D01*
X114590901Y-107466742D02*
X218661535Y-107466742D01*
X218661535Y-107466742D02*
X228888277Y-97240000D01*
X228888277Y-97240000D02*
X228900000Y-97240000D01*
X145467827Y-108965192D02*
X221720788Y-108965192D01*
X221720788Y-108965192D02*
X226285980Y-104400000D01*
X226285980Y-104400000D02*
X232760000Y-104400000D01*
X232760000Y-98460000D02*
X232760000Y-104400000D01*
X232760000Y-104400000D02*
X232760000Y-107660000D01*
X236520000Y-94700000D02*
X232760000Y-98460000D01*
X83693563Y-107150000D02*
X83972034Y-106871529D01*
X83972034Y-106871529D02*
X216755109Y-106871529D01*
X216755109Y-106871529D02*
X228900000Y-94726638D01*
X228900000Y-94726638D02*
X228900000Y-94700000D01*
X175200000Y-110100000D02*
X175200000Y-110065922D01*
X175200000Y-110065922D02*
X175631115Y-109634807D01*
X232760000Y-110200000D02*
X232760000Y-109935526D01*
X232760000Y-109935526D02*
X231500000Y-108675526D01*
X231500000Y-108675526D02*
X231500000Y-106098103D01*
X231500000Y-106098103D02*
X230643869Y-105241972D01*
X230643869Y-105241972D02*
X227006444Y-105241972D01*
X227006444Y-105241972D02*
X222613609Y-109634807D01*
X222613609Y-109634807D02*
X175631115Y-109634807D01*
X232760000Y-110200000D02*
X232760000Y-109827636D01*
X232760000Y-109827636D02*
X234000000Y-108587636D01*
X234000000Y-108587636D02*
X234000000Y-102300000D01*
X234000000Y-102300000D02*
X236520000Y-99780000D01*
X205400000Y-110700000D02*
X226905337Y-110700000D01*
X226905337Y-110700000D02*
X228705337Y-108900000D01*
X231500000Y-110976885D02*
X232023115Y-111500000D01*
X232023115Y-111500000D02*
X233469103Y-111500000D01*
X228705337Y-108900000D02*
X230825262Y-108900000D01*
X230825262Y-108900000D02*
X231500000Y-109574738D01*
X231500000Y-109574738D02*
X231500000Y-110976885D01*
X233469103Y-111500000D02*
X234000000Y-110969103D01*
X234000000Y-110969103D02*
X234000000Y-109539743D01*
X234000000Y-109539743D02*
X235300000Y-108239743D01*
X235300000Y-108239743D02*
X235300000Y-107660000D01*
X235300000Y-107660000D02*
X238061205Y-104898795D01*
X238061205Y-104898795D02*
X238061205Y-98781205D01*
X238061205Y-98781205D02*
X236520000Y-97240000D01*
G36*
X239375000Y-93883629D02*
X237855787Y-92364417D01*
X237896448Y-92160000D01*
X237793685Y-91643377D01*
X237501042Y-91205406D01*
X237063071Y-90912763D01*
X237000000Y-90900217D01*
X237000000Y-88082551D01*
X237053818Y-88072424D01*
X237241012Y-87951968D01*
X237366594Y-87768173D01*
X237410775Y-87550000D01*
X237410775Y-86820596D01*
X237815685Y-86415686D01*
X237989104Y-86156147D01*
X238010977Y-86046182D01*
X238050000Y-85850000D01*
X238050000Y-74846549D01*
X238126857Y-74814792D01*
X238563260Y-74379151D01*
X238799730Y-73809667D01*
X238800268Y-73193039D01*
X238564792Y-72623143D01*
X238129151Y-72186740D01*
X237559667Y-71950270D01*
X236943039Y-71949732D01*
X236863831Y-71982460D01*
X225915685Y-61034315D01*
X225656147Y-60860896D01*
X225651642Y-60860000D01*
X225350000Y-60800000D01*
X74000000Y-60800000D01*
X73698358Y-60860000D01*
X73693853Y-60860896D01*
X73434315Y-61034314D01*
X71666078Y-62802551D01*
X71589565Y-62770780D01*
X70973140Y-62770242D01*
X70403431Y-63005641D01*
X69967173Y-63441139D01*
X69730780Y-64010435D01*
X69730242Y-64626860D01*
X69965641Y-65196569D01*
X70401139Y-65632827D01*
X70970435Y-65869220D01*
X71586860Y-65869758D01*
X72156569Y-65634359D01*
X72592827Y-65198861D01*
X72829220Y-64629565D01*
X72829758Y-64013140D01*
X72797149Y-63934221D01*
X74331371Y-62400000D01*
X100960000Y-62400000D01*
X100960000Y-62974003D01*
X100883431Y-63005641D01*
X100447173Y-63441139D01*
X100210780Y-64010435D01*
X100210242Y-64626860D01*
X100445641Y-65196569D01*
X100881139Y-65632827D01*
X101450435Y-65869220D01*
X102066860Y-65869758D01*
X102636569Y-65634359D01*
X103072827Y-65198861D01*
X103309220Y-64629565D01*
X103309758Y-64013140D01*
X103074359Y-63443431D01*
X102638861Y-63007173D01*
X102560000Y-62974427D01*
X102560000Y-62400000D01*
X131440000Y-62400000D01*
X131440000Y-62974003D01*
X131363431Y-63005641D01*
X130927173Y-63441139D01*
X130690780Y-64010435D01*
X130690242Y-64626860D01*
X130925641Y-65196569D01*
X131361139Y-65632827D01*
X131930435Y-65869220D01*
X132546860Y-65869758D01*
X133116569Y-65634359D01*
X133552827Y-65198861D01*
X133789220Y-64629565D01*
X133789758Y-64013140D01*
X133554359Y-63443431D01*
X133118861Y-63007173D01*
X133040000Y-62974427D01*
X133040000Y-62400000D01*
X161920000Y-62400000D01*
X161920000Y-62974003D01*
X161843431Y-63005641D01*
X161407173Y-63441139D01*
X161170780Y-64010435D01*
X161170242Y-64626860D01*
X161405641Y-65196569D01*
X161841139Y-65632827D01*
X162410435Y-65869220D01*
X163026860Y-65869758D01*
X163596569Y-65634359D01*
X164032827Y-65198861D01*
X164269220Y-64629565D01*
X164269758Y-64013140D01*
X164034359Y-63443431D01*
X163598861Y-63007173D01*
X163520000Y-62974427D01*
X163520000Y-62400000D01*
X192400000Y-62400000D01*
X192400000Y-62974003D01*
X192323431Y-63005641D01*
X191887173Y-63441139D01*
X191650780Y-64010435D01*
X191650242Y-64626860D01*
X191885641Y-65196569D01*
X192321139Y-65632827D01*
X192890435Y-65869220D01*
X193506860Y-65869758D01*
X194076569Y-65634359D01*
X194512827Y-65198861D01*
X194749220Y-64629565D01*
X194749758Y-64013140D01*
X194514359Y-63443431D01*
X194078861Y-63007173D01*
X194000000Y-62974427D01*
X194000000Y-62400000D01*
X213800000Y-62400000D01*
X213800000Y-84508334D01*
X213787173Y-84521139D01*
X213550780Y-85090435D01*
X213550242Y-85706860D01*
X213785641Y-86276569D01*
X214221139Y-86712827D01*
X214790435Y-86949220D01*
X215406860Y-86949758D01*
X215976569Y-86714359D01*
X216412827Y-86278861D01*
X216649220Y-85709565D01*
X216649758Y-85093140D01*
X216414359Y-84523431D01*
X215978861Y-84087173D01*
X215409565Y-83850780D01*
X215400000Y-83850772D01*
X215400000Y-62400000D01*
X225018630Y-62400000D01*
X235732161Y-73113532D01*
X235700270Y-73190333D01*
X235699732Y-73806961D01*
X235935208Y-74376857D01*
X236370849Y-74813260D01*
X236450000Y-74846126D01*
X236450000Y-85518629D01*
X236279404Y-85689225D01*
X235550000Y-85689225D01*
X235346182Y-85727576D01*
X235158988Y-85848032D01*
X235033406Y-86031827D01*
X234989225Y-86250000D01*
X234989225Y-87550000D01*
X235027576Y-87753818D01*
X235148032Y-87941012D01*
X235331827Y-88066594D01*
X235400000Y-88080399D01*
X235400000Y-91413371D01*
X235246315Y-91643377D01*
X235143552Y-92160000D01*
X235246315Y-92676623D01*
X235538958Y-93114594D01*
X235976929Y-93407237D01*
X236091366Y-93430000D01*
X235976929Y-93452763D01*
X235538958Y-93745406D01*
X235246315Y-94183377D01*
X235143552Y-94700000D01*
X235207676Y-95022374D01*
X232265025Y-97965025D01*
X232113284Y-98192121D01*
X232113284Y-98192122D01*
X232060000Y-98460000D01*
X232060000Y-103700000D01*
X226285980Y-103700000D01*
X226018102Y-103753284D01*
X225791005Y-103905025D01*
X225791003Y-103905028D01*
X221430838Y-108265192D01*
X145467827Y-108265192D01*
X145199949Y-108318476D01*
X145168971Y-108339175D01*
X143800710Y-108339175D01*
X143596892Y-108377526D01*
X143409698Y-108497982D01*
X143284116Y-108681777D01*
X143239935Y-108899950D01*
X143239935Y-109700050D01*
X143278286Y-109903868D01*
X143398742Y-110091062D01*
X143582537Y-110216644D01*
X143800710Y-110260825D01*
X145601570Y-110260825D01*
X145805388Y-110222474D01*
X145992582Y-110102018D01*
X146118164Y-109918223D01*
X146162345Y-109700050D01*
X146162345Y-109665192D01*
X173745834Y-109665192D01*
X173738795Y-109699950D01*
X173738795Y-110500050D01*
X173777146Y-110703868D01*
X173897602Y-110891062D01*
X174081397Y-111016644D01*
X174299570Y-111060825D01*
X176100430Y-111060825D01*
X176304248Y-111022474D01*
X176491442Y-110902018D01*
X176617024Y-110718223D01*
X176661205Y-110500050D01*
X176661205Y-110334807D01*
X203938795Y-110334807D01*
X203938795Y-111100050D01*
X203977146Y-111303868D01*
X204097602Y-111491062D01*
X204281397Y-111616644D01*
X204499570Y-111660825D01*
X206300430Y-111660825D01*
X206504248Y-111622474D01*
X206691442Y-111502018D01*
X206761148Y-111400000D01*
X226905337Y-111400000D01*
X227173216Y-111346716D01*
X227400312Y-111194975D01*
X228995286Y-109600000D01*
X230535312Y-109600000D01*
X230800000Y-109864687D01*
X230800000Y-110976885D01*
X230853284Y-111244764D01*
X231005025Y-111471860D01*
X231528140Y-111994975D01*
X231755237Y-112146716D01*
X232023115Y-112200000D01*
X233469103Y-112200000D01*
X233736982Y-112146716D01*
X233964078Y-111994975D01*
X234494975Y-111464078D01*
X234544324Y-111390222D01*
X234759039Y-111533690D01*
X235300000Y-111641294D01*
X235840961Y-111533690D01*
X236299566Y-111227260D01*
X236605996Y-110768655D01*
X236616743Y-110714627D01*
X237534685Y-109796686D01*
X237645162Y-109631345D01*
X237708103Y-109537148D01*
X237768999Y-109231001D01*
X237768999Y-107562371D01*
X239375000Y-105956371D01*
X239375000Y-113375000D01*
X60625000Y-113375000D01*
X60625000Y-110380958D01*
X138965979Y-110380958D01*
X139110303Y-110730249D01*
X139377309Y-110997722D01*
X139726348Y-111142655D01*
X140104282Y-111142985D01*
X140386904Y-111026208D01*
X140396462Y-111041062D01*
X140580257Y-111166644D01*
X140798430Y-111210825D01*
X142599290Y-111210825D01*
X142764981Y-111179648D01*
X169340357Y-111179648D01*
X169484681Y-111528939D01*
X169751687Y-111796412D01*
X170100726Y-111941345D01*
X170478660Y-111941675D01*
X170827951Y-111797351D01*
X170851846Y-111773498D01*
X170895322Y-111841062D01*
X171079117Y-111966644D01*
X171297290Y-112010825D01*
X173098150Y-112010825D01*
X173301968Y-111972474D01*
X173489162Y-111852018D01*
X173553819Y-111757389D01*
X199863752Y-111757389D01*
X200008076Y-112106680D01*
X200275082Y-112374153D01*
X200624121Y-112519086D01*
X201002055Y-112519416D01*
X201131636Y-112465874D01*
X201279117Y-112566644D01*
X201497290Y-112610825D01*
X203298150Y-112610825D01*
X203501968Y-112572474D01*
X203689162Y-112452018D01*
X203814744Y-112268223D01*
X203858925Y-112050050D01*
X203858925Y-111249950D01*
X203820574Y-111046132D01*
X203700118Y-110858938D01*
X203516323Y-110733356D01*
X203298150Y-110689175D01*
X201497290Y-110689175D01*
X201293472Y-110727526D01*
X201281941Y-110734946D01*
X201003713Y-110619416D01*
X200625779Y-110619086D01*
X200276488Y-110763410D01*
X200009015Y-111030416D01*
X199864082Y-111379455D01*
X199863752Y-111757389D01*
X173553819Y-111757389D01*
X173614744Y-111668223D01*
X173658925Y-111450050D01*
X173658925Y-110649950D01*
X173620574Y-110446132D01*
X173500118Y-110258938D01*
X173316323Y-110133356D01*
X173098150Y-110089175D01*
X171297290Y-110089175D01*
X171093472Y-110127526D01*
X170906278Y-110247982D01*
X170899917Y-110257291D01*
X170829357Y-110186608D01*
X170480318Y-110041675D01*
X170102384Y-110041345D01*
X169753093Y-110185669D01*
X169485620Y-110452675D01*
X169340687Y-110801714D01*
X169340357Y-111179648D01*
X142764981Y-111179648D01*
X142803108Y-111172474D01*
X142990302Y-111052018D01*
X143115884Y-110868223D01*
X143160065Y-110650050D01*
X143160065Y-109849950D01*
X143121714Y-109646132D01*
X143001258Y-109458938D01*
X142817463Y-109333356D01*
X142599290Y-109289175D01*
X140798430Y-109289175D01*
X140594612Y-109327526D01*
X140472885Y-109405855D01*
X140454979Y-109387918D01*
X140105940Y-109242985D01*
X139728006Y-109242655D01*
X139378715Y-109386979D01*
X139111242Y-109653985D01*
X138966309Y-110003024D01*
X138965979Y-110380958D01*
X60625000Y-110380958D01*
X60625000Y-70940000D01*
X62149225Y-70940000D01*
X62149225Y-72940000D01*
X62187576Y-73143818D01*
X62308032Y-73331012D01*
X62491827Y-73456594D01*
X62710000Y-73500775D01*
X62960000Y-73500775D01*
X62960000Y-77999225D01*
X62710000Y-77999225D01*
X62506182Y-78037576D01*
X62318988Y-78158032D01*
X62193406Y-78341827D01*
X62149225Y-78560000D01*
X62149225Y-80560000D01*
X62187576Y-80763818D01*
X62308032Y-80951012D01*
X62491827Y-81076594D01*
X62710000Y-81120775D01*
X62960000Y-81120775D01*
X62960000Y-85619225D01*
X62710000Y-85619225D01*
X62506182Y-85657576D01*
X62318988Y-85778032D01*
X62193406Y-85961827D01*
X62149225Y-86180000D01*
X62149225Y-88180000D01*
X62187576Y-88383818D01*
X62308032Y-88571012D01*
X62491827Y-88696594D01*
X62710000Y-88740775D01*
X62960000Y-88740775D01*
X62960000Y-93239225D01*
X62710000Y-93239225D01*
X62506182Y-93277576D01*
X62318988Y-93398032D01*
X62193406Y-93581827D01*
X62149225Y-93800000D01*
X62149225Y-95800000D01*
X62187576Y-96003818D01*
X62308032Y-96191012D01*
X62491827Y-96316594D01*
X62710000Y-96360775D01*
X62960000Y-96360775D01*
X62960000Y-100859225D01*
X62710000Y-100859225D01*
X62506182Y-100897576D01*
X62318988Y-101018032D01*
X62193406Y-101201827D01*
X62149225Y-101420000D01*
X62149225Y-103420000D01*
X62187576Y-103623818D01*
X62308032Y-103811012D01*
X62491827Y-103936594D01*
X62710000Y-103980775D01*
X62984023Y-103980775D01*
X63013284Y-104127879D01*
X63165025Y-104354975D01*
X64405025Y-105594975D01*
X64632121Y-105746716D01*
X64900000Y-105800000D01*
X78200000Y-105800000D01*
X78200000Y-106352280D01*
X78253284Y-106620159D01*
X78405025Y-106847255D01*
X79148506Y-107590736D01*
X79136515Y-107649950D01*
X79136515Y-108450050D01*
X79174866Y-108653868D01*
X79295322Y-108841062D01*
X79479117Y-108966644D01*
X79697290Y-109010825D01*
X81498150Y-109010825D01*
X81701968Y-108972474D01*
X81889162Y-108852018D01*
X81932809Y-108788138D01*
X108449835Y-108788138D01*
X108594159Y-109137429D01*
X108861165Y-109404902D01*
X109210204Y-109549835D01*
X109588138Y-109550165D01*
X109889009Y-109425848D01*
X109995322Y-109591062D01*
X110179117Y-109716644D01*
X110397290Y-109760825D01*
X112198150Y-109760825D01*
X112401968Y-109722474D01*
X112589162Y-109602018D01*
X112714744Y-109418223D01*
X112758925Y-109200050D01*
X112758925Y-108399950D01*
X112720574Y-108196132D01*
X112600118Y-108008938D01*
X112416323Y-107883356D01*
X112198150Y-107839175D01*
X110397290Y-107839175D01*
X110193472Y-107877526D01*
X110158546Y-107900000D01*
X110043554Y-107900000D01*
X109938835Y-107795098D01*
X109589796Y-107650165D01*
X109211862Y-107649835D01*
X108862571Y-107794159D01*
X108595098Y-108061165D01*
X108450165Y-108410204D01*
X108449835Y-108788138D01*
X81932809Y-108788138D01*
X82014744Y-108668223D01*
X82058925Y-108450050D01*
X82058925Y-107649950D01*
X82020574Y-107446132D01*
X81900118Y-107258938D01*
X81716323Y-107133356D01*
X81498150Y-107089175D01*
X80626844Y-107089175D01*
X80237620Y-106699950D01*
X82138795Y-106699950D01*
X82138795Y-107500050D01*
X82177146Y-107703868D01*
X82297602Y-107891062D01*
X82481397Y-108016644D01*
X82699570Y-108060825D01*
X84500430Y-108060825D01*
X84704248Y-108022474D01*
X84891442Y-107902018D01*
X85017024Y-107718223D01*
X85046730Y-107571529D01*
X112838795Y-107571529D01*
X112838795Y-108250050D01*
X112877146Y-108453868D01*
X112997602Y-108641062D01*
X113181397Y-108766644D01*
X113399570Y-108810825D01*
X115200430Y-108810825D01*
X115404248Y-108772474D01*
X115591442Y-108652018D01*
X115717024Y-108468223D01*
X115761205Y-108250050D01*
X115761205Y-108166742D01*
X218661535Y-108166742D01*
X218929414Y-108113458D01*
X219156510Y-107961717D01*
X228585520Y-98532707D01*
X228873552Y-98590000D01*
X228926448Y-98590000D01*
X229443071Y-98487237D01*
X229881042Y-98194594D01*
X230173685Y-97756623D01*
X230276448Y-97240000D01*
X230173685Y-96723377D01*
X229881042Y-96285406D01*
X229443071Y-95992763D01*
X229328634Y-95970000D01*
X229443071Y-95947237D01*
X229881042Y-95654594D01*
X230173685Y-95216623D01*
X230276448Y-94700000D01*
X230173685Y-94183377D01*
X229881042Y-93745406D01*
X229443071Y-93452763D01*
X229328634Y-93430000D01*
X229443071Y-93407237D01*
X229881042Y-93114594D01*
X230173685Y-92676623D01*
X230276448Y-92160000D01*
X230173685Y-91643377D01*
X229881042Y-91205406D01*
X229443071Y-90912763D01*
X228926448Y-90810000D01*
X228873552Y-90810000D01*
X228356929Y-90912763D01*
X227918958Y-91205406D01*
X227748844Y-91460000D01*
X227621228Y-91460000D01*
X227569044Y-91333705D01*
X227218142Y-90982190D01*
X226759432Y-90791717D01*
X226262747Y-90791283D01*
X225803705Y-90980956D01*
X225452190Y-91331858D01*
X225448809Y-91340000D01*
X219951645Y-91340000D01*
X219949044Y-91333705D01*
X219598142Y-90982190D01*
X219139432Y-90791717D01*
X218642747Y-90791283D01*
X218183705Y-90980956D01*
X217832190Y-91331858D01*
X217641717Y-91790568D01*
X217641509Y-92028541D01*
X215586005Y-94084045D01*
X215409565Y-94010780D01*
X214793140Y-94010242D01*
X214223431Y-94245641D01*
X213787173Y-94681139D01*
X213550780Y-95250435D01*
X213550242Y-95866860D01*
X213785641Y-96436569D01*
X214221139Y-96872827D01*
X214790435Y-97109220D01*
X215406860Y-97109758D01*
X215976569Y-96874359D01*
X216412827Y-96438861D01*
X216649220Y-95869565D01*
X216649758Y-95253140D01*
X216575801Y-95074149D01*
X218443498Y-93206452D01*
X218640568Y-93288283D01*
X219137253Y-93288717D01*
X219596295Y-93099044D01*
X219947810Y-92748142D01*
X219951191Y-92740000D01*
X225448355Y-92740000D01*
X225450956Y-92746295D01*
X225800000Y-93095949D01*
X225800000Y-93156446D01*
X225695098Y-93261165D01*
X225550165Y-93610204D01*
X225549835Y-93988138D01*
X225694159Y-94337429D01*
X225961165Y-94604902D01*
X226310204Y-94749835D01*
X226688138Y-94750165D01*
X227037429Y-94605841D01*
X227304902Y-94338835D01*
X227449835Y-93989796D01*
X227450165Y-93611862D01*
X227305841Y-93262571D01*
X227200000Y-93156545D01*
X227200000Y-93105777D01*
X227216295Y-93099044D01*
X227455757Y-92860000D01*
X227748844Y-92860000D01*
X227918958Y-93114594D01*
X228356929Y-93407237D01*
X228471366Y-93430000D01*
X228356929Y-93452763D01*
X227918958Y-93745406D01*
X227626315Y-94183377D01*
X227523552Y-94700000D01*
X227592096Y-95044593D01*
X216465159Y-106171529D01*
X84660199Y-106171529D01*
X84500430Y-106139175D01*
X82699570Y-106139175D01*
X82495752Y-106177526D01*
X82308558Y-106297982D01*
X82182976Y-106481777D01*
X82138795Y-106699950D01*
X80237620Y-106699950D01*
X79600000Y-106062330D01*
X79600000Y-105800000D01*
X83840000Y-105800000D01*
X84107879Y-105746716D01*
X84334975Y-105594975D01*
X85949175Y-103980775D01*
X87470000Y-103980775D01*
X87673818Y-103942424D01*
X87861012Y-103821968D01*
X87986594Y-103638173D01*
X88015261Y-103496610D01*
X88209209Y-103690897D01*
X88760323Y-103919739D01*
X89357059Y-103920260D01*
X89908572Y-103692380D01*
X90330897Y-103270791D01*
X90559739Y-102719677D01*
X90560260Y-102122941D01*
X90332380Y-101571428D01*
X89910791Y-101149103D01*
X89760000Y-101086489D01*
X89760000Y-96133769D01*
X89908572Y-96072380D01*
X90330897Y-95650791D01*
X90559739Y-95099677D01*
X90560260Y-94502941D01*
X90332380Y-93951428D01*
X89910791Y-93529103D01*
X89760000Y-93466489D01*
X89760000Y-88513769D01*
X89908572Y-88452380D01*
X90330897Y-88030791D01*
X90559739Y-87479677D01*
X90560260Y-86882941D01*
X90332380Y-86331428D01*
X89910791Y-85909103D01*
X89760000Y-85846489D01*
X89760000Y-80893769D01*
X89908572Y-80832380D01*
X90330897Y-80410791D01*
X90559739Y-79859677D01*
X90560260Y-79262941D01*
X90332380Y-78711428D01*
X89910791Y-78289103D01*
X89760000Y-78226489D01*
X89760000Y-73273769D01*
X89908572Y-73212380D01*
X90330897Y-72790791D01*
X90559739Y-72239677D01*
X90560260Y-71642941D01*
X90332380Y-71091428D01*
X90181216Y-70940000D01*
X92629225Y-70940000D01*
X92629225Y-72940000D01*
X92667576Y-73143818D01*
X92788032Y-73331012D01*
X92971827Y-73456594D01*
X93190000Y-73500775D01*
X93440000Y-73500775D01*
X93440000Y-77999225D01*
X93190000Y-77999225D01*
X92986182Y-78037576D01*
X92798988Y-78158032D01*
X92673406Y-78341827D01*
X92629225Y-78560000D01*
X92629225Y-80560000D01*
X92667576Y-80763818D01*
X92788032Y-80951012D01*
X92971827Y-81076594D01*
X93190000Y-81120775D01*
X93440000Y-81120775D01*
X93440000Y-85619225D01*
X93190000Y-85619225D01*
X92986182Y-85657576D01*
X92798988Y-85778032D01*
X92673406Y-85961827D01*
X92629225Y-86180000D01*
X92629225Y-88180000D01*
X92667576Y-88383818D01*
X92788032Y-88571012D01*
X92971827Y-88696594D01*
X93190000Y-88740775D01*
X93440000Y-88740775D01*
X93440000Y-93239225D01*
X93190000Y-93239225D01*
X92986182Y-93277576D01*
X92798988Y-93398032D01*
X92673406Y-93581827D01*
X92629225Y-93800000D01*
X92629225Y-95800000D01*
X92667576Y-96003818D01*
X92788032Y-96191012D01*
X92971827Y-96316594D01*
X93190000Y-96360775D01*
X93440000Y-96360775D01*
X93440000Y-100859225D01*
X93190000Y-100859225D01*
X92986182Y-100897576D01*
X92798988Y-101018032D01*
X92673406Y-101201827D01*
X92629225Y-101420000D01*
X92629225Y-103420000D01*
X92667576Y-103623818D01*
X92788032Y-103811012D01*
X92971827Y-103936594D01*
X93190000Y-103980775D01*
X94710825Y-103980775D01*
X96425025Y-105694975D01*
X96652121Y-105846716D01*
X96920000Y-105900001D01*
X96920005Y-105900000D01*
X108756446Y-105900000D01*
X108861165Y-106004902D01*
X109210204Y-106149835D01*
X109588138Y-106150165D01*
X109937429Y-106005841D01*
X110043455Y-105900000D01*
X114220000Y-105900000D01*
X114487879Y-105846716D01*
X114714975Y-105694975D01*
X116429175Y-103980775D01*
X117950000Y-103980775D01*
X118153818Y-103942424D01*
X118341012Y-103821968D01*
X118466594Y-103638173D01*
X118495261Y-103496610D01*
X118689209Y-103690897D01*
X119240323Y-103919739D01*
X119837059Y-103920260D01*
X120388572Y-103692380D01*
X120810897Y-103270791D01*
X121039739Y-102719677D01*
X121040260Y-102122941D01*
X120812380Y-101571428D01*
X120390791Y-101149103D01*
X120240000Y-101086489D01*
X120240000Y-96133769D01*
X120388572Y-96072380D01*
X120810897Y-95650791D01*
X121039739Y-95099677D01*
X121040260Y-94502941D01*
X120812380Y-93951428D01*
X120390791Y-93529103D01*
X120240000Y-93466489D01*
X120240000Y-88513769D01*
X120388572Y-88452380D01*
X120810897Y-88030791D01*
X121039739Y-87479677D01*
X121040260Y-86882941D01*
X120812380Y-86331428D01*
X120390791Y-85909103D01*
X120240000Y-85846489D01*
X120240000Y-80893769D01*
X120388572Y-80832380D01*
X120810897Y-80410791D01*
X121039739Y-79859677D01*
X121040260Y-79262941D01*
X120812380Y-78711428D01*
X120390791Y-78289103D01*
X120240000Y-78226489D01*
X120240000Y-73273769D01*
X120388572Y-73212380D01*
X120810897Y-72790791D01*
X121039739Y-72239677D01*
X121040260Y-71642941D01*
X120812380Y-71091428D01*
X120661216Y-70940000D01*
X123109225Y-70940000D01*
X123109225Y-72940000D01*
X123147576Y-73143818D01*
X123268032Y-73331012D01*
X123451827Y-73456594D01*
X123670000Y-73500775D01*
X123920000Y-73500775D01*
X123920000Y-77999225D01*
X123670000Y-77999225D01*
X123466182Y-78037576D01*
X123278988Y-78158032D01*
X123153406Y-78341827D01*
X123109225Y-78560000D01*
X123109225Y-80560000D01*
X123147576Y-80763818D01*
X123268032Y-80951012D01*
X123451827Y-81076594D01*
X123670000Y-81120775D01*
X123920000Y-81120775D01*
X123920000Y-85619225D01*
X123670000Y-85619225D01*
X123466182Y-85657576D01*
X123278988Y-85778032D01*
X123153406Y-85961827D01*
X123109225Y-86180000D01*
X123109225Y-88180000D01*
X123147576Y-88383818D01*
X123268032Y-88571012D01*
X123451827Y-88696594D01*
X123670000Y-88740775D01*
X123920000Y-88740775D01*
X123920000Y-93239225D01*
X123670000Y-93239225D01*
X123466182Y-93277576D01*
X123278988Y-93398032D01*
X123153406Y-93581827D01*
X123109225Y-93800000D01*
X123109225Y-95800000D01*
X123147576Y-96003818D01*
X123268032Y-96191012D01*
X123451827Y-96316594D01*
X123670000Y-96360775D01*
X123920000Y-96360775D01*
X123920000Y-100859225D01*
X123670000Y-100859225D01*
X123466182Y-100897576D01*
X123278988Y-101018032D01*
X123153406Y-101201827D01*
X123109225Y-101420000D01*
X123109225Y-103420000D01*
X123147576Y-103623818D01*
X123268032Y-103811012D01*
X123451827Y-103936594D01*
X123670000Y-103980775D01*
X125190825Y-103980775D01*
X126805025Y-105594975D01*
X127032122Y-105746716D01*
X127300000Y-105800000D01*
X139256446Y-105800000D01*
X139361165Y-105904902D01*
X139710204Y-106049835D01*
X140088138Y-106050165D01*
X140437429Y-105905841D01*
X140543455Y-105800000D01*
X144800000Y-105800000D01*
X145067879Y-105746716D01*
X145294975Y-105594975D01*
X146909175Y-103980775D01*
X148430000Y-103980775D01*
X148633818Y-103942424D01*
X148821012Y-103821968D01*
X148946594Y-103638173D01*
X148975261Y-103496610D01*
X149169209Y-103690897D01*
X149720323Y-103919739D01*
X150317059Y-103920260D01*
X150868572Y-103692380D01*
X151290897Y-103270791D01*
X151519739Y-102719677D01*
X151520260Y-102122941D01*
X151292380Y-101571428D01*
X150870791Y-101149103D01*
X150720000Y-101086489D01*
X150720000Y-96133769D01*
X150868572Y-96072380D01*
X151290897Y-95650791D01*
X151519739Y-95099677D01*
X151520260Y-94502941D01*
X151292380Y-93951428D01*
X150870791Y-93529103D01*
X150720000Y-93466489D01*
X150720000Y-88513769D01*
X150868572Y-88452380D01*
X151290897Y-88030791D01*
X151519739Y-87479677D01*
X151520260Y-86882941D01*
X151292380Y-86331428D01*
X150870791Y-85909103D01*
X150720000Y-85846489D01*
X150720000Y-80893769D01*
X150868572Y-80832380D01*
X151290897Y-80410791D01*
X151519739Y-79859677D01*
X151520260Y-79262941D01*
X151292380Y-78711428D01*
X150870791Y-78289103D01*
X150720000Y-78226489D01*
X150720000Y-73273769D01*
X150868572Y-73212380D01*
X151290897Y-72790791D01*
X151519739Y-72239677D01*
X151520260Y-71642941D01*
X151292380Y-71091428D01*
X151141216Y-70940000D01*
X153589225Y-70940000D01*
X153589225Y-72940000D01*
X153627576Y-73143818D01*
X153748032Y-73331012D01*
X153931827Y-73456594D01*
X154150000Y-73500775D01*
X154400000Y-73500775D01*
X154400000Y-77999225D01*
X154150000Y-77999225D01*
X153946182Y-78037576D01*
X153758988Y-78158032D01*
X153633406Y-78341827D01*
X153589225Y-78560000D01*
X153589225Y-80560000D01*
X153627576Y-80763818D01*
X153748032Y-80951012D01*
X153931827Y-81076594D01*
X154150000Y-81120775D01*
X154400000Y-81120775D01*
X154400000Y-85619225D01*
X154150000Y-85619225D01*
X153946182Y-85657576D01*
X153758988Y-85778032D01*
X153633406Y-85961827D01*
X153589225Y-86180000D01*
X153589225Y-88180000D01*
X153627576Y-88383818D01*
X153748032Y-88571012D01*
X153931827Y-88696594D01*
X154150000Y-88740775D01*
X154400000Y-88740775D01*
X154400000Y-93239225D01*
X154150000Y-93239225D01*
X153946182Y-93277576D01*
X153758988Y-93398032D01*
X153633406Y-93581827D01*
X153589225Y-93800000D01*
X153589225Y-95800000D01*
X153627576Y-96003818D01*
X153748032Y-96191012D01*
X153931827Y-96316594D01*
X154150000Y-96360775D01*
X154400000Y-96360775D01*
X154400000Y-100859225D01*
X154150000Y-100859225D01*
X153946182Y-100897576D01*
X153758988Y-101018032D01*
X153633406Y-101201827D01*
X153589225Y-101420000D01*
X153589225Y-103420000D01*
X153627576Y-103623818D01*
X153748032Y-103811012D01*
X153931827Y-103936594D01*
X154150000Y-103980775D01*
X155670825Y-103980775D01*
X157285025Y-105594975D01*
X157512122Y-105746716D01*
X157780000Y-105800000D01*
X169656446Y-105800000D01*
X169761165Y-105904902D01*
X170110204Y-106049835D01*
X170488138Y-106050165D01*
X170837429Y-105905841D01*
X170943455Y-105800000D01*
X175280000Y-105800000D01*
X175547879Y-105746716D01*
X175774975Y-105594975D01*
X177389175Y-103980775D01*
X178910000Y-103980775D01*
X179113818Y-103942424D01*
X179301012Y-103821968D01*
X179426594Y-103638173D01*
X179455261Y-103496610D01*
X179649209Y-103690897D01*
X180200323Y-103919739D01*
X180797059Y-103920260D01*
X181348572Y-103692380D01*
X181770897Y-103270791D01*
X181999739Y-102719677D01*
X182000260Y-102122941D01*
X181772380Y-101571428D01*
X181350791Y-101149103D01*
X181200000Y-101086489D01*
X181200000Y-96133769D01*
X181348572Y-96072380D01*
X181770897Y-95650791D01*
X181999739Y-95099677D01*
X182000260Y-94502941D01*
X181772380Y-93951428D01*
X181350791Y-93529103D01*
X181200000Y-93466489D01*
X181200000Y-88513769D01*
X181348572Y-88452380D01*
X181770897Y-88030791D01*
X181999739Y-87479677D01*
X182000260Y-86882941D01*
X181772380Y-86331428D01*
X181350791Y-85909103D01*
X181200000Y-85846489D01*
X181200000Y-80893769D01*
X181348572Y-80832380D01*
X181770897Y-80410791D01*
X181999739Y-79859677D01*
X182000260Y-79262941D01*
X181772380Y-78711428D01*
X181350791Y-78289103D01*
X181200000Y-78226489D01*
X181200000Y-73273769D01*
X181348572Y-73212380D01*
X181770897Y-72790791D01*
X181999739Y-72239677D01*
X182000260Y-71642941D01*
X181772380Y-71091428D01*
X181621216Y-70940000D01*
X184069225Y-70940000D01*
X184069225Y-72940000D01*
X184107576Y-73143818D01*
X184228032Y-73331012D01*
X184411827Y-73456594D01*
X184630000Y-73500775D01*
X184880000Y-73500775D01*
X184880000Y-77999225D01*
X184630000Y-77999225D01*
X184426182Y-78037576D01*
X184238988Y-78158032D01*
X184113406Y-78341827D01*
X184069225Y-78560000D01*
X184069225Y-80560000D01*
X184107576Y-80763818D01*
X184228032Y-80951012D01*
X184411827Y-81076594D01*
X184630000Y-81120775D01*
X184880000Y-81120775D01*
X184880000Y-85619225D01*
X184630000Y-85619225D01*
X184426182Y-85657576D01*
X184238988Y-85778032D01*
X184113406Y-85961827D01*
X184069225Y-86180000D01*
X184069225Y-88180000D01*
X184107576Y-88383818D01*
X184228032Y-88571012D01*
X184411827Y-88696594D01*
X184630000Y-88740775D01*
X184880000Y-88740775D01*
X184880000Y-93239225D01*
X184630000Y-93239225D01*
X184426182Y-93277576D01*
X184238988Y-93398032D01*
X184113406Y-93581827D01*
X184069225Y-93800000D01*
X184069225Y-95800000D01*
X184107576Y-96003818D01*
X184228032Y-96191012D01*
X184411827Y-96316594D01*
X184630000Y-96360775D01*
X184880000Y-96360775D01*
X184880000Y-100859225D01*
X184630000Y-100859225D01*
X184426182Y-100897576D01*
X184238988Y-101018032D01*
X184113406Y-101201827D01*
X184069225Y-101420000D01*
X184069225Y-103420000D01*
X184107576Y-103623818D01*
X184228032Y-103811012D01*
X184411827Y-103936594D01*
X184630000Y-103980775D01*
X186150825Y-103980775D01*
X187765025Y-105594975D01*
X187992122Y-105746716D01*
X188260000Y-105800000D01*
X200156446Y-105800000D01*
X200261165Y-105904902D01*
X200610204Y-106049835D01*
X200988138Y-106050165D01*
X201337429Y-105905841D01*
X201443455Y-105800000D01*
X205760000Y-105800000D01*
X206027879Y-105746716D01*
X206254975Y-105594975D01*
X207869175Y-103980775D01*
X209390000Y-103980775D01*
X209593818Y-103942424D01*
X209781012Y-103821968D01*
X209906594Y-103638173D01*
X209935261Y-103496610D01*
X210129209Y-103690897D01*
X210680323Y-103919739D01*
X211277059Y-103920260D01*
X211828572Y-103692380D01*
X212250897Y-103270791D01*
X212479739Y-102719677D01*
X212480260Y-102122941D01*
X212252380Y-101571428D01*
X211830791Y-101149103D01*
X211680000Y-101086489D01*
X211680000Y-96133769D01*
X211828572Y-96072380D01*
X212250897Y-95650791D01*
X212479739Y-95099677D01*
X212480260Y-94502941D01*
X212252380Y-93951428D01*
X211830791Y-93529103D01*
X211680000Y-93466489D01*
X211680000Y-88513769D01*
X211828572Y-88452380D01*
X212250897Y-88030791D01*
X212479739Y-87479677D01*
X212480260Y-86882941D01*
X212252380Y-86331428D01*
X211830791Y-85909103D01*
X211680000Y-85846489D01*
X211680000Y-80893769D01*
X211828572Y-80832380D01*
X212250897Y-80410791D01*
X212479739Y-79859677D01*
X212480260Y-79262941D01*
X212252380Y-78711428D01*
X211830791Y-78289103D01*
X211680000Y-78226489D01*
X211680000Y-73273769D01*
X211828572Y-73212380D01*
X212250897Y-72790791D01*
X212479739Y-72239677D01*
X212480260Y-71642941D01*
X212252380Y-71091428D01*
X211830791Y-70669103D01*
X211279677Y-70440261D01*
X211230168Y-70440218D01*
X209494975Y-68705025D01*
X209267879Y-68553284D01*
X209000000Y-68500000D01*
X204060000Y-68500000D01*
X204060000Y-65707316D01*
X204236569Y-65634359D01*
X204672827Y-65198861D01*
X204909220Y-64629565D01*
X204909758Y-64013140D01*
X204674359Y-63443431D01*
X204238861Y-63007173D01*
X203669565Y-62770780D01*
X203053140Y-62770242D01*
X202483431Y-63005641D01*
X202047173Y-63441139D01*
X201810780Y-64010435D01*
X201810242Y-64626860D01*
X202045641Y-65196569D01*
X202481139Y-65632827D01*
X202660000Y-65707097D01*
X202660000Y-68500000D01*
X190860000Y-68500000D01*
X190592121Y-68553284D01*
X190365025Y-68705025D01*
X188568141Y-70501909D01*
X188419677Y-70440261D01*
X187822941Y-70439740D01*
X187271428Y-70667620D01*
X187076195Y-70862513D01*
X187052424Y-70736182D01*
X186931968Y-70548988D01*
X186748173Y-70423406D01*
X186530000Y-70379225D01*
X184630000Y-70379225D01*
X184426182Y-70417576D01*
X184238988Y-70538032D01*
X184113406Y-70721827D01*
X184069225Y-70940000D01*
X181621216Y-70940000D01*
X181350791Y-70669103D01*
X181200000Y-70606489D01*
X181200000Y-70500005D01*
X181200001Y-70500000D01*
X181146716Y-70232121D01*
X181022832Y-70046716D01*
X180994975Y-70005025D01*
X180994972Y-70005023D01*
X179694975Y-68705025D01*
X179467879Y-68553284D01*
X179200000Y-68500000D01*
X173580000Y-68500000D01*
X173580000Y-65707316D01*
X173756569Y-65634359D01*
X174192827Y-65198861D01*
X174429220Y-64629565D01*
X174429758Y-64013140D01*
X174194359Y-63443431D01*
X173758861Y-63007173D01*
X173189565Y-62770780D01*
X172573140Y-62770242D01*
X172003431Y-63005641D01*
X171567173Y-63441139D01*
X171330780Y-64010435D01*
X171330242Y-64626860D01*
X171565641Y-65196569D01*
X172001139Y-65632827D01*
X172180000Y-65707097D01*
X172180000Y-68500000D01*
X165300005Y-68500000D01*
X165300000Y-68499999D01*
X165299995Y-68500000D01*
X160380000Y-68500000D01*
X160112121Y-68553284D01*
X159885025Y-68705025D01*
X158088141Y-70501909D01*
X157939677Y-70440261D01*
X157342941Y-70439740D01*
X156791428Y-70667620D01*
X156596195Y-70862513D01*
X156572424Y-70736182D01*
X156451968Y-70548988D01*
X156268173Y-70423406D01*
X156050000Y-70379225D01*
X154150000Y-70379225D01*
X153946182Y-70417576D01*
X153758988Y-70538032D01*
X153633406Y-70721827D01*
X153589225Y-70940000D01*
X151141216Y-70940000D01*
X150870791Y-70669103D01*
X150720000Y-70606489D01*
X150720000Y-70520000D01*
X150666716Y-70252122D01*
X150666716Y-70252121D01*
X150514975Y-70025025D01*
X149194975Y-68705025D01*
X148967879Y-68553284D01*
X148700000Y-68500000D01*
X143100000Y-68500000D01*
X143100000Y-65707316D01*
X143276569Y-65634359D01*
X143712827Y-65198861D01*
X143949220Y-64629565D01*
X143949758Y-64013140D01*
X143714359Y-63443431D01*
X143278861Y-63007173D01*
X142709565Y-62770780D01*
X142093140Y-62770242D01*
X141523431Y-63005641D01*
X141087173Y-63441139D01*
X140850780Y-64010435D01*
X140850242Y-64626860D01*
X141085641Y-65196569D01*
X141521139Y-65632827D01*
X141700000Y-65707097D01*
X141700000Y-68500000D01*
X129900000Y-68500000D01*
X129632121Y-68553284D01*
X129405025Y-68705025D01*
X127608141Y-70501909D01*
X127459677Y-70440261D01*
X126862941Y-70439740D01*
X126311428Y-70667620D01*
X126116195Y-70862513D01*
X126092424Y-70736182D01*
X125971968Y-70548988D01*
X125788173Y-70423406D01*
X125570000Y-70379225D01*
X123670000Y-70379225D01*
X123466182Y-70417576D01*
X123278988Y-70538032D01*
X123153406Y-70721827D01*
X123109225Y-70940000D01*
X120661216Y-70940000D01*
X120390791Y-70669103D01*
X120232734Y-70603472D01*
X120186716Y-70372122D01*
X120034975Y-70145025D01*
X118694975Y-68805025D01*
X118467879Y-68653284D01*
X118200000Y-68600000D01*
X112620000Y-68600000D01*
X112620000Y-65707316D01*
X112796569Y-65634359D01*
X113232827Y-65198861D01*
X113469220Y-64629565D01*
X113469758Y-64013140D01*
X113234359Y-63443431D01*
X112798861Y-63007173D01*
X112229565Y-62770780D01*
X111613140Y-62770242D01*
X111043431Y-63005641D01*
X110607173Y-63441139D01*
X110370780Y-64010435D01*
X110370242Y-64626860D01*
X110605641Y-65196569D01*
X111041139Y-65632827D01*
X111220000Y-65707097D01*
X111220000Y-68600000D01*
X99320000Y-68600000D01*
X99052121Y-68653284D01*
X98825025Y-68805025D01*
X97128141Y-70501909D01*
X96979677Y-70440261D01*
X96382941Y-70439740D01*
X95831428Y-70667620D01*
X95636195Y-70862513D01*
X95612424Y-70736182D01*
X95491968Y-70548988D01*
X95308173Y-70423406D01*
X95090000Y-70379225D01*
X94506566Y-70379225D01*
X94407878Y-70313284D01*
X94140000Y-70260000D01*
X93872122Y-70313284D01*
X93773434Y-70379225D01*
X93190000Y-70379225D01*
X92986182Y-70417576D01*
X92798988Y-70538032D01*
X92673406Y-70721827D01*
X92629225Y-70940000D01*
X90181216Y-70940000D01*
X89910791Y-70669103D01*
X89760000Y-70606489D01*
X89760000Y-70260005D01*
X89760001Y-70260000D01*
X89706716Y-69992121D01*
X89554975Y-69765025D01*
X88694975Y-68905025D01*
X88467879Y-68753284D01*
X88200000Y-68700000D01*
X82140000Y-68700000D01*
X82140000Y-65707316D01*
X82316569Y-65634359D01*
X82752827Y-65198861D01*
X82989220Y-64629565D01*
X82989758Y-64013140D01*
X82754359Y-63443431D01*
X82318861Y-63007173D01*
X81749565Y-62770780D01*
X81133140Y-62770242D01*
X80563431Y-63005641D01*
X80127173Y-63441139D01*
X79890780Y-64010435D01*
X79890242Y-64626860D01*
X80125641Y-65196569D01*
X80561139Y-65632827D01*
X80740000Y-65707097D01*
X80740000Y-68700000D01*
X68740000Y-68700000D01*
X68472122Y-68753284D01*
X68245025Y-68905025D01*
X68245023Y-68905028D01*
X66648142Y-70501909D01*
X66499677Y-70440261D01*
X65902941Y-70439740D01*
X65351428Y-70667620D01*
X65156195Y-70862513D01*
X65132424Y-70736182D01*
X65011968Y-70548988D01*
X64828173Y-70423406D01*
X64610000Y-70379225D01*
X62710000Y-70379225D01*
X62506182Y-70417576D01*
X62318988Y-70538032D01*
X62193406Y-70721827D01*
X62149225Y-70940000D01*
X60625000Y-70940000D01*
X60625000Y-60625000D01*
X239375000Y-60625000D01*
X239375000Y-93883629D01*
X239375000Y-93883629D01*
G37*
X239375000Y-93883629D02*
X237855787Y-92364417D01*
X237896448Y-92160000D01*
X237793685Y-91643377D01*
X237501042Y-91205406D01*
X237063071Y-90912763D01*
X237000000Y-90900217D01*
X237000000Y-88082551D01*
X237053818Y-88072424D01*
X237241012Y-87951968D01*
X237366594Y-87768173D01*
X237410775Y-87550000D01*
X237410775Y-86820596D01*
X237815685Y-86415686D01*
X237989104Y-86156147D01*
X238010977Y-86046182D01*
X238050000Y-85850000D01*
X238050000Y-74846549D01*
X238126857Y-74814792D01*
X238563260Y-74379151D01*
X238799730Y-73809667D01*
X238800268Y-73193039D01*
X238564792Y-72623143D01*
X238129151Y-72186740D01*
X237559667Y-71950270D01*
X236943039Y-71949732D01*
X236863831Y-71982460D01*
X225915685Y-61034315D01*
X225656147Y-60860896D01*
X225651642Y-60860000D01*
X225350000Y-60800000D01*
X74000000Y-60800000D01*
X73698358Y-60860000D01*
X73693853Y-60860896D01*
X73434315Y-61034314D01*
X71666078Y-62802551D01*
X71589565Y-62770780D01*
X70973140Y-62770242D01*
X70403431Y-63005641D01*
X69967173Y-63441139D01*
X69730780Y-64010435D01*
X69730242Y-64626860D01*
X69965641Y-65196569D01*
X70401139Y-65632827D01*
X70970435Y-65869220D01*
X71586860Y-65869758D01*
X72156569Y-65634359D01*
X72592827Y-65198861D01*
X72829220Y-64629565D01*
X72829758Y-64013140D01*
X72797149Y-63934221D01*
X74331371Y-62400000D01*
X100960000Y-62400000D01*
X100960000Y-62974003D01*
X100883431Y-63005641D01*
X100447173Y-63441139D01*
X100210780Y-64010435D01*
X100210242Y-64626860D01*
X100445641Y-65196569D01*
X100881139Y-65632827D01*
X101450435Y-65869220D01*
X102066860Y-65869758D01*
X102636569Y-65634359D01*
X103072827Y-65198861D01*
X103309220Y-64629565D01*
X103309758Y-64013140D01*
X103074359Y-63443431D01*
X102638861Y-63007173D01*
X102560000Y-62974427D01*
X102560000Y-62400000D01*
X131440000Y-62400000D01*
X131440000Y-62974003D01*
X131363431Y-63005641D01*
X130927173Y-63441139D01*
X130690780Y-64010435D01*
X130690242Y-64626860D01*
X130925641Y-65196569D01*
X131361139Y-65632827D01*
X131930435Y-65869220D01*
X132546860Y-65869758D01*
X133116569Y-65634359D01*
X133552827Y-65198861D01*
X133789220Y-64629565D01*
X133789758Y-64013140D01*
X133554359Y-63443431D01*
X133118861Y-63007173D01*
X133040000Y-62974427D01*
X133040000Y-62400000D01*
X161920000Y-62400000D01*
X161920000Y-62974003D01*
X161843431Y-63005641D01*
X161407173Y-63441139D01*
X161170780Y-64010435D01*
X161170242Y-64626860D01*
X161405641Y-65196569D01*
X161841139Y-65632827D01*
X162410435Y-65869220D01*
X163026860Y-65869758D01*
X163596569Y-65634359D01*
X164032827Y-65198861D01*
X164269220Y-64629565D01*
X164269758Y-64013140D01*
X164034359Y-63443431D01*
X163598861Y-63007173D01*
X163520000Y-62974427D01*
X163520000Y-62400000D01*
X192400000Y-62400000D01*
X192400000Y-62974003D01*
X192323431Y-63005641D01*
X191887173Y-63441139D01*
X191650780Y-64010435D01*
X191650242Y-64626860D01*
X191885641Y-65196569D01*
X192321139Y-65632827D01*
X192890435Y-65869220D01*
X193506860Y-65869758D01*
X194076569Y-65634359D01*
X194512827Y-65198861D01*
X194749220Y-64629565D01*
X194749758Y-64013140D01*
X194514359Y-63443431D01*
X194078861Y-63007173D01*
X194000000Y-62974427D01*
X194000000Y-62400000D01*
X213800000Y-62400000D01*
X213800000Y-84508334D01*
X213787173Y-84521139D01*
X213550780Y-85090435D01*
X213550242Y-85706860D01*
X213785641Y-86276569D01*
X214221139Y-86712827D01*
X214790435Y-86949220D01*
X215406860Y-86949758D01*
X215976569Y-86714359D01*
X216412827Y-86278861D01*
X216649220Y-85709565D01*
X216649758Y-85093140D01*
X216414359Y-84523431D01*
X215978861Y-84087173D01*
X215409565Y-83850780D01*
X215400000Y-83850772D01*
X215400000Y-62400000D01*
X225018630Y-62400000D01*
X235732161Y-73113532D01*
X235700270Y-73190333D01*
X235699732Y-73806961D01*
X235935208Y-74376857D01*
X236370849Y-74813260D01*
X236450000Y-74846126D01*
X236450000Y-85518629D01*
X236279404Y-85689225D01*
X235550000Y-85689225D01*
X235346182Y-85727576D01*
X235158988Y-85848032D01*
X235033406Y-86031827D01*
X234989225Y-86250000D01*
X234989225Y-87550000D01*
X235027576Y-87753818D01*
X235148032Y-87941012D01*
X235331827Y-88066594D01*
X235400000Y-88080399D01*
X235400000Y-91413371D01*
X235246315Y-91643377D01*
X235143552Y-92160000D01*
X235246315Y-92676623D01*
X235538958Y-93114594D01*
X235976929Y-93407237D01*
X236091366Y-93430000D01*
X235976929Y-93452763D01*
X235538958Y-93745406D01*
X235246315Y-94183377D01*
X235143552Y-94700000D01*
X235207676Y-95022374D01*
X232265025Y-97965025D01*
X232113284Y-98192121D01*
X232113284Y-98192122D01*
X232060000Y-98460000D01*
X232060000Y-103700000D01*
X226285980Y-103700000D01*
X226018102Y-103753284D01*
X225791005Y-103905025D01*
X225791003Y-103905028D01*
X221430838Y-108265192D01*
X145467827Y-108265192D01*
X145199949Y-108318476D01*
X145168971Y-108339175D01*
X143800710Y-108339175D01*
X143596892Y-108377526D01*
X143409698Y-108497982D01*
X143284116Y-108681777D01*
X143239935Y-108899950D01*
X143239935Y-109700050D01*
X143278286Y-109903868D01*
X143398742Y-110091062D01*
X143582537Y-110216644D01*
X143800710Y-110260825D01*
X145601570Y-110260825D01*
X145805388Y-110222474D01*
X145992582Y-110102018D01*
X146118164Y-109918223D01*
X146162345Y-109700050D01*
X146162345Y-109665192D01*
X173745834Y-109665192D01*
X173738795Y-109699950D01*
X173738795Y-110500050D01*
X173777146Y-110703868D01*
X173897602Y-110891062D01*
X174081397Y-111016644D01*
X174299570Y-111060825D01*
X176100430Y-111060825D01*
X176304248Y-111022474D01*
X176491442Y-110902018D01*
X176617024Y-110718223D01*
X176661205Y-110500050D01*
X176661205Y-110334807D01*
X203938795Y-110334807D01*
X203938795Y-111100050D01*
X203977146Y-111303868D01*
X204097602Y-111491062D01*
X204281397Y-111616644D01*
X204499570Y-111660825D01*
X206300430Y-111660825D01*
X206504248Y-111622474D01*
X206691442Y-111502018D01*
X206761148Y-111400000D01*
X226905337Y-111400000D01*
X227173216Y-111346716D01*
X227400312Y-111194975D01*
X228995286Y-109600000D01*
X230535312Y-109600000D01*
X230800000Y-109864687D01*
X230800000Y-110976885D01*
X230853284Y-111244764D01*
X231005025Y-111471860D01*
X231528140Y-111994975D01*
X231755237Y-112146716D01*
X232023115Y-112200000D01*
X233469103Y-112200000D01*
X233736982Y-112146716D01*
X233964078Y-111994975D01*
X234494975Y-111464078D01*
X234544324Y-111390222D01*
X234759039Y-111533690D01*
X235300000Y-111641294D01*
X235840961Y-111533690D01*
X236299566Y-111227260D01*
X236605996Y-110768655D01*
X236616743Y-110714627D01*
X237534685Y-109796686D01*
X237645162Y-109631345D01*
X237708103Y-109537148D01*
X237768999Y-109231001D01*
X237768999Y-107562371D01*
X239375000Y-105956371D01*
X239375000Y-113375000D01*
X60625000Y-113375000D01*
X60625000Y-110380958D01*
X138965979Y-110380958D01*
X139110303Y-110730249D01*
X139377309Y-110997722D01*
X139726348Y-111142655D01*
X140104282Y-111142985D01*
X140386904Y-111026208D01*
X140396462Y-111041062D01*
X140580257Y-111166644D01*
X140798430Y-111210825D01*
X142599290Y-111210825D01*
X142764981Y-111179648D01*
X169340357Y-111179648D01*
X169484681Y-111528939D01*
X169751687Y-111796412D01*
X170100726Y-111941345D01*
X170478660Y-111941675D01*
X170827951Y-111797351D01*
X170851846Y-111773498D01*
X170895322Y-111841062D01*
X171079117Y-111966644D01*
X171297290Y-112010825D01*
X173098150Y-112010825D01*
X173301968Y-111972474D01*
X173489162Y-111852018D01*
X173553819Y-111757389D01*
X199863752Y-111757389D01*
X200008076Y-112106680D01*
X200275082Y-112374153D01*
X200624121Y-112519086D01*
X201002055Y-112519416D01*
X201131636Y-112465874D01*
X201279117Y-112566644D01*
X201497290Y-112610825D01*
X203298150Y-112610825D01*
X203501968Y-112572474D01*
X203689162Y-112452018D01*
X203814744Y-112268223D01*
X203858925Y-112050050D01*
X203858925Y-111249950D01*
X203820574Y-111046132D01*
X203700118Y-110858938D01*
X203516323Y-110733356D01*
X203298150Y-110689175D01*
X201497290Y-110689175D01*
X201293472Y-110727526D01*
X201281941Y-110734946D01*
X201003713Y-110619416D01*
X200625779Y-110619086D01*
X200276488Y-110763410D01*
X200009015Y-111030416D01*
X199864082Y-111379455D01*
X199863752Y-111757389D01*
X173553819Y-111757389D01*
X173614744Y-111668223D01*
X173658925Y-111450050D01*
X173658925Y-110649950D01*
X173620574Y-110446132D01*
X173500118Y-110258938D01*
X173316323Y-110133356D01*
X173098150Y-110089175D01*
X171297290Y-110089175D01*
X171093472Y-110127526D01*
X170906278Y-110247982D01*
X170899917Y-110257291D01*
X170829357Y-110186608D01*
X170480318Y-110041675D01*
X170102384Y-110041345D01*
X169753093Y-110185669D01*
X169485620Y-110452675D01*
X169340687Y-110801714D01*
X169340357Y-111179648D01*
X142764981Y-111179648D01*
X142803108Y-111172474D01*
X142990302Y-111052018D01*
X143115884Y-110868223D01*
X143160065Y-110650050D01*
X143160065Y-109849950D01*
X143121714Y-109646132D01*
X143001258Y-109458938D01*
X142817463Y-109333356D01*
X142599290Y-109289175D01*
X140798430Y-109289175D01*
X140594612Y-109327526D01*
X140472885Y-109405855D01*
X140454979Y-109387918D01*
X140105940Y-109242985D01*
X139728006Y-109242655D01*
X139378715Y-109386979D01*
X139111242Y-109653985D01*
X138966309Y-110003024D01*
X138965979Y-110380958D01*
X60625000Y-110380958D01*
X60625000Y-70940000D01*
X62149225Y-70940000D01*
X62149225Y-72940000D01*
X62187576Y-73143818D01*
X62308032Y-73331012D01*
X62491827Y-73456594D01*
X62710000Y-73500775D01*
X62960000Y-73500775D01*
X62960000Y-77999225D01*
X62710000Y-77999225D01*
X62506182Y-78037576D01*
X62318988Y-78158032D01*
X62193406Y-78341827D01*
X62149225Y-78560000D01*
X62149225Y-80560000D01*
X62187576Y-80763818D01*
X62308032Y-80951012D01*
X62491827Y-81076594D01*
X62710000Y-81120775D01*
X62960000Y-81120775D01*
X62960000Y-85619225D01*
X62710000Y-85619225D01*
X62506182Y-85657576D01*
X62318988Y-85778032D01*
X62193406Y-85961827D01*
X62149225Y-86180000D01*
X62149225Y-88180000D01*
X62187576Y-88383818D01*
X62308032Y-88571012D01*
X62491827Y-88696594D01*
X62710000Y-88740775D01*
X62960000Y-88740775D01*
X62960000Y-93239225D01*
X62710000Y-93239225D01*
X62506182Y-93277576D01*
X62318988Y-93398032D01*
X62193406Y-93581827D01*
X62149225Y-93800000D01*
X62149225Y-95800000D01*
X62187576Y-96003818D01*
X62308032Y-96191012D01*
X62491827Y-96316594D01*
X62710000Y-96360775D01*
X62960000Y-96360775D01*
X62960000Y-100859225D01*
X62710000Y-100859225D01*
X62506182Y-100897576D01*
X62318988Y-101018032D01*
X62193406Y-101201827D01*
X62149225Y-101420000D01*
X62149225Y-103420000D01*
X62187576Y-103623818D01*
X62308032Y-103811012D01*
X62491827Y-103936594D01*
X62710000Y-103980775D01*
X62984023Y-103980775D01*
X63013284Y-104127879D01*
X63165025Y-104354975D01*
X64405025Y-105594975D01*
X64632121Y-105746716D01*
X64900000Y-105800000D01*
X78200000Y-105800000D01*
X78200000Y-106352280D01*
X78253284Y-106620159D01*
X78405025Y-106847255D01*
X79148506Y-107590736D01*
X79136515Y-107649950D01*
X79136515Y-108450050D01*
X79174866Y-108653868D01*
X79295322Y-108841062D01*
X79479117Y-108966644D01*
X79697290Y-109010825D01*
X81498150Y-109010825D01*
X81701968Y-108972474D01*
X81889162Y-108852018D01*
X81932809Y-108788138D01*
X108449835Y-108788138D01*
X108594159Y-109137429D01*
X108861165Y-109404902D01*
X109210204Y-109549835D01*
X109588138Y-109550165D01*
X109889009Y-109425848D01*
X109995322Y-109591062D01*
X110179117Y-109716644D01*
X110397290Y-109760825D01*
X112198150Y-109760825D01*
X112401968Y-109722474D01*
X112589162Y-109602018D01*
X112714744Y-109418223D01*
X112758925Y-109200050D01*
X112758925Y-108399950D01*
X112720574Y-108196132D01*
X112600118Y-108008938D01*
X112416323Y-107883356D01*
X112198150Y-107839175D01*
X110397290Y-107839175D01*
X110193472Y-107877526D01*
X110158546Y-107900000D01*
X110043554Y-107900000D01*
X109938835Y-107795098D01*
X109589796Y-107650165D01*
X109211862Y-107649835D01*
X108862571Y-107794159D01*
X108595098Y-108061165D01*
X108450165Y-108410204D01*
X108449835Y-108788138D01*
X81932809Y-108788138D01*
X82014744Y-108668223D01*
X82058925Y-108450050D01*
X82058925Y-107649950D01*
X82020574Y-107446132D01*
X81900118Y-107258938D01*
X81716323Y-107133356D01*
X81498150Y-107089175D01*
X80626844Y-107089175D01*
X80237620Y-106699950D01*
X82138795Y-106699950D01*
X82138795Y-107500050D01*
X82177146Y-107703868D01*
X82297602Y-107891062D01*
X82481397Y-108016644D01*
X82699570Y-108060825D01*
X84500430Y-108060825D01*
X84704248Y-108022474D01*
X84891442Y-107902018D01*
X85017024Y-107718223D01*
X85046730Y-107571529D01*
X112838795Y-107571529D01*
X112838795Y-108250050D01*
X112877146Y-108453868D01*
X112997602Y-108641062D01*
X113181397Y-108766644D01*
X113399570Y-108810825D01*
X115200430Y-108810825D01*
X115404248Y-108772474D01*
X115591442Y-108652018D01*
X115717024Y-108468223D01*
X115761205Y-108250050D01*
X115761205Y-108166742D01*
X218661535Y-108166742D01*
X218929414Y-108113458D01*
X219156510Y-107961717D01*
X228585520Y-98532707D01*
X228873552Y-98590000D01*
X228926448Y-98590000D01*
X229443071Y-98487237D01*
X229881042Y-98194594D01*
X230173685Y-97756623D01*
X230276448Y-97240000D01*
X230173685Y-96723377D01*
X229881042Y-96285406D01*
X229443071Y-95992763D01*
X229328634Y-95970000D01*
X229443071Y-95947237D01*
X229881042Y-95654594D01*
X230173685Y-95216623D01*
X230276448Y-94700000D01*
X230173685Y-94183377D01*
X229881042Y-93745406D01*
X229443071Y-93452763D01*
X229328634Y-93430000D01*
X229443071Y-93407237D01*
X229881042Y-93114594D01*
X230173685Y-92676623D01*
X230276448Y-92160000D01*
X230173685Y-91643377D01*
X229881042Y-91205406D01*
X229443071Y-90912763D01*
X228926448Y-90810000D01*
X228873552Y-90810000D01*
X228356929Y-90912763D01*
X227918958Y-91205406D01*
X227748844Y-91460000D01*
X227621228Y-91460000D01*
X227569044Y-91333705D01*
X227218142Y-90982190D01*
X226759432Y-90791717D01*
X226262747Y-90791283D01*
X225803705Y-90980956D01*
X225452190Y-91331858D01*
X225448809Y-91340000D01*
X219951645Y-91340000D01*
X219949044Y-91333705D01*
X219598142Y-90982190D01*
X219139432Y-90791717D01*
X218642747Y-90791283D01*
X218183705Y-90980956D01*
X217832190Y-91331858D01*
X217641717Y-91790568D01*
X217641509Y-92028541D01*
X215586005Y-94084045D01*
X215409565Y-94010780D01*
X214793140Y-94010242D01*
X214223431Y-94245641D01*
X213787173Y-94681139D01*
X213550780Y-95250435D01*
X213550242Y-95866860D01*
X213785641Y-96436569D01*
X214221139Y-96872827D01*
X214790435Y-97109220D01*
X215406860Y-97109758D01*
X215976569Y-96874359D01*
X216412827Y-96438861D01*
X216649220Y-95869565D01*
X216649758Y-95253140D01*
X216575801Y-95074149D01*
X218443498Y-93206452D01*
X218640568Y-93288283D01*
X219137253Y-93288717D01*
X219596295Y-93099044D01*
X219947810Y-92748142D01*
X219951191Y-92740000D01*
X225448355Y-92740000D01*
X225450956Y-92746295D01*
X225800000Y-93095949D01*
X225800000Y-93156446D01*
X225695098Y-93261165D01*
X225550165Y-93610204D01*
X225549835Y-93988138D01*
X225694159Y-94337429D01*
X225961165Y-94604902D01*
X226310204Y-94749835D01*
X226688138Y-94750165D01*
X227037429Y-94605841D01*
X227304902Y-94338835D01*
X227449835Y-93989796D01*
X227450165Y-93611862D01*
X227305841Y-93262571D01*
X227200000Y-93156545D01*
X227200000Y-93105777D01*
X227216295Y-93099044D01*
X227455757Y-92860000D01*
X227748844Y-92860000D01*
X227918958Y-93114594D01*
X228356929Y-93407237D01*
X228471366Y-93430000D01*
X228356929Y-93452763D01*
X227918958Y-93745406D01*
X227626315Y-94183377D01*
X227523552Y-94700000D01*
X227592096Y-95044593D01*
X216465159Y-106171529D01*
X84660199Y-106171529D01*
X84500430Y-106139175D01*
X82699570Y-106139175D01*
X82495752Y-106177526D01*
X82308558Y-106297982D01*
X82182976Y-106481777D01*
X82138795Y-106699950D01*
X80237620Y-106699950D01*
X79600000Y-106062330D01*
X79600000Y-105800000D01*
X83840000Y-105800000D01*
X84107879Y-105746716D01*
X84334975Y-105594975D01*
X85949175Y-103980775D01*
X87470000Y-103980775D01*
X87673818Y-103942424D01*
X87861012Y-103821968D01*
X87986594Y-103638173D01*
X88015261Y-103496610D01*
X88209209Y-103690897D01*
X88760323Y-103919739D01*
X89357059Y-103920260D01*
X89908572Y-103692380D01*
X90330897Y-103270791D01*
X90559739Y-102719677D01*
X90560260Y-102122941D01*
X90332380Y-101571428D01*
X89910791Y-101149103D01*
X89760000Y-101086489D01*
X89760000Y-96133769D01*
X89908572Y-96072380D01*
X90330897Y-95650791D01*
X90559739Y-95099677D01*
X90560260Y-94502941D01*
X90332380Y-93951428D01*
X89910791Y-93529103D01*
X89760000Y-93466489D01*
X89760000Y-88513769D01*
X89908572Y-88452380D01*
X90330897Y-88030791D01*
X90559739Y-87479677D01*
X90560260Y-86882941D01*
X90332380Y-86331428D01*
X89910791Y-85909103D01*
X89760000Y-85846489D01*
X89760000Y-80893769D01*
X89908572Y-80832380D01*
X90330897Y-80410791D01*
X90559739Y-79859677D01*
X90560260Y-79262941D01*
X90332380Y-78711428D01*
X89910791Y-78289103D01*
X89760000Y-78226489D01*
X89760000Y-73273769D01*
X89908572Y-73212380D01*
X90330897Y-72790791D01*
X90559739Y-72239677D01*
X90560260Y-71642941D01*
X90332380Y-71091428D01*
X90181216Y-70940000D01*
X92629225Y-70940000D01*
X92629225Y-72940000D01*
X92667576Y-73143818D01*
X92788032Y-73331012D01*
X92971827Y-73456594D01*
X93190000Y-73500775D01*
X93440000Y-73500775D01*
X93440000Y-77999225D01*
X93190000Y-77999225D01*
X92986182Y-78037576D01*
X92798988Y-78158032D01*
X92673406Y-78341827D01*
X92629225Y-78560000D01*
X92629225Y-80560000D01*
X92667576Y-80763818D01*
X92788032Y-80951012D01*
X92971827Y-81076594D01*
X93190000Y-81120775D01*
X93440000Y-81120775D01*
X93440000Y-85619225D01*
X93190000Y-85619225D01*
X92986182Y-85657576D01*
X92798988Y-85778032D01*
X92673406Y-85961827D01*
X92629225Y-86180000D01*
X92629225Y-88180000D01*
X92667576Y-88383818D01*
X92788032Y-88571012D01*
X92971827Y-88696594D01*
X93190000Y-88740775D01*
X93440000Y-88740775D01*
X93440000Y-93239225D01*
X93190000Y-93239225D01*
X92986182Y-93277576D01*
X92798988Y-93398032D01*
X92673406Y-93581827D01*
X92629225Y-93800000D01*
X92629225Y-95800000D01*
X92667576Y-96003818D01*
X92788032Y-96191012D01*
X92971827Y-96316594D01*
X93190000Y-96360775D01*
X93440000Y-96360775D01*
X93440000Y-100859225D01*
X93190000Y-100859225D01*
X92986182Y-100897576D01*
X92798988Y-101018032D01*
X92673406Y-101201827D01*
X92629225Y-101420000D01*
X92629225Y-103420000D01*
X92667576Y-103623818D01*
X92788032Y-103811012D01*
X92971827Y-103936594D01*
X93190000Y-103980775D01*
X94710825Y-103980775D01*
X96425025Y-105694975D01*
X96652121Y-105846716D01*
X96920000Y-105900001D01*
X96920005Y-105900000D01*
X108756446Y-105900000D01*
X108861165Y-106004902D01*
X109210204Y-106149835D01*
X109588138Y-106150165D01*
X109937429Y-106005841D01*
X110043455Y-105900000D01*
X114220000Y-105900000D01*
X114487879Y-105846716D01*
X114714975Y-105694975D01*
X116429175Y-103980775D01*
X117950000Y-103980775D01*
X118153818Y-103942424D01*
X118341012Y-103821968D01*
X118466594Y-103638173D01*
X118495261Y-103496610D01*
X118689209Y-103690897D01*
X119240323Y-103919739D01*
X119837059Y-103920260D01*
X120388572Y-103692380D01*
X120810897Y-103270791D01*
X121039739Y-102719677D01*
X121040260Y-102122941D01*
X120812380Y-101571428D01*
X120390791Y-101149103D01*
X120240000Y-101086489D01*
X120240000Y-96133769D01*
X120388572Y-96072380D01*
X120810897Y-95650791D01*
X121039739Y-95099677D01*
X121040260Y-94502941D01*
X120812380Y-93951428D01*
X120390791Y-93529103D01*
X120240000Y-93466489D01*
X120240000Y-88513769D01*
X120388572Y-88452380D01*
X120810897Y-88030791D01*
X121039739Y-87479677D01*
X121040260Y-86882941D01*
X120812380Y-86331428D01*
X120390791Y-85909103D01*
X120240000Y-85846489D01*
X120240000Y-80893769D01*
X120388572Y-80832380D01*
X120810897Y-80410791D01*
X121039739Y-79859677D01*
X121040260Y-79262941D01*
X120812380Y-78711428D01*
X120390791Y-78289103D01*
X120240000Y-78226489D01*
X120240000Y-73273769D01*
X120388572Y-73212380D01*
X120810897Y-72790791D01*
X121039739Y-72239677D01*
X121040260Y-71642941D01*
X120812380Y-71091428D01*
X120661216Y-70940000D01*
X123109225Y-70940000D01*
X123109225Y-72940000D01*
X123147576Y-73143818D01*
X123268032Y-73331012D01*
X123451827Y-73456594D01*
X123670000Y-73500775D01*
X123920000Y-73500775D01*
X123920000Y-77999225D01*
X123670000Y-77999225D01*
X123466182Y-78037576D01*
X123278988Y-78158032D01*
X123153406Y-78341827D01*
X123109225Y-78560000D01*
X123109225Y-80560000D01*
X123147576Y-80763818D01*
X123268032Y-80951012D01*
X123451827Y-81076594D01*
X123670000Y-81120775D01*
X123920000Y-81120775D01*
X123920000Y-85619225D01*
X123670000Y-85619225D01*
X123466182Y-85657576D01*
X123278988Y-85778032D01*
X123153406Y-85961827D01*
X123109225Y-86180000D01*
X123109225Y-88180000D01*
X123147576Y-88383818D01*
X123268032Y-88571012D01*
X123451827Y-88696594D01*
X123670000Y-88740775D01*
X123920000Y-88740775D01*
X123920000Y-93239225D01*
X123670000Y-93239225D01*
X123466182Y-93277576D01*
X123278988Y-93398032D01*
X123153406Y-93581827D01*
X123109225Y-93800000D01*
X123109225Y-95800000D01*
X123147576Y-96003818D01*
X123268032Y-96191012D01*
X123451827Y-96316594D01*
X123670000Y-96360775D01*
X123920000Y-96360775D01*
X123920000Y-100859225D01*
X123670000Y-100859225D01*
X123466182Y-100897576D01*
X123278988Y-101018032D01*
X123153406Y-101201827D01*
X123109225Y-101420000D01*
X123109225Y-103420000D01*
X123147576Y-103623818D01*
X123268032Y-103811012D01*
X123451827Y-103936594D01*
X123670000Y-103980775D01*
X125190825Y-103980775D01*
X126805025Y-105594975D01*
X127032122Y-105746716D01*
X127300000Y-105800000D01*
X139256446Y-105800000D01*
X139361165Y-105904902D01*
X139710204Y-106049835D01*
X140088138Y-106050165D01*
X140437429Y-105905841D01*
X140543455Y-105800000D01*
X144800000Y-105800000D01*
X145067879Y-105746716D01*
X145294975Y-105594975D01*
X146909175Y-103980775D01*
X148430000Y-103980775D01*
X148633818Y-103942424D01*
X148821012Y-103821968D01*
X148946594Y-103638173D01*
X148975261Y-103496610D01*
X149169209Y-103690897D01*
X149720323Y-103919739D01*
X150317059Y-103920260D01*
X150868572Y-103692380D01*
X151290897Y-103270791D01*
X151519739Y-102719677D01*
X151520260Y-102122941D01*
X151292380Y-101571428D01*
X150870791Y-101149103D01*
X150720000Y-101086489D01*
X150720000Y-96133769D01*
X150868572Y-96072380D01*
X151290897Y-95650791D01*
X151519739Y-95099677D01*
X151520260Y-94502941D01*
X151292380Y-93951428D01*
X150870791Y-93529103D01*
X150720000Y-93466489D01*
X150720000Y-88513769D01*
X150868572Y-88452380D01*
X151290897Y-88030791D01*
X151519739Y-87479677D01*
X151520260Y-86882941D01*
X151292380Y-86331428D01*
X150870791Y-85909103D01*
X150720000Y-85846489D01*
X150720000Y-80893769D01*
X150868572Y-80832380D01*
X151290897Y-80410791D01*
X151519739Y-79859677D01*
X151520260Y-79262941D01*
X151292380Y-78711428D01*
X150870791Y-78289103D01*
X150720000Y-78226489D01*
X150720000Y-73273769D01*
X150868572Y-73212380D01*
X151290897Y-72790791D01*
X151519739Y-72239677D01*
X151520260Y-71642941D01*
X151292380Y-71091428D01*
X151141216Y-70940000D01*
X153589225Y-70940000D01*
X153589225Y-72940000D01*
X153627576Y-73143818D01*
X153748032Y-73331012D01*
X153931827Y-73456594D01*
X154150000Y-73500775D01*
X154400000Y-73500775D01*
X154400000Y-77999225D01*
X154150000Y-77999225D01*
X153946182Y-78037576D01*
X153758988Y-78158032D01*
X153633406Y-78341827D01*
X153589225Y-78560000D01*
X153589225Y-80560000D01*
X153627576Y-80763818D01*
X153748032Y-80951012D01*
X153931827Y-81076594D01*
X154150000Y-81120775D01*
X154400000Y-81120775D01*
X154400000Y-85619225D01*
X154150000Y-85619225D01*
X153946182Y-85657576D01*
X153758988Y-85778032D01*
X153633406Y-85961827D01*
X153589225Y-86180000D01*
X153589225Y-88180000D01*
X153627576Y-88383818D01*
X153748032Y-88571012D01*
X153931827Y-88696594D01*
X154150000Y-88740775D01*
X154400000Y-88740775D01*
X154400000Y-93239225D01*
X154150000Y-93239225D01*
X153946182Y-93277576D01*
X153758988Y-93398032D01*
X153633406Y-93581827D01*
X153589225Y-93800000D01*
X153589225Y-95800000D01*
X153627576Y-96003818D01*
X153748032Y-96191012D01*
X153931827Y-96316594D01*
X154150000Y-96360775D01*
X154400000Y-96360775D01*
X154400000Y-100859225D01*
X154150000Y-100859225D01*
X153946182Y-100897576D01*
X153758988Y-101018032D01*
X153633406Y-101201827D01*
X153589225Y-101420000D01*
X153589225Y-103420000D01*
X153627576Y-103623818D01*
X153748032Y-103811012D01*
X153931827Y-103936594D01*
X154150000Y-103980775D01*
X155670825Y-103980775D01*
X157285025Y-105594975D01*
X157512122Y-105746716D01*
X157780000Y-105800000D01*
X169656446Y-105800000D01*
X169761165Y-105904902D01*
X170110204Y-106049835D01*
X170488138Y-106050165D01*
X170837429Y-105905841D01*
X170943455Y-105800000D01*
X175280000Y-105800000D01*
X175547879Y-105746716D01*
X175774975Y-105594975D01*
X177389175Y-103980775D01*
X178910000Y-103980775D01*
X179113818Y-103942424D01*
X179301012Y-103821968D01*
X179426594Y-103638173D01*
X179455261Y-103496610D01*
X179649209Y-103690897D01*
X180200323Y-103919739D01*
X180797059Y-103920260D01*
X181348572Y-103692380D01*
X181770897Y-103270791D01*
X181999739Y-102719677D01*
X182000260Y-102122941D01*
X181772380Y-101571428D01*
X181350791Y-101149103D01*
X181200000Y-101086489D01*
X181200000Y-96133769D01*
X181348572Y-96072380D01*
X181770897Y-95650791D01*
X181999739Y-95099677D01*
X182000260Y-94502941D01*
X181772380Y-93951428D01*
X181350791Y-93529103D01*
X181200000Y-93466489D01*
X181200000Y-88513769D01*
X181348572Y-88452380D01*
X181770897Y-88030791D01*
X181999739Y-87479677D01*
X182000260Y-86882941D01*
X181772380Y-86331428D01*
X181350791Y-85909103D01*
X181200000Y-85846489D01*
X181200000Y-80893769D01*
X181348572Y-80832380D01*
X181770897Y-80410791D01*
X181999739Y-79859677D01*
X182000260Y-79262941D01*
X181772380Y-78711428D01*
X181350791Y-78289103D01*
X181200000Y-78226489D01*
X181200000Y-73273769D01*
X181348572Y-73212380D01*
X181770897Y-72790791D01*
X181999739Y-72239677D01*
X182000260Y-71642941D01*
X181772380Y-71091428D01*
X181621216Y-70940000D01*
X184069225Y-70940000D01*
X184069225Y-72940000D01*
X184107576Y-73143818D01*
X184228032Y-73331012D01*
X184411827Y-73456594D01*
X184630000Y-73500775D01*
X184880000Y-73500775D01*
X184880000Y-77999225D01*
X184630000Y-77999225D01*
X184426182Y-78037576D01*
X184238988Y-78158032D01*
X184113406Y-78341827D01*
X184069225Y-78560000D01*
X184069225Y-80560000D01*
X184107576Y-80763818D01*
X184228032Y-80951012D01*
X184411827Y-81076594D01*
X184630000Y-81120775D01*
X184880000Y-81120775D01*
X184880000Y-85619225D01*
X184630000Y-85619225D01*
X184426182Y-85657576D01*
X184238988Y-85778032D01*
X184113406Y-85961827D01*
X184069225Y-86180000D01*
X184069225Y-88180000D01*
X184107576Y-88383818D01*
X184228032Y-88571012D01*
X184411827Y-88696594D01*
X184630000Y-88740775D01*
X184880000Y-88740775D01*
X184880000Y-93239225D01*
X184630000Y-93239225D01*
X184426182Y-93277576D01*
X184238988Y-93398032D01*
X184113406Y-93581827D01*
X184069225Y-93800000D01*
X184069225Y-95800000D01*
X184107576Y-96003818D01*
X184228032Y-96191012D01*
X184411827Y-96316594D01*
X184630000Y-96360775D01*
X184880000Y-96360775D01*
X184880000Y-100859225D01*
X184630000Y-100859225D01*
X184426182Y-100897576D01*
X184238988Y-101018032D01*
X184113406Y-101201827D01*
X184069225Y-101420000D01*
X184069225Y-103420000D01*
X184107576Y-103623818D01*
X184228032Y-103811012D01*
X184411827Y-103936594D01*
X184630000Y-103980775D01*
X186150825Y-103980775D01*
X187765025Y-105594975D01*
X187992122Y-105746716D01*
X188260000Y-105800000D01*
X200156446Y-105800000D01*
X200261165Y-105904902D01*
X200610204Y-106049835D01*
X200988138Y-106050165D01*
X201337429Y-105905841D01*
X201443455Y-105800000D01*
X205760000Y-105800000D01*
X206027879Y-105746716D01*
X206254975Y-105594975D01*
X207869175Y-103980775D01*
X209390000Y-103980775D01*
X209593818Y-103942424D01*
X209781012Y-103821968D01*
X209906594Y-103638173D01*
X209935261Y-103496610D01*
X210129209Y-103690897D01*
X210680323Y-103919739D01*
X211277059Y-103920260D01*
X211828572Y-103692380D01*
X212250897Y-103270791D01*
X212479739Y-102719677D01*
X212480260Y-102122941D01*
X212252380Y-101571428D01*
X211830791Y-101149103D01*
X211680000Y-101086489D01*
X211680000Y-96133769D01*
X211828572Y-96072380D01*
X212250897Y-95650791D01*
X212479739Y-95099677D01*
X212480260Y-94502941D01*
X212252380Y-93951428D01*
X211830791Y-93529103D01*
X211680000Y-93466489D01*
X211680000Y-88513769D01*
X211828572Y-88452380D01*
X212250897Y-88030791D01*
X212479739Y-87479677D01*
X212480260Y-86882941D01*
X212252380Y-86331428D01*
X211830791Y-85909103D01*
X211680000Y-85846489D01*
X211680000Y-80893769D01*
X211828572Y-80832380D01*
X212250897Y-80410791D01*
X212479739Y-79859677D01*
X212480260Y-79262941D01*
X212252380Y-78711428D01*
X211830791Y-78289103D01*
X211680000Y-78226489D01*
X211680000Y-73273769D01*
X211828572Y-73212380D01*
X212250897Y-72790791D01*
X212479739Y-72239677D01*
X212480260Y-71642941D01*
X212252380Y-71091428D01*
X211830791Y-70669103D01*
X211279677Y-70440261D01*
X211230168Y-70440218D01*
X209494975Y-68705025D01*
X209267879Y-68553284D01*
X209000000Y-68500000D01*
X204060000Y-68500000D01*
X204060000Y-65707316D01*
X204236569Y-65634359D01*
X204672827Y-65198861D01*
X204909220Y-64629565D01*
X204909758Y-64013140D01*
X204674359Y-63443431D01*
X204238861Y-63007173D01*
X203669565Y-62770780D01*
X203053140Y-62770242D01*
X202483431Y-63005641D01*
X202047173Y-63441139D01*
X201810780Y-64010435D01*
X201810242Y-64626860D01*
X202045641Y-65196569D01*
X202481139Y-65632827D01*
X202660000Y-65707097D01*
X202660000Y-68500000D01*
X190860000Y-68500000D01*
X190592121Y-68553284D01*
X190365025Y-68705025D01*
X188568141Y-70501909D01*
X188419677Y-70440261D01*
X187822941Y-70439740D01*
X187271428Y-70667620D01*
X187076195Y-70862513D01*
X187052424Y-70736182D01*
X186931968Y-70548988D01*
X186748173Y-70423406D01*
X186530000Y-70379225D01*
X184630000Y-70379225D01*
X184426182Y-70417576D01*
X184238988Y-70538032D01*
X184113406Y-70721827D01*
X184069225Y-70940000D01*
X181621216Y-70940000D01*
X181350791Y-70669103D01*
X181200000Y-70606489D01*
X181200000Y-70500005D01*
X181200001Y-70500000D01*
X181146716Y-70232121D01*
X181022832Y-70046716D01*
X180994975Y-70005025D01*
X180994972Y-70005023D01*
X179694975Y-68705025D01*
X179467879Y-68553284D01*
X179200000Y-68500000D01*
X173580000Y-68500000D01*
X173580000Y-65707316D01*
X173756569Y-65634359D01*
X174192827Y-65198861D01*
X174429220Y-64629565D01*
X174429758Y-64013140D01*
X174194359Y-63443431D01*
X173758861Y-63007173D01*
X173189565Y-62770780D01*
X172573140Y-62770242D01*
X172003431Y-63005641D01*
X171567173Y-63441139D01*
X171330780Y-64010435D01*
X171330242Y-64626860D01*
X171565641Y-65196569D01*
X172001139Y-65632827D01*
X172180000Y-65707097D01*
X172180000Y-68500000D01*
X165300005Y-68500000D01*
X165300000Y-68499999D01*
X165299995Y-68500000D01*
X160380000Y-68500000D01*
X160112121Y-68553284D01*
X159885025Y-68705025D01*
X158088141Y-70501909D01*
X157939677Y-70440261D01*
X157342941Y-70439740D01*
X156791428Y-70667620D01*
X156596195Y-70862513D01*
X156572424Y-70736182D01*
X156451968Y-70548988D01*
X156268173Y-70423406D01*
X156050000Y-70379225D01*
X154150000Y-70379225D01*
X153946182Y-70417576D01*
X153758988Y-70538032D01*
X153633406Y-70721827D01*
X153589225Y-70940000D01*
X151141216Y-70940000D01*
X150870791Y-70669103D01*
X150720000Y-70606489D01*
X150720000Y-70520000D01*
X150666716Y-70252122D01*
X150666716Y-70252121D01*
X150514975Y-70025025D01*
X149194975Y-68705025D01*
X148967879Y-68553284D01*
X148700000Y-68500000D01*
X143100000Y-68500000D01*
X143100000Y-65707316D01*
X143276569Y-65634359D01*
X143712827Y-65198861D01*
X143949220Y-64629565D01*
X143949758Y-64013140D01*
X143714359Y-63443431D01*
X143278861Y-63007173D01*
X142709565Y-62770780D01*
X142093140Y-62770242D01*
X141523431Y-63005641D01*
X141087173Y-63441139D01*
X140850780Y-64010435D01*
X140850242Y-64626860D01*
X141085641Y-65196569D01*
X141521139Y-65632827D01*
X141700000Y-65707097D01*
X141700000Y-68500000D01*
X129900000Y-68500000D01*
X129632121Y-68553284D01*
X129405025Y-68705025D01*
X127608141Y-70501909D01*
X127459677Y-70440261D01*
X126862941Y-70439740D01*
X126311428Y-70667620D01*
X126116195Y-70862513D01*
X126092424Y-70736182D01*
X125971968Y-70548988D01*
X125788173Y-70423406D01*
X125570000Y-70379225D01*
X123670000Y-70379225D01*
X123466182Y-70417576D01*
X123278988Y-70538032D01*
X123153406Y-70721827D01*
X123109225Y-70940000D01*
X120661216Y-70940000D01*
X120390791Y-70669103D01*
X120232734Y-70603472D01*
X120186716Y-70372122D01*
X120034975Y-70145025D01*
X118694975Y-68805025D01*
X118467879Y-68653284D01*
X118200000Y-68600000D01*
X112620000Y-68600000D01*
X112620000Y-65707316D01*
X112796569Y-65634359D01*
X113232827Y-65198861D01*
X113469220Y-64629565D01*
X113469758Y-64013140D01*
X113234359Y-63443431D01*
X112798861Y-63007173D01*
X112229565Y-62770780D01*
X111613140Y-62770242D01*
X111043431Y-63005641D01*
X110607173Y-63441139D01*
X110370780Y-64010435D01*
X110370242Y-64626860D01*
X110605641Y-65196569D01*
X111041139Y-65632827D01*
X111220000Y-65707097D01*
X111220000Y-68600000D01*
X99320000Y-68600000D01*
X99052121Y-68653284D01*
X98825025Y-68805025D01*
X97128141Y-70501909D01*
X96979677Y-70440261D01*
X96382941Y-70439740D01*
X95831428Y-70667620D01*
X95636195Y-70862513D01*
X95612424Y-70736182D01*
X95491968Y-70548988D01*
X95308173Y-70423406D01*
X95090000Y-70379225D01*
X94506566Y-70379225D01*
X94407878Y-70313284D01*
X94140000Y-70260000D01*
X93872122Y-70313284D01*
X93773434Y-70379225D01*
X93190000Y-70379225D01*
X92986182Y-70417576D01*
X92798988Y-70538032D01*
X92673406Y-70721827D01*
X92629225Y-70940000D01*
X90181216Y-70940000D01*
X89910791Y-70669103D01*
X89760000Y-70606489D01*
X89760000Y-70260005D01*
X89760001Y-70260000D01*
X89706716Y-69992121D01*
X89554975Y-69765025D01*
X88694975Y-68905025D01*
X88467879Y-68753284D01*
X88200000Y-68700000D01*
X82140000Y-68700000D01*
X82140000Y-65707316D01*
X82316569Y-65634359D01*
X82752827Y-65198861D01*
X82989220Y-64629565D01*
X82989758Y-64013140D01*
X82754359Y-63443431D01*
X82318861Y-63007173D01*
X81749565Y-62770780D01*
X81133140Y-62770242D01*
X80563431Y-63005641D01*
X80127173Y-63441139D01*
X79890780Y-64010435D01*
X79890242Y-64626860D01*
X80125641Y-65196569D01*
X80561139Y-65632827D01*
X80740000Y-65707097D01*
X80740000Y-68700000D01*
X68740000Y-68700000D01*
X68472122Y-68753284D01*
X68245025Y-68905025D01*
X68245023Y-68905028D01*
X66648142Y-70501909D01*
X66499677Y-70440261D01*
X65902941Y-70439740D01*
X65351428Y-70667620D01*
X65156195Y-70862513D01*
X65132424Y-70736182D01*
X65011968Y-70548988D01*
X64828173Y-70423406D01*
X64610000Y-70379225D01*
X62710000Y-70379225D01*
X62506182Y-70417576D01*
X62318988Y-70538032D01*
X62193406Y-70721827D01*
X62149225Y-70940000D01*
X60625000Y-70940000D01*
X60625000Y-60625000D01*
X239375000Y-60625000D01*
X239375000Y-93883629D01*
M02*
