M48
;DRILL file {KiCad 4.0.2+dfsg1-stable} date Fri 10 Jun 2016 09:08:25 CEST
;FORMAT={-:-/ absolute / metric / decimal}
FMAT,2
METRIC,TZ
T1C0.500
T2C0.800
T3C0.800
T4C0.813
T5C1.001
T6C1.016
T7C1.300
%
G90
G05
M71
T1
X109.4Y-105.2
X109.4Y-108.6
X139.9Y-105.1
X139.916Y-110.193
X170.291Y-110.992
X170.3Y-105.1
X200.8Y-105.1
X200.814Y-111.569
X226.5Y-93.8
X226.5Y-107.7
T2
X228.9Y-92.16
X228.9Y-94.7
X228.9Y-97.24
X228.9Y-99.78
X236.2Y-86.9
X236.52Y-92.16
X236.52Y-94.7
X236.52Y-97.24
X236.52Y-99.78
T3
X233.7Y-86.9
T4
X218.89Y-86.96
X218.89Y-92.04
X226.51Y-86.96
X226.51Y-92.04
T5
X63.66Y-71.94
X63.66Y-79.56
X63.66Y-87.18
X63.66Y-94.8
X63.66Y-102.42
X66.2Y-71.94
X66.2Y-79.56
X66.2Y-87.18
X66.2Y-94.8
X66.2Y-102.42
X71.28Y-64.32
X71.28Y-71.94
X71.28Y-79.56
X71.28Y-87.18
X71.28Y-94.8
X71.28Y-102.42
X73.82Y-71.94
X73.82Y-79.56
X73.82Y-87.18
X73.82Y-94.8
X73.82Y-102.42
X78.9Y-71.94
X78.9Y-79.56
X78.9Y-87.18
X78.9Y-94.8
X78.9Y-102.42
X81.44Y-64.32
X81.44Y-71.94
X81.44Y-79.56
X81.44Y-87.18
X81.44Y-94.8
X81.44Y-102.42
X86.52Y-71.94
X86.52Y-79.56
X86.52Y-87.18
X86.52Y-94.8
X86.52Y-102.42
X89.06Y-71.94
X89.06Y-79.56
X89.06Y-87.18
X89.06Y-94.8
X89.06Y-102.42
X94.14Y-71.94
X94.14Y-79.56
X94.14Y-87.18
X94.14Y-94.8
X94.14Y-102.42
X96.68Y-71.94
X96.68Y-79.56
X96.68Y-87.18
X96.68Y-94.8
X96.68Y-102.42
X101.76Y-64.32
X101.76Y-71.94
X101.76Y-79.56
X101.76Y-87.18
X101.76Y-94.8
X101.76Y-102.42
X104.3Y-71.94
X104.3Y-79.56
X104.3Y-87.18
X104.3Y-94.8
X104.3Y-102.42
X109.38Y-71.94
X109.38Y-79.56
X109.38Y-87.18
X109.38Y-94.8
X109.38Y-102.42
X111.92Y-64.32
X111.92Y-71.94
X111.92Y-79.56
X111.92Y-87.18
X111.92Y-94.8
X111.92Y-102.42
X117.Y-71.94
X117.Y-79.56
X117.Y-87.18
X117.Y-94.8
X117.Y-102.42
X119.54Y-71.94
X119.54Y-79.56
X119.54Y-87.18
X119.54Y-94.8
X119.54Y-102.42
X124.62Y-71.94
X124.62Y-79.56
X124.62Y-87.18
X124.62Y-94.8
X124.62Y-102.42
X127.16Y-71.94
X127.16Y-79.56
X127.16Y-87.18
X127.16Y-94.8
X127.16Y-102.42
X132.24Y-64.32
X132.24Y-71.94
X132.24Y-79.56
X132.24Y-87.18
X132.24Y-94.8
X132.24Y-102.42
X134.78Y-71.94
X134.78Y-79.56
X134.78Y-87.18
X134.78Y-94.8
X134.78Y-102.42
X139.86Y-71.94
X139.86Y-79.56
X139.86Y-87.18
X139.86Y-94.8
X139.86Y-102.42
X142.4Y-64.32
X142.4Y-71.94
X142.4Y-79.56
X142.4Y-87.18
X142.4Y-94.8
X142.4Y-102.42
X147.48Y-71.94
X147.48Y-79.56
X147.48Y-87.18
X147.48Y-94.8
X147.48Y-102.42
X150.02Y-71.94
X150.02Y-79.56
X150.02Y-87.18
X150.02Y-94.8
X150.02Y-102.42
X155.1Y-71.94
X155.1Y-79.56
X155.1Y-87.18
X155.1Y-94.8
X155.1Y-102.42
X157.64Y-71.94
X157.64Y-79.56
X157.64Y-87.18
X157.64Y-94.8
X157.64Y-102.42
X162.72Y-64.32
X162.72Y-71.94
X162.72Y-79.56
X162.72Y-87.18
X162.72Y-94.8
X162.72Y-102.42
X165.26Y-71.94
X165.26Y-79.56
X165.26Y-87.18
X165.26Y-94.8
X165.26Y-102.42
X170.34Y-71.94
X170.34Y-79.56
X170.34Y-87.18
X170.34Y-94.8
X170.34Y-102.42
X172.88Y-64.32
X172.88Y-71.94
X172.88Y-79.56
X172.88Y-87.18
X172.88Y-94.8
X172.88Y-102.42
X177.96Y-71.94
X177.96Y-79.56
X177.96Y-87.18
X177.96Y-94.8
X177.96Y-102.42
X180.5Y-71.94
X180.5Y-79.56
X180.5Y-87.18
X180.5Y-94.8
X180.5Y-102.42
X185.58Y-71.94
X185.58Y-79.56
X185.58Y-87.18
X185.58Y-94.8
X185.58Y-102.42
X188.12Y-71.94
X188.12Y-79.56
X188.12Y-87.18
X188.12Y-94.8
X188.12Y-102.42
X193.2Y-64.32
X193.2Y-71.94
X193.2Y-79.56
X193.2Y-87.18
X193.2Y-94.8
X193.2Y-102.42
X195.74Y-71.94
X195.74Y-79.56
X195.74Y-87.18
X195.74Y-94.8
X195.74Y-102.42
X200.82Y-71.94
X200.82Y-79.56
X200.82Y-87.18
X200.82Y-94.8
X200.82Y-102.42
X203.36Y-64.32
X203.36Y-71.94
X203.36Y-79.56
X203.36Y-87.18
X203.36Y-94.8
X203.36Y-102.42
X208.44Y-71.94
X208.44Y-79.56
X208.44Y-87.18
X208.44Y-94.8
X208.44Y-102.42
X210.98Y-71.94
X210.98Y-79.56
X210.98Y-87.18
X210.98Y-94.8
X210.98Y-102.42
X215.1Y-85.4
X215.1Y-95.56
T6
X230.22Y-107.66
X230.22Y-110.2
X232.76Y-107.66
X232.76Y-110.2
X235.3Y-107.66
X235.3Y-110.2
T7
X217.25Y-73.5
X237.25Y-73.5
T0
M30
