%FSLAX45Y45*%
G04 Gerber Fmt 4.5, Leading zero omitted, Abs format (unit mm)*
G04 Created by KiCad (PCBNEW 4.0.2+dfsg1-stable) date Fri 10 Jun 2016 09:08:28 CEST*
%MOMM*%
G01*
G04 APERTURE LIST*
%ADD10C,0.127000*%
%ADD11C,0.150000*%
%ADD12C,0.200000*%
%ADD13C,0.300000*%
G04 APERTURE END LIST*
D10*
D11*
X24000000Y-6000000D02*
X6000000Y-6000000D01*
X24000000Y-11400000D02*
X24000000Y-6000000D01*
X6000000Y-11400000D02*
X24000000Y-11400000D01*
X6000000Y-6000000D02*
X6000000Y-11400000D01*
D12*
X10915000Y-10495000D02*
X10965000Y-10545000D01*
X10965000Y-10495000D02*
X10915000Y-10545000D01*
X10915000Y-10835000D02*
X10965000Y-10885000D01*
X10965000Y-10835000D02*
X10915000Y-10885000D01*
X13965000Y-10485000D02*
X14015000Y-10535000D01*
X14015000Y-10485000D02*
X13965000Y-10535000D01*
X13966614Y-10994282D02*
X14016614Y-11044282D01*
X14016614Y-10994282D02*
X13966614Y-11044282D01*
X17004052Y-11074151D02*
X17054052Y-11124151D01*
X17054052Y-11074151D02*
X17004052Y-11124151D01*
X17005000Y-10485000D02*
X17055000Y-10535000D01*
X17055000Y-10485000D02*
X17005000Y-10535000D01*
X20055000Y-10485000D02*
X20105000Y-10535000D01*
X20105000Y-10485000D02*
X20055000Y-10535000D01*
X20056392Y-11131925D02*
X20106392Y-11181925D01*
X20106392Y-11131925D02*
X20056392Y-11181925D01*
X22625000Y-9355000D02*
X22675000Y-9405000D01*
X22675000Y-9355000D02*
X22625000Y-9405000D01*
X22625000Y-10745000D02*
X22675000Y-10795000D01*
X22675000Y-10745000D02*
X22625000Y-10795000D01*
X22930000Y-9216000D02*
G75*
G03X22930000Y-9216000I-40000J0D01*
G01*
X22930000Y-9470000D02*
G75*
G03X22930000Y-9470000I-40000J0D01*
G01*
X22930000Y-9724000D02*
G75*
G03X22930000Y-9724000I-40000J0D01*
G01*
X22930000Y-9978000D02*
G75*
G03X22930000Y-9978000I-40000J0D01*
G01*
X23660000Y-8690000D02*
G75*
G03X23660000Y-8690000I-40000J0D01*
G01*
X23692000Y-9216000D02*
G75*
G03X23692000Y-9216000I-40000J0D01*
G01*
X23692000Y-9470000D02*
G75*
G03X23692000Y-9470000I-40000J0D01*
G01*
X23692000Y-9724000D02*
G75*
G03X23692000Y-9724000I-40000J0D01*
G01*
X23692000Y-9978000D02*
G75*
G03X23692000Y-9978000I-40000J0D01*
G01*
X23370000Y-8649995D02*
X23370000Y-8730005D01*
X23329995Y-8690000D02*
X23410005Y-8690000D01*
X21917737Y-8724737D02*
X21917737Y-8667263D01*
X21860263Y-8667263D01*
X21860263Y-8724737D01*
X21917737Y-8724737D01*
X21917737Y-9232737D02*
X21917737Y-9175263D01*
X21860263Y-9175263D01*
X21860263Y-9232737D01*
X21917737Y-9232737D01*
X22679737Y-8724737D02*
X22679737Y-8667263D01*
X22622263Y-8667263D01*
X22622263Y-8724737D01*
X22679737Y-8724737D01*
X22679737Y-9232737D02*
X22679737Y-9175263D01*
X22622263Y-9175263D01*
X22622263Y-9232737D01*
X22679737Y-9232737D01*
X6366000Y-7244038D02*
X6416038Y-7194000D01*
X6366000Y-7143962D01*
X6315962Y-7194000D01*
X6366000Y-7244038D01*
X6366000Y-8006038D02*
X6416038Y-7956000D01*
X6366000Y-7905962D01*
X6315962Y-7956000D01*
X6366000Y-8006038D01*
X6366000Y-8768038D02*
X6416038Y-8718000D01*
X6366000Y-8667962D01*
X6315962Y-8718000D01*
X6366000Y-8768038D01*
X6366000Y-9530038D02*
X6416038Y-9480000D01*
X6366000Y-9429962D01*
X6315962Y-9480000D01*
X6366000Y-9530038D01*
X6366000Y-10292038D02*
X6416038Y-10242000D01*
X6366000Y-10191962D01*
X6315962Y-10242000D01*
X6366000Y-10292038D01*
X6620000Y-7244038D02*
X6670038Y-7194000D01*
X6620000Y-7143962D01*
X6569962Y-7194000D01*
X6620000Y-7244038D01*
X6620000Y-8006038D02*
X6670038Y-7956000D01*
X6620000Y-7905962D01*
X6569962Y-7956000D01*
X6620000Y-8006038D01*
X6620000Y-8768038D02*
X6670038Y-8718000D01*
X6620000Y-8667962D01*
X6569962Y-8718000D01*
X6620000Y-8768038D01*
X6620000Y-9530038D02*
X6670038Y-9480000D01*
X6620000Y-9429962D01*
X6569962Y-9480000D01*
X6620000Y-9530038D01*
X6620000Y-10292038D02*
X6670038Y-10242000D01*
X6620000Y-10191962D01*
X6569962Y-10242000D01*
X6620000Y-10292038D01*
X7128000Y-6482038D02*
X7178038Y-6432000D01*
X7128000Y-6381962D01*
X7077962Y-6432000D01*
X7128000Y-6482038D01*
X7128000Y-7244038D02*
X7178038Y-7194000D01*
X7128000Y-7143962D01*
X7077962Y-7194000D01*
X7128000Y-7244038D01*
X7128000Y-8006038D02*
X7178038Y-7956000D01*
X7128000Y-7905962D01*
X7077962Y-7956000D01*
X7128000Y-8006038D01*
X7128000Y-8768038D02*
X7178038Y-8718000D01*
X7128000Y-8667962D01*
X7077962Y-8718000D01*
X7128000Y-8768038D01*
X7128000Y-9530038D02*
X7178038Y-9480000D01*
X7128000Y-9429962D01*
X7077962Y-9480000D01*
X7128000Y-9530038D01*
X7128000Y-10292038D02*
X7178038Y-10242000D01*
X7128000Y-10191962D01*
X7077962Y-10242000D01*
X7128000Y-10292038D01*
X7382000Y-7244038D02*
X7432038Y-7194000D01*
X7382000Y-7143962D01*
X7331962Y-7194000D01*
X7382000Y-7244038D01*
X7382000Y-8006038D02*
X7432038Y-7956000D01*
X7382000Y-7905962D01*
X7331962Y-7956000D01*
X7382000Y-8006038D01*
X7382000Y-8768038D02*
X7432038Y-8718000D01*
X7382000Y-8667962D01*
X7331962Y-8718000D01*
X7382000Y-8768038D01*
X7382000Y-9530038D02*
X7432038Y-9480000D01*
X7382000Y-9429962D01*
X7331962Y-9480000D01*
X7382000Y-9530038D01*
X7382000Y-10292038D02*
X7432038Y-10242000D01*
X7382000Y-10191962D01*
X7331962Y-10242000D01*
X7382000Y-10292038D01*
X7890000Y-7244038D02*
X7940038Y-7194000D01*
X7890000Y-7143962D01*
X7839962Y-7194000D01*
X7890000Y-7244038D01*
X7890000Y-8006038D02*
X7940038Y-7956000D01*
X7890000Y-7905962D01*
X7839962Y-7956000D01*
X7890000Y-8006038D01*
X7890000Y-8768038D02*
X7940038Y-8718000D01*
X7890000Y-8667962D01*
X7839962Y-8718000D01*
X7890000Y-8768038D01*
X7890000Y-9530038D02*
X7940038Y-9480000D01*
X7890000Y-9429962D01*
X7839962Y-9480000D01*
X7890000Y-9530038D01*
X7890000Y-10292038D02*
X7940038Y-10242000D01*
X7890000Y-10191962D01*
X7839962Y-10242000D01*
X7890000Y-10292038D01*
X8144000Y-6482038D02*
X8194038Y-6432000D01*
X8144000Y-6381962D01*
X8093962Y-6432000D01*
X8144000Y-6482038D01*
X8144000Y-7244038D02*
X8194038Y-7194000D01*
X8144000Y-7143962D01*
X8093962Y-7194000D01*
X8144000Y-7244038D01*
X8144000Y-8006038D02*
X8194038Y-7956000D01*
X8144000Y-7905962D01*
X8093962Y-7956000D01*
X8144000Y-8006038D01*
X8144000Y-8768038D02*
X8194038Y-8718000D01*
X8144000Y-8667962D01*
X8093962Y-8718000D01*
X8144000Y-8768038D01*
X8144000Y-9530038D02*
X8194038Y-9480000D01*
X8144000Y-9429962D01*
X8093962Y-9480000D01*
X8144000Y-9530038D01*
X8144000Y-10292038D02*
X8194038Y-10242000D01*
X8144000Y-10191962D01*
X8093962Y-10242000D01*
X8144000Y-10292038D01*
X8652000Y-7244038D02*
X8702038Y-7194000D01*
X8652000Y-7143962D01*
X8601962Y-7194000D01*
X8652000Y-7244038D01*
X8652000Y-8006038D02*
X8702038Y-7956000D01*
X8652000Y-7905962D01*
X8601962Y-7956000D01*
X8652000Y-8006038D01*
X8652000Y-8768038D02*
X8702038Y-8718000D01*
X8652000Y-8667962D01*
X8601962Y-8718000D01*
X8652000Y-8768038D01*
X8652000Y-9530038D02*
X8702038Y-9480000D01*
X8652000Y-9429962D01*
X8601962Y-9480000D01*
X8652000Y-9530038D01*
X8652000Y-10292038D02*
X8702038Y-10242000D01*
X8652000Y-10191962D01*
X8601962Y-10242000D01*
X8652000Y-10292038D01*
X8906000Y-7244038D02*
X8956038Y-7194000D01*
X8906000Y-7143962D01*
X8855962Y-7194000D01*
X8906000Y-7244038D01*
X8906000Y-8006038D02*
X8956038Y-7956000D01*
X8906000Y-7905962D01*
X8855962Y-7956000D01*
X8906000Y-8006038D01*
X8906000Y-8768038D02*
X8956038Y-8718000D01*
X8906000Y-8667962D01*
X8855962Y-8718000D01*
X8906000Y-8768038D01*
X8906000Y-9530038D02*
X8956038Y-9480000D01*
X8906000Y-9429962D01*
X8855962Y-9480000D01*
X8906000Y-9530038D01*
X8906000Y-10292038D02*
X8956038Y-10242000D01*
X8906000Y-10191962D01*
X8855962Y-10242000D01*
X8906000Y-10292038D01*
X9414000Y-7244038D02*
X9464038Y-7194000D01*
X9414000Y-7143962D01*
X9363962Y-7194000D01*
X9414000Y-7244038D01*
X9414000Y-8006038D02*
X9464038Y-7956000D01*
X9414000Y-7905962D01*
X9363962Y-7956000D01*
X9414000Y-8006038D01*
X9414000Y-8768038D02*
X9464038Y-8718000D01*
X9414000Y-8667962D01*
X9363962Y-8718000D01*
X9414000Y-8768038D01*
X9414000Y-9530038D02*
X9464038Y-9480000D01*
X9414000Y-9429962D01*
X9363962Y-9480000D01*
X9414000Y-9530038D01*
X9414000Y-10292038D02*
X9464038Y-10242000D01*
X9414000Y-10191962D01*
X9363962Y-10242000D01*
X9414000Y-10292038D01*
X9668000Y-7244038D02*
X9718038Y-7194000D01*
X9668000Y-7143962D01*
X9617962Y-7194000D01*
X9668000Y-7244038D01*
X9668000Y-8006038D02*
X9718038Y-7956000D01*
X9668000Y-7905962D01*
X9617962Y-7956000D01*
X9668000Y-8006038D01*
X9668000Y-8768038D02*
X9718038Y-8718000D01*
X9668000Y-8667962D01*
X9617962Y-8718000D01*
X9668000Y-8768038D01*
X9668000Y-9530038D02*
X9718038Y-9480000D01*
X9668000Y-9429962D01*
X9617962Y-9480000D01*
X9668000Y-9530038D01*
X9668000Y-10292038D02*
X9718038Y-10242000D01*
X9668000Y-10191962D01*
X9617962Y-10242000D01*
X9668000Y-10292038D01*
X10176000Y-6482038D02*
X10226038Y-6432000D01*
X10176000Y-6381962D01*
X10125962Y-6432000D01*
X10176000Y-6482038D01*
X10176000Y-7244038D02*
X10226038Y-7194000D01*
X10176000Y-7143962D01*
X10125962Y-7194000D01*
X10176000Y-7244038D01*
X10176000Y-8006038D02*
X10226038Y-7956000D01*
X10176000Y-7905962D01*
X10125962Y-7956000D01*
X10176000Y-8006038D01*
X10176000Y-8768038D02*
X10226038Y-8718000D01*
X10176000Y-8667962D01*
X10125962Y-8718000D01*
X10176000Y-8768038D01*
X10176000Y-9530038D02*
X10226038Y-9480000D01*
X10176000Y-9429962D01*
X10125962Y-9480000D01*
X10176000Y-9530038D01*
X10176000Y-10292038D02*
X10226038Y-10242000D01*
X10176000Y-10191962D01*
X10125962Y-10242000D01*
X10176000Y-10292038D01*
X10430000Y-7244038D02*
X10480038Y-7194000D01*
X10430000Y-7143962D01*
X10379962Y-7194000D01*
X10430000Y-7244038D01*
X10430000Y-8006038D02*
X10480038Y-7956000D01*
X10430000Y-7905962D01*
X10379962Y-7956000D01*
X10430000Y-8006038D01*
X10430000Y-8768038D02*
X10480038Y-8718000D01*
X10430000Y-8667962D01*
X10379962Y-8718000D01*
X10430000Y-8768038D01*
X10430000Y-9530038D02*
X10480038Y-9480000D01*
X10430000Y-9429962D01*
X10379962Y-9480000D01*
X10430000Y-9530038D01*
X10430000Y-10292038D02*
X10480038Y-10242000D01*
X10430000Y-10191962D01*
X10379962Y-10242000D01*
X10430000Y-10292038D01*
X10938000Y-7244038D02*
X10988038Y-7194000D01*
X10938000Y-7143962D01*
X10887962Y-7194000D01*
X10938000Y-7244038D01*
X10938000Y-8006038D02*
X10988038Y-7956000D01*
X10938000Y-7905962D01*
X10887962Y-7956000D01*
X10938000Y-8006038D01*
X10938000Y-8768038D02*
X10988038Y-8718000D01*
X10938000Y-8667962D01*
X10887962Y-8718000D01*
X10938000Y-8768038D01*
X10938000Y-9530038D02*
X10988038Y-9480000D01*
X10938000Y-9429962D01*
X10887962Y-9480000D01*
X10938000Y-9530038D01*
X10938000Y-10292038D02*
X10988038Y-10242000D01*
X10938000Y-10191962D01*
X10887962Y-10242000D01*
X10938000Y-10292038D01*
X11192000Y-6482038D02*
X11242038Y-6432000D01*
X11192000Y-6381962D01*
X11141962Y-6432000D01*
X11192000Y-6482038D01*
X11192000Y-7244038D02*
X11242038Y-7194000D01*
X11192000Y-7143962D01*
X11141962Y-7194000D01*
X11192000Y-7244038D01*
X11192000Y-8006038D02*
X11242038Y-7956000D01*
X11192000Y-7905962D01*
X11141962Y-7956000D01*
X11192000Y-8006038D01*
X11192000Y-8768038D02*
X11242038Y-8718000D01*
X11192000Y-8667962D01*
X11141962Y-8718000D01*
X11192000Y-8768038D01*
X11192000Y-9530038D02*
X11242038Y-9480000D01*
X11192000Y-9429962D01*
X11141962Y-9480000D01*
X11192000Y-9530038D01*
X11192000Y-10292038D02*
X11242038Y-10242000D01*
X11192000Y-10191962D01*
X11141962Y-10242000D01*
X11192000Y-10292038D01*
X11700000Y-7244038D02*
X11750038Y-7194000D01*
X11700000Y-7143962D01*
X11649962Y-7194000D01*
X11700000Y-7244038D01*
X11700000Y-8006038D02*
X11750038Y-7956000D01*
X11700000Y-7905962D01*
X11649962Y-7956000D01*
X11700000Y-8006038D01*
X11700000Y-8768038D02*
X11750038Y-8718000D01*
X11700000Y-8667962D01*
X11649962Y-8718000D01*
X11700000Y-8768038D01*
X11700000Y-9530038D02*
X11750038Y-9480000D01*
X11700000Y-9429962D01*
X11649962Y-9480000D01*
X11700000Y-9530038D01*
X11700000Y-10292038D02*
X11750038Y-10242000D01*
X11700000Y-10191962D01*
X11649962Y-10242000D01*
X11700000Y-10292038D01*
X11954000Y-7244038D02*
X12004038Y-7194000D01*
X11954000Y-7143962D01*
X11903962Y-7194000D01*
X11954000Y-7244038D01*
X11954000Y-8006038D02*
X12004038Y-7956000D01*
X11954000Y-7905962D01*
X11903962Y-7956000D01*
X11954000Y-8006038D01*
X11954000Y-8768038D02*
X12004038Y-8718000D01*
X11954000Y-8667962D01*
X11903962Y-8718000D01*
X11954000Y-8768038D01*
X11954000Y-9530038D02*
X12004038Y-9480000D01*
X11954000Y-9429962D01*
X11903962Y-9480000D01*
X11954000Y-9530038D01*
X11954000Y-10292038D02*
X12004038Y-10242000D01*
X11954000Y-10191962D01*
X11903962Y-10242000D01*
X11954000Y-10292038D01*
X12462000Y-7244038D02*
X12512038Y-7194000D01*
X12462000Y-7143962D01*
X12411962Y-7194000D01*
X12462000Y-7244038D01*
X12462000Y-8006038D02*
X12512038Y-7956000D01*
X12462000Y-7905962D01*
X12411962Y-7956000D01*
X12462000Y-8006038D01*
X12462000Y-8768038D02*
X12512038Y-8718000D01*
X12462000Y-8667962D01*
X12411962Y-8718000D01*
X12462000Y-8768038D01*
X12462000Y-9530038D02*
X12512038Y-9480000D01*
X12462000Y-9429962D01*
X12411962Y-9480000D01*
X12462000Y-9530038D01*
X12462000Y-10292038D02*
X12512038Y-10242000D01*
X12462000Y-10191962D01*
X12411962Y-10242000D01*
X12462000Y-10292038D01*
X12716000Y-7244038D02*
X12766038Y-7194000D01*
X12716000Y-7143962D01*
X12665962Y-7194000D01*
X12716000Y-7244038D01*
X12716000Y-8006038D02*
X12766038Y-7956000D01*
X12716000Y-7905962D01*
X12665962Y-7956000D01*
X12716000Y-8006038D01*
X12716000Y-8768038D02*
X12766038Y-8718000D01*
X12716000Y-8667962D01*
X12665962Y-8718000D01*
X12716000Y-8768038D01*
X12716000Y-9530038D02*
X12766038Y-9480000D01*
X12716000Y-9429962D01*
X12665962Y-9480000D01*
X12716000Y-9530038D01*
X12716000Y-10292038D02*
X12766038Y-10242000D01*
X12716000Y-10191962D01*
X12665962Y-10242000D01*
X12716000Y-10292038D01*
X13224000Y-6482038D02*
X13274038Y-6432000D01*
X13224000Y-6381962D01*
X13173962Y-6432000D01*
X13224000Y-6482038D01*
X13224000Y-7244038D02*
X13274038Y-7194000D01*
X13224000Y-7143962D01*
X13173962Y-7194000D01*
X13224000Y-7244038D01*
X13224000Y-8006038D02*
X13274038Y-7956000D01*
X13224000Y-7905962D01*
X13173962Y-7956000D01*
X13224000Y-8006038D01*
X13224000Y-8768038D02*
X13274038Y-8718000D01*
X13224000Y-8667962D01*
X13173962Y-8718000D01*
X13224000Y-8768038D01*
X13224000Y-9530038D02*
X13274038Y-9480000D01*
X13224000Y-9429962D01*
X13173962Y-9480000D01*
X13224000Y-9530038D01*
X13224000Y-10292038D02*
X13274038Y-10242000D01*
X13224000Y-10191962D01*
X13173962Y-10242000D01*
X13224000Y-10292038D01*
X13478000Y-7244038D02*
X13528038Y-7194000D01*
X13478000Y-7143962D01*
X13427962Y-7194000D01*
X13478000Y-7244038D01*
X13478000Y-8006038D02*
X13528038Y-7956000D01*
X13478000Y-7905962D01*
X13427962Y-7956000D01*
X13478000Y-8006038D01*
X13478000Y-8768038D02*
X13528038Y-8718000D01*
X13478000Y-8667962D01*
X13427962Y-8718000D01*
X13478000Y-8768038D01*
X13478000Y-9530038D02*
X13528038Y-9480000D01*
X13478000Y-9429962D01*
X13427962Y-9480000D01*
X13478000Y-9530038D01*
X13478000Y-10292038D02*
X13528038Y-10242000D01*
X13478000Y-10191962D01*
X13427962Y-10242000D01*
X13478000Y-10292038D01*
X13986000Y-7244038D02*
X14036038Y-7194000D01*
X13986000Y-7143962D01*
X13935962Y-7194000D01*
X13986000Y-7244038D01*
X13986000Y-8006038D02*
X14036038Y-7956000D01*
X13986000Y-7905962D01*
X13935962Y-7956000D01*
X13986000Y-8006038D01*
X13986000Y-8768038D02*
X14036038Y-8718000D01*
X13986000Y-8667962D01*
X13935962Y-8718000D01*
X13986000Y-8768038D01*
X13986000Y-9530038D02*
X14036038Y-9480000D01*
X13986000Y-9429962D01*
X13935962Y-9480000D01*
X13986000Y-9530038D01*
X13986000Y-10292038D02*
X14036038Y-10242000D01*
X13986000Y-10191962D01*
X13935962Y-10242000D01*
X13986000Y-10292038D01*
X14240000Y-6482038D02*
X14290038Y-6432000D01*
X14240000Y-6381962D01*
X14189962Y-6432000D01*
X14240000Y-6482038D01*
X14240000Y-7244038D02*
X14290038Y-7194000D01*
X14240000Y-7143962D01*
X14189962Y-7194000D01*
X14240000Y-7244038D01*
X14240000Y-8006038D02*
X14290038Y-7956000D01*
X14240000Y-7905962D01*
X14189962Y-7956000D01*
X14240000Y-8006038D01*
X14240000Y-8768038D02*
X14290038Y-8718000D01*
X14240000Y-8667962D01*
X14189962Y-8718000D01*
X14240000Y-8768038D01*
X14240000Y-9530038D02*
X14290038Y-9480000D01*
X14240000Y-9429962D01*
X14189962Y-9480000D01*
X14240000Y-9530038D01*
X14240000Y-10292038D02*
X14290038Y-10242000D01*
X14240000Y-10191962D01*
X14189962Y-10242000D01*
X14240000Y-10292038D01*
X14748000Y-7244038D02*
X14798038Y-7194000D01*
X14748000Y-7143962D01*
X14697962Y-7194000D01*
X14748000Y-7244038D01*
X14748000Y-8006038D02*
X14798038Y-7956000D01*
X14748000Y-7905962D01*
X14697962Y-7956000D01*
X14748000Y-8006038D01*
X14748000Y-8768038D02*
X14798038Y-8718000D01*
X14748000Y-8667962D01*
X14697962Y-8718000D01*
X14748000Y-8768038D01*
X14748000Y-9530038D02*
X14798038Y-9480000D01*
X14748000Y-9429962D01*
X14697962Y-9480000D01*
X14748000Y-9530038D01*
X14748000Y-10292038D02*
X14798038Y-10242000D01*
X14748000Y-10191962D01*
X14697962Y-10242000D01*
X14748000Y-10292038D01*
X15002000Y-7244038D02*
X15052038Y-7194000D01*
X15002000Y-7143962D01*
X14951962Y-7194000D01*
X15002000Y-7244038D01*
X15002000Y-8006038D02*
X15052038Y-7956000D01*
X15002000Y-7905962D01*
X14951962Y-7956000D01*
X15002000Y-8006038D01*
X15002000Y-8768038D02*
X15052038Y-8718000D01*
X15002000Y-8667962D01*
X14951962Y-8718000D01*
X15002000Y-8768038D01*
X15002000Y-9530038D02*
X15052038Y-9480000D01*
X15002000Y-9429962D01*
X14951962Y-9480000D01*
X15002000Y-9530038D01*
X15002000Y-10292038D02*
X15052038Y-10242000D01*
X15002000Y-10191962D01*
X14951962Y-10242000D01*
X15002000Y-10292038D01*
X15510000Y-7244038D02*
X15560038Y-7194000D01*
X15510000Y-7143962D01*
X15459962Y-7194000D01*
X15510000Y-7244038D01*
X15510000Y-8006038D02*
X15560038Y-7956000D01*
X15510000Y-7905962D01*
X15459962Y-7956000D01*
X15510000Y-8006038D01*
X15510000Y-8768038D02*
X15560038Y-8718000D01*
X15510000Y-8667962D01*
X15459962Y-8718000D01*
X15510000Y-8768038D01*
X15510000Y-9530038D02*
X15560038Y-9480000D01*
X15510000Y-9429962D01*
X15459962Y-9480000D01*
X15510000Y-9530038D01*
X15510000Y-10292038D02*
X15560038Y-10242000D01*
X15510000Y-10191962D01*
X15459962Y-10242000D01*
X15510000Y-10292038D01*
X15764000Y-7244038D02*
X15814038Y-7194000D01*
X15764000Y-7143962D01*
X15713962Y-7194000D01*
X15764000Y-7244038D01*
X15764000Y-8006038D02*
X15814038Y-7956000D01*
X15764000Y-7905962D01*
X15713962Y-7956000D01*
X15764000Y-8006038D01*
X15764000Y-8768038D02*
X15814038Y-8718000D01*
X15764000Y-8667962D01*
X15713962Y-8718000D01*
X15764000Y-8768038D01*
X15764000Y-9530038D02*
X15814038Y-9480000D01*
X15764000Y-9429962D01*
X15713962Y-9480000D01*
X15764000Y-9530038D01*
X15764000Y-10292038D02*
X15814038Y-10242000D01*
X15764000Y-10191962D01*
X15713962Y-10242000D01*
X15764000Y-10292038D01*
X16272000Y-6482038D02*
X16322038Y-6432000D01*
X16272000Y-6381962D01*
X16221962Y-6432000D01*
X16272000Y-6482038D01*
X16272000Y-7244038D02*
X16322038Y-7194000D01*
X16272000Y-7143962D01*
X16221962Y-7194000D01*
X16272000Y-7244038D01*
X16272000Y-8006038D02*
X16322038Y-7956000D01*
X16272000Y-7905962D01*
X16221962Y-7956000D01*
X16272000Y-8006038D01*
X16272000Y-8768038D02*
X16322038Y-8718000D01*
X16272000Y-8667962D01*
X16221962Y-8718000D01*
X16272000Y-8768038D01*
X16272000Y-9530038D02*
X16322038Y-9480000D01*
X16272000Y-9429962D01*
X16221962Y-9480000D01*
X16272000Y-9530038D01*
X16272000Y-10292038D02*
X16322038Y-10242000D01*
X16272000Y-10191962D01*
X16221962Y-10242000D01*
X16272000Y-10292038D01*
X16526000Y-7244038D02*
X16576038Y-7194000D01*
X16526000Y-7143962D01*
X16475962Y-7194000D01*
X16526000Y-7244038D01*
X16526000Y-8006038D02*
X16576038Y-7956000D01*
X16526000Y-7905962D01*
X16475962Y-7956000D01*
X16526000Y-8006038D01*
X16526000Y-8768038D02*
X16576038Y-8718000D01*
X16526000Y-8667962D01*
X16475962Y-8718000D01*
X16526000Y-8768038D01*
X16526000Y-9530038D02*
X16576038Y-9480000D01*
X16526000Y-9429962D01*
X16475962Y-9480000D01*
X16526000Y-9530038D01*
X16526000Y-10292038D02*
X16576038Y-10242000D01*
X16526000Y-10191962D01*
X16475962Y-10242000D01*
X16526000Y-10292038D01*
X17034000Y-7244038D02*
X17084038Y-7194000D01*
X17034000Y-7143962D01*
X16983962Y-7194000D01*
X17034000Y-7244038D01*
X17034000Y-8006038D02*
X17084038Y-7956000D01*
X17034000Y-7905962D01*
X16983962Y-7956000D01*
X17034000Y-8006038D01*
X17034000Y-8768038D02*
X17084038Y-8718000D01*
X17034000Y-8667962D01*
X16983962Y-8718000D01*
X17034000Y-8768038D01*
X17034000Y-9530038D02*
X17084038Y-9480000D01*
X17034000Y-9429962D01*
X16983962Y-9480000D01*
X17034000Y-9530038D01*
X17034000Y-10292038D02*
X17084038Y-10242000D01*
X17034000Y-10191962D01*
X16983962Y-10242000D01*
X17034000Y-10292038D01*
X17288000Y-6482038D02*
X17338038Y-6432000D01*
X17288000Y-6381962D01*
X17237962Y-6432000D01*
X17288000Y-6482038D01*
X17288000Y-7244038D02*
X17338038Y-7194000D01*
X17288000Y-7143962D01*
X17237962Y-7194000D01*
X17288000Y-7244038D01*
X17288000Y-8006038D02*
X17338038Y-7956000D01*
X17288000Y-7905962D01*
X17237962Y-7956000D01*
X17288000Y-8006038D01*
X17288000Y-8768038D02*
X17338038Y-8718000D01*
X17288000Y-8667962D01*
X17237962Y-8718000D01*
X17288000Y-8768038D01*
X17288000Y-9530038D02*
X17338038Y-9480000D01*
X17288000Y-9429962D01*
X17237962Y-9480000D01*
X17288000Y-9530038D01*
X17288000Y-10292038D02*
X17338038Y-10242000D01*
X17288000Y-10191962D01*
X17237962Y-10242000D01*
X17288000Y-10292038D01*
X17796000Y-7244038D02*
X17846038Y-7194000D01*
X17796000Y-7143962D01*
X17745962Y-7194000D01*
X17796000Y-7244038D01*
X17796000Y-8006038D02*
X17846038Y-7956000D01*
X17796000Y-7905962D01*
X17745962Y-7956000D01*
X17796000Y-8006038D01*
X17796000Y-8768038D02*
X17846038Y-8718000D01*
X17796000Y-8667962D01*
X17745962Y-8718000D01*
X17796000Y-8768038D01*
X17796000Y-9530038D02*
X17846038Y-9480000D01*
X17796000Y-9429962D01*
X17745962Y-9480000D01*
X17796000Y-9530038D01*
X17796000Y-10292038D02*
X17846038Y-10242000D01*
X17796000Y-10191962D01*
X17745962Y-10242000D01*
X17796000Y-10292038D01*
X18050000Y-7244038D02*
X18100038Y-7194000D01*
X18050000Y-7143962D01*
X17999962Y-7194000D01*
X18050000Y-7244038D01*
X18050000Y-8006038D02*
X18100038Y-7956000D01*
X18050000Y-7905962D01*
X17999962Y-7956000D01*
X18050000Y-8006038D01*
X18050000Y-8768038D02*
X18100038Y-8718000D01*
X18050000Y-8667962D01*
X17999962Y-8718000D01*
X18050000Y-8768038D01*
X18050000Y-9530038D02*
X18100038Y-9480000D01*
X18050000Y-9429962D01*
X17999962Y-9480000D01*
X18050000Y-9530038D01*
X18050000Y-10292038D02*
X18100038Y-10242000D01*
X18050000Y-10191962D01*
X17999962Y-10242000D01*
X18050000Y-10292038D01*
X18558000Y-7244038D02*
X18608038Y-7194000D01*
X18558000Y-7143962D01*
X18507962Y-7194000D01*
X18558000Y-7244038D01*
X18558000Y-8006038D02*
X18608038Y-7956000D01*
X18558000Y-7905962D01*
X18507962Y-7956000D01*
X18558000Y-8006038D01*
X18558000Y-8768038D02*
X18608038Y-8718000D01*
X18558000Y-8667962D01*
X18507962Y-8718000D01*
X18558000Y-8768038D01*
X18558000Y-9530038D02*
X18608038Y-9480000D01*
X18558000Y-9429962D01*
X18507962Y-9480000D01*
X18558000Y-9530038D01*
X18558000Y-10292038D02*
X18608038Y-10242000D01*
X18558000Y-10191962D01*
X18507962Y-10242000D01*
X18558000Y-10292038D01*
X18812000Y-7244038D02*
X18862038Y-7194000D01*
X18812000Y-7143962D01*
X18761962Y-7194000D01*
X18812000Y-7244038D01*
X18812000Y-8006038D02*
X18862038Y-7956000D01*
X18812000Y-7905962D01*
X18761962Y-7956000D01*
X18812000Y-8006038D01*
X18812000Y-8768038D02*
X18862038Y-8718000D01*
X18812000Y-8667962D01*
X18761962Y-8718000D01*
X18812000Y-8768038D01*
X18812000Y-9530038D02*
X18862038Y-9480000D01*
X18812000Y-9429962D01*
X18761962Y-9480000D01*
X18812000Y-9530038D01*
X18812000Y-10292038D02*
X18862038Y-10242000D01*
X18812000Y-10191962D01*
X18761962Y-10242000D01*
X18812000Y-10292038D01*
X19320000Y-6482038D02*
X19370038Y-6432000D01*
X19320000Y-6381962D01*
X19269962Y-6432000D01*
X19320000Y-6482038D01*
X19320000Y-7244038D02*
X19370038Y-7194000D01*
X19320000Y-7143962D01*
X19269962Y-7194000D01*
X19320000Y-7244038D01*
X19320000Y-8006038D02*
X19370038Y-7956000D01*
X19320000Y-7905962D01*
X19269962Y-7956000D01*
X19320000Y-8006038D01*
X19320000Y-8768038D02*
X19370038Y-8718000D01*
X19320000Y-8667962D01*
X19269962Y-8718000D01*
X19320000Y-8768038D01*
X19320000Y-9530038D02*
X19370038Y-9480000D01*
X19320000Y-9429962D01*
X19269962Y-9480000D01*
X19320000Y-9530038D01*
X19320000Y-10292038D02*
X19370038Y-10242000D01*
X19320000Y-10191962D01*
X19269962Y-10242000D01*
X19320000Y-10292038D01*
X19574000Y-7244038D02*
X19624038Y-7194000D01*
X19574000Y-7143962D01*
X19523962Y-7194000D01*
X19574000Y-7244038D01*
X19574000Y-8006038D02*
X19624038Y-7956000D01*
X19574000Y-7905962D01*
X19523962Y-7956000D01*
X19574000Y-8006038D01*
X19574000Y-8768038D02*
X19624038Y-8718000D01*
X19574000Y-8667962D01*
X19523962Y-8718000D01*
X19574000Y-8768038D01*
X19574000Y-9530038D02*
X19624038Y-9480000D01*
X19574000Y-9429962D01*
X19523962Y-9480000D01*
X19574000Y-9530038D01*
X19574000Y-10292038D02*
X19624038Y-10242000D01*
X19574000Y-10191962D01*
X19523962Y-10242000D01*
X19574000Y-10292038D01*
X20082000Y-7244038D02*
X20132038Y-7194000D01*
X20082000Y-7143962D01*
X20031962Y-7194000D01*
X20082000Y-7244038D01*
X20082000Y-8006038D02*
X20132038Y-7956000D01*
X20082000Y-7905962D01*
X20031962Y-7956000D01*
X20082000Y-8006038D01*
X20082000Y-8768038D02*
X20132038Y-8718000D01*
X20082000Y-8667962D01*
X20031962Y-8718000D01*
X20082000Y-8768038D01*
X20082000Y-9530038D02*
X20132038Y-9480000D01*
X20082000Y-9429962D01*
X20031962Y-9480000D01*
X20082000Y-9530038D01*
X20082000Y-10292038D02*
X20132038Y-10242000D01*
X20082000Y-10191962D01*
X20031962Y-10242000D01*
X20082000Y-10292038D01*
X20336000Y-6482038D02*
X20386038Y-6432000D01*
X20336000Y-6381962D01*
X20285962Y-6432000D01*
X20336000Y-6482038D01*
X20336000Y-7244038D02*
X20386038Y-7194000D01*
X20336000Y-7143962D01*
X20285962Y-7194000D01*
X20336000Y-7244038D01*
X20336000Y-8006038D02*
X20386038Y-7956000D01*
X20336000Y-7905962D01*
X20285962Y-7956000D01*
X20336000Y-8006038D01*
X20336000Y-8768038D02*
X20386038Y-8718000D01*
X20336000Y-8667962D01*
X20285962Y-8718000D01*
X20336000Y-8768038D01*
X20336000Y-9530038D02*
X20386038Y-9480000D01*
X20336000Y-9429962D01*
X20285962Y-9480000D01*
X20336000Y-9530038D01*
X20336000Y-10292038D02*
X20386038Y-10242000D01*
X20336000Y-10191962D01*
X20285962Y-10242000D01*
X20336000Y-10292038D01*
X20844000Y-7244038D02*
X20894038Y-7194000D01*
X20844000Y-7143962D01*
X20793962Y-7194000D01*
X20844000Y-7244038D01*
X20844000Y-8006038D02*
X20894038Y-7956000D01*
X20844000Y-7905962D01*
X20793962Y-7956000D01*
X20844000Y-8006038D01*
X20844000Y-8768038D02*
X20894038Y-8718000D01*
X20844000Y-8667962D01*
X20793962Y-8718000D01*
X20844000Y-8768038D01*
X20844000Y-9530038D02*
X20894038Y-9480000D01*
X20844000Y-9429962D01*
X20793962Y-9480000D01*
X20844000Y-9530038D01*
X20844000Y-10292038D02*
X20894038Y-10242000D01*
X20844000Y-10191962D01*
X20793962Y-10242000D01*
X20844000Y-10292038D01*
X21098000Y-7244038D02*
X21148038Y-7194000D01*
X21098000Y-7143962D01*
X21047962Y-7194000D01*
X21098000Y-7244038D01*
X21098000Y-8006038D02*
X21148038Y-7956000D01*
X21098000Y-7905962D01*
X21047962Y-7956000D01*
X21098000Y-8006038D01*
X21098000Y-8768038D02*
X21148038Y-8718000D01*
X21098000Y-8667962D01*
X21047962Y-8718000D01*
X21098000Y-8768038D01*
X21098000Y-9530038D02*
X21148038Y-9480000D01*
X21098000Y-9429962D01*
X21047962Y-9480000D01*
X21098000Y-9530038D01*
X21098000Y-10292038D02*
X21148038Y-10242000D01*
X21098000Y-10191962D01*
X21047962Y-10242000D01*
X21098000Y-10292038D01*
X21510000Y-8590038D02*
X21560038Y-8540000D01*
X21510000Y-8489962D01*
X21459962Y-8540000D01*
X21510000Y-8590038D01*
X21510000Y-9606038D02*
X21560038Y-9556000D01*
X21510000Y-9505962D01*
X21459962Y-9556000D01*
X21510000Y-9606038D01*
X22971200Y-10715200D02*
X23072800Y-10816800D01*
X23072800Y-10715200D02*
X22971200Y-10816800D01*
X23072800Y-10766000D02*
G75*
G03X23072800Y-10766000I-50800J0D01*
G01*
X22971200Y-10969200D02*
X23072800Y-11070800D01*
X23072800Y-10969200D02*
X22971200Y-11070800D01*
X23072800Y-11020000D02*
G75*
G03X23072800Y-11020000I-50800J0D01*
G01*
X23225200Y-10715200D02*
X23326800Y-10816800D01*
X23326800Y-10715200D02*
X23225200Y-10816800D01*
X23326800Y-10766000D02*
G75*
G03X23326800Y-10766000I-50800J0D01*
G01*
X23225200Y-10969200D02*
X23326800Y-11070800D01*
X23326800Y-10969200D02*
X23225200Y-11070800D01*
X23326800Y-11020000D02*
G75*
G03X23326800Y-11020000I-50800J0D01*
G01*
X23479200Y-10715200D02*
X23580800Y-10816800D01*
X23580800Y-10715200D02*
X23479200Y-10816800D01*
X23580800Y-10766000D02*
G75*
G03X23580800Y-10766000I-50800J0D01*
G01*
X23479200Y-10969200D02*
X23580800Y-11070800D01*
X23580800Y-10969200D02*
X23479200Y-11070800D01*
X23580800Y-11020000D02*
G75*
G03X23580800Y-11020000I-50800J0D01*
G01*
X21660000Y-7285000D02*
X21790000Y-7415000D01*
X21790000Y-7285000D02*
X21660000Y-7415000D01*
X21725000Y-7285000D02*
X21725000Y-7415000D01*
X21660000Y-7350000D02*
X21790000Y-7350000D01*
X23660000Y-7285000D02*
X23790000Y-7415000D01*
X23790000Y-7285000D02*
X23660000Y-7415000D01*
X23725000Y-7285000D02*
X23725000Y-7415000D01*
X23660000Y-7350000D02*
X23790000Y-7350000D01*
D13*
X6263928Y-11873214D02*
X6263928Y-11573214D01*
X6335357Y-11573214D01*
X6378214Y-11587500D01*
X6406786Y-11616071D01*
X6421071Y-11644643D01*
X6435357Y-11701786D01*
X6435357Y-11744643D01*
X6421071Y-11801786D01*
X6406786Y-11830357D01*
X6378214Y-11858929D01*
X6335357Y-11873214D01*
X6263928Y-11873214D01*
X6563928Y-11873214D02*
X6563928Y-11673214D01*
X6563928Y-11730357D02*
X6578214Y-11701786D01*
X6592500Y-11687500D01*
X6621071Y-11673214D01*
X6649643Y-11673214D01*
X6749643Y-11873214D02*
X6749643Y-11673214D01*
X6749643Y-11573214D02*
X6735357Y-11587500D01*
X6749643Y-11601786D01*
X6763928Y-11587500D01*
X6749643Y-11573214D01*
X6749643Y-11601786D01*
X6935357Y-11873214D02*
X6906786Y-11858929D01*
X6892500Y-11830357D01*
X6892500Y-11573214D01*
X7092500Y-11873214D02*
X7063928Y-11858929D01*
X7049643Y-11830357D01*
X7049643Y-11573214D01*
X7435357Y-11873214D02*
X7435357Y-11573214D01*
X7535357Y-11787500D01*
X7635357Y-11573214D01*
X7635357Y-11873214D01*
X7906786Y-11873214D02*
X7906786Y-11716071D01*
X7892500Y-11687500D01*
X7863928Y-11673214D01*
X7806786Y-11673214D01*
X7778214Y-11687500D01*
X7906786Y-11858929D02*
X7878214Y-11873214D01*
X7806786Y-11873214D01*
X7778214Y-11858929D01*
X7763928Y-11830357D01*
X7763928Y-11801786D01*
X7778214Y-11773214D01*
X7806786Y-11758929D01*
X7878214Y-11758929D01*
X7906786Y-11744643D01*
X8049643Y-11673214D02*
X8049643Y-11973214D01*
X8049643Y-11687500D02*
X8078214Y-11673214D01*
X8135357Y-11673214D01*
X8163928Y-11687500D01*
X8178214Y-11701786D01*
X8192500Y-11730357D01*
X8192500Y-11816071D01*
X8178214Y-11844643D01*
X8163928Y-11858929D01*
X8135357Y-11873214D01*
X8078214Y-11873214D01*
X8049643Y-11858929D01*
X8321071Y-11844643D02*
X8335357Y-11858929D01*
X8321071Y-11873214D01*
X8306786Y-11858929D01*
X8321071Y-11844643D01*
X8321071Y-11873214D01*
X8321071Y-11687500D02*
X8335357Y-11701786D01*
X8321071Y-11716071D01*
X8306786Y-11701786D01*
X8321071Y-11687500D01*
X8321071Y-11716071D01*
X5942500Y-12342500D02*
X5992500Y-12392500D01*
X5992500Y-12342500D02*
X5942500Y-12392500D01*
X6321071Y-12203214D02*
X6349643Y-12203214D01*
X6378214Y-12217500D01*
X6392500Y-12231786D01*
X6406786Y-12260357D01*
X6421071Y-12317500D01*
X6421071Y-12388929D01*
X6406786Y-12446071D01*
X6392500Y-12474643D01*
X6378214Y-12488929D01*
X6349643Y-12503214D01*
X6321071Y-12503214D01*
X6292500Y-12488929D01*
X6278214Y-12474643D01*
X6263928Y-12446071D01*
X6249643Y-12388929D01*
X6249643Y-12317500D01*
X6263928Y-12260357D01*
X6278214Y-12231786D01*
X6292500Y-12217500D01*
X6321071Y-12203214D01*
X6549643Y-12474643D02*
X6563928Y-12488929D01*
X6549643Y-12503214D01*
X6535357Y-12488929D01*
X6549643Y-12474643D01*
X6549643Y-12503214D01*
X6835357Y-12203214D02*
X6692500Y-12203214D01*
X6678214Y-12346071D01*
X6692500Y-12331786D01*
X6721071Y-12317500D01*
X6792500Y-12317500D01*
X6821071Y-12331786D01*
X6835357Y-12346071D01*
X6849643Y-12374643D01*
X6849643Y-12446071D01*
X6835357Y-12474643D01*
X6821071Y-12488929D01*
X6792500Y-12503214D01*
X6721071Y-12503214D01*
X6692500Y-12488929D01*
X6678214Y-12474643D01*
X7035357Y-12203214D02*
X7063928Y-12203214D01*
X7092500Y-12217500D01*
X7106786Y-12231786D01*
X7121071Y-12260357D01*
X7135357Y-12317500D01*
X7135357Y-12388929D01*
X7121071Y-12446071D01*
X7106786Y-12474643D01*
X7092500Y-12488929D01*
X7063928Y-12503214D01*
X7035357Y-12503214D01*
X7006786Y-12488929D01*
X6992500Y-12474643D01*
X6978214Y-12446071D01*
X6963928Y-12388929D01*
X6963928Y-12317500D01*
X6978214Y-12260357D01*
X6992500Y-12231786D01*
X7006786Y-12217500D01*
X7035357Y-12203214D01*
X7263928Y-12503214D02*
X7263928Y-12303214D01*
X7263928Y-12331786D02*
X7278214Y-12317500D01*
X7306786Y-12303214D01*
X7349643Y-12303214D01*
X7378214Y-12317500D01*
X7392500Y-12346071D01*
X7392500Y-12503214D01*
X7392500Y-12346071D02*
X7406786Y-12317500D01*
X7435357Y-12303214D01*
X7478214Y-12303214D01*
X7506786Y-12317500D01*
X7521071Y-12346071D01*
X7521071Y-12503214D01*
X7663928Y-12503214D02*
X7663928Y-12303214D01*
X7663928Y-12331786D02*
X7678214Y-12317500D01*
X7706786Y-12303214D01*
X7749643Y-12303214D01*
X7778214Y-12317500D01*
X7792500Y-12346071D01*
X7792500Y-12503214D01*
X7792500Y-12346071D02*
X7806786Y-12317500D01*
X7835357Y-12303214D01*
X7878214Y-12303214D01*
X7906786Y-12317500D01*
X7921071Y-12346071D01*
X7921071Y-12503214D01*
X8506786Y-12188929D02*
X8249643Y-12574643D01*
X8892500Y-12203214D02*
X8921071Y-12203214D01*
X8949643Y-12217500D01*
X8963928Y-12231786D01*
X8978214Y-12260357D01*
X8992500Y-12317500D01*
X8992500Y-12388929D01*
X8978214Y-12446071D01*
X8963928Y-12474643D01*
X8949643Y-12488929D01*
X8921071Y-12503214D01*
X8892500Y-12503214D01*
X8863928Y-12488929D01*
X8849643Y-12474643D01*
X8835357Y-12446071D01*
X8821071Y-12388929D01*
X8821071Y-12317500D01*
X8835357Y-12260357D01*
X8849643Y-12231786D01*
X8863928Y-12217500D01*
X8892500Y-12203214D01*
X9121071Y-12474643D02*
X9135357Y-12488929D01*
X9121071Y-12503214D01*
X9106786Y-12488929D01*
X9121071Y-12474643D01*
X9121071Y-12503214D01*
X9321071Y-12203214D02*
X9349643Y-12203214D01*
X9378214Y-12217500D01*
X9392500Y-12231786D01*
X9406786Y-12260357D01*
X9421071Y-12317500D01*
X9421071Y-12388929D01*
X9406786Y-12446071D01*
X9392500Y-12474643D01*
X9378214Y-12488929D01*
X9349643Y-12503214D01*
X9321071Y-12503214D01*
X9292500Y-12488929D01*
X9278214Y-12474643D01*
X9263928Y-12446071D01*
X9249643Y-12388929D01*
X9249643Y-12317500D01*
X9263928Y-12260357D01*
X9278214Y-12231786D01*
X9292500Y-12217500D01*
X9321071Y-12203214D01*
X9535357Y-12231786D02*
X9549643Y-12217500D01*
X9578214Y-12203214D01*
X9649643Y-12203214D01*
X9678214Y-12217500D01*
X9692500Y-12231786D01*
X9706786Y-12260357D01*
X9706786Y-12288929D01*
X9692500Y-12331786D01*
X9521071Y-12503214D01*
X9706786Y-12503214D01*
X9892500Y-12203214D02*
X9921071Y-12203214D01*
X9949643Y-12217500D01*
X9963928Y-12231786D01*
X9978214Y-12260357D01*
X9992500Y-12317500D01*
X9992500Y-12388929D01*
X9978214Y-12446071D01*
X9963928Y-12474643D01*
X9949643Y-12488929D01*
X9921071Y-12503214D01*
X9892500Y-12503214D01*
X9863928Y-12488929D01*
X9849643Y-12474643D01*
X9835357Y-12446071D01*
X9821071Y-12388929D01*
X9821071Y-12317500D01*
X9835357Y-12260357D01*
X9849643Y-12231786D01*
X9863928Y-12217500D01*
X9892500Y-12203214D01*
X10106786Y-12203214D02*
X10106786Y-12260357D01*
X10221071Y-12203214D02*
X10221071Y-12260357D01*
X10663928Y-12617500D02*
X10649643Y-12603214D01*
X10621071Y-12560357D01*
X10606786Y-12531786D01*
X10592500Y-12488929D01*
X10578214Y-12417500D01*
X10578214Y-12360357D01*
X10592500Y-12288929D01*
X10606786Y-12246071D01*
X10621071Y-12217500D01*
X10649643Y-12174643D01*
X10663928Y-12160357D01*
X10935357Y-12503214D02*
X10763928Y-12503214D01*
X10849643Y-12503214D02*
X10849643Y-12203214D01*
X10821071Y-12246071D01*
X10792500Y-12274643D01*
X10763928Y-12288929D01*
X11121071Y-12203214D02*
X11149643Y-12203214D01*
X11178214Y-12217500D01*
X11192500Y-12231786D01*
X11206785Y-12260357D01*
X11221071Y-12317500D01*
X11221071Y-12388929D01*
X11206785Y-12446071D01*
X11192500Y-12474643D01*
X11178214Y-12488929D01*
X11149643Y-12503214D01*
X11121071Y-12503214D01*
X11092500Y-12488929D01*
X11078214Y-12474643D01*
X11063928Y-12446071D01*
X11049643Y-12388929D01*
X11049643Y-12317500D01*
X11063928Y-12260357D01*
X11078214Y-12231786D01*
X11092500Y-12217500D01*
X11121071Y-12203214D01*
X11578214Y-12503214D02*
X11578214Y-12203214D01*
X11706785Y-12503214D02*
X11706785Y-12346071D01*
X11692500Y-12317500D01*
X11663928Y-12303214D01*
X11621071Y-12303214D01*
X11592500Y-12317500D01*
X11578214Y-12331786D01*
X11892500Y-12503214D02*
X11863928Y-12488929D01*
X11849643Y-12474643D01*
X11835357Y-12446071D01*
X11835357Y-12360357D01*
X11849643Y-12331786D01*
X11863928Y-12317500D01*
X11892500Y-12303214D01*
X11935357Y-12303214D01*
X11963928Y-12317500D01*
X11978214Y-12331786D01*
X11992500Y-12360357D01*
X11992500Y-12446071D01*
X11978214Y-12474643D01*
X11963928Y-12488929D01*
X11935357Y-12503214D01*
X11892500Y-12503214D01*
X12163928Y-12503214D02*
X12135357Y-12488929D01*
X12121071Y-12460357D01*
X12121071Y-12203214D01*
X12392500Y-12488929D02*
X12363928Y-12503214D01*
X12306786Y-12503214D01*
X12278214Y-12488929D01*
X12263928Y-12460357D01*
X12263928Y-12346071D01*
X12278214Y-12317500D01*
X12306786Y-12303214D01*
X12363928Y-12303214D01*
X12392500Y-12317500D01*
X12406786Y-12346071D01*
X12406786Y-12374643D01*
X12263928Y-12403214D01*
X12521071Y-12488929D02*
X12549643Y-12503214D01*
X12606786Y-12503214D01*
X12635357Y-12488929D01*
X12649643Y-12460357D01*
X12649643Y-12446071D01*
X12635357Y-12417500D01*
X12606786Y-12403214D01*
X12563928Y-12403214D01*
X12535357Y-12388929D01*
X12521071Y-12360357D01*
X12521071Y-12346071D01*
X12535357Y-12317500D01*
X12563928Y-12303214D01*
X12606786Y-12303214D01*
X12635357Y-12317500D01*
X12749643Y-12617500D02*
X12763928Y-12603214D01*
X12792500Y-12560357D01*
X12806786Y-12531786D01*
X12821071Y-12488929D01*
X12835357Y-12417500D01*
X12835357Y-12360357D01*
X12821071Y-12288929D01*
X12806786Y-12246071D01*
X12792500Y-12217500D01*
X12763928Y-12174643D01*
X12749643Y-12160357D01*
X5992500Y-12763500D02*
G75*
G03X5992500Y-12763500I-40000J0D01*
G01*
X6321071Y-12599214D02*
X6349643Y-12599214D01*
X6378214Y-12613500D01*
X6392500Y-12627786D01*
X6406786Y-12656357D01*
X6421071Y-12713500D01*
X6421071Y-12784929D01*
X6406786Y-12842071D01*
X6392500Y-12870643D01*
X6378214Y-12884929D01*
X6349643Y-12899214D01*
X6321071Y-12899214D01*
X6292500Y-12884929D01*
X6278214Y-12870643D01*
X6263928Y-12842071D01*
X6249643Y-12784929D01*
X6249643Y-12713500D01*
X6263928Y-12656357D01*
X6278214Y-12627786D01*
X6292500Y-12613500D01*
X6321071Y-12599214D01*
X6549643Y-12870643D02*
X6563928Y-12884929D01*
X6549643Y-12899214D01*
X6535357Y-12884929D01*
X6549643Y-12870643D01*
X6549643Y-12899214D01*
X6735357Y-12727786D02*
X6706786Y-12713500D01*
X6692500Y-12699214D01*
X6678214Y-12670643D01*
X6678214Y-12656357D01*
X6692500Y-12627786D01*
X6706786Y-12613500D01*
X6735357Y-12599214D01*
X6792500Y-12599214D01*
X6821071Y-12613500D01*
X6835357Y-12627786D01*
X6849643Y-12656357D01*
X6849643Y-12670643D01*
X6835357Y-12699214D01*
X6821071Y-12713500D01*
X6792500Y-12727786D01*
X6735357Y-12727786D01*
X6706786Y-12742071D01*
X6692500Y-12756357D01*
X6678214Y-12784929D01*
X6678214Y-12842071D01*
X6692500Y-12870643D01*
X6706786Y-12884929D01*
X6735357Y-12899214D01*
X6792500Y-12899214D01*
X6821071Y-12884929D01*
X6835357Y-12870643D01*
X6849643Y-12842071D01*
X6849643Y-12784929D01*
X6835357Y-12756357D01*
X6821071Y-12742071D01*
X6792500Y-12727786D01*
X7035357Y-12599214D02*
X7063928Y-12599214D01*
X7092500Y-12613500D01*
X7106786Y-12627786D01*
X7121071Y-12656357D01*
X7135357Y-12713500D01*
X7135357Y-12784929D01*
X7121071Y-12842071D01*
X7106786Y-12870643D01*
X7092500Y-12884929D01*
X7063928Y-12899214D01*
X7035357Y-12899214D01*
X7006786Y-12884929D01*
X6992500Y-12870643D01*
X6978214Y-12842071D01*
X6963928Y-12784929D01*
X6963928Y-12713500D01*
X6978214Y-12656357D01*
X6992500Y-12627786D01*
X7006786Y-12613500D01*
X7035357Y-12599214D01*
X7263928Y-12899214D02*
X7263928Y-12699214D01*
X7263928Y-12727786D02*
X7278214Y-12713500D01*
X7306786Y-12699214D01*
X7349643Y-12699214D01*
X7378214Y-12713500D01*
X7392500Y-12742071D01*
X7392500Y-12899214D01*
X7392500Y-12742071D02*
X7406786Y-12713500D01*
X7435357Y-12699214D01*
X7478214Y-12699214D01*
X7506786Y-12713500D01*
X7521071Y-12742071D01*
X7521071Y-12899214D01*
X7663928Y-12899214D02*
X7663928Y-12699214D01*
X7663928Y-12727786D02*
X7678214Y-12713500D01*
X7706786Y-12699214D01*
X7749643Y-12699214D01*
X7778214Y-12713500D01*
X7792500Y-12742071D01*
X7792500Y-12899214D01*
X7792500Y-12742071D02*
X7806786Y-12713500D01*
X7835357Y-12699214D01*
X7878214Y-12699214D01*
X7906786Y-12713500D01*
X7921071Y-12742071D01*
X7921071Y-12899214D01*
X8506786Y-12584929D02*
X8249643Y-12970643D01*
X8892500Y-12599214D02*
X8921071Y-12599214D01*
X8949643Y-12613500D01*
X8963928Y-12627786D01*
X8978214Y-12656357D01*
X8992500Y-12713500D01*
X8992500Y-12784929D01*
X8978214Y-12842071D01*
X8963928Y-12870643D01*
X8949643Y-12884929D01*
X8921071Y-12899214D01*
X8892500Y-12899214D01*
X8863928Y-12884929D01*
X8849643Y-12870643D01*
X8835357Y-12842071D01*
X8821071Y-12784929D01*
X8821071Y-12713500D01*
X8835357Y-12656357D01*
X8849643Y-12627786D01*
X8863928Y-12613500D01*
X8892500Y-12599214D01*
X9121071Y-12870643D02*
X9135357Y-12884929D01*
X9121071Y-12899214D01*
X9106786Y-12884929D01*
X9121071Y-12870643D01*
X9121071Y-12899214D01*
X9321071Y-12599214D02*
X9349643Y-12599214D01*
X9378214Y-12613500D01*
X9392500Y-12627786D01*
X9406786Y-12656357D01*
X9421071Y-12713500D01*
X9421071Y-12784929D01*
X9406786Y-12842071D01*
X9392500Y-12870643D01*
X9378214Y-12884929D01*
X9349643Y-12899214D01*
X9321071Y-12899214D01*
X9292500Y-12884929D01*
X9278214Y-12870643D01*
X9263928Y-12842071D01*
X9249643Y-12784929D01*
X9249643Y-12713500D01*
X9263928Y-12656357D01*
X9278214Y-12627786D01*
X9292500Y-12613500D01*
X9321071Y-12599214D01*
X9521071Y-12599214D02*
X9706786Y-12599214D01*
X9606786Y-12713500D01*
X9649643Y-12713500D01*
X9678214Y-12727786D01*
X9692500Y-12742071D01*
X9706786Y-12770643D01*
X9706786Y-12842071D01*
X9692500Y-12870643D01*
X9678214Y-12884929D01*
X9649643Y-12899214D01*
X9563928Y-12899214D01*
X9535357Y-12884929D01*
X9521071Y-12870643D01*
X9992500Y-12899214D02*
X9821071Y-12899214D01*
X9906786Y-12899214D02*
X9906786Y-12599214D01*
X9878214Y-12642071D01*
X9849643Y-12670643D01*
X9821071Y-12684929D01*
X10106786Y-12599214D02*
X10106786Y-12656357D01*
X10221071Y-12599214D02*
X10221071Y-12656357D01*
X10663928Y-13013500D02*
X10649643Y-12999214D01*
X10621071Y-12956357D01*
X10606786Y-12927786D01*
X10592500Y-12884929D01*
X10578214Y-12813500D01*
X10578214Y-12756357D01*
X10592500Y-12684929D01*
X10606786Y-12642071D01*
X10621071Y-12613500D01*
X10649643Y-12570643D01*
X10663928Y-12556357D01*
X10792500Y-12899214D02*
X10849643Y-12899214D01*
X10878214Y-12884929D01*
X10892500Y-12870643D01*
X10921071Y-12827786D01*
X10935357Y-12770643D01*
X10935357Y-12656357D01*
X10921071Y-12627786D01*
X10906786Y-12613500D01*
X10878214Y-12599214D01*
X10821071Y-12599214D01*
X10792500Y-12613500D01*
X10778214Y-12627786D01*
X10763928Y-12656357D01*
X10763928Y-12727786D01*
X10778214Y-12756357D01*
X10792500Y-12770643D01*
X10821071Y-12784929D01*
X10878214Y-12784929D01*
X10906786Y-12770643D01*
X10921071Y-12756357D01*
X10935357Y-12727786D01*
X11292500Y-12899214D02*
X11292500Y-12599214D01*
X11421071Y-12899214D02*
X11421071Y-12742071D01*
X11406785Y-12713500D01*
X11378214Y-12699214D01*
X11335357Y-12699214D01*
X11306785Y-12713500D01*
X11292500Y-12727786D01*
X11606785Y-12899214D02*
X11578214Y-12884929D01*
X11563928Y-12870643D01*
X11549643Y-12842071D01*
X11549643Y-12756357D01*
X11563928Y-12727786D01*
X11578214Y-12713500D01*
X11606785Y-12699214D01*
X11649643Y-12699214D01*
X11678214Y-12713500D01*
X11692500Y-12727786D01*
X11706785Y-12756357D01*
X11706785Y-12842071D01*
X11692500Y-12870643D01*
X11678214Y-12884929D01*
X11649643Y-12899214D01*
X11606785Y-12899214D01*
X11878214Y-12899214D02*
X11849643Y-12884929D01*
X11835357Y-12856357D01*
X11835357Y-12599214D01*
X12106786Y-12884929D02*
X12078214Y-12899214D01*
X12021071Y-12899214D01*
X11992500Y-12884929D01*
X11978214Y-12856357D01*
X11978214Y-12742071D01*
X11992500Y-12713500D01*
X12021071Y-12699214D01*
X12078214Y-12699214D01*
X12106786Y-12713500D01*
X12121071Y-12742071D01*
X12121071Y-12770643D01*
X11978214Y-12799214D01*
X12235357Y-12884929D02*
X12263928Y-12899214D01*
X12321071Y-12899214D01*
X12349643Y-12884929D01*
X12363928Y-12856357D01*
X12363928Y-12842071D01*
X12349643Y-12813500D01*
X12321071Y-12799214D01*
X12278214Y-12799214D01*
X12249643Y-12784929D01*
X12235357Y-12756357D01*
X12235357Y-12742071D01*
X12249643Y-12713500D01*
X12278214Y-12699214D01*
X12321071Y-12699214D01*
X12349643Y-12713500D01*
X12463928Y-13013500D02*
X12478214Y-12999214D01*
X12506786Y-12956357D01*
X12521071Y-12927786D01*
X12535357Y-12884929D01*
X12549643Y-12813500D01*
X12549643Y-12756357D01*
X12535357Y-12684929D01*
X12521071Y-12642071D01*
X12506786Y-12613500D01*
X12478214Y-12570643D01*
X12463928Y-12556357D01*
X5952495Y-13119495D02*
X5952495Y-13199505D01*
X5912490Y-13159500D02*
X5992500Y-13159500D01*
X6321071Y-12995214D02*
X6349643Y-12995214D01*
X6378214Y-13009500D01*
X6392500Y-13023786D01*
X6406786Y-13052357D01*
X6421071Y-13109500D01*
X6421071Y-13180929D01*
X6406786Y-13238071D01*
X6392500Y-13266643D01*
X6378214Y-13280929D01*
X6349643Y-13295214D01*
X6321071Y-13295214D01*
X6292500Y-13280929D01*
X6278214Y-13266643D01*
X6263928Y-13238071D01*
X6249643Y-13180929D01*
X6249643Y-13109500D01*
X6263928Y-13052357D01*
X6278214Y-13023786D01*
X6292500Y-13009500D01*
X6321071Y-12995214D01*
X6549643Y-13266643D02*
X6563928Y-13280929D01*
X6549643Y-13295214D01*
X6535357Y-13280929D01*
X6549643Y-13266643D01*
X6549643Y-13295214D01*
X6735357Y-13123786D02*
X6706786Y-13109500D01*
X6692500Y-13095214D01*
X6678214Y-13066643D01*
X6678214Y-13052357D01*
X6692500Y-13023786D01*
X6706786Y-13009500D01*
X6735357Y-12995214D01*
X6792500Y-12995214D01*
X6821071Y-13009500D01*
X6835357Y-13023786D01*
X6849643Y-13052357D01*
X6849643Y-13066643D01*
X6835357Y-13095214D01*
X6821071Y-13109500D01*
X6792500Y-13123786D01*
X6735357Y-13123786D01*
X6706786Y-13138071D01*
X6692500Y-13152357D01*
X6678214Y-13180929D01*
X6678214Y-13238071D01*
X6692500Y-13266643D01*
X6706786Y-13280929D01*
X6735357Y-13295214D01*
X6792500Y-13295214D01*
X6821071Y-13280929D01*
X6835357Y-13266643D01*
X6849643Y-13238071D01*
X6849643Y-13180929D01*
X6835357Y-13152357D01*
X6821071Y-13138071D01*
X6792500Y-13123786D01*
X7035357Y-12995214D02*
X7063928Y-12995214D01*
X7092500Y-13009500D01*
X7106786Y-13023786D01*
X7121071Y-13052357D01*
X7135357Y-13109500D01*
X7135357Y-13180929D01*
X7121071Y-13238071D01*
X7106786Y-13266643D01*
X7092500Y-13280929D01*
X7063928Y-13295214D01*
X7035357Y-13295214D01*
X7006786Y-13280929D01*
X6992500Y-13266643D01*
X6978214Y-13238071D01*
X6963928Y-13180929D01*
X6963928Y-13109500D01*
X6978214Y-13052357D01*
X6992500Y-13023786D01*
X7006786Y-13009500D01*
X7035357Y-12995214D01*
X7263928Y-13295214D02*
X7263928Y-13095214D01*
X7263928Y-13123786D02*
X7278214Y-13109500D01*
X7306786Y-13095214D01*
X7349643Y-13095214D01*
X7378214Y-13109500D01*
X7392500Y-13138071D01*
X7392500Y-13295214D01*
X7392500Y-13138071D02*
X7406786Y-13109500D01*
X7435357Y-13095214D01*
X7478214Y-13095214D01*
X7506786Y-13109500D01*
X7521071Y-13138071D01*
X7521071Y-13295214D01*
X7663928Y-13295214D02*
X7663928Y-13095214D01*
X7663928Y-13123786D02*
X7678214Y-13109500D01*
X7706786Y-13095214D01*
X7749643Y-13095214D01*
X7778214Y-13109500D01*
X7792500Y-13138071D01*
X7792500Y-13295214D01*
X7792500Y-13138071D02*
X7806786Y-13109500D01*
X7835357Y-13095214D01*
X7878214Y-13095214D01*
X7906786Y-13109500D01*
X7921071Y-13138071D01*
X7921071Y-13295214D01*
X8506786Y-12980929D02*
X8249643Y-13366643D01*
X8892500Y-12995214D02*
X8921071Y-12995214D01*
X8949643Y-13009500D01*
X8963928Y-13023786D01*
X8978214Y-13052357D01*
X8992500Y-13109500D01*
X8992500Y-13180929D01*
X8978214Y-13238071D01*
X8963928Y-13266643D01*
X8949643Y-13280929D01*
X8921071Y-13295214D01*
X8892500Y-13295214D01*
X8863928Y-13280929D01*
X8849643Y-13266643D01*
X8835357Y-13238071D01*
X8821071Y-13180929D01*
X8821071Y-13109500D01*
X8835357Y-13052357D01*
X8849643Y-13023786D01*
X8863928Y-13009500D01*
X8892500Y-12995214D01*
X9121071Y-13266643D02*
X9135357Y-13280929D01*
X9121071Y-13295214D01*
X9106786Y-13280929D01*
X9121071Y-13266643D01*
X9121071Y-13295214D01*
X9321071Y-12995214D02*
X9349643Y-12995214D01*
X9378214Y-13009500D01*
X9392500Y-13023786D01*
X9406786Y-13052357D01*
X9421071Y-13109500D01*
X9421071Y-13180929D01*
X9406786Y-13238071D01*
X9392500Y-13266643D01*
X9378214Y-13280929D01*
X9349643Y-13295214D01*
X9321071Y-13295214D01*
X9292500Y-13280929D01*
X9278214Y-13266643D01*
X9263928Y-13238071D01*
X9249643Y-13180929D01*
X9249643Y-13109500D01*
X9263928Y-13052357D01*
X9278214Y-13023786D01*
X9292500Y-13009500D01*
X9321071Y-12995214D01*
X9521071Y-12995214D02*
X9706786Y-12995214D01*
X9606786Y-13109500D01*
X9649643Y-13109500D01*
X9678214Y-13123786D01*
X9692500Y-13138071D01*
X9706786Y-13166643D01*
X9706786Y-13238071D01*
X9692500Y-13266643D01*
X9678214Y-13280929D01*
X9649643Y-13295214D01*
X9563928Y-13295214D01*
X9535357Y-13280929D01*
X9521071Y-13266643D01*
X9821071Y-13023786D02*
X9835357Y-13009500D01*
X9863928Y-12995214D01*
X9935357Y-12995214D01*
X9963928Y-13009500D01*
X9978214Y-13023786D01*
X9992500Y-13052357D01*
X9992500Y-13080929D01*
X9978214Y-13123786D01*
X9806786Y-13295214D01*
X9992500Y-13295214D01*
X10106786Y-12995214D02*
X10106786Y-13052357D01*
X10221071Y-12995214D02*
X10221071Y-13052357D01*
X10663928Y-13409500D02*
X10649643Y-13395214D01*
X10621071Y-13352357D01*
X10606786Y-13323786D01*
X10592500Y-13280929D01*
X10578214Y-13209500D01*
X10578214Y-13152357D01*
X10592500Y-13080929D01*
X10606786Y-13038071D01*
X10621071Y-13009500D01*
X10649643Y-12966643D01*
X10663928Y-12952357D01*
X10935357Y-13295214D02*
X10763928Y-13295214D01*
X10849643Y-13295214D02*
X10849643Y-12995214D01*
X10821071Y-13038071D01*
X10792500Y-13066643D01*
X10763928Y-13080929D01*
X11292500Y-13295214D02*
X11292500Y-12995214D01*
X11421071Y-13295214D02*
X11421071Y-13138071D01*
X11406785Y-13109500D01*
X11378214Y-13095214D01*
X11335357Y-13095214D01*
X11306785Y-13109500D01*
X11292500Y-13123786D01*
X11606785Y-13295214D02*
X11578214Y-13280929D01*
X11563928Y-13266643D01*
X11549643Y-13238071D01*
X11549643Y-13152357D01*
X11563928Y-13123786D01*
X11578214Y-13109500D01*
X11606785Y-13095214D01*
X11649643Y-13095214D01*
X11678214Y-13109500D01*
X11692500Y-13123786D01*
X11706785Y-13152357D01*
X11706785Y-13238071D01*
X11692500Y-13266643D01*
X11678214Y-13280929D01*
X11649643Y-13295214D01*
X11606785Y-13295214D01*
X11878214Y-13295214D02*
X11849643Y-13280929D01*
X11835357Y-13252357D01*
X11835357Y-12995214D01*
X12106786Y-13280929D02*
X12078214Y-13295214D01*
X12021071Y-13295214D01*
X11992500Y-13280929D01*
X11978214Y-13252357D01*
X11978214Y-13138071D01*
X11992500Y-13109500D01*
X12021071Y-13095214D01*
X12078214Y-13095214D01*
X12106786Y-13109500D01*
X12121071Y-13138071D01*
X12121071Y-13166643D01*
X11978214Y-13195214D01*
X12221071Y-13409500D02*
X12235357Y-13395214D01*
X12263928Y-13352357D01*
X12278214Y-13323786D01*
X12292500Y-13280929D01*
X12306786Y-13209500D01*
X12306786Y-13152357D01*
X12292500Y-13080929D01*
X12278214Y-13038071D01*
X12263928Y-13009500D01*
X12235357Y-12966643D01*
X12221071Y-12952357D01*
X5980597Y-13584237D02*
X5980597Y-13526763D01*
X5923123Y-13526763D01*
X5923123Y-13584237D01*
X5980597Y-13584237D01*
X6321071Y-13391214D02*
X6349643Y-13391214D01*
X6378214Y-13405500D01*
X6392500Y-13419786D01*
X6406786Y-13448357D01*
X6421071Y-13505500D01*
X6421071Y-13576929D01*
X6406786Y-13634071D01*
X6392500Y-13662643D01*
X6378214Y-13676929D01*
X6349643Y-13691214D01*
X6321071Y-13691214D01*
X6292500Y-13676929D01*
X6278214Y-13662643D01*
X6263928Y-13634071D01*
X6249643Y-13576929D01*
X6249643Y-13505500D01*
X6263928Y-13448357D01*
X6278214Y-13419786D01*
X6292500Y-13405500D01*
X6321071Y-13391214D01*
X6549643Y-13662643D02*
X6563928Y-13676929D01*
X6549643Y-13691214D01*
X6535357Y-13676929D01*
X6549643Y-13662643D01*
X6549643Y-13691214D01*
X6735357Y-13519786D02*
X6706786Y-13505500D01*
X6692500Y-13491214D01*
X6678214Y-13462643D01*
X6678214Y-13448357D01*
X6692500Y-13419786D01*
X6706786Y-13405500D01*
X6735357Y-13391214D01*
X6792500Y-13391214D01*
X6821071Y-13405500D01*
X6835357Y-13419786D01*
X6849643Y-13448357D01*
X6849643Y-13462643D01*
X6835357Y-13491214D01*
X6821071Y-13505500D01*
X6792500Y-13519786D01*
X6735357Y-13519786D01*
X6706786Y-13534071D01*
X6692500Y-13548357D01*
X6678214Y-13576929D01*
X6678214Y-13634071D01*
X6692500Y-13662643D01*
X6706786Y-13676929D01*
X6735357Y-13691214D01*
X6792500Y-13691214D01*
X6821071Y-13676929D01*
X6835357Y-13662643D01*
X6849643Y-13634071D01*
X6849643Y-13576929D01*
X6835357Y-13548357D01*
X6821071Y-13534071D01*
X6792500Y-13519786D01*
X7135357Y-13691214D02*
X6963928Y-13691214D01*
X7049643Y-13691214D02*
X7049643Y-13391214D01*
X7021071Y-13434071D01*
X6992500Y-13462643D01*
X6963928Y-13476929D01*
X7263928Y-13691214D02*
X7263928Y-13491214D01*
X7263928Y-13519786D02*
X7278214Y-13505500D01*
X7306786Y-13491214D01*
X7349643Y-13491214D01*
X7378214Y-13505500D01*
X7392500Y-13534071D01*
X7392500Y-13691214D01*
X7392500Y-13534071D02*
X7406786Y-13505500D01*
X7435357Y-13491214D01*
X7478214Y-13491214D01*
X7506786Y-13505500D01*
X7521071Y-13534071D01*
X7521071Y-13691214D01*
X7663928Y-13691214D02*
X7663928Y-13491214D01*
X7663928Y-13519786D02*
X7678214Y-13505500D01*
X7706786Y-13491214D01*
X7749643Y-13491214D01*
X7778214Y-13505500D01*
X7792500Y-13534071D01*
X7792500Y-13691214D01*
X7792500Y-13534071D02*
X7806786Y-13505500D01*
X7835357Y-13491214D01*
X7878214Y-13491214D01*
X7906786Y-13505500D01*
X7921071Y-13534071D01*
X7921071Y-13691214D01*
X8506786Y-13376929D02*
X8249643Y-13762643D01*
X8892500Y-13391214D02*
X8921071Y-13391214D01*
X8949643Y-13405500D01*
X8963928Y-13419786D01*
X8978214Y-13448357D01*
X8992500Y-13505500D01*
X8992500Y-13576929D01*
X8978214Y-13634071D01*
X8963928Y-13662643D01*
X8949643Y-13676929D01*
X8921071Y-13691214D01*
X8892500Y-13691214D01*
X8863928Y-13676929D01*
X8849643Y-13662643D01*
X8835357Y-13634071D01*
X8821071Y-13576929D01*
X8821071Y-13505500D01*
X8835357Y-13448357D01*
X8849643Y-13419786D01*
X8863928Y-13405500D01*
X8892500Y-13391214D01*
X9121071Y-13662643D02*
X9135357Y-13676929D01*
X9121071Y-13691214D01*
X9106786Y-13676929D01*
X9121071Y-13662643D01*
X9121071Y-13691214D01*
X9321071Y-13391214D02*
X9349643Y-13391214D01*
X9378214Y-13405500D01*
X9392500Y-13419786D01*
X9406786Y-13448357D01*
X9421071Y-13505500D01*
X9421071Y-13576929D01*
X9406786Y-13634071D01*
X9392500Y-13662643D01*
X9378214Y-13676929D01*
X9349643Y-13691214D01*
X9321071Y-13691214D01*
X9292500Y-13676929D01*
X9278214Y-13662643D01*
X9263928Y-13634071D01*
X9249643Y-13576929D01*
X9249643Y-13505500D01*
X9263928Y-13448357D01*
X9278214Y-13419786D01*
X9292500Y-13405500D01*
X9321071Y-13391214D01*
X9521071Y-13391214D02*
X9706786Y-13391214D01*
X9606786Y-13505500D01*
X9649643Y-13505500D01*
X9678214Y-13519786D01*
X9692500Y-13534071D01*
X9706786Y-13562643D01*
X9706786Y-13634071D01*
X9692500Y-13662643D01*
X9678214Y-13676929D01*
X9649643Y-13691214D01*
X9563928Y-13691214D01*
X9535357Y-13676929D01*
X9521071Y-13662643D01*
X9821071Y-13419786D02*
X9835357Y-13405500D01*
X9863928Y-13391214D01*
X9935357Y-13391214D01*
X9963928Y-13405500D01*
X9978214Y-13419786D01*
X9992500Y-13448357D01*
X9992500Y-13476929D01*
X9978214Y-13519786D01*
X9806786Y-13691214D01*
X9992500Y-13691214D01*
X10106786Y-13391214D02*
X10106786Y-13448357D01*
X10221071Y-13391214D02*
X10221071Y-13448357D01*
X10663928Y-13805500D02*
X10649643Y-13791214D01*
X10621071Y-13748357D01*
X10606786Y-13719786D01*
X10592500Y-13676929D01*
X10578214Y-13605500D01*
X10578214Y-13548357D01*
X10592500Y-13476929D01*
X10606786Y-13434071D01*
X10621071Y-13405500D01*
X10649643Y-13362643D01*
X10663928Y-13348357D01*
X10906786Y-13491214D02*
X10906786Y-13691214D01*
X10835357Y-13376929D02*
X10763928Y-13591214D01*
X10949643Y-13591214D01*
X11292500Y-13691214D02*
X11292500Y-13391214D01*
X11421071Y-13691214D02*
X11421071Y-13534071D01*
X11406785Y-13505500D01*
X11378214Y-13491214D01*
X11335357Y-13491214D01*
X11306785Y-13505500D01*
X11292500Y-13519786D01*
X11606785Y-13691214D02*
X11578214Y-13676929D01*
X11563928Y-13662643D01*
X11549643Y-13634071D01*
X11549643Y-13548357D01*
X11563928Y-13519786D01*
X11578214Y-13505500D01*
X11606785Y-13491214D01*
X11649643Y-13491214D01*
X11678214Y-13505500D01*
X11692500Y-13519786D01*
X11706785Y-13548357D01*
X11706785Y-13634071D01*
X11692500Y-13662643D01*
X11678214Y-13676929D01*
X11649643Y-13691214D01*
X11606785Y-13691214D01*
X11878214Y-13691214D02*
X11849643Y-13676929D01*
X11835357Y-13648357D01*
X11835357Y-13391214D01*
X12106786Y-13676929D02*
X12078214Y-13691214D01*
X12021071Y-13691214D01*
X11992500Y-13676929D01*
X11978214Y-13648357D01*
X11978214Y-13534071D01*
X11992500Y-13505500D01*
X12021071Y-13491214D01*
X12078214Y-13491214D01*
X12106786Y-13505500D01*
X12121071Y-13534071D01*
X12121071Y-13562643D01*
X11978214Y-13591214D01*
X12235357Y-13676929D02*
X12263928Y-13691214D01*
X12321071Y-13691214D01*
X12349643Y-13676929D01*
X12363928Y-13648357D01*
X12363928Y-13634071D01*
X12349643Y-13605500D01*
X12321071Y-13591214D01*
X12278214Y-13591214D01*
X12249643Y-13576929D01*
X12235357Y-13548357D01*
X12235357Y-13534071D01*
X12249643Y-13505500D01*
X12278214Y-13491214D01*
X12321071Y-13491214D01*
X12349643Y-13505500D01*
X12463928Y-13805500D02*
X12478214Y-13791214D01*
X12506786Y-13748357D01*
X12521071Y-13719786D01*
X12535357Y-13676929D01*
X12549643Y-13605500D01*
X12549643Y-13548357D01*
X12535357Y-13476929D01*
X12521071Y-13434071D01*
X12506786Y-13405500D01*
X12478214Y-13362643D01*
X12463928Y-13348357D01*
X5942462Y-14001538D02*
X5992500Y-13951500D01*
X5942462Y-13901462D01*
X5892424Y-13951500D01*
X5942462Y-14001538D01*
X6421071Y-14087214D02*
X6249643Y-14087214D01*
X6335357Y-14087214D02*
X6335357Y-13787214D01*
X6306786Y-13830071D01*
X6278214Y-13858643D01*
X6249643Y-13872929D01*
X6549643Y-14058643D02*
X6563928Y-14072929D01*
X6549643Y-14087214D01*
X6535357Y-14072929D01*
X6549643Y-14058643D01*
X6549643Y-14087214D01*
X6749643Y-13787214D02*
X6778214Y-13787214D01*
X6806786Y-13801500D01*
X6821071Y-13815786D01*
X6835357Y-13844357D01*
X6849643Y-13901500D01*
X6849643Y-13972929D01*
X6835357Y-14030071D01*
X6821071Y-14058643D01*
X6806786Y-14072929D01*
X6778214Y-14087214D01*
X6749643Y-14087214D01*
X6721071Y-14072929D01*
X6706786Y-14058643D01*
X6692500Y-14030071D01*
X6678214Y-13972929D01*
X6678214Y-13901500D01*
X6692500Y-13844357D01*
X6706786Y-13815786D01*
X6721071Y-13801500D01*
X6749643Y-13787214D01*
X7035357Y-13787214D02*
X7063928Y-13787214D01*
X7092500Y-13801500D01*
X7106786Y-13815786D01*
X7121071Y-13844357D01*
X7135357Y-13901500D01*
X7135357Y-13972929D01*
X7121071Y-14030071D01*
X7106786Y-14058643D01*
X7092500Y-14072929D01*
X7063928Y-14087214D01*
X7035357Y-14087214D01*
X7006786Y-14072929D01*
X6992500Y-14058643D01*
X6978214Y-14030071D01*
X6963928Y-13972929D01*
X6963928Y-13901500D01*
X6978214Y-13844357D01*
X6992500Y-13815786D01*
X7006786Y-13801500D01*
X7035357Y-13787214D01*
X7263928Y-14087214D02*
X7263928Y-13887214D01*
X7263928Y-13915786D02*
X7278214Y-13901500D01*
X7306786Y-13887214D01*
X7349643Y-13887214D01*
X7378214Y-13901500D01*
X7392500Y-13930071D01*
X7392500Y-14087214D01*
X7392500Y-13930071D02*
X7406786Y-13901500D01*
X7435357Y-13887214D01*
X7478214Y-13887214D01*
X7506786Y-13901500D01*
X7521071Y-13930071D01*
X7521071Y-14087214D01*
X7663928Y-14087214D02*
X7663928Y-13887214D01*
X7663928Y-13915786D02*
X7678214Y-13901500D01*
X7706786Y-13887214D01*
X7749643Y-13887214D01*
X7778214Y-13901500D01*
X7792500Y-13930071D01*
X7792500Y-14087214D01*
X7792500Y-13930071D02*
X7806786Y-13901500D01*
X7835357Y-13887214D01*
X7878214Y-13887214D01*
X7906786Y-13901500D01*
X7921071Y-13930071D01*
X7921071Y-14087214D01*
X8506786Y-13772929D02*
X8249643Y-14158643D01*
X8892500Y-13787214D02*
X8921071Y-13787214D01*
X8949643Y-13801500D01*
X8963928Y-13815786D01*
X8978214Y-13844357D01*
X8992500Y-13901500D01*
X8992500Y-13972929D01*
X8978214Y-14030071D01*
X8963928Y-14058643D01*
X8949643Y-14072929D01*
X8921071Y-14087214D01*
X8892500Y-14087214D01*
X8863928Y-14072929D01*
X8849643Y-14058643D01*
X8835357Y-14030071D01*
X8821071Y-13972929D01*
X8821071Y-13901500D01*
X8835357Y-13844357D01*
X8849643Y-13815786D01*
X8863928Y-13801500D01*
X8892500Y-13787214D01*
X9121071Y-14058643D02*
X9135357Y-14072929D01*
X9121071Y-14087214D01*
X9106786Y-14072929D01*
X9121071Y-14058643D01*
X9121071Y-14087214D01*
X9321071Y-13787214D02*
X9349643Y-13787214D01*
X9378214Y-13801500D01*
X9392500Y-13815786D01*
X9406786Y-13844357D01*
X9421071Y-13901500D01*
X9421071Y-13972929D01*
X9406786Y-14030071D01*
X9392500Y-14058643D01*
X9378214Y-14072929D01*
X9349643Y-14087214D01*
X9321071Y-14087214D01*
X9292500Y-14072929D01*
X9278214Y-14058643D01*
X9263928Y-14030071D01*
X9249643Y-13972929D01*
X9249643Y-13901500D01*
X9263928Y-13844357D01*
X9278214Y-13815786D01*
X9292500Y-13801500D01*
X9321071Y-13787214D01*
X9521071Y-13787214D02*
X9706786Y-13787214D01*
X9606786Y-13901500D01*
X9649643Y-13901500D01*
X9678214Y-13915786D01*
X9692500Y-13930071D01*
X9706786Y-13958643D01*
X9706786Y-14030071D01*
X9692500Y-14058643D01*
X9678214Y-14072929D01*
X9649643Y-14087214D01*
X9563928Y-14087214D01*
X9535357Y-14072929D01*
X9521071Y-14058643D01*
X9849643Y-14087214D02*
X9906786Y-14087214D01*
X9935357Y-14072929D01*
X9949643Y-14058643D01*
X9978214Y-14015786D01*
X9992500Y-13958643D01*
X9992500Y-13844357D01*
X9978214Y-13815786D01*
X9963928Y-13801500D01*
X9935357Y-13787214D01*
X9878214Y-13787214D01*
X9849643Y-13801500D01*
X9835357Y-13815786D01*
X9821071Y-13844357D01*
X9821071Y-13915786D01*
X9835357Y-13944357D01*
X9849643Y-13958643D01*
X9878214Y-13972929D01*
X9935357Y-13972929D01*
X9963928Y-13958643D01*
X9978214Y-13944357D01*
X9992500Y-13915786D01*
X10106786Y-13787214D02*
X10106786Y-13844357D01*
X10221071Y-13787214D02*
X10221071Y-13844357D01*
X10663928Y-14201500D02*
X10649643Y-14187214D01*
X10621071Y-14144357D01*
X10606786Y-14115786D01*
X10592500Y-14072929D01*
X10578214Y-14001500D01*
X10578214Y-13944357D01*
X10592500Y-13872929D01*
X10606786Y-13830071D01*
X10621071Y-13801500D01*
X10649643Y-13758643D01*
X10663928Y-13744357D01*
X10763928Y-13815786D02*
X10778214Y-13801500D01*
X10806786Y-13787214D01*
X10878214Y-13787214D01*
X10906786Y-13801500D01*
X10921071Y-13815786D01*
X10935357Y-13844357D01*
X10935357Y-13872929D01*
X10921071Y-13915786D01*
X10749643Y-14087214D01*
X10935357Y-14087214D01*
X11221071Y-14087214D02*
X11049643Y-14087214D01*
X11135357Y-14087214D02*
X11135357Y-13787214D01*
X11106786Y-13830071D01*
X11078214Y-13858643D01*
X11049643Y-13872929D01*
X11335357Y-13815786D02*
X11349643Y-13801500D01*
X11378214Y-13787214D01*
X11449643Y-13787214D01*
X11478214Y-13801500D01*
X11492500Y-13815786D01*
X11506785Y-13844357D01*
X11506785Y-13872929D01*
X11492500Y-13915786D01*
X11321071Y-14087214D01*
X11506785Y-14087214D01*
X11863928Y-14087214D02*
X11863928Y-13787214D01*
X11992500Y-14087214D02*
X11992500Y-13930071D01*
X11978214Y-13901500D01*
X11949643Y-13887214D01*
X11906785Y-13887214D01*
X11878214Y-13901500D01*
X11863928Y-13915786D01*
X12178214Y-14087214D02*
X12149643Y-14072929D01*
X12135357Y-14058643D01*
X12121071Y-14030071D01*
X12121071Y-13944357D01*
X12135357Y-13915786D01*
X12149643Y-13901500D01*
X12178214Y-13887214D01*
X12221071Y-13887214D01*
X12249643Y-13901500D01*
X12263928Y-13915786D01*
X12278214Y-13944357D01*
X12278214Y-14030071D01*
X12263928Y-14058643D01*
X12249643Y-14072929D01*
X12221071Y-14087214D01*
X12178214Y-14087214D01*
X12449643Y-14087214D02*
X12421071Y-14072929D01*
X12406786Y-14044357D01*
X12406786Y-13787214D01*
X12678214Y-14072929D02*
X12649643Y-14087214D01*
X12592500Y-14087214D01*
X12563928Y-14072929D01*
X12549643Y-14044357D01*
X12549643Y-13930071D01*
X12563928Y-13901500D01*
X12592500Y-13887214D01*
X12649643Y-13887214D01*
X12678214Y-13901500D01*
X12692500Y-13930071D01*
X12692500Y-13958643D01*
X12549643Y-13987214D01*
X12806786Y-14072929D02*
X12835357Y-14087214D01*
X12892500Y-14087214D01*
X12921071Y-14072929D01*
X12935357Y-14044357D01*
X12935357Y-14030071D01*
X12921071Y-14001500D01*
X12892500Y-13987214D01*
X12849643Y-13987214D01*
X12821071Y-13972929D01*
X12806786Y-13944357D01*
X12806786Y-13930071D01*
X12821071Y-13901500D01*
X12849643Y-13887214D01*
X12892500Y-13887214D01*
X12921071Y-13901500D01*
X13035357Y-14201500D02*
X13049643Y-14187214D01*
X13078214Y-14144357D01*
X13092500Y-14115786D01*
X13106786Y-14072929D01*
X13121071Y-14001500D01*
X13121071Y-13944357D01*
X13106786Y-13872929D01*
X13092500Y-13830071D01*
X13078214Y-13801500D01*
X13049643Y-13758643D01*
X13035357Y-13744357D01*
X5890900Y-14296700D02*
X5992500Y-14398300D01*
X5992500Y-14296700D02*
X5890900Y-14398300D01*
X5992500Y-14347500D02*
G75*
G03X5992500Y-14347500I-50800J0D01*
G01*
X6421071Y-14483214D02*
X6249643Y-14483214D01*
X6335357Y-14483214D02*
X6335357Y-14183214D01*
X6306786Y-14226071D01*
X6278214Y-14254643D01*
X6249643Y-14268929D01*
X6549643Y-14454643D02*
X6563928Y-14468929D01*
X6549643Y-14483214D01*
X6535357Y-14468929D01*
X6549643Y-14454643D01*
X6549643Y-14483214D01*
X6749643Y-14183214D02*
X6778214Y-14183214D01*
X6806786Y-14197500D01*
X6821071Y-14211786D01*
X6835357Y-14240357D01*
X6849643Y-14297500D01*
X6849643Y-14368929D01*
X6835357Y-14426071D01*
X6821071Y-14454643D01*
X6806786Y-14468929D01*
X6778214Y-14483214D01*
X6749643Y-14483214D01*
X6721071Y-14468929D01*
X6706786Y-14454643D01*
X6692500Y-14426071D01*
X6678214Y-14368929D01*
X6678214Y-14297500D01*
X6692500Y-14240357D01*
X6706786Y-14211786D01*
X6721071Y-14197500D01*
X6749643Y-14183214D01*
X6963928Y-14211786D02*
X6978214Y-14197500D01*
X7006786Y-14183214D01*
X7078214Y-14183214D01*
X7106786Y-14197500D01*
X7121071Y-14211786D01*
X7135357Y-14240357D01*
X7135357Y-14268929D01*
X7121071Y-14311786D01*
X6949643Y-14483214D01*
X7135357Y-14483214D01*
X7263928Y-14483214D02*
X7263928Y-14283214D01*
X7263928Y-14311786D02*
X7278214Y-14297500D01*
X7306786Y-14283214D01*
X7349643Y-14283214D01*
X7378214Y-14297500D01*
X7392500Y-14326071D01*
X7392500Y-14483214D01*
X7392500Y-14326071D02*
X7406786Y-14297500D01*
X7435357Y-14283214D01*
X7478214Y-14283214D01*
X7506786Y-14297500D01*
X7521071Y-14326071D01*
X7521071Y-14483214D01*
X7663928Y-14483214D02*
X7663928Y-14283214D01*
X7663928Y-14311786D02*
X7678214Y-14297500D01*
X7706786Y-14283214D01*
X7749643Y-14283214D01*
X7778214Y-14297500D01*
X7792500Y-14326071D01*
X7792500Y-14483214D01*
X7792500Y-14326071D02*
X7806786Y-14297500D01*
X7835357Y-14283214D01*
X7878214Y-14283214D01*
X7906786Y-14297500D01*
X7921071Y-14326071D01*
X7921071Y-14483214D01*
X8506786Y-14168929D02*
X8249643Y-14554643D01*
X8892500Y-14183214D02*
X8921071Y-14183214D01*
X8949643Y-14197500D01*
X8963928Y-14211786D01*
X8978214Y-14240357D01*
X8992500Y-14297500D01*
X8992500Y-14368929D01*
X8978214Y-14426071D01*
X8963928Y-14454643D01*
X8949643Y-14468929D01*
X8921071Y-14483214D01*
X8892500Y-14483214D01*
X8863928Y-14468929D01*
X8849643Y-14454643D01*
X8835357Y-14426071D01*
X8821071Y-14368929D01*
X8821071Y-14297500D01*
X8835357Y-14240357D01*
X8849643Y-14211786D01*
X8863928Y-14197500D01*
X8892500Y-14183214D01*
X9121071Y-14454643D02*
X9135357Y-14468929D01*
X9121071Y-14483214D01*
X9106786Y-14468929D01*
X9121071Y-14454643D01*
X9121071Y-14483214D01*
X9321071Y-14183214D02*
X9349643Y-14183214D01*
X9378214Y-14197500D01*
X9392500Y-14211786D01*
X9406786Y-14240357D01*
X9421071Y-14297500D01*
X9421071Y-14368929D01*
X9406786Y-14426071D01*
X9392500Y-14454643D01*
X9378214Y-14468929D01*
X9349643Y-14483214D01*
X9321071Y-14483214D01*
X9292500Y-14468929D01*
X9278214Y-14454643D01*
X9263928Y-14426071D01*
X9249643Y-14368929D01*
X9249643Y-14297500D01*
X9263928Y-14240357D01*
X9278214Y-14211786D01*
X9292500Y-14197500D01*
X9321071Y-14183214D01*
X9678214Y-14283214D02*
X9678214Y-14483214D01*
X9606786Y-14168929D02*
X9535357Y-14383214D01*
X9721071Y-14383214D01*
X9892500Y-14183214D02*
X9921071Y-14183214D01*
X9949643Y-14197500D01*
X9963928Y-14211786D01*
X9978214Y-14240357D01*
X9992500Y-14297500D01*
X9992500Y-14368929D01*
X9978214Y-14426071D01*
X9963928Y-14454643D01*
X9949643Y-14468929D01*
X9921071Y-14483214D01*
X9892500Y-14483214D01*
X9863928Y-14468929D01*
X9849643Y-14454643D01*
X9835357Y-14426071D01*
X9821071Y-14368929D01*
X9821071Y-14297500D01*
X9835357Y-14240357D01*
X9849643Y-14211786D01*
X9863928Y-14197500D01*
X9892500Y-14183214D01*
X10106786Y-14183214D02*
X10106786Y-14240357D01*
X10221071Y-14183214D02*
X10221071Y-14240357D01*
X10663928Y-14597500D02*
X10649643Y-14583214D01*
X10621071Y-14540357D01*
X10606786Y-14511786D01*
X10592500Y-14468929D01*
X10578214Y-14397500D01*
X10578214Y-14340357D01*
X10592500Y-14268929D01*
X10606786Y-14226071D01*
X10621071Y-14197500D01*
X10649643Y-14154643D01*
X10663928Y-14140357D01*
X10906786Y-14183214D02*
X10849643Y-14183214D01*
X10821071Y-14197500D01*
X10806786Y-14211786D01*
X10778214Y-14254643D01*
X10763928Y-14311786D01*
X10763928Y-14426071D01*
X10778214Y-14454643D01*
X10792500Y-14468929D01*
X10821071Y-14483214D01*
X10878214Y-14483214D01*
X10906786Y-14468929D01*
X10921071Y-14454643D01*
X10935357Y-14426071D01*
X10935357Y-14354643D01*
X10921071Y-14326071D01*
X10906786Y-14311786D01*
X10878214Y-14297500D01*
X10821071Y-14297500D01*
X10792500Y-14311786D01*
X10778214Y-14326071D01*
X10763928Y-14354643D01*
X11292500Y-14483214D02*
X11292500Y-14183214D01*
X11421071Y-14483214D02*
X11421071Y-14326071D01*
X11406785Y-14297500D01*
X11378214Y-14283214D01*
X11335357Y-14283214D01*
X11306785Y-14297500D01*
X11292500Y-14311786D01*
X11606785Y-14483214D02*
X11578214Y-14468929D01*
X11563928Y-14454643D01*
X11549643Y-14426071D01*
X11549643Y-14340357D01*
X11563928Y-14311786D01*
X11578214Y-14297500D01*
X11606785Y-14283214D01*
X11649643Y-14283214D01*
X11678214Y-14297500D01*
X11692500Y-14311786D01*
X11706785Y-14340357D01*
X11706785Y-14426071D01*
X11692500Y-14454643D01*
X11678214Y-14468929D01*
X11649643Y-14483214D01*
X11606785Y-14483214D01*
X11878214Y-14483214D02*
X11849643Y-14468929D01*
X11835357Y-14440357D01*
X11835357Y-14183214D01*
X12106786Y-14468929D02*
X12078214Y-14483214D01*
X12021071Y-14483214D01*
X11992500Y-14468929D01*
X11978214Y-14440357D01*
X11978214Y-14326071D01*
X11992500Y-14297500D01*
X12021071Y-14283214D01*
X12078214Y-14283214D01*
X12106786Y-14297500D01*
X12121071Y-14326071D01*
X12121071Y-14354643D01*
X11978214Y-14383214D01*
X12235357Y-14468929D02*
X12263928Y-14483214D01*
X12321071Y-14483214D01*
X12349643Y-14468929D01*
X12363928Y-14440357D01*
X12363928Y-14426071D01*
X12349643Y-14397500D01*
X12321071Y-14383214D01*
X12278214Y-14383214D01*
X12249643Y-14368929D01*
X12235357Y-14340357D01*
X12235357Y-14326071D01*
X12249643Y-14297500D01*
X12278214Y-14283214D01*
X12321071Y-14283214D01*
X12349643Y-14297500D01*
X12463928Y-14597500D02*
X12478214Y-14583214D01*
X12506786Y-14540357D01*
X12521071Y-14511786D01*
X12535357Y-14468929D01*
X12549643Y-14397500D01*
X12549643Y-14340357D01*
X12535357Y-14268929D01*
X12521071Y-14226071D01*
X12506786Y-14197500D01*
X12478214Y-14154643D01*
X12463928Y-14140357D01*
X5862500Y-14678500D02*
X5992500Y-14808500D01*
X5992500Y-14678500D02*
X5862500Y-14808500D01*
X5927500Y-14678500D02*
X5927500Y-14808500D01*
X5862500Y-14743500D02*
X5992500Y-14743500D01*
X6421071Y-14879214D02*
X6249643Y-14879214D01*
X6335357Y-14879214D02*
X6335357Y-14579214D01*
X6306786Y-14622071D01*
X6278214Y-14650643D01*
X6249643Y-14664929D01*
X6549643Y-14850643D02*
X6563928Y-14864929D01*
X6549643Y-14879214D01*
X6535357Y-14864929D01*
X6549643Y-14850643D01*
X6549643Y-14879214D01*
X6663928Y-14579214D02*
X6849643Y-14579214D01*
X6749643Y-14693500D01*
X6792500Y-14693500D01*
X6821071Y-14707786D01*
X6835357Y-14722071D01*
X6849643Y-14750643D01*
X6849643Y-14822071D01*
X6835357Y-14850643D01*
X6821071Y-14864929D01*
X6792500Y-14879214D01*
X6706786Y-14879214D01*
X6678214Y-14864929D01*
X6663928Y-14850643D01*
X7035357Y-14579214D02*
X7063928Y-14579214D01*
X7092500Y-14593500D01*
X7106786Y-14607786D01*
X7121071Y-14636357D01*
X7135357Y-14693500D01*
X7135357Y-14764929D01*
X7121071Y-14822071D01*
X7106786Y-14850643D01*
X7092500Y-14864929D01*
X7063928Y-14879214D01*
X7035357Y-14879214D01*
X7006786Y-14864929D01*
X6992500Y-14850643D01*
X6978214Y-14822071D01*
X6963928Y-14764929D01*
X6963928Y-14693500D01*
X6978214Y-14636357D01*
X6992500Y-14607786D01*
X7006786Y-14593500D01*
X7035357Y-14579214D01*
X7263928Y-14879214D02*
X7263928Y-14679214D01*
X7263928Y-14707786D02*
X7278214Y-14693500D01*
X7306786Y-14679214D01*
X7349643Y-14679214D01*
X7378214Y-14693500D01*
X7392500Y-14722071D01*
X7392500Y-14879214D01*
X7392500Y-14722071D02*
X7406786Y-14693500D01*
X7435357Y-14679214D01*
X7478214Y-14679214D01*
X7506786Y-14693500D01*
X7521071Y-14722071D01*
X7521071Y-14879214D01*
X7663928Y-14879214D02*
X7663928Y-14679214D01*
X7663928Y-14707786D02*
X7678214Y-14693500D01*
X7706786Y-14679214D01*
X7749643Y-14679214D01*
X7778214Y-14693500D01*
X7792500Y-14722071D01*
X7792500Y-14879214D01*
X7792500Y-14722071D02*
X7806786Y-14693500D01*
X7835357Y-14679214D01*
X7878214Y-14679214D01*
X7906786Y-14693500D01*
X7921071Y-14722071D01*
X7921071Y-14879214D01*
X8506786Y-14564929D02*
X8249643Y-14950643D01*
X8892500Y-14579214D02*
X8921071Y-14579214D01*
X8949643Y-14593500D01*
X8963928Y-14607786D01*
X8978214Y-14636357D01*
X8992500Y-14693500D01*
X8992500Y-14764929D01*
X8978214Y-14822071D01*
X8963928Y-14850643D01*
X8949643Y-14864929D01*
X8921071Y-14879214D01*
X8892500Y-14879214D01*
X8863928Y-14864929D01*
X8849643Y-14850643D01*
X8835357Y-14822071D01*
X8821071Y-14764929D01*
X8821071Y-14693500D01*
X8835357Y-14636357D01*
X8849643Y-14607786D01*
X8863928Y-14593500D01*
X8892500Y-14579214D01*
X9121071Y-14850643D02*
X9135357Y-14864929D01*
X9121071Y-14879214D01*
X9106786Y-14864929D01*
X9121071Y-14850643D01*
X9121071Y-14879214D01*
X9321071Y-14579214D02*
X9349643Y-14579214D01*
X9378214Y-14593500D01*
X9392500Y-14607786D01*
X9406786Y-14636357D01*
X9421071Y-14693500D01*
X9421071Y-14764929D01*
X9406786Y-14822071D01*
X9392500Y-14850643D01*
X9378214Y-14864929D01*
X9349643Y-14879214D01*
X9321071Y-14879214D01*
X9292500Y-14864929D01*
X9278214Y-14850643D01*
X9263928Y-14822071D01*
X9249643Y-14764929D01*
X9249643Y-14693500D01*
X9263928Y-14636357D01*
X9278214Y-14607786D01*
X9292500Y-14593500D01*
X9321071Y-14579214D01*
X9692500Y-14579214D02*
X9549643Y-14579214D01*
X9535357Y-14722071D01*
X9549643Y-14707786D01*
X9578214Y-14693500D01*
X9649643Y-14693500D01*
X9678214Y-14707786D01*
X9692500Y-14722071D01*
X9706786Y-14750643D01*
X9706786Y-14822071D01*
X9692500Y-14850643D01*
X9678214Y-14864929D01*
X9649643Y-14879214D01*
X9578214Y-14879214D01*
X9549643Y-14864929D01*
X9535357Y-14850643D01*
X9992500Y-14879214D02*
X9821071Y-14879214D01*
X9906786Y-14879214D02*
X9906786Y-14579214D01*
X9878214Y-14622071D01*
X9849643Y-14650643D01*
X9821071Y-14664929D01*
X10106786Y-14579214D02*
X10106786Y-14636357D01*
X10221071Y-14579214D02*
X10221071Y-14636357D01*
X10663928Y-14993500D02*
X10649643Y-14979214D01*
X10621071Y-14936357D01*
X10606786Y-14907786D01*
X10592500Y-14864929D01*
X10578214Y-14793500D01*
X10578214Y-14736357D01*
X10592500Y-14664929D01*
X10606786Y-14622071D01*
X10621071Y-14593500D01*
X10649643Y-14550643D01*
X10663928Y-14536357D01*
X10763928Y-14607786D02*
X10778214Y-14593500D01*
X10806786Y-14579214D01*
X10878214Y-14579214D01*
X10906786Y-14593500D01*
X10921071Y-14607786D01*
X10935357Y-14636357D01*
X10935357Y-14664929D01*
X10921071Y-14707786D01*
X10749643Y-14879214D01*
X10935357Y-14879214D01*
X11292500Y-14879214D02*
X11292500Y-14579214D01*
X11421071Y-14879214D02*
X11421071Y-14722071D01*
X11406785Y-14693500D01*
X11378214Y-14679214D01*
X11335357Y-14679214D01*
X11306785Y-14693500D01*
X11292500Y-14707786D01*
X11606785Y-14879214D02*
X11578214Y-14864929D01*
X11563928Y-14850643D01*
X11549643Y-14822071D01*
X11549643Y-14736357D01*
X11563928Y-14707786D01*
X11578214Y-14693500D01*
X11606785Y-14679214D01*
X11649643Y-14679214D01*
X11678214Y-14693500D01*
X11692500Y-14707786D01*
X11706785Y-14736357D01*
X11706785Y-14822071D01*
X11692500Y-14850643D01*
X11678214Y-14864929D01*
X11649643Y-14879214D01*
X11606785Y-14879214D01*
X11878214Y-14879214D02*
X11849643Y-14864929D01*
X11835357Y-14836357D01*
X11835357Y-14579214D01*
X12106786Y-14864929D02*
X12078214Y-14879214D01*
X12021071Y-14879214D01*
X11992500Y-14864929D01*
X11978214Y-14836357D01*
X11978214Y-14722071D01*
X11992500Y-14693500D01*
X12021071Y-14679214D01*
X12078214Y-14679214D01*
X12106786Y-14693500D01*
X12121071Y-14722071D01*
X12121071Y-14750643D01*
X11978214Y-14779214D01*
X12235357Y-14864929D02*
X12263928Y-14879214D01*
X12321071Y-14879214D01*
X12349643Y-14864929D01*
X12363928Y-14836357D01*
X12363928Y-14822071D01*
X12349643Y-14793500D01*
X12321071Y-14779214D01*
X12278214Y-14779214D01*
X12249643Y-14764929D01*
X12235357Y-14736357D01*
X12235357Y-14722071D01*
X12249643Y-14693500D01*
X12278214Y-14679214D01*
X12321071Y-14679214D01*
X12349643Y-14693500D01*
X12463928Y-14993500D02*
X12478214Y-14979214D01*
X12506786Y-14936357D01*
X12521071Y-14907786D01*
X12535357Y-14864929D01*
X12549643Y-14793500D01*
X12549643Y-14736357D01*
X12535357Y-14664929D01*
X12521071Y-14622071D01*
X12506786Y-14593500D01*
X12478214Y-14550643D01*
X12463928Y-14536357D01*
M02*
