G04 #@! TF.FileFunction,Soldermask,Bot*
%FSLAX46Y46*%
G04 Gerber Fmt 4.6, Leading zero omitted, Abs format (unit mm)*
G04 Created by KiCad (PCBNEW 4.0.2+dfsg1-stable) date Wed 08 Jun 2016 02:26:04 CEST*
%MOMM*%
G01*
G04 APERTURE LIST*
%ADD10C,0.100000*%
%ADD11R,2.300000X2.400000*%
%ADD12C,2.300000*%
%ADD13C,2.400000*%
%ADD14R,1.700000X1.700000*%
%ADD15C,1.700000*%
%ADD16R,2.127200X2.127200*%
%ADD17O,2.127200X2.127200*%
%ADD18R,2.200860X1.200100*%
%ADD19C,2.398980*%
%ADD20O,2.000000X2.000000*%
%ADD21C,1.797000*%
G04 APERTURE END LIST*
D10*
D11*
X208440000Y-102420000D03*
D12*
X210980000Y-102420000D03*
D11*
X208440000Y-94800000D03*
D12*
X210980000Y-94800000D03*
D11*
X208440000Y-87180000D03*
D12*
X210980000Y-87180000D03*
D11*
X208440000Y-79560000D03*
D12*
X210980000Y-79560000D03*
D11*
X208440000Y-71940000D03*
D12*
X210980000Y-71940000D03*
D11*
X200820000Y-102420000D03*
D12*
X203360000Y-102420000D03*
D11*
X200820000Y-94800000D03*
D12*
X203360000Y-94800000D03*
D11*
X200820000Y-87180000D03*
D12*
X203360000Y-87180000D03*
D11*
X200820000Y-79560000D03*
D12*
X203360000Y-79560000D03*
D11*
X200820000Y-71940000D03*
D12*
X203360000Y-71940000D03*
D11*
X193200000Y-102420000D03*
D12*
X195740000Y-102420000D03*
D11*
X193200000Y-94800000D03*
D12*
X195740000Y-94800000D03*
D11*
X193200000Y-87180000D03*
D12*
X195740000Y-87180000D03*
D11*
X193200000Y-79560000D03*
D12*
X195740000Y-79560000D03*
D11*
X193200000Y-71940000D03*
D12*
X195740000Y-71940000D03*
D11*
X185580000Y-102420000D03*
D12*
X188120000Y-102420000D03*
D11*
X185580000Y-94800000D03*
D12*
X188120000Y-94800000D03*
D11*
X185580000Y-87180000D03*
D12*
X188120000Y-87180000D03*
D11*
X185580000Y-79560000D03*
D12*
X188120000Y-79560000D03*
D11*
X185580000Y-71940000D03*
D12*
X188120000Y-71940000D03*
D11*
X177960000Y-102420000D03*
D12*
X180500000Y-102420000D03*
D11*
X177960000Y-94800000D03*
D12*
X180500000Y-94800000D03*
D11*
X177960000Y-87180000D03*
D12*
X180500000Y-87180000D03*
D11*
X177960000Y-79560000D03*
D12*
X180500000Y-79560000D03*
D11*
X177960000Y-71940000D03*
D12*
X180500000Y-71940000D03*
D11*
X170340000Y-102420000D03*
D12*
X172880000Y-102420000D03*
D11*
X170340000Y-94800000D03*
D12*
X172880000Y-94800000D03*
D11*
X170340000Y-87180000D03*
D12*
X172880000Y-87180000D03*
D11*
X170340000Y-79560000D03*
D12*
X172880000Y-79560000D03*
D11*
X170340000Y-71940000D03*
D12*
X172880000Y-71940000D03*
D11*
X162720000Y-102420000D03*
D12*
X165260000Y-102420000D03*
D11*
X162720000Y-94800000D03*
D12*
X165260000Y-94800000D03*
D11*
X162720000Y-87180000D03*
D12*
X165260000Y-87180000D03*
D11*
X162720000Y-79560000D03*
D12*
X165260000Y-79560000D03*
D11*
X162720000Y-71940000D03*
D12*
X165260000Y-71940000D03*
D11*
X155100000Y-102420000D03*
D12*
X157640000Y-102420000D03*
D11*
X155100000Y-94800000D03*
D12*
X157640000Y-94800000D03*
D11*
X155100000Y-87180000D03*
D12*
X157640000Y-87180000D03*
D11*
X155100000Y-79560000D03*
D12*
X157640000Y-79560000D03*
D11*
X155100000Y-71940000D03*
D12*
X157640000Y-71940000D03*
D11*
X147480000Y-102420000D03*
D12*
X150020000Y-102420000D03*
D11*
X147480000Y-94800000D03*
D12*
X150020000Y-94800000D03*
D11*
X147480000Y-87180000D03*
D12*
X150020000Y-87180000D03*
D11*
X147480000Y-79560000D03*
D12*
X150020000Y-79560000D03*
D11*
X147480000Y-71940000D03*
D12*
X150020000Y-71940000D03*
D11*
X139860000Y-102420000D03*
D12*
X142400000Y-102420000D03*
D11*
X139860000Y-94800000D03*
D12*
X142400000Y-94800000D03*
D11*
X139860000Y-87180000D03*
D12*
X142400000Y-87180000D03*
D11*
X139860000Y-79560000D03*
D12*
X142400000Y-79560000D03*
D11*
X139860000Y-71940000D03*
D12*
X142400000Y-71940000D03*
D11*
X132240000Y-102420000D03*
D12*
X134780000Y-102420000D03*
D11*
X132240000Y-94800000D03*
D12*
X134780000Y-94800000D03*
D11*
X132240000Y-87180000D03*
D12*
X134780000Y-87180000D03*
D11*
X132240000Y-79560000D03*
D12*
X134780000Y-79560000D03*
D11*
X132240000Y-71940000D03*
D12*
X134780000Y-71940000D03*
D11*
X124620000Y-102420000D03*
D12*
X127160000Y-102420000D03*
D11*
X124620000Y-94800000D03*
D12*
X127160000Y-94800000D03*
D11*
X124620000Y-87180000D03*
D12*
X127160000Y-87180000D03*
D11*
X124620000Y-79560000D03*
D12*
X127160000Y-79560000D03*
D11*
X124620000Y-71940000D03*
D12*
X127160000Y-71940000D03*
D11*
X117000000Y-102420000D03*
D12*
X119540000Y-102420000D03*
D11*
X117000000Y-94800000D03*
D12*
X119540000Y-94800000D03*
D11*
X117000000Y-87180000D03*
D12*
X119540000Y-87180000D03*
D11*
X117000000Y-79560000D03*
D12*
X119540000Y-79560000D03*
D11*
X117000000Y-71940000D03*
D12*
X119540000Y-71940000D03*
D11*
X109380000Y-102420000D03*
D12*
X111920000Y-102420000D03*
D11*
X109380000Y-94800000D03*
D12*
X111920000Y-94800000D03*
D11*
X109380000Y-87180000D03*
D12*
X111920000Y-87180000D03*
D11*
X109380000Y-79560000D03*
D12*
X111920000Y-79560000D03*
D11*
X109380000Y-71940000D03*
D12*
X111920000Y-71940000D03*
D11*
X101760000Y-102420000D03*
D12*
X104300000Y-102420000D03*
D11*
X101760000Y-94800000D03*
D12*
X104300000Y-94800000D03*
D11*
X101760000Y-87180000D03*
D12*
X104300000Y-87180000D03*
D11*
X101760000Y-79560000D03*
D12*
X104300000Y-79560000D03*
D11*
X101760000Y-71940000D03*
D12*
X104300000Y-71940000D03*
D11*
X94140000Y-102420000D03*
D12*
X96680000Y-102420000D03*
D11*
X94140000Y-94800000D03*
D12*
X96680000Y-94800000D03*
D11*
X94140000Y-87180000D03*
D12*
X96680000Y-87180000D03*
D11*
X94140000Y-79560000D03*
D12*
X96680000Y-79560000D03*
D11*
X94140000Y-71940000D03*
D12*
X96680000Y-71940000D03*
D11*
X86520000Y-102420000D03*
D12*
X89060000Y-102420000D03*
D11*
X86520000Y-94800000D03*
D12*
X89060000Y-94800000D03*
D11*
X86520000Y-87180000D03*
D12*
X89060000Y-87180000D03*
D11*
X86520000Y-79560000D03*
D12*
X89060000Y-79560000D03*
D11*
X86520000Y-71940000D03*
D12*
X89060000Y-71940000D03*
D11*
X78900000Y-102420000D03*
D12*
X81440000Y-102420000D03*
D11*
X78900000Y-94800000D03*
D12*
X81440000Y-94800000D03*
D11*
X78900000Y-87180000D03*
D12*
X81440000Y-87180000D03*
D11*
X78900000Y-79560000D03*
D12*
X81440000Y-79560000D03*
D11*
X78900000Y-71940000D03*
D12*
X81440000Y-71940000D03*
D11*
X71280000Y-102420000D03*
D12*
X73820000Y-102420000D03*
D11*
X71280000Y-94800000D03*
D12*
X73820000Y-94800000D03*
D11*
X71280000Y-87180000D03*
D12*
X73820000Y-87180000D03*
D11*
X71280000Y-79560000D03*
D12*
X73820000Y-79560000D03*
D11*
X71280000Y-71940000D03*
D12*
X73820000Y-71940000D03*
D11*
X63660000Y-102420000D03*
D12*
X66200000Y-102420000D03*
D11*
X63660000Y-94800000D03*
D12*
X66200000Y-94800000D03*
D11*
X63660000Y-87180000D03*
D12*
X66200000Y-87180000D03*
D11*
X63660000Y-79560000D03*
D12*
X66200000Y-79560000D03*
D13*
X237250000Y-73500000D03*
X217250000Y-73500000D03*
D14*
X236200000Y-86900000D03*
D15*
X233700000Y-86900000D03*
D11*
X63660000Y-71940000D03*
D12*
X66200000Y-71940000D03*
D16*
X235300000Y-107660000D03*
D17*
X235300000Y-110200000D03*
X232760000Y-107660000D03*
X232760000Y-110200000D03*
X230220000Y-107660000D03*
X230220000Y-110200000D03*
D18*
X83600000Y-107100000D03*
X83600000Y-109000000D03*
X80597720Y-108050000D03*
X114300000Y-107700000D03*
X114300000Y-109600000D03*
X111297720Y-108650000D03*
X144701140Y-108350000D03*
X144701140Y-110250000D03*
X141698860Y-109300000D03*
X175201140Y-109050000D03*
X175201140Y-110950000D03*
X172198860Y-110000000D03*
X205401140Y-109750000D03*
X205401140Y-111650000D03*
X202398860Y-110700000D03*
D19*
X71280000Y-64320000D03*
X81440000Y-64320000D03*
X101760000Y-64320000D03*
X111920000Y-64320000D03*
X132240000Y-64320000D03*
X142400000Y-64320000D03*
X162720000Y-64320000D03*
X172880000Y-64320000D03*
X193200000Y-64320000D03*
X203360000Y-64320000D03*
X215100000Y-85400000D03*
X215100000Y-95560000D03*
D20*
X228900000Y-92160000D03*
X228900000Y-94700000D03*
X228900000Y-97240000D03*
X228900000Y-99780000D03*
X236520000Y-99780000D03*
X236520000Y-97240000D03*
X236520000Y-94700000D03*
X236520000Y-92160000D03*
D21*
X218890000Y-92040000D03*
X218890000Y-86960000D03*
X226510000Y-92040000D03*
X226510000Y-86960000D03*
M02*
